<?xml version="1.0" encoding="UTF-8"?>
<svg id="Layer_2" data-name="Layer 2" xmlns="http://www.w3.org/2000/svg" viewBox="0 0 79.98 88">
  <defs>
    <style>
      .cls-1 {
        fill: #fff;
      }
    </style>
  </defs>
  <g id="Layer_1-2" data-name="Layer 1">
    <path class="cls-1" d="m78.92,22c-3.1-5.37-12.47-6.27-24.19-3.24-.53-1.86-1.12-3.63-1.77-5.26,1.25-1.1,2.03-2.7,2.03-4.5,0-3.31-2.69-6-6-6-.73,0-1.43.14-2.08.38-2.13-2.17-4.47-3.38-6.92-3.38-5.69,0-10.77,6.47-14.06,16.55-11.65-2.98-20.95-2.07-24.04,3.28-3.21,5.56,1.1,14.55,10.22,23.5-1.55,1.57-2.95,3.14-4.19,4.69-1.58-.53-3.36-.41-4.91.49-2.87,1.65-3.85,5.32-2.19,8.19.37.63.83,1.17,1.36,1.61-.82,2.93-.69,5.56.54,7.68,2.96,5.13,11.66,6.18,22.65,3.62,3.27,11.12,8.6,18.38,14.63,18.38,6.42,0,12.06-8.23,15.24-20.6,1.62.38,3.19.69,4.69.91.33,1.63,1.32,3.11,2.88,4.01,2.87,1.65,6.54.68,8.19-2.2.36-.63.6-1.31.71-1.99,2.95-.76,5.16-2.18,6.39-4.31,2.85-4.93-.22-12.56-7.31-20.46,7.68-8.22,11.09-16.25,8.14-21.37Zm-2.6,1.5c2.08,3.6-.71,10.32-7.57,17.7-3.22-3.27-7.1-6.54-11.49-9.66-.43-3.51-1.02-6.83-1.77-9.91,10.69-2.77,18.64-1.93,20.83,1.87Zm-28.01,33.49c-1.89,1.09-3.76,2.09-5.6,3.02-3.3-1.44-6.73-3.16-10.23-5.18-2.6-1.5-5.04-3.06-7.32-4.63-.12-2.01-.18-4.07-.18-6.2,0-2.72.1-5.33.29-7.85,2.48-1.75,5.15-3.47,8.03-5.14,3.18-1.84,6.31-3.43,9.34-4.79,1.6.81,3.21,1.69,4.84,2.63,2.46,1.42,4.78,2.89,6.95,4.38.36,3.39.55,6.99.55,10.78,0,3.15-.14,6.18-.39,9.06-1.98,1.33-4.07,2.65-6.29,3.93Zm5.88-.08c-.31,2.41-.7,4.69-1.16,6.84-2.14-.61-4.37-1.36-6.69-2.26,1.15-.61,2.31-1.25,3.47-1.91,1.5-.87,2.96-1.76,4.38-2.67Zm-15.01,4.77c-4.13,1.87-8.07,3.3-11.72,4.33-.89-3.6-1.57-7.63-1.99-12.01,1.77,1.17,3.61,2.31,5.52,3.42,2.74,1.58,5.48,3,8.19,4.26Zm-17.11-13.74c-2.05-1.54-3.94-3.1-5.66-4.65,1.73-1.61,3.65-3.22,5.73-4.83-.09,1.81-.15,3.66-.15,5.53,0,1.33.03,2.65.08,3.95Zm3.58-15.69c.51-4.43,1.29-8.48,2.28-12.06,3.53,1.07,7.32,2.5,11.26,4.33-2.44,1.17-4.91,2.46-7.38,3.88-2.14,1.24-4.2,2.53-6.17,3.85Zm20.57-7.55c2.21-.88,4.35-1.64,6.41-2.27.51,2.14.95,4.43,1.31,6.85-1.6-1.04-3.24-2.06-4.95-3.04-.92-.54-1.85-1.04-2.77-1.54Zm11.44,10.82c3.47,2.59,6.48,5.23,9.02,7.8-2.54,2.48-5.51,5.01-8.9,7.5.14-2.22.21-4.51.21-6.83,0-2.9-.12-5.73-.34-8.47Zm-8.66-29.53c1.65,0,3,1.35,3,3s-1.35,3-3,3-3-1.35-3-3,1.35-3,3-3Zm-9-3c1.47,0,2.98.73,4.44,2.1-.9,1.05-1.44,2.41-1.44,3.9,0,3.31,2.69,6,6,6,.45,0,.89-.05,1.32-.15.56,1.45,1.08,3.03,1.56,4.71-2.94.89-6,2.01-9.12,3.35-4.81-2.37-9.53-4.23-13.97-5.56,2.95-9,7.21-14.35,11.21-14.35ZM4.48,21.33c2.18-3.77,10.01-4.63,20.58-1.93-1.25,4.51-2.16,9.63-2.65,15.13-3,2.19-5.74,4.46-8.18,6.74C5.8,33.03,2.2,25.29,4.48,21.33Zm-1.08,33.87c-.83-1.43-.33-3.27,1.1-4.1,1.43-.83,3.27-.33,4.1,1.1s.33,3.27-1.1,4.1c-1.43.83-3.27.33-4.1-1.1Zm1.9,9.29c-.74-1.28-.85-2.95-.4-4.9,1.36.25,2.81.05,4.1-.7,2.87-1.66,3.85-5.32,2.2-8.19-.23-.39-.49-.75-.79-1.06,1.12-1.4,2.42-2.82,3.85-4.27,2.41,2.18,5.09,4.35,8.02,6.44.4,5.39,1.19,10.43,2.3,14.95-9.9,2.3-17.19,1.36-19.28-2.26Zm34.68,20.5c-4.25,0-8.8-6.06-11.76-16.12,4.6-1.29,9.54-3.16,14.57-5.59,3.28,1.37,6.49,2.49,9.55,3.36-2.92,11.39-7.81,18.35-12.37,18.35Zm28.41-16.37c-.83,1.43-2.67,1.93-4.1,1.1-1.43-.83-1.93-2.67-1.1-4.1s2.67-1.93,4.1-1.1c1.43.83,1.92,2.66,1.1,4.1Zm7.1-6.29c-.74,1.27-2.13,2.21-4.04,2.8-.46-1.3-1.36-2.46-2.65-3.2-2.87-1.66-6.54-.68-8.2,2.19-.23.39-.4.8-.53,1.21-1.32-.21-2.72-.49-4.16-.83.66-3.06,1.18-6.34,1.53-9.77,4.27-2.98,8.06-6.11,11.26-9.25,6.29,7.04,8.78,13.39,6.79,16.84Z"/>
  </g>
</svg>