<?xml version="1.0" encoding="UTF-8"?>
<svg id="Layer_2" data-name="Layer 2" xmlns="http://www.w3.org/2000/svg" viewBox="0 0 79.15 90">
  <defs>
    <style>
      .cls-1 {
        fill: #0986bf;
      }
    </style>
  </defs>
  <g id="Layer_1-2" data-name="Layer 1">
    <g>
      <path class="cls-1" d="m64.19,38.91c-1.06-11.82-10.8-21.36-22.65-22.17-1.16-.08-2.3-.08-3.47,0-11.85.82-21.59,10.35-22.65,22.17-.68,7.64,2.14,15.01,7.73,20.2,3.01,2.79,4.73,6.7,4.73,10.73v9.52c0,3.06,2.31,5.6,5.27,5.96.92,2.47,3.46,4.68,6.64,4.68s5.73-2.2,6.64-4.68c2.97-.36,5.27-2.9,5.27-5.96v-9.52c0-4.03,1.73-7.94,4.73-10.73,5.6-5.19,8.42-12.56,7.74-20.2Zm-16.47,32.43v1.51h-15.83v-1.51h15.83Zm-12.54-25.08h-1.96c-1.08,0-1.96-.88-1.96-1.96s.88-1.96,1.96-1.96,1.96.88,1.96,1.96v1.96Zm3,3h3.24v19.08h-3.24v-19.08Zm-6.3,28.1v-1.51h15.83v1.51h-15.83Zm7.92,8.64c-1.15,0-2.14-.76-2.64-1.57h5.29c-.51.81-1.49,1.57-2.64,1.57Zm5.91-4.63h-.9c-.16,0-.31.02-.45.06h-9.11c-.15-.03-.3-.06-.45-.06h-.9c-.74,0-1.38-.41-1.73-1.01h15.28c-.35.6-.99,1.01-1.73,1.01Zm8.02-25.19c-3.45,3.2-5.55,7.57-5.93,12.16h-3.38v-19.08h1.96c2.73,0,4.96-2.22,4.96-4.96s-2.22-4.96-4.96-4.96-4.96,2.22-4.96,4.96v1.96h-3.24v-1.96c0-2.74-2.22-4.96-4.96-4.96s-4.96,2.22-4.96,4.96,2.22,4.96,4.96,4.96h1.96v19.08h-3.38c-.38-4.6-2.49-8.97-5.93-12.16-4.69-4.35-7.05-10.51-6.47-16.91.89-9.89,9.03-17.86,18.94-18.54.49-.03.98-.04,1.46-.04s.97.01,1.46.04c9.91.68,18.06,8.65,18.94,18.54.57,6.4-1.79,12.57-6.47,16.91Zm-9.31-9.92v-1.96c0-1.08.88-1.96,1.96-1.96s1.96.88,1.96,1.96-.88,1.96-1.96,1.96h-1.96Z"/>
      <path class="cls-1" d="m39.8,10.12c.87,0,1.59-.71,1.59-1.59V1.59c0-.87-.71-1.59-1.59-1.59s-1.59.71-1.59,1.59v6.95c0,.87.71,1.59,1.59,1.59Z"/>
      <path class="cls-1" d="m64.13,8.05c-.71-.51-1.7-.35-2.21.35l-4.08,5.62c-.51.71-.36,1.7.35,2.22s1.7.35,2.21-.35l4.08-5.62c.51-.7.36-1.7-.35-2.22Z"/>
      <path class="cls-1" d="m71.44,33.01l6.61-2.15c.83-.27,1.29-1.17,1.02-2-.27-.83-1.17-1.29-2-1.02l-6.61,2.15c-.83.27-1.29,1.17-1.02,2,.27.83,1.17,1.29,2,1.02Z"/>
      <path class="cls-1" d="m77.91,52.48l-6.61-2.15c-.83-.27-1.73.19-2,1.02-.27.83.19,1.73,1.02,2l6.61,2.15c.83.27,1.73-.19,2-1.02.27-.83-.19-1.73-1.02-2Z"/>
      <path class="cls-1" d="m60.02,67.29c-.51-.71-1.51-.86-2.21-.35-.71.51-.86,1.51-.35,2.21l4.08,5.62c.51.71,1.51.86,2.21.35.71-.51.86-1.51.35-2.21l-4.08-5.62Z"/>
      <path class="cls-1" d="m20.97,66.67c-.71-.51-1.7-.36-2.22.35l-4.08,5.62c-.51.71-.35,1.7.35,2.21.71.51,1.7.36,2.22-.35l4.08-5.62c.51-.71.35-1.7-.35-2.21Z"/>
      <path class="cls-1" d="m9.7,50.92c-.27-.83-1.17-1.29-2-1.02l-6.61,2.15c-.83.27-1.29,1.17-1.02,2,.27.83,1.17,1.29,2,1.02l6.61-2.15c.83-.27,1.29-1.17,1.02-2h0Z"/>
      <path class="cls-1" d="m8.83,29.55l-6.61-2.15c-.83-.27-1.73.19-2,1.02-.27.83.19,1.73,1.02,2l6.61,2.15c.83.27,1.73-.19,2-1.02.27-.83-.19-1.73-1.02-2Z"/>
      <path class="cls-1" d="m19.13,15.62c.51.7,1.51.86,2.22.35.71-.51.86-1.51.35-2.22l-4.08-5.62c-.51-.71-1.51-.86-2.22-.35-.71.51-.86,1.51-.35,2.22l4.08,5.62Z"/>
    </g>
  </g>
</svg>