<?xml version="1.0" encoding="utf-8"?>
<!-- Generator: Adobe Illustrator 27.2.0, SVG Export Plug-In . SVG Version: 6.00 Build 0)  -->
<svg version="1.1" id="Layer_1" xmlns="http://www.w3.org/2000/svg" xmlns:xlink="http://www.w3.org/1999/xlink" x="0px" y="0px"
	 viewBox="0 0 64 54.4" style="enable-background:new 0 0 64 54.4;" xml:space="preserve">
<style type="text/css">
	.st0{fill-rule:evenodd;clip-rule:evenodd;fill:#FFFFFF;}
</style>
<path class="st0" d="M52.3,10.1c-10.2,5.4-38.5,5.4-48.7,0C5,22.8,8.8,40.7,27.9,40.7C47.1,40.7,50.8,22.8,52.3,10.1L52.3,10.1z
	 M45.2,38.4c9.2,2.5,17,7.9,3.1,12.9c-11.2,4-29.6,4-40.8,0c-6.3-2.3-10.4-5.6-5.1-9.4c3.5-2.5,7.9-3.2,8.7-3.7
	c1.1,1,2.3,1.9,3.6,2.6c-3.3,1.3-3.7,4.7,3.2,5.9c5.6,1,14.5,1,20.1,0c6.9-1.2,6.5-4.6,3.2-5.9c1.3-0.8,2.5-1.6,3.6-2.6
	C44.9,38.3,45,38.4,45.2,38.4L45.2,38.4z M52.2,6.3c-1,0.8-3.1,1.6-5.9,2.4c-10.1,2.7-26.6,2.7-36.7,0C1.1,6.5,0.7,4.4,9.6,2
	c10.1-2.7,26.6-2.7,36.7,0c3.5,0.9,5.9,2,6.4,3C52.3,5.3,52.1,5.8,52.2,6.3L52.2,6.3z M53,24.2c9.9-2.7,13.3-13.7,9.5-16.7
	c-1.3-1-3.4-1.3-6.5-0.3C55.5,12.2,54.8,18.4,53,24.2z"/>
</svg>
