<?xml version="1.0" encoding="utf-8"?>
<!-- Generator: Adobe Illustrator 27.2.0, SVG Export Plug-In . SVG Version: 6.00 Build 0)  -->
<svg version="1.1" id="Layer_1" xmlns="http://www.w3.org/2000/svg" xmlns:xlink="http://www.w3.org/1999/xlink" x="0px" y="0px"
	 viewBox="0 0 647 556.1" style="enable-background:new 0 0 647 556.1;" xml:space="preserve">
<style type="text/css">
	.st0{fill-rule:evenodd;clip-rule:evenodd;fill:#58A5F7;}
	.st1{fill-rule:evenodd;clip-rule:evenodd;fill:#FA9C4B;}
	.st2{filter:url(#Adobe_OpacityMaskFilter);}
	.st3{fill:url(#SVGID_00000029044079946832869860000008523821861615332232_);}
	.st4{mask:url(#SVGID_1_);fill-rule:evenodd;clip-rule:evenodd;fill:#F05818;}
	.st5{filter:url(#Adobe_OpacityMaskFilter_00000160151734500268195220000011272402686551208839_);}
	.st6{fill:url(#SVGID_00000067930207237962954760000001767201575162219710_);}
	.st7{mask:url(#SVGID_00000147194753624058362070000001131432217664656002_);fill-rule:evenodd;clip-rule:evenodd;fill:#F05818;}
	.st8{filter:url(#Adobe_OpacityMaskFilter_00000112615268457680477640000002078284218517271211_);}
	.st9{fill:url(#SVGID_00000084499525121584590560000008356347451211311779_);}
	.st10{mask:url(#SVGID_00000173867096934576071980000003896123291147566525_);fill-rule:evenodd;clip-rule:evenodd;fill:#F05818;}
	.st11{fill-rule:evenodd;clip-rule:evenodd;fill:#FFAB57;}
	.st12{filter:url(#Adobe_OpacityMaskFilter_00000088134010389015942060000009848146517231979397_);}
	.st13{fill:url(#SVGID_00000009567643737443774050000000637237151582046910_);}
	.st14{mask:url(#SVGID_00000126320429373750530520000017491689088273513119_);fill-rule:evenodd;clip-rule:evenodd;fill:#F05818;}
	.st15{filter:url(#Adobe_OpacityMaskFilter_00000129174910169916416790000005712515120572582582_);}
	.st16{fill:url(#SVGID_00000108992023761635148070000006714034586798871993_);}
	.st17{mask:url(#SVGID_00000145752701864693533750000010902495366549879175_);fill-rule:evenodd;clip-rule:evenodd;fill:#F05818;}
	.st18{filter:url(#Adobe_OpacityMaskFilter_00000121968536225719000300000003906169677695499415_);}
	.st19{fill:url(#SVGID_00000025431376155028537660000009689174808084950912_);}
	.st20{mask:url(#SVGID_00000132780933393327365270000005234170599749019014_);fill-rule:evenodd;clip-rule:evenodd;fill:#EB491D;}
	.st21{fill:#EB491D;}
	.st22{fill-rule:evenodd;clip-rule:evenodd;fill:#FFFFFF;}
	.st23{fill-rule:evenodd;clip-rule:evenodd;fill:#151F2B;}
	.st24{fill-rule:evenodd;clip-rule:evenodd;fill:#0986BF;}
	.st25{fill-rule:evenodd;clip-rule:evenodd;fill:#1E3050;}
	.st26{fill-rule:evenodd;clip-rule:evenodd;fill:#45F063;}
	.st27{fill-rule:evenodd;clip-rule:evenodd;fill:#7ED4DB;}
	.st28{fill-rule:evenodd;clip-rule:evenodd;fill:#B7B2D6;}
	.st29{fill-rule:evenodd;clip-rule:evenodd;fill:#D1CCED;}
	.st30{fill-rule:evenodd;clip-rule:evenodd;fill:#FFE3BA;}
	.st31{fill-rule:evenodd;clip-rule:evenodd;fill:#E1DBFF;}
	.st32{fill:#E1DBFF;}
</style>
<g>
	<path class="st0" d="M269.5,99.4c19.4,0,38.2,2.7,56,7.7c25.3-38.4,68.7-63.8,118.1-63.8c78,0,141.3,63.2,141.3,141.3
		c0,67-46.7,123.1-109.3,137.6c-2.8,36.2-14.9,69.8-34,98.4c-0.4-0.1-0.8-0.1-1.3-0.1h-0.7c-1.2,0-2.4,0.2-3.6,0.8l-0.4,0.2
		c-0.8,0.4-1.5,0.9-2.2,1.5l-0.2,0.2l-0.6,0.4c-0.9,0.5-1.6,1.2-2.2,2l-0.9,1.1h0c0,0-0.1,0.1-0.1,0.1l-1.1,1.5l-1.8,1.8
		c-0.4,0.4-0.8,0.9-1.1,1.4l-0.2,0.2c-0.6,0.6-1.2,1.3-1.6,2.1l-0.2,0.5c-0.2,0.4-0.4,0.9-0.5,1.3c-0.6,0.4-1.1,0.9-1.5,1.4
		l-0.9,1.1c-0.7,0.7-1.3,1.3-1.9,2l0.2-0.2c-0.7,0.5-1.2,1-1.8,1.6l-0.1,0.1c-0.9,0.6-1.7,1.3-2.3,2.2l-0.1,0.2
		c-0.7,0.7-1.3,1.3-1.9,2.1l-0.5,0.7c-0.1,0.1-0.1,0.2-0.2,0.3l-0.2,0.1c-0.8,0.5-1.5,1.2-2.1,2c-0.7,0.5-1.2,1-1.7,1.7
		c-0.3,0.3-0.7,0.5-0.9,0.8l-0.5,0.5c-0.4,0.3-0.8,0.6-1.2,0.9c-0.8,0.4-1.5,0.9-2.1,1.5l-1.7,1.7c-0.5,0.3-1,0.6-1.5,1l-1.4,1.2
		l-0.4,0.3c-0.7,0.4-1.3,1-1.8,1.6c-0.8,0.5-1.5,1.1-2.1,1.8c-0.4,0.3-0.7,0.6-1,1c-0.8,0.3-1.5,0.6-2.2,1.2l-0.6,0.4
		c-0.4,0.2-0.8,0.4-1.1,0.7l-0.6,0.4c-0.7,0.4-1.5,0.7-2.2,1.1c0,0-0.1,0-0.1,0.1c-0.7,0.2-1.5,0.5-2.2,1l-0.9,0.6l-0.6,0.4
		c-0.5,0.2-1,0.5-1.4,0.8l-0.5,0.3c-0.1,0-0.2,0.1-0.3,0.1c-1.1,0.3-2.1,0.9-3,1.7c-0.8,0.3-1.6,0.8-2.3,1.4
		c-0.2,0.1-0.4,0.3-0.7,0.5c-0.3,0.2-0.6,0.3-0.8,0.5c-0.1,0.1-0.2,0.1-0.3,0.2c-0.9,0.3-1.8,0.7-2.6,1.3c-0.3,0.2-0.6,0.3-0.8,0.5
		c-0.7,0.3-1.4,0.8-2,1.3c-0.4,0.2-0.8,0.5-1.2,0.9c-0.2,0.1-0.4,0.3-0.7,0.5c-0.6,0.3-1.1,0.8-1.6,1.2l-0.5,0.5l0.4-0.2
		c-0.7,0.4-1.3,0.8-1.9,1.4l-0.9,0.9c-0.5,0.3-1,0.7-1.4,1.1l-0.8,0.8l-0.1,0.1c-0.9,0.4-1.7,1-2.3,1.8c-0.7,0.7-1.3,1.5-1.8,2.4
		c-1.2,1.4-1.9,3.2-1.9,5.1c0,0.2,0,0.4,0,0.6c-25.7,11.5-54.2,17.9-84.2,17.9c-30.8,0-59.9-6.7-86.2-18.8c0.6-3.6-1.4-7.2-4.9-8.6
		c-0.5-0.4-1-0.7-1.5-1c-1.2-1-2.6-1.6-4-1.7c-0.4-0.1-0.7-0.2-1.1-0.3c-0.3-0.2-0.6-0.4-1-0.5c-0.7-0.4-1.4-0.7-2.2-0.9
		c-0.3-0.1-0.7-0.3-1-0.4c-0.7-0.7-1.5-1.2-2.3-1.5c-0.6-0.3-1.2-0.6-1.8-0.8c-0.5-0.5-1.1-0.9-1.7-1.2c-0.9-0.7-1.9-1.2-2.9-1.5
		c-0.3-0.3-0.7-0.5-1.1-0.7l-0.5-0.5c-0.8-0.8-1.7-1.4-2.6-1.7c-0.6-0.6-1.2-1.1-2-1.5l0.1,0l-0.5-0.5l-1-1.4
		c-0.9-1.2-2.1-2.1-3.4-2.6c-0.5-0.4-1-0.7-1.5-1.1l-0.9-0.9c-0.6-0.7-1.1-1.6-1.8-2.2c-1-1-1.9-1.9-2.9-2.9l-1.6-1.9
		c-0.6-0.7-1.3-1.3-2.1-1.8l-2.1-1.2c-0.4-0.6-0.7-1.2-1.2-1.7l-1.3-1.8c-0.5-0.7-1.2-1.3-1.8-1.9c-1.1-1.4-2.2-2.8-3.3-4.1
		c-0.2-0.2-0.4-0.4-0.6-0.6l-1.8-1.8c-3-3-7.9-3-10.9-0.1c-32.1-36.4-51.6-84.2-51.6-136.6C62.8,191.9,155.3,99.4,269.5,99.4"/>
	<path class="st1" d="M327.8,247.1c0,17.9,0,26.9,0,26.9c6.6-5.3,19.6-14.7,24.3-21.7c3.8-5.7,4-10.4,1-12.4
		C347.7,236.4,334.5,244.1,327.8,247.1"/>
	<defs>
		<filter id="Adobe_OpacityMaskFilter" filterUnits="userSpaceOnUse" x="338" y="241.1" width="6.2" height="24">
			<feColorMatrix  type="matrix" values="1 0 0 0 0  0 1 0 0 0  0 0 1 0 0  0 0 0 1 0"/>
		</filter>
	</defs>
	<mask maskUnits="userSpaceOnUse" x="338" y="241.1" width="6.2" height="24" id="SVGID_1_">
		<g class="st2">
			
				<linearGradient id="SVGID_00000022541314707085416450000006780886458280245646_" gradientUnits="userSpaceOnUse" x1="-265.0552" y1="659.3982" x2="-283.3354" y2="674.3049" gradientTransform="matrix(1 0 0 1 619.4217 -417.1578)">
				<stop  offset="0" style="stop-color:#000000"/>
				<stop  offset="1" style="stop-color:#FFFFFF"/>
			</linearGradient>
			
				<rect x="338" y="241.1" style="fill:url(#SVGID_00000022541314707085416450000006780886458280245646_);" width="6.2" height="24"/>
		</g>
	</mask>
	<path class="st4" d="M338,243.4c0.3,14.4,0.5,21.7,0.5,21.7c2-1.5,3.9-3.1,5.8-4.7c0,0-0.3-6.4-0.8-19.3
		C341.6,241.8,339.7,242.6,338,243.4"/>
	<path class="st1" d="M327.8,276c0,17.9,0,26.9,0,26.9c6.6-5.3,19.6-14.7,24.3-21.7c3.8-5.7,4-10.4,1-12.4
		C347.7,265.3,334.5,273,327.8,276"/>
	<path class="st1" d="M328.9,225.9c0,17.9,0,26.9,0,26.9c6.6-5.3,19.6-14.7,24.3-21.7c3.8-5.7,4-10.4,1-12.4
		C348.8,215.2,335.5,222.9,328.9,225.9"/>
	<defs>
		
			<filter id="Adobe_OpacityMaskFilter_00000106854398209968835480000006506712127458220462_" filterUnits="userSpaceOnUse" x="324.4" y="270.9" width="8.4" height="23.5">
			<feColorMatrix  type="matrix" values="1 0 0 0 0  0 1 0 0 0  0 0 1 0 0  0 0 0 1 0"/>
		</filter>
	</defs>
	
		<mask maskUnits="userSpaceOnUse" x="324.4" y="270.9" width="8.4" height="23.5" id="SVGID_00000058553487264161168540000018097196044462817426_">
		<g style="filter:url(#Adobe_OpacityMaskFilter_00000106854398209968835480000006506712127458220462_);">
			
				<linearGradient id="SVGID_00000041260336040549640220000011048020979843817113_" gradientUnits="userSpaceOnUse" x1="-265.2103" y1="658.2223" x2="-283.4138" y2="678.5726" gradientTransform="matrix(1 0 0 1 607.0516 -390.3174)">
				<stop  offset="0" style="stop-color:#000000"/>
				<stop  offset="1" style="stop-color:#FFFFFF"/>
			</linearGradient>
			
				<rect x="324.4" y="270.9" style="fill:url(#SVGID_00000041260336040549640220000011048020979843817113_);" width="8.4" height="23.5"/>
		</g>
	</mask>
	
		<path style="mask:url(#SVGID_00000058553487264161168540000018097196044462817426_);fill-rule:evenodd;clip-rule:evenodd;fill:#F05818;" d="
		M324.4,273.8c0.4,13.7,0.7,20.6,0.7,20.6c2.6-1.7,5.2-3.5,7.8-5.3c0,0-0.4-6.1-1.1-18.3C329.3,271.8,326.8,272.8,324.4,273.8"/>
	<defs>
		
			<filter id="Adobe_OpacityMaskFilter_00000011739060969068979300000013253075936577592203_" filterUnits="userSpaceOnUse" x="337.1" y="221.3" width="6.2" height="22.9">
			<feColorMatrix  type="matrix" values="1 0 0 0 0  0 1 0 0 0  0 0 1 0 0  0 0 0 1 0"/>
		</filter>
	</defs>
	
		<mask maskUnits="userSpaceOnUse" x="337.1" y="221.3" width="6.2" height="22.9" id="SVGID_00000167387009040297167480000014930850652717636230_">
		<g style="filter:url(#Adobe_OpacityMaskFilter_00000011739060969068979300000013253075936577592203_);">
			
				<linearGradient id="SVGID_00000137115011406310253340000008914495421219527615_" gradientUnits="userSpaceOnUse" x1="-265.6305" y1="658.0354" x2="-283.2097" y2="673.0626" gradientTransform="matrix(1 0 0 1 618.6821 -436.2483)">
				<stop  offset="0" style="stop-color:#000000"/>
				<stop  offset="1" style="stop-color:#FFFFFF"/>
			</linearGradient>
			
				<rect x="337.1" y="221.3" style="fill:url(#SVGID_00000137115011406310253340000008914495421219527615_);" width="6.2" height="22.9"/>
		</g>
	</mask>
	
		<path style="mask:url(#SVGID_00000167387009040297167480000014930850652717636230_);fill-rule:evenodd;clip-rule:evenodd;fill:#F05818;" d="
		M337.1,223.5c0.3,13.8,0.5,20.7,0.5,20.7c2-1.5,3.9-3,5.8-4.5c0,0-0.3-6.1-0.8-18.4C340.7,221.9,338.9,222.7,337.1,223.5"/>
	<path class="st1" d="M329.6,190.8c0,17.9,0,26.9,0,26.9c6.6-5.3,19.6-14.7,24.3-21.7c3.8-5.7,4-10.4,1-12.4
		C349.4,180.1,336.2,187.8,329.6,190.8"/>
	<path class="st11" d="M229.6,248.4c20.7,38.3,58.2,78,76.1,112.1c-17.1,18.7-60.2,58.9-71.5,67.1c-3.5,2.5-7,3.8-10.4,5.6l-39,61.5
		c-24.1-10.8-45.8-26.2-64.1-45.1l0,0l0,0c-2.8-2.9-5.6-5.9-8.2-9c-2.6-3-5-6.1-7.4-9.2c0,0,24.5-27.9,73.5-83.8h0l7.7-92.4
		c0.3-4.8,0.6-7.8,2.1-10.5c2.8-5,13-13.6,17.5-18.1c10.1-11.4,15.1-17,15.1-17c8,9.6,8.7,23.4,1.6,33.8
		c-5.6,13.1-8.4,19.6-8.4,19.6C224.5,253.2,229.6,248.4,229.6,248.4"/>
	<defs>
		
			<filter id="Adobe_OpacityMaskFilter_00000155833186372287843930000002775114195372048575_" filterUnits="userSpaceOnUse" x="338" y="270" width="6.2" height="24">
			<feColorMatrix  type="matrix" values="1 0 0 0 0  0 1 0 0 0  0 0 1 0 0  0 0 0 1 0"/>
		</filter>
	</defs>
	
		<mask maskUnits="userSpaceOnUse" x="338" y="270" width="6.2" height="24" id="SVGID_00000127034918901537091850000006602564426254259079_">
		<g style="filter:url(#Adobe_OpacityMaskFilter_00000155833186372287843930000002775114195372048575_);">
			
				<linearGradient id="SVGID_00000031896996578011882120000007542203201221744266_" gradientUnits="userSpaceOnUse" x1="-265.0552" y1="661.9145" x2="-283.3354" y2="676.8212" gradientTransform="matrix(1 0 0 1 619.4217 -390.748)">
				<stop  offset="0" style="stop-color:#000000"/>
				<stop  offset="1" style="stop-color:#FFFFFF"/>
			</linearGradient>
			<rect x="338" y="270" style="fill:url(#SVGID_00000031896996578011882120000007542203201221744266_);" width="6.2" height="24"/>
		</g>
	</mask>
	
		<path style="mask:url(#SVGID_00000127034918901537091850000006602564426254259079_);fill-rule:evenodd;clip-rule:evenodd;fill:#F05818;" d="
		M338,272.3c0.3,14.4,0.5,21.7,0.5,21.7c2-1.5,3.9-3.1,5.8-4.7c0,0-0.3-6.4-0.8-19.3C341.6,270.7,339.7,271.5,338,272.3"/>
	<defs>
		
			<filter id="Adobe_OpacityMaskFilter_00000052097240246617337400000000945379826711187105_" filterUnits="userSpaceOnUse" x="337.1" y="186" width="6.2" height="24">
			<feColorMatrix  type="matrix" values="1 0 0 0 0  0 1 0 0 0  0 0 1 0 0  0 0 0 1 0"/>
		</filter>
	</defs>
	
		<mask maskUnits="userSpaceOnUse" x="337.1" y="186" width="6.2" height="24" id="SVGID_00000104705334112844239670000016351747429754201767_">
		<g style="filter:url(#Adobe_OpacityMaskFilter_00000052097240246617337400000000945379826711187105_);">
			
				<linearGradient id="SVGID_00000065772045219012608030000010393045408533913494_" gradientUnits="userSpaceOnUse" x1="-265.1256" y1="654.6044" x2="-283.4058" y2="669.5111" gradientTransform="matrix(1 0 0 1 618.6821 -467.4725)">
				<stop  offset="0" style="stop-color:#000000"/>
				<stop  offset="1" style="stop-color:#FFFFFF"/>
			</linearGradient>
			
				<rect x="337.1" y="186" style="fill:url(#SVGID_00000065772045219012608030000010393045408533913494_);" width="6.2" height="24"/>
		</g>
	</mask>
	
		<path style="mask:url(#SVGID_00000104705334112844239670000016351747429754201767_);fill-rule:evenodd;clip-rule:evenodd;fill:#F05818;" d="
		M337.1,188.3c0.3,14.4,0.5,21.7,0.5,21.7c2-1.5,3.9-3.1,5.8-4.7c0,0-0.3-6.4-0.8-19.3C340.7,186.7,338.9,187.4,337.1,188.3"/>
	<defs>
		
			<filter id="Adobe_OpacityMaskFilter_00000155858731366423896490000008730111983484710530_" filterUnits="userSpaceOnUse" x="231.9" y="359.2" width="63.1" height="18.2">
			<feColorMatrix  type="matrix" values="1 0 0 0 0  0 1 0 0 0  0 0 1 0 0  0 0 0 1 0"/>
		</filter>
	</defs>
	
		<mask maskUnits="userSpaceOnUse" x="231.9" y="359.2" width="63.1" height="18.2" id="SVGID_00000073683896121188725740000008036291372675577253_">
		<g style="filter:url(#Adobe_OpacityMaskFilter_00000155858731366423896490000008730111983484710530_);">
			
				<linearGradient id="SVGID_00000095313734250589809390000003711753471214231188_" gradientUnits="userSpaceOnUse" x1="-243.4746" y1="722.1458" x2="-264.0987" y2="670.4706" gradientTransform="matrix(1 0 0 1 522.6296 -314.6618)">
				<stop  offset="0" style="stop-color:#000000"/>
				<stop  offset="1" style="stop-color:#FFFFFF"/>
			</linearGradient>
			
				<rect x="231.9" y="359.2" style="fill:url(#SVGID_00000095313734250589809390000003711753471214231188_);" width="63.1" height="18.2"/>
		</g>
	</mask>
	
		<path style="mask:url(#SVGID_00000073683896121188725740000008036291372675577253_);fill-rule:evenodd;clip-rule:evenodd;fill:#EB491D;" d="
		M237.6,359.2c38.3,5.8,57.4,8.7,57.4,8.7s-3.2,3.2-9.5,9.5c0,0-17.9-1.4-53.6-4.3C235.7,363.8,237.6,359.2,237.6,359.2"/>
	<path class="st21" d="M235.8,349.2c0-0.7,0.5-1.3,1.2-1.4s1.3,0.5,1.4,1.2c0.4,6.9-1,13.6-3.9,19.6c-2.9,6-7.4,11.3-13,15.2
		c-0.6,0.4-1.4,0.3-1.8-0.3c-0.4-0.6-0.3-1.4,0.3-1.8c5.3-3.7,9.5-8.6,12.2-14.2C234.8,362,236.1,355.7,235.8,349.2 M213.7,263.8
		c-0.1-0.7,0.4-1.4,1.1-1.4c0.7-0.1,1.4,0.4,1.4,1.1l3.8,28.7c0.1,0.7-0.4,1.4-1.1,1.4c-0.7,0.1-1.4-0.4-1.4-1.1L213.7,263.8z"/>
	<path class="st22" d="M234.9,126.7h92.7c7.1,0,12.9,5.8,12.9,12.9v216c0,7.1-5.8,12.9-12.9,12.9h-92.7c-7.1,0-12.9-5.8-12.9-12.9
		v-216C222.1,132.5,227.9,126.7,234.9,126.7"/>
	<path class="st23" d="M235.6,129.4h91.3c5.8,0,10.5,4.7,10.5,10.5v215.2c0,5.8-4.7,10.5-10.5,10.5h-91.3c-5.8,0-10.5-4.7-10.5-10.5
		V139.9C225.2,134.1,229.9,129.4,235.6,129.4"/>
	<rect x="228.5" y="188.7" class="st22" width="105.6" height="105.4"/>
	<path class="st22" d="M281.5,342.1c5.3,0,9.6,4.3,9.6,9.6c0,5.3-4.3,9.6-9.6,9.6c-5.3,0-9.6-4.3-9.6-9.6
		C271.9,346.4,276.2,342.1,281.5,342.1"/>
	<path class="st23" d="M278.6,347.2h5.7c0.9,0,1.7,0.8,1.7,1.7v5.7c0,0.9-0.8,1.7-1.7,1.7h-5.7c-0.9,0-1.7-0.8-1.7-1.7v-5.7
		C276.9,348,277.6,347.2,278.6,347.2"/>
	<rect x="228.5" y="280.1" class="st24" width="105.6" height="46"/>
	<rect x="228.5" y="170.7" class="st24" width="105.6" height="18"/>
	<rect x="228.5" y="157.7" class="st25" width="105.6" height="15.3"/>
	<path class="st22" d="M270.5,142.1h25.3c0.8,0,1.4,0.6,1.4,1.4v0c0,0.8-0.6,1.4-1.4,1.4h-25.3c-0.8,0-1.4-0.6-1.4-1.4v0
		C269.1,142.7,269.8,142.1,270.5,142.1"/>
	<path class="st22" d="M264.5,141.8L264.5,141.8c0.9,0,1.7,0.7,1.7,1.7v0.1c0,0.9-0.7,1.7-1.7,1.7h0c-0.9,0-1.7-0.7-1.7-1.7v-0.1
		C262.9,142.5,263.6,141.8,264.5,141.8"/>
	<path class="st26" d="M268.3,203.6H399c2.7,0,4.8,2.2,4.8,4.9V245c0,2.7-2.2,4.9-4.8,4.9h-97.4l-20.5,21.8v-21.8h-12.8
		c-2.7,0-4.9-2.2-4.9-4.9v-36.6C263.5,205.8,265.7,203.6,268.3,203.6"/>
	<path class="st22" d="M286.8,211.3c8.4,0,15.3,6.8,15.3,15.3c0,8.4-6.8,15.3-15.3,15.3c-8.4,0-15.3-6.8-15.3-15.3
		C271.5,218.1,278.4,211.3,286.8,211.3"/>
	<path class="st22" d="M306.9,214.8h89.9c0.6,0,1.1,0.5,1.1,1.1v0c0,0.6-0.5,1.1-1.1,1.1h-89.9c-0.6,0-1.1-0.5-1.1-1.1v0
		C305.8,215.2,306.3,214.8,306.9,214.8"/>
	<path class="st22" d="M306.9,220.5h37c0.6,0,1.1,0.5,1.1,1.1v0c0,0.6-0.5,1.1-1.1,1.1h-37c-0.6,0-1.1-0.5-1.1-1.1v0
		C305.8,221,306.3,220.5,306.9,220.5"/>
	<path class="st22" d="M348.6,220.5h48c0.6,0,1.1,0.5,1.1,1.1v0c0,0.6-0.5,1.1-1.1,1.1h-48c-0.6,0-1.1-0.5-1.1-1.1v0
		C347.5,221,348,220.5,348.6,220.5"/>
	<path class="st22" d="M306.9,226.3h37c0.6,0,1.1,0.5,1.1,1.1v0c0,0.6-0.5,1.1-1.1,1.1h-37c-0.6,0-1.1-0.5-1.1-1.1v0
		C305.8,226.8,306.3,226.3,306.9,226.3"/>
	<path class="st22" d="M348.6,226.3h48c0.6,0,1.1,0.5,1.1,1.1v0c0,0.6-0.5,1.1-1.1,1.1h-48c-0.6,0-1.1-0.5-1.1-1.1v0
		C347.5,226.8,348,226.3,348.6,226.3"/>
	<path class="st22" d="M306.5,231.9h89.9c0.6,0,1.1,0.5,1.1,1.1v0c0,0.6-0.5,1.1-1.1,1.1h-89.9c-0.6,0-1.1-0.5-1.1-1.1v0
		C305.5,232.3,306,231.9,306.5,231.9"/>
	<path class="st22" d="M306.5,237.2h89.9c0.6,0,1.1,0.5,1.1,1.1v0c0,0.6-0.5,1.1-1.1,1.1h-89.9c-0.6,0-1.1-0.5-1.1-1.1v0
		C305.5,237.7,306,237.2,306.5,237.2"/>
	<path class="st26" d="M286.8,217.3c2,0,3.7,1.6,3.7,3.7c0,2-1.6,3.7-3.7,3.7c-2,0-3.7-1.6-3.7-3.7
		C283.1,218.9,284.8,217.3,286.8,217.3"/>
	<path class="st26" d="M278,233c11.8,0,17.6,0,17.6,0c0-3.2-1.7-6.1-4.4-7.6c-2.7-1.6-6.1-1.6-8.8,0C279.7,226.9,278,229.8,278,233"
		/>
	<rect x="228.5" y="322.3" class="st25" width="105.6" height="15"/>
	<path class="st22" d="M249.5,288.6c7.4,0,13.4,6,13.4,13.4c0,7.4-6,13.4-13.4,13.4c-7.4,0-13.4-6-13.4-13.4
		C236,294.6,242,288.6,249.5,288.6"/>
	<path class="st24" d="M249.5,293.9c1.8,0,3.2,1.5,3.2,3.2c0,1.8-1.5,3.2-3.2,3.2c-1.8,0-3.2-1.5-3.2-3.2
		C246.2,295.3,247.7,293.9,249.5,293.9"/>
	<path class="st24" d="M241.7,307.7c10.4,0,15.5,0,15.5,0c0-2.8-1.5-5.3-3.9-6.7c-2.4-1.4-5.4-1.4-7.8,0
		C243.2,302.3,241.7,304.9,241.7,307.7"/>
	<path class="st22" d="M272.6,290.6h52.3c0.6,0,1.1,0.5,1.1,1.1v0c0,0.6-0.5,1.1-1.1,1.1h-52.3c-0.6,0-1.1-0.5-1.1-1.1v0
		C271.5,291.1,272,290.6,272.6,290.6"/>
	<path class="st22" d="M272.6,296.4h21c0.6,0,1.1,0.5,1.1,1.1v0c0,0.6-0.5,1.1-1.1,1.1h-21c-0.6,0-1.1-0.5-1.1-1.1v0
		C271.5,296.9,272,296.4,272.6,296.4"/>
	<path class="st22" d="M297.2,296.4h27.5c0.6,0,1.1,0.5,1.1,1.1v0c0,0.6-0.5,1.1-1.1,1.1h-27.5c-0.6,0-1.1-0.5-1.1-1.1v0
		C296.1,296.9,296.6,296.4,297.2,296.4"/>
	<path class="st22" d="M272.6,302.2h21c0.6,0,1.1,0.5,1.1,1.1v0c0,0.6-0.5,1.1-1.1,1.1h-21c-0.6,0-1.1-0.5-1.1-1.1v0
		C271.5,302.7,272,302.2,272.6,302.2"/>
	<path class="st22" d="M297.2,302.2h27.5c0.6,0,1.1,0.5,1.1,1.1v0c0,0.6-0.5,1.1-1.1,1.1h-27.5c-0.6,0-1.1-0.5-1.1-1.1v0
		C296.1,302.7,296.6,302.2,297.2,302.2"/>
	<path class="st22" d="M272.4,307.8h52.3c0.6,0,1.1,0.5,1.1,1.1v0c0,0.6-0.5,1.1-1.1,1.1h-52.3c-0.6,0-1.1-0.5-1.1-1.1v0
		C271.3,308.3,271.8,307.8,272.4,307.8"/>
	<path class="st22" d="M272.4,313.2h52.3c0.6,0,1.1,0.5,1.1,1.1v0c0,0.6-0.5,1.1-1.1,1.1h-52.3c-0.6,0-1.1-0.5-1.1-1.1v0
		C271.3,313.7,271.8,313.2,272.4,313.2"/>
	<path class="st27" d="M246,238.9H121c-2.6,0-4.6,2.1-4.6,4.6v35c0,2.6,2.1,4.6,4.6,4.6h93.1l19.6,20.8v-20.8H246
		c2.6,0,4.6-2.1,4.6-4.6v-35C250.6,241,248.5,238.9,246,238.9"/>
	<path class="st22" d="M228.3,246.3c-8.1,0-14.6,6.5-14.6,14.6c0,8.1,6.5,14.6,14.6,14.6c8.1,0,14.6-6.5,14.6-14.6
		C242.9,252.8,236.4,246.3,228.3,246.3"/>
	<path class="st22" d="M209.1,249.6h-86c-0.6,0-1,0.5-1,1v0c0,0.6,0.5,1,1,1h86c0.6,0,1-0.5,1-1v0
		C210.2,250,209.7,249.6,209.1,249.6"/>
	<path class="st22" d="M209.1,255.1h-35.4c-0.6,0-1,0.5-1,1c0,0.6,0.5,1,1,1h35.4c0.6,0,1-0.5,1-1
		C210.2,255.5,209.7,255.1,209.1,255.1"/>
	<path class="st22" d="M169.2,255.1h-45.9c-0.6,0-1,0.5-1,1c0,0.6,0.5,1,1,1h45.9c0.6,0,1-0.5,1-1
		C170.3,255.5,169.8,255.1,169.2,255.1"/>
	<path class="st22" d="M209.1,260.6h-35.4c-0.6,0-1,0.5-1,1v0c0,0.6,0.5,1,1,1h35.4c0.6,0,1-0.5,1-1v0
		C210.2,261.1,209.7,260.6,209.1,260.6"/>
	<path class="st22" d="M169.2,260.6h-45.9c-0.6,0-1,0.5-1,1v0c0,0.6,0.5,1,1,1h45.9c0.6,0,1-0.5,1-1v0
		C170.3,261.1,169.8,260.6,169.2,260.6"/>
	<path class="st22" d="M209.4,265.9h-86c-0.6,0-1,0.5-1,1v0c0,0.6,0.5,1,1,1h86c0.6,0,1-0.5,1-1v0
		C210.5,266.4,210,265.9,209.4,265.9"/>
	<path class="st22" d="M209.4,271h-86c-0.6,0-1,0.5-1,1v0c0,0.6,0.5,1,1,1h86c0.6,0,1-0.5,1-1v0C210.5,271.5,210,271,209.4,271"/>
	<path class="st27" d="M228.3,252c-1.9,0-3.5,1.6-3.5,3.5s1.6,3.5,3.5,3.5c1.9,0,3.5-1.6,3.5-3.5S230.2,252,228.3,252"/>
	<path class="st27" d="M236.7,267c-11.2,0-16.9,0-16.9,0c0-3,1.6-5.8,4.2-7.3c2.6-1.5,5.8-1.5,8.4,0
		C235.1,261.2,236.7,264,236.7,267"/>
	<path class="st28" d="M452.7,217.3c-3.3,13.2-5,19.7-5,19.7c12.2-9.5,18.3-14.3,18.3-14.3C457.2,219.1,452.7,217.3,452.7,217.3"/>
	<path class="st22" d="M478.6,224c-41.8-4.1-62.7-6.1-62.7-6.1c54.1-16.4,81.2-24.5,81.2-24.5C484.7,213.8,478.6,224,478.6,224"/>
	<path class="st29" d="M441.1,220.3c37.3-18,55.9-27,55.9-27s-13.5,9.5-40.4,28.5c0,0-3,5.1-8.9,15.2
		C447.8,237.1,445.6,231.5,441.1,220.3"/>
	<path class="st1" d="M340,337.7c8.5,15.7,17.6,21.5,17.6,21.5c-1.6,6.9-11.6,28-18.9,30.2c-3.2,0.9-6.1-1.1-7.6-6.3
		c0,0,0.5-5.3-1.4-25.9C329.1,354.2,332.5,347.7,340,337.7"/>
	<path class="st11" d="M319.4,269.8c-10.8-7.1-16.3-10.7-16.3-10.7c-4.7,3.5-2.6,13.1,6.2,29c0,0,14.4,26.6,43.3,79.8
		c2.6,15.8,5.3,29.5-3.3,43.8c-1.9,3.2-3.9,3.2-6.9-3.3c-3.2-6.7-6.7-17.6-8.7-22.7c-0.8-12.4,1.3-41.3-15-44l-8.8,19.8
		c-2.1,3.8-4.2,7.9-5.6,12c-2,5.8-1.2,18.8,0.6,32.7c1.8,13.9,3.8,34.1,11.6,45.9c10.4,15.6,23.7,29.1,35.5,43.4
		c36.8-16.1,68.1-42.5,90.2-76.1c-1.2-5.5-2.3-12.2-4.7-17.1c-2.3-4.6-4.4-5.5-8.1-8.2c-1-7.3-2.1-9.4-7.6-15.3
		c-0.6-8.1-39.4-59.3-47.9-64.6c-4.9-3.1-10.3-3.3-16.2,2.5L329.9,281C326.2,276.2,324.2,273.8,319.4,269.8"/>
	<path class="st30" d="M323.5,354.9c-1.1,3.5-8.1,6.3-11.2,7c-2.2,0.5-3.1-0.4-3-2.6c0.1-3.5,0-10.5,1.1-13.6c1-2.9,3.8-4.3,6.6-4.2
		c3.5,0.2,5.1,2.4,6,6C323.4,349.1,324.1,353.2,323.5,354.9"/>
	<path class="st30" d="M319.4,269.8c-3-4.1-6.9-8.7-11.4-13.8c-2.6-2.9-6.1,3.1-4.7,7c1.8,4.8,8.2,8.6,12.9,8.8
		C318.9,271.9,320.4,271.1,319.4,269.8"/>
	<path class="st21" d="M358.3,318.1c-0.4-0.6-0.3-1.4,0.3-1.8c0.6-0.4,1.4-0.3,1.8,0.3c5.5,7.5,10.9,14.5,16.3,21.4
		c5.4,6.9,10.9,13.8,16.7,21c3.5,4.3,6.8,8.8,9.3,13c2.5,4.3,4,8.4,4,11.9l2.3,19c0.1,0.7-0.4,1.4-1.1,1.4c-0.7,0.1-1.4-0.4-1.4-1.1
		L404,384l0,0c0-0.1,0-0.1,0-0.2c0.1-3-1.3-6.7-3.6-10.6c-2.4-4.1-5.6-8.4-9-12.6c-5.8-7.2-11.3-14-16.8-21
		C369.1,332.6,363.8,325.6,358.3,318.1"/>
	<path class="st21" d="M420.9,380.4c-0.1-0.7,0.4-1.4,1.1-1.5c0.7-0.1,1.4,0.4,1.5,1.1l2.9,18.5c0.1,0.7-0.4,1.4-1.1,1.5
		c-0.7,0.1-1.4-0.4-1.5-1.1L420.9,380.4z"/>
	<path class="st31" d="M452.7,129.3c3.8-4.2,9.7-5.9,15.3-4.4c5.5,1.5,9.7,6,10.9,11.6c0,0-31.9,0-95.8,0c4-5.6,11.5-7.4,17.6-4.3
		c1.2-13,11.7-23.2,24.8-23.9C438.5,107.5,450.1,116.5,452.7,129.3"/>
	<path class="st31" d="M502.7,150.8c1.9-2.1,4.9-3,7.7-2.2c2.8,0.8,4.9,3,5.5,5.8c0,0-16.1,0-48.2,0c2-2.8,5.8-3.7,8.9-2.1
		c0.6-6.6,5.9-11.7,12.5-12C495.5,139.8,501.4,144.3,502.7,150.8"/>
	<path class="st32" d="M280.6,423.6c-1.9-1.9-4.4-3-7.3-3c-2.8,0-5.4,1.1-7.3,3c-1.9,1.9-3,4.4-3,7.3c0,2.8,1.1,5.4,3,7.3
		c1.9,1.9,4.4,3,7.3,3c2.8,0,5.4-1.1,7.3-3c1.9-1.9,3-4.4,3-7.3C283.6,428,282.4,425.4,280.6,423.6 M276.7,416.1
		c1.8,0.4,3.5,1.2,5,2.2l3.4-3.1l4.4,4.9l-3.3,2.9c0.7,1.1,1.2,2.4,1.6,3.7l5-0.1l0.1,6.6l-4.7,0.1c-0.3,1.7-0.9,3.4-1.7,4.9
		l3.1,2.7l-4.4,4.9l-3.1-2.7c-1.6,1.1-3.4,2-5.3,2.4v4.5h-6.6v-4.5c-2.1-0.5-4-1.3-5.7-2.6l-3.1,2.7l-4.4-4.9l3.1-2.8
		c-0.8-1.4-1.3-3-1.6-4.7l-4.3,0l0.1-6.6l4.6,0.1c0.4-1.3,0.9-2.5,1.6-3.7l-3.4-3l4.4-4.9l3.6,3.2c1.5-1,3.3-1.8,5.2-2.2v-4.3h6.6
		V416.1z"/>
	<path class="st31" d="M273.5,426.6c2.2,0,4,1.8,4,4c0,2.2-1.8,4-4,4c-2.2,0-4-1.8-4-4C269.6,428.4,271.3,426.6,273.5,426.6"/>
	<path class="st32" d="M293.9,452.1c-1.1-1.1-2.5-1.7-4.1-1.7c-1.6,0-3.1,0.7-4.1,1.7c-1.1,1.1-1.7,2.5-1.7,4.1
		c0,1.6,0.7,3.1,1.7,4.1c1.1,1.1,2.5,1.7,4.1,1.7c1.6,0,3.1-0.7,4.1-1.7c1.1-1.1,1.7-2.5,1.7-4.1
		C295.6,454.6,294.9,453.2,293.9,452.1 M291.7,447.9c1,0.2,2,0.7,2.8,1.2l2-1.7l2.5,2.8l-1.9,1.7c0.4,0.6,0.7,1.3,0.9,2.1l2.9,0
		l0,3.8l-2.7,0c-0.2,1-0.5,1.9-1,2.8l1.7,1.6l-2.5,2.8l-1.8-1.6c-0.9,0.6-1.9,1.1-3,1.4v2.6h-3.8v-2.6c-1.2-0.3-2.3-0.8-3.2-1.5
		l-1.8,1.6l-2.5-2.8l1.8-1.6c-0.4-0.8-0.8-1.7-0.9-2.7l-2.5,0l0-3.8l2.6,0c0.2-0.7,0.5-1.4,0.9-2.1l-2-1.7l2.5-2.8l2,1.8
		c0.9-0.6,1.9-1,3-1.3v-2.5h3.8V447.9z"/>
	<path class="st31" d="M289.9,453.8c1.3,0,2.3,1,2.3,2.3s-1,2.3-2.3,2.3c-1.3,0-2.3-1-2.3-2.3S288.6,453.8,289.9,453.8"/>
</g>
</svg>
