<?xml version="1.0" encoding="utf-8"?>
<!-- Generator: Adobe Illustrator 27.2.0, SVG Export Plug-In . SVG Version: 6.00 Build 0)  -->
<svg version="1.1" id="Layer_1" xmlns="http://www.w3.org/2000/svg" xmlns:xlink="http://www.w3.org/1999/xlink" x="0px" y="0px"
	 viewBox="0 0 107.3 104.7" style="enable-background:new 0 0 107.3 104.7;" xml:space="preserve">
<style type="text/css">
	
		.st0{clip-path:url(#SVGID_00000022532247823581837510000016032072768792793237_);fill:url(#SVGID_00000108299367991878242360000017236301982167376287_);}
</style>
<g>
	<defs>
		<path id="SVGID_1_" d="M36,93.1c0,1-0.8,1.8-1.8,1.8s-1.8-0.8-1.8-1.8c0-1,0.8-1.8,1.8-1.8C35.2,91.3,36,92.1,36,93.1
			C36,93.1,36,93.1,36,93.1z M86.2,91.3c-1,0-1.8,0.8-1.8,1.8c0,1,0.8,1.8,1.8,1.8c0,0,0,0,0,0c1,0,1.8-0.9,1.8-1.9
			C87.9,92.1,87.1,91.3,86.2,91.3z M81.6,68.6h-7.7c-0.9,0-1.6,0.7-1.6,1.6c0,0.9,0.7,1.6,1.6,1.6c0,0,0,0,0,0h7.7
			c0.9,0,1.6-0.7,1.6-1.6C83.2,69.3,82.5,68.6,81.6,68.6z M107.3,82.4v5c0,3.9-3.2,7.1-7.1,7.1h-2.5c-0.7,6.4-6.4,11-12.8,10.3
			c-5.4-0.6-9.7-4.9-10.3-10.3H45.7c-0.7,6.4-6.4,11-12.8,10.3c-5.4-0.6-9.7-4.9-10.3-10.3H7.1c-3.9,0-7.1-3.2-7.1-7.1v-51
			c0-3.9,3.1-7.1,7.1-7.1h6.3C14.3,12.2,28.8-0.8,45.8,0c8,0.4,15.6,4,21.1,9.9c0,0,0.1,0.1,0.2,0.1c0.1,0.1,0.1,0.1,0.1,0.2
			c4.7,5.2,7.5,11.9,7.8,18.9h5.7c2.9,0,5.5,1.8,6.5,4.5l9.4,23.9h3.6c3.9,0,7,3.2,7.1,7.1v6.2c0,0.1,0,0.1,0,0.2L107.3,82.4z
			 M104,72.8h-1.1c-2.2,0-4,1.8-3.9,4c0,2.2,1.8,3.9,3.9,3.9h1.1L104,72.8z M71.8,30.9c0-6.3-2.2-12.4-6.2-17.3L47.9,29.7
			c4.3,1.2,6.9,4.5,6.9,9.3c0,4.9-3.9,8.9-8.9,9.6v3c0,0.9-0.7,1.6-1.6,1.6c-0.9,0-1.6-0.7-1.6-1.6c0,0,0,0,0,0v-3
			c-1.9-0.2-3.7-1-5.2-2.2c-0.7-0.5-0.9-1.6-0.3-2.3c0.5-0.7,1.6-0.9,2.3-0.3c0,0,0,0,0.1,0.1c1.4,1,3.1,1.6,4.8,1.6
			c4,0,7.3-2.9,7.3-6.5c0-2.8-1.2-6.3-6.7-6.5L24.9,50.6c10.9,10.7,28.4,10.5,39-0.4C69,45.1,71.9,38.1,71.8,30.9z M16.5,30.9
			c0,6.3,2.2,12.5,6.2,17.4L40.5,32c-4.3-1.2-6.9-4.5-6.9-9.3c0-4.9,3.9-8.9,8.9-9.6v-3c0-0.9,0.8-1.6,1.7-1.6
			c0.9,0,1.6,0.7,1.6,1.6v3c1.9,0.3,3.7,1,5.2,2.2c0.7,0.5,0.9,1.5,0.3,2.2c0,0,0,0,0,0.1c-0.5,0.7-1.6,0.8-2.3,0.3
			c-1.4-1.1-3.1-1.6-4.9-1.6c-4,0-7.3,2.9-7.3,6.5c0,2.9,1.2,6.3,6.7,6.5l19.9-18.1c-5.1-5.1-12.1-7.9-19.3-7.9
			C28.9,3.3,16.6,15.6,16.5,30.9L16.5,30.9z M42.6,93.1c0-4.6-3.7-8.4-8.4-8.4c-4.6,0-8.4,3.7-8.4,8.4s3.7,8.4,8.4,8.4
			C38.8,101.4,42.5,97.7,42.6,93.1L42.6,93.1z M63.6,75.1H3.3v12.3c0,2.1,1.7,3.8,3.8,3.8c0,0,0,0,0,0h15.6
			c1.1-6.3,7.1-10.6,13.4-9.4c4.8,0.8,8.6,4.6,9.4,9.4h18L63.6,75.1z M63.6,71.8V54.9c-12.6,10.3-31.1,9-42.1-3.1
			c-0.1,0-0.1,0-0.2-0.1c-0.1,0-0.1-0.1-0.1-0.2c-4.7-5.2-7.5-11.9-7.8-18.9H7.1c-2.1,0-3.8,1.7-3.8,3.9v35.4L63.6,71.8z M94.5,93.1
			c0-4.6-3.8-8.3-8.4-8.3c-4.6,0-8.3,3.8-8.3,8.4c0,4.6,3.8,8.3,8.4,8.3c0,0,0,0,0,0C90.8,101.4,94.5,97.7,94.5,93.1L94.5,93.1z
			 M104.1,87.3V84h-1.1c-4,0-7.2-3.3-7.2-7.3c0-4,3.2-7.2,7.2-7.2h1.1v-4.8c0-2.1-1.7-3.8-3.8-3.8H73.9c-0.9,0-1.6-0.7-1.6-1.6
			c0,0,0,0,0,0c0-0.9,0.7-1.6,1.6-1.6h19.3L84.3,35c-0.6-1.5-2-2.4-3.6-2.5H75c-0.4,7.2-3.3,14-8.1,19.3v39.3h7.8
			c1.1-6.3,7.1-10.5,13.4-9.5c4.8,0.8,8.6,4.6,9.5,9.5h2.7C102.3,91.1,104,89.5,104.1,87.3C104.1,87.4,104.1,87.3,104.1,87.3
			L104.1,87.3z"/>
	</defs>
	<clipPath id="SVGID_00000116196432563063495000000004016256006809505674_">
		<use xlink:href="#SVGID_1_"  style="overflow:visible;"/>
	</clipPath>
	
		<linearGradient id="SVGID_00000010313223480552875060000004832784837866851461_" gradientUnits="userSpaceOnUse" x1="0.6495" y1="816.4305" x2="106.6718" y2="922.4528" gradientTransform="matrix(1 0 0 1 0 -817.08)">
		<stop  offset="0" style="stop-color:#45F063"/>
		<stop  offset="1" style="stop-color:#007CFF"/>
	</linearGradient>
	
		<rect style="clip-path:url(#SVGID_00000116196432563063495000000004016256006809505674_);fill:url(#SVGID_00000010313223480552875060000004832784837866851461_);" width="107.3" height="104.7"/>
</g>
</svg>
