<?xml version="1.0" encoding="UTF-8"?>
<svg id="Layer_2" data-name="Layer 2" xmlns="http://www.w3.org/2000/svg" xmlns:xlink="http://www.w3.org/1999/xlink" viewBox="0 0 74 74">
  <defs>
    <style>
      .cls-1 {
        clip-path: url(#clippath);
      }

      .cls-2 {
        fill: none;
      }

      .cls-3 {
        fill: url(#linear-gradient);
      }
    </style>
    <clipPath id="clippath">
      <path class="cls-2" d="m68,9.35c0-4.65-3.38-9.35-9.84-9.35-9.15,0-12.97,5.86-16.34,11.03l-.41.62c-1.39,2.07-2.72,4.05-4.4,5.62-1.68-1.57-3.01-3.55-4.4-5.62l-.41-.62C28.82,5.86,25,0,15.84,0,9.38,0,6,4.7,6,9.35c0,3.09,1.42,6.18,3.94,8.65H0v22h6v34h62v-34h6v-22h-9.93c2.5-2.45,3.93-5.54,3.93-8.65Zm-22.44,5.08l.44-.67c3.19-4.9,5.71-8.76,12.15-8.76,4.61,0,4.84,3.62,4.84,4.35,0,1.95-1.08,3.99-2.91,5.54-2.57,2.07-6.22,3.11-10.85,3.11h-6.19c.92-1.19,1.74-2.41,2.51-3.57Zm-15.56,8.57h14v46h-14V23ZM13.96,14.92c-1.88-1.59-2.96-3.62-2.96-5.58,0-.73.23-4.35,4.84-4.35,6.44,0,8.96,3.87,12.15,8.76l.44.67c.77,1.16,1.59,2.38,2.51,3.57h-6.19c-4.63,0-8.28-1.05-10.8-3.08Zm-8.96,8.08h20v12H5v-12Zm6,17h14v29h-14v-29Zm52,29h-14v-29h14v29Zm6-34h-20v-12h20v12Z"/>
    </clipPath>
    <linearGradient id="linear-gradient" x1="-13" y1="-13" x2="87" y2="87" gradientUnits="userSpaceOnUse">
      <stop offset="0" stop-color="#45f063"/>
      <stop offset="1" stop-color="#0986bf"/>
    </linearGradient>
  </defs>
  <g id="Layer_1-2" data-name="Layer 1">
    <g class="cls-1">
      <rect class="cls-3" x="-13" y="-13" width="100" height="100"/>
    </g>
  </g>
</svg>