<?xml version="1.0" encoding="UTF-8"?>
<svg id="Layer_2" data-name="Layer 2" xmlns="http://www.w3.org/2000/svg" xmlns:xlink="http://www.w3.org/1999/xlink" viewBox="0 0 61.5 57.66">
  <defs>
    <style>
      .cls-1 {
        clip-path: url(#clippath);
      }

      .cls-2 {
        fill: none;
      }

      .cls-3 {
        fill: url(#linear-gradient);
      }
    </style>
    <clipPath id="clippath">
      <path class="cls-2" d="m50.64,28.83h-1.78c-2.21,0-4.25.67-5.96,1.8-2.75-2.88-6.62-4.69-10.92-4.69h-2.47c-4.3,0-8.17,1.8-10.92,4.69-1.71-1.13-3.76-1.8-5.96-1.8h-1.78c-6,0-10.86,4.86-10.86,10.86v14.13c0,2.12,1.72,3.84,3.84,3.84h15.82s.04,0,.05,0c.01,0,.02,0,.04,0h22s.03,0,.04,0c.02,0,.03,0,.05,0h15.82c2.12,0,3.84-1.72,3.84-3.84v-14.13c0-6-4.86-10.86-10.86-10.86Zm-21.12,1.12h2.47c6.12,0,11.1,4.98,11.1,11.1v11.27c0,.74-.6,1.34-1.34,1.34h-22c-.74,0-1.34-.6-1.34-1.34v-11.27c0-6.12,4.98-11.1,11.1-11.1Zm-25.52,9.74c0-3.78,3.08-6.86,6.86-6.86h1.78c1.32,0,2.55.38,3.6,1.03-1.16,2.14-1.82,4.59-1.82,7.19v11.27c0,.46.08.91.19,1.34H4v-13.97Zm53.5,13.97h-10.6c.11-.43.19-.87.19-1.34v-11.27c0-2.6-.66-5.05-1.82-7.19,1.05-.65,2.28-1.03,3.6-1.03h1.78c3.78,0,6.86,3.08,6.86,6.86v13.97ZM11.44,27.94c4.73,0,8.77-2.93,10.42-7.07,2.25,2.34,5.4,3.81,8.9,3.81s6.65-1.46,8.9-3.81c1.65,4.14,5.69,7.07,10.42,7.07,6.19,0,11.22-5.02,11.22-11.22s-5.02-11.22-11.22-11.22c-2.94,0-5.6,1.14-7.6,2.98-1.62-4.93-6.25-8.49-11.72-8.49s-10.1,3.56-11.72,8.49c-2-1.85-4.66-2.98-7.6-2.98C5.24,5.51.22,10.53.22,16.72s5.02,11.22,11.22,11.22ZM50.06,9.51c3.98,0,7.22,3.24,7.22,7.22s-3.24,7.22-7.22,7.22-7.22-3.24-7.22-7.22,3.24-7.22,7.22-7.22Zm-19.31-5.51c4.6,0,8.34,3.74,8.34,8.34s-3.74,8.34-8.34,8.34-8.34-3.74-8.34-8.34,3.74-8.34,8.34-8.34Zm-19.31,5.51c3.98,0,7.22,3.24,7.22,7.22s-3.24,7.22-7.22,7.22-7.22-3.24-7.22-7.22,3.24-7.22,7.22-7.22Z"/>
    </clipPath>
    <linearGradient id="linear-gradient" x1="63" y1="60.83" x2="-1" y2="-3.17" gradientUnits="userSpaceOnUse">
      <stop offset="0" stop-color="#0986bf"/>
      <stop offset="1" stop-color="#45f063"/>
    </linearGradient>
  </defs>
  <g id="Layer_1-2" data-name="Layer 1">
    <g class="cls-1">
      <rect class="cls-3" x="-1" y="-3.17" width="64" height="64"/>
    </g>
  </g>
</svg>