<?xml version="1.0" encoding="UTF-8"?>
<svg id="Layer_2" data-name="Layer 2" xmlns="http://www.w3.org/2000/svg" viewBox="0 0 76.6 103.32">
  <defs>
    <style>
      .cls-1 {
        fill: #11e9de;
      }

      .cls-1, .cls-2, .cls-3, .cls-4 {
        stroke: #fff;
        stroke-miterlimit: 10;
      }

      .cls-2 {
        fill: #0986bf;
      }

      .cls-3 {
        fill: #58a5f7;
      }

      .cls-4 {
        fill: #fff;
      }
    </style>
  </defs>
  <g id="Layer_2-2" data-name="Layer 2">
    <g>
      <g>
        <g id="frente">
          <path class="cls-4" d="m72.69,95.64c-.24.72-1.18,3.82-3.62,5.55-.83.6-3.09,2.87-10.84.74-7.15-1.95-9.01-5.1-15.15-7.23-5.78-2.01-6.26-.7-13.17-2.35-4.29-1-14.6-3.54-22.43-11.86-2.87-3.03-8.24-9.57-6.71-14.58,1.12-3.7,4.99-5.49,5.53-5.73,8.45-3.77,22.17,3.28,27.73,9.77.9,1.07,4,5,9.31,7.54.95.47,6.68,2.19,13.65,3.36,13.53,2.35,17.48,9.13,15.7,14.8h0Z"/>
        </g>
        <g id="frente-2">
          <path class="cls-4" d="m70.08,98.51c-.65.54-3.33,3.05-6.66,3.35-1.13.06-4.64,1.08-11.03-5.46-5.85-6-5.92-10.11-10.64-15.7-4.48-5.23-5.73-4.28-11.52-9.74-3.58-3.45-12.24-11.77-15.19-24.33-1.08-4.58-2.65-13.99,1.75-18.06,3.21-2.99,8.04-2.52,8.63-2.46,10.43,1.11,19.82,15.8,21.51,25.27.3,1.55,1.09,7.15,4.8,12.68.66.95,5.26,5.89,11.4,11.05,11.94,9.92,11.96,18.8,6.97,23.4h-.02Z"/>
        </g>
        <g id="frente-3">
          <path class="cls-4" d="m66.21,101.85c-.95.18-4.88.91-8.16-.87-1.13-.59-4.95-1.78-7-11.6-1.87-9.05.51-12.87-.59-20.91-1.03-7.56-2.82-7.32-4.92-15.9-1.32-5.36-4.39-18.22.34-31.64,1.72-4.89,5.86-14.55,12.36-15.76,4.76-.85,8.94,2.42,9.54,2.84,9.01,7.19,9,26.43,4.97,36.27-.65,1.61-3.26,7.28-3.06,14.6,0,1.31,1.39,8.58,4.03,17.03,5.1,16.37-.12,24.66-7.51,25.93h0Z"/>
        </g>
      </g>
      <g>
        <g id="frente-2-2" data-name="frente-2">
          <path class="cls-1" d="m73.04,91.11c-.24.72-1.18,3.82-3.62,5.55-.83.6-3.09,2.87-10.84.74-7.15-1.95-9.01-5.1-15.15-7.23-5.78-2.01-6.26-.7-13.17-2.35-4.29-1-14.6-3.54-22.43-11.86-2.87-3.03-8.24-9.57-6.71-14.58,1.12-3.7,4.99-5.49,5.53-5.73,8.45-3.77,22.17,3.28,27.73,9.77.9,1.07,4,5,9.31,7.54.95.47,6.68,2.19,13.65,3.36,13.53,2.35,17.48,9.13,15.7,14.8h0Z"/>
        </g>
        <g id="frente-2-2">
          <path class="cls-2" d="m70.43,93.98c-.65.54-3.33,3.05-6.66,3.35-1.13.06-4.64,1.08-11.03-5.46-5.85-6-5.92-10.11-10.64-15.7-4.48-5.23-5.73-4.28-11.52-9.74-3.58-3.45-12.24-11.77-15.19-24.33-1.08-4.58-2.65-13.99,1.75-18.06,3.21-2.99,8.04-2.52,8.63-2.46,10.43,1.11,19.82,15.8,21.51,25.27.3,1.55,1.09,7.15,4.8,12.68.66.95,5.26,5.89,11.4,11.05,11.94,9.92,11.96,18.8,6.97,23.4h-.02Z"/>
        </g>
        <g id="frente-3-2">
          <path class="cls-3" d="m66.56,97.32c-.95.18-4.88.91-8.16-.87-1.13-.59-4.95-1.78-7-11.6-1.87-9.05.51-12.87-.59-20.91-1.03-7.56-2.82-7.32-4.92-15.9-1.32-5.36-4.39-18.22.34-31.64,1.72-4.89,5.86-14.55,12.36-15.76,4.76-.85,8.94,2.42,9.54,2.84,9.01,7.19,9,26.43,4.97,36.27-.65,1.61-3.26,7.28-3.06,14.6,0,1.31,1.39,8.58,4.03,17.03,5.1,16.37-.12,24.66-7.51,25.93h0Z"/>
        </g>
      </g>
    </g>
  </g>
</svg>