<?xml version="1.0" encoding="utf-8"?>
<!-- Generator: Adobe Illustrator 27.2.0, SVG Export Plug-In . SVG Version: 6.00 Build 0)  -->
<svg version="1.1" id="Layer_2_00000176000831545497090880000002113239198878858629_"
	 xmlns="http://www.w3.org/2000/svg" xmlns:xlink="http://www.w3.org/1999/xlink" x="0px" y="0px" viewBox="0 0 328.3 103.3"
	 style="enable-background:new 0 0 328.3 103.3;" xml:space="preserve">
<style type="text/css">
	.st0{fill:#FFFFFF;}
	.st1{fill:#58A5F7;}
	.st2{fill:#FFFFFF;stroke:#FFFFFF;stroke-miterlimit:10;}
	.st3{fill:#11E9DE;stroke:#FFFFFF;stroke-miterlimit:10;}
	.st4{fill:#0986BF;stroke:#FFFFFF;stroke-miterlimit:10;}
	.st5{fill:#58A5F7;stroke:#FFFFFF;stroke-miterlimit:10;}
</style>
<g id="Layer_1-2">
	<g>
		<g>
			<g>
				<path class="st0" d="M102.6,45.4c-0.7,1.2-1.7,2.1-2.9,2.8c-1.3,0.7-2.9,1-4.7,1h-2.8v7.2h-7.2V33.6h10c2.8,0,4.9,0.7,6.4,2.1
					c1.5,1.4,2.2,3.3,2.2,5.7C103.6,42.9,103.2,44.2,102.6,45.4L102.6,45.4z M96.3,41.5c0-1.4-0.7-2.1-2.2-2.1h-2v4.2h2
					C95.6,43.6,96.3,42.9,96.3,41.5L96.3,41.5z"/>
				<path class="st0" d="M120.5,53h-7.6l-1.1,3.5h-7.5l8.3-22.8h8.2l8.3,22.8h-7.5C121.6,56.5,120.5,53,120.5,53z M118.7,47.6
					l-2.1-6.3l-2.1,6.3H118.7L118.7,47.6z"/>
				<path class="st0" d="M137.9,51h6.9v5.4h-14.1V33.7h7.2V51L137.9,51z"/>
				<path class="st0" d="M174.5,33.6v22.8h-7.1V45.1l-3.5,11.4h-6.1l-3.5-11.4v11.4h-7.2V33.6h8.8l5,13.7l4.9-13.7H174.5L174.5,33.6
					z"/>
				<path class="st0" d="M184.9,33.6v22.8h-7.2V33.6H184.9z"/>
				<path class="st0" d="M195.3,51h6.9v5.4h-14.1V33.7h7.2L195.3,51L195.3,51z"/>
				<path class="st0" d="M225.5,33.6v22.8h-7.2v-8.9h-6.8v8.9h-7.2V33.6h7.2v8.2h6.8v-8.2H225.5z"/>
				<path class="st0" d="M243.4,53h-7.6l-1.1,3.5h-7.5l8.4-22.8h8.2l8.3,22.8h-7.5L243.4,53L243.4,53z M241.7,47.6l-2.1-6.3
					l-2.1,6.3H241.7L241.7,47.6z"/>
				<path class="st0" d="M255.9,54.8c-1.8-1.3-2.7-3.2-2.9-5.6h7.6c0.1,1.3,0.7,2,1.7,2c0.4,0,0.7-0.1,1-0.3
					c0.3-0.2,0.4-0.5,0.4-0.8c0-0.5-0.3-1-0.9-1.3c-0.6-0.3-1.5-0.7-2.7-1.1c-1.5-0.5-2.7-1-3.6-1.5c-1-0.5-1.8-1.2-2.5-2.2
					s-1-2.2-1-3.6c0-1.5,0.4-2.8,1.1-3.8s1.8-1.8,3.1-2.4c1.3-0.5,2.8-0.8,4.5-0.8c2.8,0,5,0.6,6.7,1.9c1.6,1.3,2.5,3.1,2.6,5.5
					h-7.7c0-0.7-0.2-1.1-0.5-1.4s-0.7-0.4-1.1-0.4c-0.3,0-0.5,0.1-0.7,0.3c-0.2,0.2-0.3,0.5-0.3,0.8c0,0.5,0.3,0.9,0.9,1.3
					s1.5,0.7,2.7,1.2c1.4,0.5,2.6,1,3.6,1.5c0.9,0.5,1.8,1.2,2.4,2.1c0.7,0.9,1,2,1,3.3c0,1.4-0.3,2.7-1,3.8c-0.7,1.1-1.7,2-3,2.6
					c-1.3,0.6-2.9,0.9-4.7,0.9C259.8,56.7,257.6,56,255.9,54.8L255.9,54.8z"/>
				<path class="st1" d="M102.8,72.3V78h-6.1v17.2h-7.2V78h-6v-5.7H102.8L102.8,72.3z"/>
				<path class="st1" d="M111.9,78v2.8h7.1v5.4h-7.1v3.2h8.1v5.7h-15.2V72.3H120V78H111.9z"/>
				<path class="st1" d="M134.2,95.2l-4.3-8.2h0v8.2h-7.2V72.3h10.6c1.9,0,3.4,0.3,4.7,1c1.3,0.7,2.3,1.6,2.9,2.7s1,2.4,1,3.8
					c0,1.5-0.4,2.9-1.3,4.1s-2.1,2-3.7,2.6l5,8.7L134.2,95.2L134.2,95.2z M129.9,82.2h2.8c0.7,0,1.2-0.2,1.6-0.5
					c0.3-0.3,0.5-0.8,0.5-1.5c0-0.6-0.2-1.1-0.5-1.4c-0.4-0.3-0.9-0.5-1.5-0.5h-2.8L129.9,82.2L129.9,82.2z"/>
				<path class="st1" d="M158.9,91.7h-7.6l-1.1,3.4h-7.5l8.4-22.8h8.2l8.3,22.8h-7.5L158.9,91.7L158.9,91.7z M157.2,86.3l-2.1-6.3
					l-2.1,6.3H157.2L157.2,86.3z"/>
				<path class="st1" d="M186.9,84.1c-0.7,1.2-1.6,2.1-2.9,2.8s-2.9,1-4.7,1h-2.8v7.2h-7.2V72.3h10c2.8,0,4.9,0.7,6.4,2.1
					c1.5,1.4,2.2,3.3,2.2,5.7C187.9,81.6,187.6,82.9,186.9,84.1L186.9,84.1z M180.6,80.2c0-1.4-0.7-2.1-2.2-2.1h-2v4.2h2
					C179.9,82.2,180.6,81.5,180.6,80.2L180.6,80.2z"/>
				<path class="st1" d="M197.3,78v2.8h7.1v5.4h-7.1v3.2h8.1v5.7h-15.2V72.3h15.2V78H197.3z M197.6,68.5l-5.4,2.5v-4.6l5.4-2.4
					l5.3,2.4V71L197.6,68.5z"/>
				<path class="st1" d="M215.1,72.3v12.9c0,1.1,0.2,1.9,0.7,2.5s1.2,0.9,2.2,0.9s1.8-0.3,2.3-0.9c0.5-0.6,0.7-1.4,0.7-2.5V72.3h7.1
					v12.9c0,2.2-0.4,4-1.4,5.6c-0.9,1.5-2.1,2.7-3.7,3.5c-1.6,0.8-3.3,1.2-5.2,1.2s-3.6-0.4-5.1-1.2c-1.5-0.8-2.7-1.9-3.5-3.4
					s-1.3-3.4-1.3-5.6V72.3H215.1L215.1,72.3z"/>
				<path class="st1" d="M249.2,72.3V78h-6.1v17.2h-7.2V78h-6v-5.7H249.2L249.2,72.3z"/>
				<path class="st1" d="M258.3,72.3v22.8h-7.2V72.3H258.3z"/>
				<path class="st1" d="M262.2,77.7c0.9-1.8,2.2-3.1,3.9-4.1s3.7-1.5,6-1.5c2,0,3.7,0.4,5.3,1.1s2.8,1.8,3.8,3.1
					c1,1.3,1.6,2.9,2,4.7h-7.5c-0.3-0.8-0.8-1.3-1.5-1.8c-0.6-0.4-1.4-0.6-2.2-0.6c-1.2,0-2.2,0.4-2.9,1.3c-0.7,0.9-1,2.1-1,3.6
					s0.4,2.7,1,3.6c0.7,0.9,1.6,1.3,2.9,1.3c0.8,0,1.5-0.2,2.2-0.6c0.6-0.4,1.1-1,1.5-1.8h7.5c-0.3,1.8-1,3.4-2,4.7
					c-1,1.3-2.2,2.4-3.8,3.1c-1.6,0.7-3.3,1.1-5.3,1.1c-2.3,0-4.3-0.5-6-1.5s-3-2.3-3.9-4.1c-0.9-1.8-1.4-3.8-1.4-6
					S261.3,79.4,262.2,77.7L262.2,77.7z"/>
				<path class="st1" d="M300.4,91.7h-7.6l-1.1,3.4h-7.5l8.4-22.8h8.2l8.3,22.8h-7.5L300.4,91.7z M298.7,86.3l-2.1-6.3l-2.1,6.3
					H298.7L298.7,86.3z"/>
				<path class="st1" d="M312.9,93.4c-1.8-1.3-2.7-3.2-2.9-5.6h7.6c0.1,1.3,0.7,2,1.7,2c0.4,0,0.7-0.1,1-0.3
					c0.3-0.2,0.4-0.5,0.4-0.8c0-0.5-0.3-1-0.9-1.3c-0.6-0.3-1.5-0.7-2.7-1.1c-1.5-0.5-2.7-1-3.6-1.5c-1-0.5-1.8-1.2-2.5-2.2
					c-0.7-0.9-1-2.2-1-3.6c0-1.5,0.4-2.8,1.1-3.8s1.8-1.8,3.1-2.4s2.8-0.8,4.5-0.8c2.8,0,5,0.6,6.7,1.9c1.6,1.3,2.5,3.1,2.6,5.4
					h-7.7c0-0.7-0.2-1.1-0.5-1.4s-0.7-0.4-1.1-0.4c-0.3,0-0.5,0.1-0.7,0.3c-0.2,0.2-0.3,0.5-0.3,0.8c0,0.5,0.3,0.9,0.9,1.3
					c0.6,0.3,1.5,0.7,2.7,1.2c1.4,0.5,2.6,1.1,3.6,1.6c0.9,0.5,1.8,1.2,2.4,2.1c0.7,0.9,1,2,1,3.3c0,1.4-0.3,2.7-1,3.8s-1.7,2-3,2.6
					c-1.3,0.6-2.9,0.9-4.7,0.9C316.8,95.4,314.6,94.7,312.9,93.4L312.9,93.4z"/>
			</g>
			<path class="st1" d="M158.2,25.7H85V12.9h73.2V25.7z M85.5,25.2h72.2V13.4H85.5C85.5,13.4,85.5,25.2,85.5,25.2z"/>
		</g>
		<g>
			<g>
				<g id="frente">
					<path class="st2" d="M72.7,95.6c-0.2,0.7-1.2,3.8-3.6,5.6c-0.8,0.6-3.1,2.9-10.8,0.7c-7.2-1.9-9-5.1-15.1-7.2
						c-5.8-2-6.3-0.7-13.2-2.3c-4.3-1-14.6-3.5-22.4-11.9c-2.9-3-8.2-9.6-6.7-14.6c1.1-3.7,5-5.5,5.5-5.7c8.5-3.8,22.2,3.3,27.7,9.8
						c0.9,1.1,4,5,9.3,7.5c1,0.5,6.7,2.2,13.7,3.4C70.5,83.2,74.5,90,72.7,95.6L72.7,95.6L72.7,95.6z"/>
				</g>
				<g id="frente-2">
					<path class="st2" d="M70.1,98.5c-0.7,0.5-3.3,3.1-6.7,3.3c-1.1,0.1-4.6,1.1-11-5.5c-5.8-6-5.9-10.1-10.6-15.7
						c-4.5-5.2-5.7-4.3-11.5-9.7C26.7,67.5,18,59.2,15,46.6c-1.1-4.6-2.7-14,1.8-18.1c3.2-3,8-2.5,8.6-2.5
						c10.4,1.1,19.8,15.8,21.5,25.3c0.3,1.5,1.1,7.2,4.8,12.7c0.7,0.9,5.3,5.9,11.4,11.1C75.1,85,75.1,93.9,70.1,98.5L70.1,98.5
						L70.1,98.5z"/>
				</g>
				<g id="frente-3">
					<path class="st2" d="M66.2,101.8c-0.9,0.2-4.9,0.9-8.2-0.9c-1.1-0.6-5-1.8-7-11.6c-1.9-9.1,0.5-12.9-0.6-20.9
						c-1-7.6-2.8-7.3-4.9-15.9c-1.3-5.4-4.4-18.2,0.3-31.6C47.6,16,51.7,6.4,58.2,5.2C63,4.3,67.2,7.6,67.8,8c9,7.2,9,26.4,5,36.3
						c-0.7,1.6-3.3,7.3-3.1,14.6c0,1.3,1.4,8.6,4,17C78.8,92.3,73.6,100.6,66.2,101.8L66.2,101.8L66.2,101.8z"/>
				</g>
			</g>
			<g>
				<g id="frente-2_00000057146887876372208740000011532680036713142449_">
					<path class="st3" d="M73,91.1c-0.2,0.7-1.2,3.8-3.6,5.6c-0.8,0.6-3.1,2.9-10.8,0.7c-7.2-1.9-9-5.1-15.1-7.2
						c-5.8-2-6.3-0.7-13.2-2.3c-4.3-1-14.6-3.5-22.4-11.9c-2.9-3-8.2-9.6-6.7-14.6c1.1-3.7,5-5.5,5.5-5.7c8.5-3.8,22.2,3.3,27.7,9.8
						c0.9,1.1,4,5,9.3,7.5c1,0.5,6.7,2.2,13.7,3.4C70.9,78.7,74.8,85.4,73,91.1L73,91.1L73,91.1z"/>
				</g>
				<g id="frente-2-2">
					<path class="st4" d="M70.4,94c-0.7,0.5-3.3,3.1-6.7,3.3c-1.1,0.1-4.6,1.1-11-5.5c-5.8-6-5.9-10.1-10.6-15.7
						c-4.5-5.2-5.7-4.3-11.5-9.7C27,63,18.3,54.7,15.4,42.1c-1.1-4.6-2.7-14,1.8-18.1c3.2-3,8-2.5,8.6-2.5
						c10.4,1.1,19.8,15.8,21.5,25.3c0.3,1.5,1.1,7.2,4.8,12.7c0.7,1,5.3,5.9,11.4,11.1C75.4,80.5,75.4,89.4,70.4,94L70.4,94L70.4,94
						z"/>
				</g>
				<g id="frente-3-2">
					<path class="st5" d="M66.6,97.3c-0.9,0.2-4.9,0.9-8.2-0.9c-1.1-0.6-5-1.8-7-11.6c-1.9-9.1,0.5-12.9-0.6-20.9
						c-1-7.6-2.8-7.3-4.9-15.9c-1.3-5.4-4.4-18.2,0.3-31.6C48,11.5,52.1,1.8,58.6,0.6c4.8-0.9,8.9,2.4,9.5,2.8c9,7.2,9,26.4,5,36.3
						c-0.7,1.6-3.3,7.3-3.1,14.6c0,1.3,1.4,8.6,4,17C79.2,87.7,73.9,96,66.6,97.3L66.6,97.3L66.6,97.3z"/>
				</g>
			</g>
		</g>
		<g>
			<path class="st1" d="M91.9,21.8c-0.3,0.1-0.8,0.3-1.5,0.3c-1.6,0-2.8-1-2.8-2.8c0-1.8,1.2-2.9,2.9-2.9c0.7,0,1.1,0.1,1.3,0.2
				l-0.2,0.6c-0.3-0.1-0.7-0.2-1.1-0.2c-1.3,0-2.2,0.8-2.2,2.3c0,1.4,0.8,2.2,2.1,2.2c0.4,0,0.9-0.1,1.2-0.2L91.9,21.8z"/>
			<path class="st1" d="M93.6,16.4v3.3c0,1.3,0.6,1.8,1.3,1.8c0.8,0,1.4-0.5,1.4-1.8v-3.3H97v3.3c0,1.7-0.9,2.4-2.1,2.4
				c-1.1,0-2-0.7-2-2.4v-3.3H93.6z"/>
			<path class="st1" d="M98.2,16.5c0.4-0.1,0.9-0.1,1.4-0.1c0.8,0,1.3,0.1,1.6,0.5c0.3,0.2,0.4,0.6,0.4,1.1c0,0.7-0.5,1.2-1.1,1.4v0
				c0.4,0.1,0.7,0.5,0.8,1.1c0.2,0.8,0.3,1.3,0.4,1.5h-0.7c-0.1-0.2-0.2-0.6-0.4-1.3c-0.2-0.8-0.5-1.1-1.1-1.1h-0.7V22h-0.7V16.5z
				 M98.9,19h0.7c0.8,0,1.3-0.4,1.3-1.1c0-0.7-0.5-1-1.3-1c-0.3,0-0.6,0-0.7,0.1V19z"/>
			<path class="st1" d="M102.6,21.1c0.3,0.2,0.8,0.4,1.3,0.4c0.7,0,1.2-0.4,1.2-1c0-0.5-0.3-0.8-1.1-1.1c-0.9-0.3-1.5-0.8-1.5-1.6
				c0-0.9,0.7-1.5,1.8-1.5c0.6,0,1,0.1,1.2,0.3l-0.2,0.6c-0.2-0.1-0.6-0.3-1.1-0.3c-0.8,0-1.1,0.5-1.1,0.8c0,0.5,0.3,0.8,1.1,1.1
				c0.9,0.4,1.4,0.8,1.4,1.6c0,0.9-0.6,1.6-2,1.6c-0.5,0-1.1-0.2-1.4-0.4L102.6,21.1z"/>
			<path class="st1" d="M111.6,19.2c0,1.9-1.2,2.9-2.6,2.9c-1.5,0-2.5-1.1-2.5-2.8c0-1.8,1.1-2.9,2.6-2.9
				C110.6,16.3,111.6,17.5,111.6,19.2z M107.2,19.2c0,1.2,0.6,2.3,1.8,2.3c1.1,0,1.8-1.1,1.8-2.3c0-1.1-0.6-2.3-1.8-2.3
				C107.8,16.9,107.2,18,107.2,19.2z"/>
			<path class="st1" d="M114.3,16.5c0.3-0.1,0.8-0.1,1.4-0.1c0.7,0,1.2,0.2,1.6,0.5c0.3,0.3,0.5,0.7,0.5,1.2c0,0.5-0.1,0.9-0.4,1.2
				c-0.4,0.4-1,0.6-1.7,0.6c-0.2,0-0.4,0-0.6,0V22h-0.7V16.5z M115,19.2c0.2,0,0.4,0.1,0.6,0.1c0.9,0,1.4-0.4,1.4-1.2
				c0-0.7-0.5-1.1-1.3-1.1c-0.3,0-0.6,0-0.7,0.1V19.2z"/>
			<path class="st1" d="M118.7,16.5c0.4-0.1,0.9-0.1,1.4-0.1c0.8,0,1.3,0.1,1.6,0.5c0.3,0.2,0.4,0.6,0.4,1.1c0,0.7-0.5,1.2-1.1,1.4
				v0c0.4,0.1,0.7,0.5,0.8,1.1c0.2,0.8,0.3,1.3,0.4,1.5h-0.7c-0.1-0.2-0.2-0.6-0.4-1.3c-0.2-0.8-0.5-1.1-1.1-1.1h-0.7V22h-0.7V16.5z
				 M119.4,19h0.7c0.8,0,1.3-0.4,1.3-1.1c0-0.7-0.5-1-1.3-1c-0.3,0-0.6,0-0.7,0.1V19z"/>
			<path class="st1" d="M126,19.4h-2.2v2h2.4V22h-3.1v-5.6h3V17h-2.3v1.8h2.2V19.4z"/>
			<path class="st1" d="M127.1,21.1c0.3,0.2,0.8,0.4,1.3,0.4c0.7,0,1.2-0.4,1.2-1c0-0.5-0.3-0.8-1.1-1.1c-0.9-0.3-1.5-0.8-1.5-1.6
				c0-0.9,0.7-1.5,1.8-1.5c0.6,0,1,0.1,1.2,0.3l-0.2,0.6c-0.2-0.1-0.6-0.3-1.1-0.3c-0.8,0-1.1,0.5-1.1,0.8c0,0.5,0.3,0.8,1.1,1.1
				c0.9,0.4,1.4,0.8,1.4,1.6c0,0.9-0.6,1.6-2,1.6c-0.5,0-1.1-0.2-1.4-0.4L127.1,21.1z"/>
			<path class="st1" d="M134.2,19.4H132v2h2.4V22h-3.1v-5.6h3V17H132v1.8h2.2V19.4z"/>
			<path class="st1" d="M135.4,22v-5.6h0.8l1.8,2.8c0.4,0.7,0.7,1.2,1,1.8l0,0c-0.1-0.7-0.1-1.4-0.1-2.3v-2.3h0.7V22h-0.7l-1.8-2.8
				c-0.4-0.6-0.8-1.3-1-1.9l0,0c0,0.7,0.1,1.4,0.1,2.3V22H135.4z"/>
			<path class="st1" d="M144.8,21.8c-0.3,0.1-0.8,0.3-1.5,0.3c-1.6,0-2.8-1-2.8-2.8c0-1.8,1.2-2.9,2.9-2.9c0.7,0,1.1,0.1,1.3,0.2
				l-0.2,0.6c-0.3-0.1-0.7-0.2-1.1-0.2c-1.3,0-2.2,0.8-2.2,2.3c0,1.4,0.8,2.2,2.1,2.2c0.4,0,0.9-0.1,1.2-0.2L144.8,21.8z"/>
			<path class="st1" d="M146.4,16.4V22h-0.7v-5.6H146.4z"/>
			<path class="st1" d="M148.6,20.3L148,22h-0.7l1.9-5.6h0.9l1.9,5.6h-0.8l-0.6-1.8H148.6z M150.4,19.7l-0.5-1.6
				c-0.1-0.4-0.2-0.7-0.3-1h0c-0.1,0.3-0.2,0.7-0.3,1l-0.5,1.6H150.4z"/>
			<path class="st1" d="M152.8,16.4h0.7v5h2.4V22h-3.1V16.4z"/>
		</g>
	</g>
</g>
</svg>
