<?xml version="1.0" encoding="utf-8"?>
<!-- Generator: Adobe Illustrator 27.2.0, SVG Export Plug-In . SVG Version: 6.00 Build 0)  -->
<svg version="1.1" id="Layer_2_00000113343669170986248240000001221335897059313075_"
	 xmlns="http://www.w3.org/2000/svg" xmlns:xlink="http://www.w3.org/1999/xlink" x="0px" y="0px" viewBox="0 0 328.3 103.3"
	 style="enable-background:new 0 0 328.3 103.3;" xml:space="preserve">
<style type="text/css">
	.st0{fill:#FFFFFF;}
	.st1{fill:#58A5F7;}
	.st2{fill:#FFFFFF;stroke:#FFFFFF;stroke-miterlimit:10;}
	.st3{fill:#11E9DE;stroke:#FFFFFF;stroke-miterlimit:10;}
	.st4{fill:#0986BF;stroke:#FFFFFF;stroke-miterlimit:10;}
	.st5{fill:#58A5F7;stroke:#FFFFFF;stroke-miterlimit:10;}
</style>
<g id="Layer_2-2">
	<g>
		<g>
			<path class="st0" d="M102.6,45.4c-0.7,1.2-1.7,2.1-2.9,2.8c-1.3,0.7-2.9,1-4.7,1h-2.8v7.2h-7.2V33.7h10c2.8,0,4.9,0.7,6.4,2.1
				c1.5,1.4,2.2,3.3,2.2,5.7C103.6,42.9,103.2,44.2,102.6,45.4L102.6,45.4L102.6,45.4z M96.3,41.5c0-1.4-0.7-2.1-2.2-2.1h-2v4.2h2
				C95.6,43.6,96.3,42.9,96.3,41.5L96.3,41.5L96.3,41.5z"/>
			<path class="st0" d="M120.5,53h-7.6l-1.1,3.5h-7.5l8.3-22.8h8.2l8.3,22.8h-7.5C121.6,56.5,120.5,53,120.5,53z M118.7,47.6
				l-2.1-6.3l-2.1,6.3H118.7L118.7,47.6z"/>
			<path class="st0" d="M137.9,51.1h6.9v5.4h-14.1V33.7h7.2V51.1L137.9,51.1L137.9,51.1z"/>
			<path class="st0" d="M174.5,33.7v22.8h-7.1V45.1l-3.5,11.4h-6.1l-3.5-11.4v11.4h-7.2V33.7h8.8l5,13.7l4.9-13.7H174.5L174.5,33.7
				L174.5,33.7z"/>
			<path class="st0" d="M184.9,33.7v22.8h-7.2V33.7H184.9z"/>
			<path class="st0" d="M195.3,51.1h6.9v5.4h-14.1V33.7h7.2L195.3,51.1L195.3,51.1L195.3,51.1z"/>
			<path class="st0" d="M225.5,33.7v22.8h-7.2v-8.9h-6.8v8.9h-7.2V33.7h7.2v8.2h6.8v-8.2H225.5z"/>
			<path class="st0" d="M243.4,53h-7.6l-1.1,3.5h-7.5l8.4-22.8h8.2l8.3,22.8h-7.5L243.4,53L243.4,53L243.4,53z M241.7,47.6l-2.1-6.3
				l-2.1,6.3H241.7L241.7,47.6L241.7,47.6z"/>
			<path class="st0" d="M255.9,54.8c-1.8-1.3-2.7-3.2-2.9-5.6h7.6c0.1,1.3,0.7,2,1.7,2c0.4,0,0.7-0.1,1-0.3c0.3-0.2,0.4-0.5,0.4-0.8
				c0-0.5-0.3-1-0.9-1.3c-0.6-0.3-1.5-0.7-2.7-1.1c-1.5-0.5-2.7-1-3.6-1.5c-1-0.5-1.8-1.2-2.5-2.2s-1-2.2-1-3.6
				c0-1.5,0.4-2.8,1.1-3.8s1.8-1.8,3.1-2.4c1.3-0.5,2.8-0.8,4.5-0.8c2.8,0,5,0.6,6.7,1.9c1.6,1.3,2.5,3.1,2.6,5.5h-7.7
				c0-0.7-0.2-1.1-0.5-1.4s-0.7-0.4-1.1-0.4c-0.3,0-0.5,0.1-0.7,0.3c-0.2,0.2-0.3,0.5-0.3,0.8c0,0.5,0.3,0.9,0.9,1.3
				s1.5,0.7,2.7,1.2c1.4,0.5,2.6,1,3.6,1.5c0.9,0.5,1.8,1.2,2.4,2.1c0.7,0.9,1,2,1,3.3c0,1.4-0.3,2.7-1,3.8c-0.7,1.1-1.7,2-3,2.6
				c-1.3,0.6-2.9,0.9-4.7,0.9C259.8,56.7,257.6,56,255.9,54.8L255.9,54.8L255.9,54.8z"/>
			<path class="st1" d="M102.8,72.3V78h-6.1v17.2h-7.2V78h-6v-5.7C83.6,72.3,102.9,72.3,102.8,72.3z"/>
			<path class="st1" d="M111.9,78v2.8h7.1v5.4h-7.1v3.2h8.1v5.7h-15.2V72.3H120V78H111.9z"/>
			<path class="st1" d="M134.2,95.2l-4.3-8.2h0v8.2h-7.2V72.3h10.6c1.9,0,3.4,0.3,4.7,1c1.3,0.7,2.3,1.6,2.9,2.7s1,2.4,1,3.8
				c0,1.5-0.4,2.9-1.3,4.1s-2.1,2-3.7,2.6l5,8.7L134.2,95.2L134.2,95.2L134.2,95.2z M129.9,82.2h2.8c0.7,0,1.2-0.2,1.6-0.5
				c0.3-0.3,0.5-0.8,0.5-1.5c0-0.6-0.2-1.1-0.5-1.4c-0.4-0.3-0.9-0.5-1.5-0.5h-2.8L129.9,82.2L129.9,82.2L129.9,82.2z"/>
			<path class="st1" d="M158.9,91.7h-7.6l-1.1,3.4h-7.5l8.4-22.8h8.2l8.3,22.8h-7.5L158.9,91.7L158.9,91.7L158.9,91.7z M157.2,86.3
				l-2.1-6.3l-2.1,6.3H157.2L157.2,86.3L157.2,86.3z"/>
			<path class="st1" d="M186.9,84.1c-0.7,1.2-1.6,2.1-2.9,2.8s-2.9,1-4.7,1h-2.8v7.2h-7.2V72.3h10c2.8,0,4.9,0.7,6.4,2.1
				c1.5,1.4,2.2,3.3,2.2,5.7C187.9,81.6,187.6,82.9,186.9,84.1L186.9,84.1L186.9,84.1z M180.6,80.2c0-1.4-0.7-2.1-2.2-2.1h-2v4.2h2
				C179.9,82.2,180.6,81.5,180.6,80.2L180.6,80.2L180.6,80.2z"/>
			<path class="st1" d="M197.3,78v2.8h7.1v5.4h-7.1v3.2h8.1v5.7h-15.2V72.3h15.2V78H197.3z M197.6,68.5l-5.4,2.5v-4.6l5.4-2.4
				l5.3,2.4V71L197.6,68.5z"/>
			<path class="st1" d="M215.1,72.3v12.9c0,1.1,0.2,1.9,0.7,2.5s1.2,0.9,2.2,0.9s1.8-0.3,2.3-0.9c0.5-0.6,0.7-1.4,0.7-2.5V72.3h7.1
				v12.9c0,2.2-0.4,4-1.4,5.6c-0.9,1.5-2.1,2.7-3.7,3.5c-1.6,0.8-3.3,1.2-5.2,1.2s-3.6-0.4-5.1-1.2c-1.5-0.8-2.7-1.9-3.5-3.4
				s-1.3-3.4-1.3-5.6V72.3H215.1z"/>
			<path class="st1" d="M249.2,72.3V78h-6.1v17.2h-7.2V78h-6v-5.7H249.2z"/>
			<path class="st1" d="M258.3,72.3v22.8h-7.2V72.3H258.3z"/>
			<path class="st1" d="M262.2,77.7c0.9-1.8,2.2-3.1,3.9-4.1s3.7-1.5,6-1.5c2,0,3.7,0.4,5.3,1.1s2.8,1.8,3.8,3.1
				c1,1.3,1.6,2.9,2,4.7h-7.5c-0.3-0.8-0.8-1.3-1.5-1.8c-0.6-0.4-1.4-0.6-2.2-0.6c-1.2,0-2.2,0.4-2.9,1.3c-0.7,0.9-1,2.1-1,3.6
				s0.4,2.7,1,3.6c0.7,0.9,1.6,1.3,2.9,1.3c0.8,0,1.5-0.2,2.2-0.6c0.6-0.4,1.1-1,1.5-1.8h7.5c-0.3,1.8-1,3.4-2,4.7
				c-1,1.3-2.2,2.4-3.8,3.1c-1.6,0.7-3.3,1.1-5.3,1.1c-2.3,0-4.3-0.5-6-1.5s-3-2.3-3.9-4.1c-0.9-1.8-1.4-3.8-1.4-6
				S261.3,79.4,262.2,77.7C262.2,77.6,262.2,77.7,262.2,77.7z"/>
			<path class="st1" d="M300.4,91.7h-7.6l-1.1,3.4h-7.5l8.4-22.8h8.2l8.3,22.8h-7.5L300.4,91.7z M298.7,86.3l-2.1-6.3l-2.1,6.3
				H298.7L298.7,86.3z"/>
			<path class="st1" d="M312.9,93.5c-1.8-1.3-2.7-3.2-2.9-5.6h7.6c0.1,1.3,0.7,2,1.7,2c0.4,0,0.7-0.1,1-0.3c0.3-0.2,0.4-0.5,0.4-0.8
				c0-0.5-0.3-1-0.9-1.3c-0.6-0.3-1.5-0.7-2.7-1.1c-1.5-0.5-2.7-1-3.6-1.5c-1-0.5-1.8-1.2-2.5-2.2c-0.7-0.9-1-2.2-1-3.6
				c0-1.5,0.4-2.8,1.1-3.8s1.8-1.8,3.1-2.4s2.8-0.8,4.5-0.8c2.8,0,5,0.6,6.7,1.9c1.6,1.3,2.5,3.1,2.6,5.4h-7.7
				c0-0.7-0.2-1.1-0.5-1.4s-0.7-0.4-1.1-0.4c-0.3,0-0.5,0.1-0.7,0.3c-0.2,0.2-0.3,0.5-0.3,0.8c0,0.5,0.3,0.9,0.9,1.3
				c0.6,0.3,1.5,0.7,2.7,1.2c1.4,0.5,2.6,1.1,3.6,1.6c0.9,0.5,1.8,1.2,2.4,2.1c0.7,0.9,1,2,1,3.3c0,1.4-0.3,2.7-1,3.8s-1.7,2-3,2.6
				c-1.3,0.6-2.9,0.9-4.7,0.9C316.8,95.4,314.6,94.7,312.9,93.5L312.9,93.5L312.9,93.5z"/>
		</g>
		<g>
			<g>
				<path class="st1" d="M88.1,10.9c0.4-0.7,0.9-1.2,1.5-1.5C90.2,9,91,8.8,91.8,8.8c1,0,1.9,0.3,2.6,0.8c0.7,0.5,1.2,1.2,1.4,2.2
					h-2.3c-0.2-0.4-0.4-0.6-0.7-0.8c-0.3-0.2-0.7-0.3-1.1-0.3c-0.6,0-1.1,0.2-1.5,0.7c-0.4,0.4-0.6,1-0.6,1.8c0,0.7,0.2,1.3,0.6,1.8
					c0.4,0.4,0.9,0.7,1.5,0.7c0.4,0,0.7-0.1,1.1-0.3c0.3-0.2,0.5-0.5,0.7-0.8h2.3c-0.2,0.9-0.7,1.6-1.4,2.2
					c-0.7,0.5-1.6,0.8-2.6,0.8c-0.8,0-1.5-0.2-2.2-0.5c-0.6-0.4-1.1-0.9-1.5-1.5s-0.5-1.4-0.5-2.2S87.7,11.5,88.1,10.9z"/>
				<path class="st1" d="M99.1,8.9v5c0,0.5,0.1,0.9,0.4,1.2c0.2,0.3,0.6,0.4,1.1,0.4s0.8-0.1,1.1-0.4c0.3-0.3,0.4-0.7,0.4-1.2v-5
					h2.1v5c0,0.8-0.2,1.4-0.5,1.9c-0.3,0.5-0.8,0.9-1.3,1.2s-1.1,0.4-1.8,0.4s-1.3-0.1-1.8-0.4c-0.5-0.3-0.9-0.7-1.2-1.2
					c-0.3-0.5-0.5-1.2-0.5-1.9v-5H99.1z"/>
				<path class="st1" d="M109.8,17.3l-1.8-3.2h-0.5v3.2h-2.1V8.9h3.4c0.7,0,1.2,0.1,1.7,0.3c0.5,0.2,0.8,0.6,1,1
					c0.2,0.4,0.3,0.9,0.3,1.4c0,0.6-0.2,1.1-0.5,1.5c-0.3,0.4-0.8,0.8-1.4,0.9l1.9,3.3H109.8z M107.6,12.7h1.3
					c0.4,0,0.7-0.1,0.8-0.3c0.2-0.2,0.3-0.4,0.3-0.8c0-0.3-0.1-0.6-0.3-0.8s-0.5-0.3-0.8-0.3h-1.3V12.7z"/>
				<path class="st1" d="M114.7,17.1c-0.5-0.2-0.9-0.5-1.2-0.9s-0.4-0.9-0.5-1.4h2.2c0,0.3,0.1,0.6,0.3,0.7c0.2,0.2,0.4,0.2,0.7,0.2
					c0.3,0,0.5-0.1,0.7-0.2c0.2-0.1,0.3-0.3,0.3-0.6c0-0.2-0.1-0.4-0.2-0.5c-0.1-0.1-0.3-0.2-0.5-0.3c-0.2-0.1-0.5-0.2-0.9-0.3
					c-0.5-0.2-1-0.3-1.3-0.5c-0.3-0.2-0.6-0.4-0.9-0.7s-0.4-0.8-0.4-1.3c0-0.8,0.3-1.4,0.9-1.8s1.3-0.7,2.2-0.7
					c0.9,0,1.7,0.2,2.2,0.7c0.6,0.4,0.9,1.1,0.9,1.9h-2.2c0-0.3-0.1-0.5-0.3-0.6c-0.2-0.2-0.4-0.2-0.7-0.2c-0.2,0-0.4,0.1-0.6,0.2
					c-0.2,0.1-0.2,0.3-0.2,0.6c0,0.3,0.1,0.5,0.4,0.6c0.3,0.2,0.7,0.3,1.2,0.5c0.5,0.2,1,0.4,1.3,0.5s0.6,0.4,0.9,0.7
					c0.2,0.3,0.4,0.7,0.4,1.2c0,0.5-0.1,0.9-0.4,1.3c-0.2,0.4-0.6,0.7-1.1,0.9c-0.5,0.2-1,0.3-1.6,0.3
					C115.8,17.4,115.2,17.3,114.7,17.1z"/>
				<path class="st1" d="M122.5,16.8c-0.7-0.4-1.2-0.9-1.6-1.5c-0.4-0.7-0.6-1.4-0.6-2.2c0-0.8,0.2-1.6,0.6-2.2
					c0.4-0.7,0.9-1.2,1.6-1.5c0.7-0.4,1.4-0.6,2.2-0.6s1.5,0.2,2.2,0.6c0.7,0.4,1.2,0.9,1.6,1.5c0.4,0.7,0.6,1.4,0.6,2.2
					c0,0.8-0.2,1.6-0.6,2.2c-0.4,0.7-0.9,1.2-1.6,1.5c-0.7,0.4-1.4,0.6-2.2,0.6S123.2,17.2,122.5,16.8z M126.3,14.9
					c0.4-0.4,0.6-1,0.6-1.8c0-0.7-0.2-1.3-0.6-1.8c-0.4-0.4-0.9-0.7-1.6-0.7c-0.7,0-1.2,0.2-1.6,0.7c-0.4,0.4-0.6,1-0.6,1.8
					c0,0.7,0.2,1.3,0.6,1.8c0.4,0.4,0.9,0.7,1.6,0.7C125.4,15.5,125.9,15.3,126.3,14.9z"/>
				<path class="st1" d="M131.5,17.1c-0.5-0.2-0.9-0.5-1.2-0.9s-0.4-0.9-0.5-1.4h2.2c0,0.3,0.1,0.6,0.3,0.7c0.2,0.2,0.4,0.2,0.7,0.2
					c0.3,0,0.5-0.1,0.7-0.2c0.2-0.1,0.3-0.3,0.3-0.6c0-0.2-0.1-0.4-0.2-0.5c-0.1-0.1-0.3-0.2-0.5-0.3c-0.2-0.1-0.5-0.2-0.9-0.3
					c-0.5-0.2-1-0.3-1.3-0.5c-0.3-0.2-0.6-0.4-0.9-0.7s-0.4-0.8-0.4-1.3c0-0.8,0.3-1.4,0.9-1.8s1.3-0.7,2.2-0.7
					c0.9,0,1.7,0.2,2.2,0.7c0.6,0.4,0.9,1.1,0.9,1.9h-2.2c0-0.3-0.1-0.5-0.3-0.6c-0.2-0.2-0.4-0.2-0.7-0.2c-0.2,0-0.4,0.1-0.6,0.2
					c-0.2,0.1-0.2,0.3-0.2,0.6c0,0.3,0.1,0.5,0.4,0.6c0.3,0.2,0.7,0.3,1.2,0.5c0.5,0.2,1,0.4,1.3,0.5s0.6,0.4,0.9,0.7
					c0.2,0.3,0.4,0.7,0.4,1.2c0,0.5-0.1,0.9-0.4,1.3c-0.2,0.4-0.6,0.7-1.1,0.9c-0.5,0.2-1,0.3-1.6,0.3
					C132.6,17.4,132,17.3,131.5,17.1z"/>
				<path class="st1" d="M146.1,12.9c-0.2,0.4-0.6,0.7-1,1s-1,0.4-1.7,0.4h-1.3v3h-2.1V8.9h3.3c0.7,0,1.2,0.1,1.7,0.3
					c0.5,0.2,0.8,0.6,1,1c0.2,0.4,0.3,0.9,0.3,1.4C146.5,12.1,146.4,12.5,146.1,12.9z M144.1,12.4c0.2-0.2,0.3-0.4,0.3-0.8
					s-0.1-0.6-0.3-0.8c-0.2-0.2-0.5-0.3-0.9-0.3h-1.1v2.1h1.1C143.6,12.7,143.9,12.6,144.1,12.4z"/>
				<path class="st1" d="M151.8,17.3l-1.8-3.2h-0.5v3.2h-2.1V8.9h3.4c0.7,0,1.2,0.1,1.7,0.3c0.5,0.2,0.8,0.6,1,1
					c0.2,0.4,0.3,0.9,0.3,1.4c0,0.6-0.2,1.1-0.5,1.5c-0.3,0.4-0.8,0.8-1.4,0.9l1.9,3.3H151.8z M149.6,12.7h1.3
					c0.4,0,0.7-0.1,0.8-0.3c0.2-0.2,0.3-0.4,0.3-0.8c0-0.3-0.1-0.6-0.3-0.8s-0.5-0.3-0.8-0.3h-1.3V12.7z"/>
				<path class="st1" d="M157.4,10.5v1.7h2.7v1.6h-2.7v1.8h3.1v1.6h-5.2V8.9h5.2v1.6H157.4z"/>
				<path class="st1" d="M163.3,17.1c-0.5-0.2-0.9-0.5-1.2-0.9s-0.4-0.9-0.5-1.4h2.2c0,0.3,0.1,0.6,0.3,0.7c0.2,0.2,0.4,0.2,0.7,0.2
					c0.3,0,0.5-0.1,0.7-0.2c0.2-0.1,0.3-0.3,0.3-0.6c0-0.2-0.1-0.4-0.2-0.5c-0.1-0.1-0.3-0.2-0.5-0.3c-0.2-0.1-0.5-0.2-0.9-0.3
					c-0.5-0.2-1-0.3-1.3-0.5s-0.6-0.4-0.9-0.7c-0.2-0.3-0.4-0.8-0.4-1.3c0-0.8,0.3-1.4,0.9-1.8s1.3-0.7,2.2-0.7
					c0.9,0,1.7,0.2,2.2,0.7s0.9,1.1,0.9,1.9h-2.2c0-0.3-0.1-0.5-0.3-0.6c-0.2-0.2-0.4-0.2-0.7-0.2c-0.2,0-0.4,0.1-0.6,0.2
					c-0.2,0.1-0.2,0.3-0.2,0.6c0,0.3,0.1,0.5,0.4,0.6c0.3,0.2,0.7,0.3,1.2,0.5c0.5,0.2,1,0.4,1.3,0.5c0.3,0.2,0.6,0.4,0.9,0.7
					c0.2,0.3,0.4,0.7,0.4,1.2c0,0.5-0.1,0.9-0.4,1.3c-0.2,0.4-0.6,0.7-1.1,0.9c-0.5,0.2-1,0.3-1.6,0.3
					C164.3,17.4,163.7,17.3,163.3,17.1z"/>
				<path class="st1" d="M171.3,10.5v1.7h2.7v1.6h-2.7v1.8h3.1v1.6h-5.2V8.9h5.2v1.6H171.3z"/>
				<path class="st1" d="M183.3,17.3h-2.1l-3.4-5.2v5.2h-2.1V8.9h2.1l3.4,5.2V8.9h2.1V17.3z"/>
				<path class="st1" d="M185,10.9c0.4-0.7,0.9-1.2,1.5-1.5c0.6-0.4,1.4-0.5,2.2-0.5c1,0,1.9,0.3,2.6,0.8s1.2,1.2,1.4,2.2h-2.3
					c-0.2-0.4-0.4-0.6-0.7-0.8c-0.3-0.2-0.7-0.3-1-0.3c-0.6,0-1.1,0.2-1.5,0.7c-0.4,0.4-0.6,1-0.6,1.8c0,0.7,0.2,1.3,0.6,1.8
					c0.4,0.4,0.9,0.7,1.5,0.7c0.4,0,0.7-0.1,1-0.3c0.3-0.2,0.5-0.5,0.7-0.8h2.3c-0.2,0.9-0.7,1.6-1.4,2.2s-1.6,0.8-2.6,0.8
					c-0.8,0-1.5-0.2-2.2-0.5c-0.6-0.4-1.1-0.9-1.5-1.5c-0.4-0.6-0.5-1.4-0.5-2.2S184.6,11.5,185,10.9z"/>
				<path class="st1" d="M196,8.9v8.4h-2.1V8.9H196z"/>
				<path class="st1" d="M202.7,15.8h-3.1l-0.5,1.5h-2.1l3-8.4h2.4l3,8.4h-2.2L202.7,15.8z M202.2,14.2l-1-3.1l-1,3.1H202.2z"/>
				<path class="st1" d="M208.3,8.9v8.4h-2.1V8.9H208.3z"/>
				<path class="st1" d="M211.2,17.1c-0.5-0.2-0.9-0.5-1.2-0.9s-0.4-0.9-0.5-1.4h2.2c0,0.3,0.1,0.6,0.3,0.7c0.2,0.2,0.4,0.2,0.7,0.2
					c0.3,0,0.5-0.1,0.7-0.2c0.2-0.1,0.3-0.3,0.3-0.6c0-0.2-0.1-0.4-0.2-0.5c-0.1-0.1-0.3-0.2-0.5-0.3c-0.2-0.1-0.5-0.2-0.9-0.3
					c-0.5-0.2-1-0.3-1.3-0.5s-0.6-0.4-0.9-0.7c-0.2-0.3-0.4-0.8-0.4-1.3c0-0.8,0.3-1.4,0.9-1.8s1.3-0.7,2.2-0.7
					c0.9,0,1.7,0.2,2.2,0.7s0.9,1.1,0.9,1.9h-2.2c0-0.3-0.1-0.5-0.3-0.6c-0.2-0.2-0.4-0.2-0.7-0.2c-0.2,0-0.4,0.1-0.6,0.2
					c-0.2,0.1-0.2,0.3-0.2,0.6c0,0.3,0.1,0.5,0.4,0.6c0.3,0.2,0.7,0.3,1.2,0.5c0.5,0.2,1,0.4,1.3,0.5c0.3,0.2,0.6,0.4,0.9,0.7
					c0.2,0.3,0.4,0.7,0.4,1.2c0,0.5-0.1,0.9-0.4,1.3c-0.2,0.4-0.6,0.7-1.1,0.9c-0.5,0.2-1,0.3-1.6,0.3
					C212.3,17.4,211.7,17.3,211.2,17.1z"/>
			</g>
			<g>
				<path class="st1" d="M219.3,20H84.2V6.2h135.2V20z M85.2,19h133.2V7.2H85.2V19z"/>
			</g>
		</g>
	</g>
	<g>
		<g>
			<g id="frente">
				<path class="st2" d="M70.8,96c-0.2,0.7-1.1,3.6-3.4,5.2c-0.8,0.6-2.9,2.7-10.2,0.7c-6.8-1.8-8.5-4.8-14.3-6.8
					c-5.5-1.9-5.9-0.7-12.4-2.2C26.3,92,16.6,89.6,9.2,81.7c-2.7-2.9-7.8-9-6.3-13.8c1.1-3.5,4.7-5.2,5.2-5.4
					c8-3.6,20.9,3.1,26.2,9.2c0.8,1,3.8,4.7,8.8,7.1c0.9,0.4,6.3,2.1,12.9,3.2C68.7,84.3,72.5,90.7,70.8,96L70.8,96L70.8,96z"/>
			</g>
			<g id="frente-2">
				<path class="st2" d="M68.3,98.8c-0.6,0.5-3.1,2.9-6.3,3.2c-1.1,0.1-4.4,1-10.4-5.2c-5.5-5.7-5.6-9.5-10-14.8
					c-4.2-4.9-5.4-4-10.9-9.2c-3.4-3.3-11.6-11.1-14.3-23c-1-4.3-2.5-13.2,1.7-17.1c3-2.8,7.6-2.4,8.1-2.3
					c9.8,1,18.7,14.9,20.3,23.9c0.3,1.5,1,6.8,4.5,12c0.6,0.9,5,5.6,10.8,10.4C73,86,73,94.4,68.3,98.8
					C68.3,98.8,68.3,98.8,68.3,98.8z"/>
			</g>
			<g id="frente-3">
				<path class="st2" d="M64.7,101.9c-0.9,0.2-4.6,0.9-7.7-0.8c-1.1-0.6-4.7-1.7-6.6-11c-1.8-8.5,0.5-12.2-0.6-19.7
					c-1-7.1-2.7-6.9-4.6-15c-1.2-5.1-4.1-17.2,0.3-29.9c1.6-4.6,5.5-13.7,11.7-14.9c4.5-0.8,8.4,2.3,9,2.7c8.5,6.8,8.5,25,4.7,34.2
					c-0.6,1.5-3.1,6.9-2.9,13.8c0,1.2,1.3,8.1,3.8,16.1C76.6,92.9,71.6,100.7,64.7,101.9L64.7,101.9L64.7,101.9z"/>
			</g>
		</g>
		<g>
			<g id="frente-2-2">
				<path class="st3" d="M71.1,91.8c-0.2,0.7-1.1,3.6-3.4,5.2c-0.8,0.6-2.9,2.7-10.2,0.7c-6.8-1.8-8.5-4.8-14.3-6.8
					c-5.5-1.9-5.9-0.7-12.4-2.2c-4.1-0.9-13.8-3.3-21.2-11.2c-2.7-2.9-7.8-9-6.3-13.8c1.1-3.5,4.7-5.2,5.2-5.4
					c8-3.6,20.9,3.1,26.2,9.2c0.8,1,3.8,4.7,8.8,7.1c0.9,0.4,6.3,2.1,12.9,3.2C69.1,80,72.8,86.4,71.1,91.8L71.1,91.8L71.1,91.8z"/>
			</g>
			<g id="frente-2-2_00000131364844232868788460000016446710329321154231_">
				<path class="st4" d="M68.6,94.5c-0.6,0.5-3.1,2.9-6.3,3.2c-1.1,0.1-4.4,1-10.4-5.2c-5.5-5.7-5.6-9.5-10-14.8
					c-4.2-4.9-5.4-4-10.9-9.2c-3.4-3.3-11.6-11.1-14.3-23c-1-4.3-2.5-13.2,1.7-17.1c3-2.8,7.6-2.4,8.1-2.3
					c9.8,1,18.7,14.9,20.3,23.9c0.3,1.5,1,6.8,4.5,12c0.6,0.9,5,5.6,10.8,10.4C73.3,81.7,73.4,90.1,68.6,94.5
					C68.7,94.5,68.6,94.5,68.6,94.5z"/>
			</g>
			<g id="frente-3-2">
				<path class="st5" d="M65,97.6c-0.9,0.2-4.6,0.9-7.7-0.8c-1.1-0.6-4.7-1.7-6.6-11c-1.8-8.5,0.5-12.2-0.6-19.7
					c-1-7.1-2.7-6.9-4.6-15c-1.2-5.1-4.1-17.2,0.3-29.9c1.6-4.6,5.5-13.7,11.7-14.9c4.5-0.8,8.4,2.3,9,2.7c8.5,6.8,8.5,25,4.7,34.2
					c-0.6,1.5-3.1,6.9-2.9,13.8c0,1.2,1.3,8.1,3.8,16.1C76.9,88.6,72,96.4,65,97.6L65,97.6L65,97.6z"/>
			</g>
		</g>
	</g>
</g>
</svg>
