<?xml version="1.0" encoding="UTF-8"?>
<svg id="Layer_2" data-name="Layer 2" xmlns="http://www.w3.org/2000/svg" xmlns:xlink="http://www.w3.org/1999/xlink" viewBox="0 0 1920.39 74.33">
  <defs>
    <style>
      .cls-1 {
        fill: #fff;
      }

      .cls-2 {
        clip-path: url(#clippath);
      }

      .cls-3 {
        fill: none;
      }
    </style>
    <clipPath id="clippath">
      <rect class="cls-3" width="1920.39" height="74.33"/>
    </clipPath>
  </defs>
  <g id="Layer_1-2" data-name="Layer 1">
    <g class="cls-2">
      <g>
        <g id="Layer_1-2" data-name="Layer 1-2">
          <path class="cls-1" d="m69.74,34.85c0,19.25-15.59,34.89-34.89,34.89-1.99,0-3.94-.16-5.81-.48v-17.94c1.83.63,3.78.99,5.81.99,9.63,0,17.42-7.79,17.42-17.42s-7.79-17.42-17.42-17.42-17.42,7.79-17.42,17.42v34.89H0v-34.89C0,15.63,15.59,0,34.89,0c19.25-.04,34.85,15.55,34.85,34.85"/>
        </g>
        <g id="Layer_1-2-2" data-name="Layer 1-2">
          <path class="cls-1" d="m175.7,34.85c0,19.25-15.59,34.89-34.89,34.89-1.99,0-3.94-.16-5.81-.48v-17.94c1.83.63,3.78.99,5.81.99,9.63,0,17.42-7.79,17.42-17.42s-7.79-17.42-17.42-17.42-17.42,7.79-17.42,17.42v34.89h-17.43v-34.89C105.96,15.63,121.56,0,140.85,0c19.25-.04,34.85,15.55,34.85,34.85"/>
        </g>
        <g id="Layer_1-2-3" data-name="Layer 1-2">
          <path class="cls-1" d="m281.66,34.85c0,19.25-15.59,34.89-34.89,34.89-1.99,0-3.94-.16-5.81-.48v-17.94c1.83.63,3.78.99,5.81.99,9.63,0,17.42-7.79,17.42-17.42s-7.79-17.42-17.42-17.42-17.42,7.79-17.42,17.42v34.89h-17.43v-34.89C211.93,15.63,227.52,0,246.82,0c19.25-.04,34.85,15.55,34.85,34.85"/>
        </g>
        <g id="Layer_1-2-4" data-name="Layer 1-2">
          <path class="cls-1" d="m387.63,34.85c0,19.25-15.59,34.89-34.89,34.89-1.99,0-3.94-.16-5.81-.48v-17.94c1.83.63,3.78.99,5.81.99,9.63,0,17.42-7.79,17.42-17.42s-7.79-17.42-17.42-17.42-17.42,7.79-17.42,17.42v34.89h-17.43v-34.89C317.89,15.63,333.48,0,352.78,0c19.25-.04,34.85,15.55,34.85,34.85"/>
        </g>
        <g id="Layer_1-2-5" data-name="Layer 1-2">
          <path class="cls-1" d="m493.59,34.85c0,19.25-15.59,34.89-34.89,34.89-1.99,0-3.94-.16-5.81-.48v-17.94c1.83.63,3.78.99,5.81.99,9.63,0,17.42-7.79,17.42-17.42s-7.79-17.42-17.42-17.42-17.42,7.79-17.42,17.42v34.89h-17.43v-34.89C423.85,15.63,439.45,0,458.74,0c19.25-.04,34.85,15.55,34.85,34.85"/>
        </g>
        <g id="Layer_1-2-6" data-name="Layer 1-2">
          <path class="cls-1" d="m599.55,34.85c0,19.25-15.59,34.89-34.89,34.89-1.99,0-3.94-.16-5.81-.48v-17.94c1.83.63,3.78.99,5.81.99,9.63,0,17.42-7.79,17.42-17.42s-7.79-17.42-17.42-17.42-17.42,7.79-17.42,17.42v34.89h-17.43v-34.89C529.82,15.63,545.41,0,564.71,0c19.25-.04,34.85,15.55,34.85,34.85"/>
        </g>
        <g id="Layer_1-2-7" data-name="Layer 1-2">
          <path class="cls-1" d="m705.52,34.85c0,19.25-15.59,34.89-34.89,34.89-1.99,0-3.94-.16-5.81-.48v-17.94c1.83.63,3.78.99,5.81.99,9.63,0,17.42-7.79,17.42-17.42s-7.79-17.42-17.42-17.42-17.42,7.79-17.42,17.42v34.89h-17.43v-34.89C635.78,15.63,651.38,0,670.67,0c19.25-.04,34.85,15.55,34.85,34.85"/>
        </g>
        <g id="Layer_1-2-8" data-name="Layer 1-2">
          <path class="cls-1" d="m811.48,34.85c0,19.25-15.59,34.89-34.89,34.89-1.99,0-3.94-.16-5.81-.48v-17.94c1.83.63,3.78.99,5.81.99,9.63,0,17.42-7.79,17.42-17.42s-7.79-17.42-17.42-17.42-17.42,7.79-17.42,17.42v34.89h-17.43v-34.89C741.75,15.63,757.34,0,776.63,0c19.25-.04,34.85,15.55,34.85,34.85"/>
        </g>
        <g id="Layer_1-2-9" data-name="Layer 1-2">
          <path class="cls-1" d="m917.44,34.85c0,19.25-15.59,34.89-34.89,34.89-1.99,0-3.94-.16-5.81-.48v-17.94c1.83.63,3.78.99,5.81.99,9.63,0,17.42-7.79,17.42-17.42s-7.79-17.42-17.42-17.42-17.42,7.79-17.42,17.42v34.89h-17.43v-34.89C847.71,15.63,863.3,0,882.6,0c19.25-.04,34.85,15.55,34.85,34.85"/>
        </g>
        <g id="Layer_1-2-10" data-name="Layer 1-2">
          <path class="cls-1" d="m1023.41,34.85c0,19.25-15.59,34.89-34.89,34.89-1.99,0-3.94-.16-5.81-.48v-17.94c1.83.63,3.78.99,5.81.99,9.63,0,17.42-7.79,17.42-17.42s-7.79-17.42-17.42-17.42-17.42,7.79-17.42,17.42v34.89h-17.43v-34.89C953.67,15.63,969.27,0,988.56,0c19.25-.04,34.85,15.55,34.85,34.85"/>
        </g>
        <g id="Layer_1-2-11" data-name="Layer 1-2">
          <path class="cls-1" d="m1129.37,34.85c0,19.25-15.59,34.89-34.89,34.89-1.99,0-3.94-.16-5.81-.48v-17.94c1.83.63,3.78.99,5.81.99,9.63,0,17.42-7.79,17.42-17.42s-7.79-17.42-17.42-17.42-17.42,7.79-17.42,17.42v34.89h-17.43v-34.89C1059.64,15.63,1075.23,0,1094.52,0c19.25-.04,34.85,15.55,34.85,34.85"/>
        </g>
        <g id="Layer_1-2-12" data-name="Layer 1-2">
          <path class="cls-1" d="m1235.34,34.85c0,19.25-15.59,34.89-34.89,34.89-1.99,0-3.94-.16-5.81-.48v-17.94c1.83.63,3.78.99,5.81.99,9.63,0,17.42-7.79,17.42-17.42s-7.79-17.42-17.42-17.42-17.42,7.79-17.42,17.42v34.89h-17.43v-34.89C1165.6,15.63,1181.19,0,1200.49,0c19.25-.04,34.85,15.55,34.85,34.85"/>
        </g>
        <g id="Layer_1-2-13" data-name="Layer 1-2">
          <path class="cls-1" d="m1341.3,34.85c0,19.25-15.59,34.89-34.89,34.89-1.99,0-3.94-.16-5.81-.48v-17.94c1.83.63,3.78.99,5.81.99,9.63,0,17.42-7.79,17.42-17.42s-7.79-17.42-17.42-17.42-17.42,7.79-17.42,17.42v34.89h-17.43v-34.89C1271.56,15.63,1287.16,0,1306.45,0c19.25-.04,34.85,15.55,34.85,34.85"/>
        </g>
        <g id="Layer_1-2-14" data-name="Layer 1-2">
          <path class="cls-1" d="m1447.26,34.85c0,19.25-15.59,34.89-34.89,34.89-1.99,0-3.94-.16-5.81-.48v-17.94c1.83.63,3.78.99,5.81.99,9.63,0,17.42-7.79,17.42-17.42s-7.79-17.42-17.42-17.42-17.42,7.79-17.42,17.42v34.89h-17.43v-34.89C1377.53,15.63,1393.12,0,1412.42,0c19.25-.04,34.85,15.55,34.85,34.85"/>
        </g>
        <g id="Layer_1-2-15" data-name="Layer 1-2">
          <path class="cls-1" d="m1553.23,34.85c0,19.25-15.59,34.89-34.89,34.89-1.99,0-3.94-.16-5.81-.48v-17.94c1.83.63,3.78.99,5.81.99,9.63,0,17.42-7.79,17.42-17.42s-7.79-17.42-17.42-17.42-17.42,7.79-17.42,17.42v34.89h-17.43v-34.89C1483.49,15.63,1499.08,0,1518.38,0c19.25-.04,34.85,15.55,34.85,34.85"/>
        </g>
        <g id="Layer_1-2-16" data-name="Layer 1-2">
          <path class="cls-1" d="m1659.19,34.85c0,19.25-15.59,34.89-34.89,34.89-1.99,0-3.94-.16-5.81-.48v-17.94c1.83.63,3.78.99,5.81.99,9.63,0,17.42-7.79,17.42-17.42s-7.79-17.42-17.42-17.42-17.42,7.79-17.42,17.42v34.89h-17.43v-34.89C1589.45,15.63,1605.05,0,1624.34,0c19.25-.04,34.85,15.55,34.85,34.85"/>
        </g>
        <g id="Layer_1-2-17" data-name="Layer 1-2">
          <path class="cls-1" d="m1765.15,34.85c0,19.25-15.59,34.89-34.89,34.89-1.99,0-3.94-.16-5.81-.48v-17.94c1.83.63,3.78.99,5.81.99,9.63,0,17.42-7.79,17.42-17.42s-7.79-17.42-17.42-17.42-17.42,7.79-17.42,17.42v34.89h-17.43v-34.89C1695.42,15.63,1711.01,0,1730.31,0c19.25-.04,34.85,15.55,34.85,34.85"/>
        </g>
        <g id="Layer_1-2-18" data-name="Layer 1-2">
          <path class="cls-1" d="m1871.12,34.85c0,19.25-15.59,34.89-34.89,34.89-1.99,0-3.94-.16-5.81-.48v-17.94c1.83.63,3.78.99,5.81.99,9.63,0,17.42-7.79,17.42-17.42s-7.79-17.42-17.42-17.42-17.42,7.79-17.42,17.42v34.89h-17.43v-34.89C1801.38,15.63,1816.98,0,1836.27,0c19.25-.04,34.85,15.55,34.85,34.85"/>
        </g>
        <g id="Layer_1-2-19" data-name="Layer 1-2">
          <path class="cls-1" d="m1977.08,34.85c0,19.25-15.59,34.89-34.89,34.89-1.99,0-3.94-.16-5.81-.48v-17.94c1.83.63,3.78.99,5.81.99,9.63,0,17.42-7.79,17.42-17.42s-7.79-17.42-17.42-17.42-17.42,7.79-17.42,17.42v34.89h-17.43v-34.89C1907.35,15.63,1922.94,0,1942.23,0c19.25-.04,34.85,15.55,34.85,34.85"/>
        </g>
      </g>
    </g>
  </g>
</svg>