<?xml version="1.0" encoding="utf-8"?>
<!-- Generator: Adobe Illustrator 27.2.0, SVG Export Plug-In . SVG Version: 6.00 Build 0)  -->
<svg version="1.1" id="Layer_2_00000113343669170986248240000001221335897059313075_"
	 xmlns="http://www.w3.org/2000/svg" xmlns:xlink="http://www.w3.org/1999/xlink" x="0px" y="0px" viewBox="0 0 328.3 103.3"
	 style="enable-background:new 0 0 328.3 103.3;" xml:space="preserve">
<style type="text/css">
	.st0{fill:#FFFFFF;}
	.st1{fill:#58A5F7;}
	.st2{fill:#FFFFFF;stroke:#FFFFFF;stroke-miterlimit:10;}
	.st3{fill:#11E9DE;stroke:#FFFFFF;stroke-miterlimit:10;}
	.st4{fill:#0986BF;stroke:#FFFFFF;stroke-miterlimit:10;}
	.st5{fill:#58A5F7;stroke:#FFFFFF;stroke-miterlimit:10;}
</style>
<g id="Layer_2-2">
	<g>
		<g>
			<path class="st0" d="M102.6,45.4c-0.7,1.2-1.7,2.1-2.9,2.8c-1.3,0.7-2.9,1-4.7,1h-2.8v7.2H85V33.7h10c2.8,0,4.9,0.7,6.4,2.1
				c1.5,1.4,2.2,3.3,2.2,5.7C103.6,42.9,103.2,44.2,102.6,45.4L102.6,45.4L102.6,45.4z M96.3,41.5c0-1.4-0.7-2.1-2.2-2.1h-2v4.2h2
				C95.6,43.6,96.3,42.9,96.3,41.5L96.3,41.5L96.3,41.5z"/>
			<path class="st0" d="M120.5,53h-7.6l-1.1,3.5h-7.5l8.3-22.8h8.2l8.3,22.8h-7.5C121.6,56.5,120.5,53,120.5,53z M118.7,47.6
				l-2.1-6.3l-2.1,6.3H118.7L118.7,47.6z"/>
			<path class="st0" d="M137.9,51.1h6.9v5.4h-14.1V33.7h7.2L137.9,51.1L137.9,51.1L137.9,51.1z"/>
			<path class="st0" d="M174.5,33.7v22.8h-7.1V45.1l-3.5,11.4h-6.1l-3.5-11.4v11.4h-7.2V33.7h8.8l5,13.7l4.9-13.7H174.5L174.5,33.7
				L174.5,33.7z"/>
			<path class="st0" d="M184.9,33.7v22.8h-7.2V33.7H184.9z"/>
			<path class="st0" d="M195.3,51.1h6.9v5.4h-14.1V33.7h7.2L195.3,51.1L195.3,51.1L195.3,51.1z"/>
			<path class="st0" d="M225.5,33.7v22.8h-7.2v-8.9h-6.8v8.9h-7.2V33.7h7.2v8.2h6.8v-8.2H225.5z"/>
			<path class="st0" d="M243.4,53h-7.6l-1.1,3.5h-7.5l8.4-22.8h8.2l8.3,22.8h-7.5L243.4,53L243.4,53L243.4,53z M241.7,47.6l-2.1-6.3
				l-2.1,6.3H241.7L241.7,47.6L241.7,47.6z"/>
			<path class="st0" d="M255.9,54.8c-1.8-1.3-2.7-3.2-2.9-5.6h7.6c0.1,1.3,0.7,2,1.7,2c0.4,0,0.7-0.1,1-0.3s0.4-0.5,0.4-0.8
				c0-0.5-0.3-1-0.9-1.3s-1.5-0.7-2.7-1.1c-1.5-0.5-2.7-1-3.6-1.5c-1-0.5-1.8-1.2-2.5-2.2s-1-2.2-1-3.6c0-1.5,0.4-2.8,1.1-3.8
				s1.8-1.8,3.1-2.4c1.3-0.5,2.8-0.8,4.5-0.8c2.8,0,5,0.6,6.7,1.9c1.6,1.3,2.5,3.1,2.6,5.5h-7.7c0-0.7-0.2-1.1-0.5-1.4
				s-0.7-0.4-1.1-0.4c-0.3,0-0.5,0.1-0.7,0.3s-0.3,0.5-0.3,0.8c0,0.5,0.3,0.9,0.9,1.3s1.5,0.7,2.7,1.2c1.4,0.5,2.6,1,3.6,1.5
				c0.9,0.5,1.8,1.2,2.4,2.1c0.7,0.9,1,2,1,3.3c0,1.4-0.3,2.7-1,3.8s-1.7,2-3,2.6s-2.9,0.9-4.7,0.9C259.8,56.7,257.6,56,255.9,54.8
				L255.9,54.8L255.9,54.8z"/>
			<path class="st1" d="M102.8,72.3V78h-6.1v17.2h-7.2V78h-6v-5.7C83.6,72.3,102.9,72.3,102.8,72.3z"/>
			<path class="st1" d="M111.9,78v2.8h7.1v5.4h-7.1v3.2h8.1v5.7h-15.2V72.3H120V78H111.9z"/>
			<path class="st1" d="M134.2,95.2l-4.3-8.2l0,0v8.2h-7.2V72.3h10.6c1.9,0,3.4,0.3,4.7,1s2.3,1.6,2.9,2.7s1,2.4,1,3.8
				c0,1.5-0.4,2.9-1.3,4.1s-2.1,2-3.7,2.6l5,8.7H134.2L134.2,95.2L134.2,95.2z M129.9,82.2h2.8c0.7,0,1.2-0.2,1.6-0.5
				c0.3-0.3,0.5-0.8,0.5-1.5c0-0.6-0.2-1.1-0.5-1.4c-0.4-0.3-0.9-0.5-1.5-0.5H130L129.9,82.2L129.9,82.2L129.9,82.2z"/>
			<path class="st1" d="M158.9,91.7h-7.6l-1.1,3.4h-7.5l8.4-22.8h8.2l8.3,22.8h-7.5L158.9,91.7L158.9,91.7L158.9,91.7z M157.2,86.3
				l-2.1-6.3l-2.1,6.3H157.2L157.2,86.3L157.2,86.3z"/>
			<path class="st1" d="M186.9,84.1c-0.7,1.2-1.6,2.1-2.9,2.8s-2.9,1-4.7,1h-2.8v7.2h-7.2V72.3h10c2.8,0,4.9,0.7,6.4,2.1
				s2.2,3.3,2.2,5.7C187.9,81.6,187.6,82.9,186.9,84.1L186.9,84.1L186.9,84.1z M180.6,80.2c0-1.4-0.7-2.1-2.2-2.1h-2v4.2h2
				C179.9,82.2,180.6,81.5,180.6,80.2L180.6,80.2L180.6,80.2z"/>
			<path class="st1" d="M197.3,78v2.8h7.1v5.4h-7.1v3.2h8.1v5.7h-15.2V72.3h15.2V78H197.3z M197.6,68.5l-5.4,2.5v-4.6l5.4-2.4
				l5.3,2.4V71L197.6,68.5z"/>
			<path class="st1" d="M215.1,72.3v12.9c0,1.1,0.2,1.9,0.7,2.5s1.2,0.9,2.2,0.9s1.8-0.3,2.3-0.9s0.7-1.4,0.7-2.5V72.3h7.1v12.9
				c0,2.2-0.4,4-1.4,5.6c-0.9,1.5-2.1,2.7-3.7,3.5c-1.6,0.8-3.3,1.2-5.2,1.2s-3.6-0.4-5.1-1.2c-1.5-0.8-2.7-1.9-3.5-3.4
				s-1.3-3.4-1.3-5.6v-13H215.1z"/>
			<path class="st1" d="M249.2,72.3V78h-6.1v17.2h-7.2V78h-6v-5.7H249.2z"/>
			<path class="st1" d="M258.3,72.3v22.8h-7.2V72.3H258.3z"/>
			<path class="st1" d="M262.2,77.7c0.9-1.8,2.2-3.1,3.9-4.1s3.7-1.5,6-1.5c2,0,3.7,0.4,5.3,1.1s2.8,1.8,3.8,3.1
				c1,1.3,1.6,2.9,2,4.7h-7.5c-0.3-0.8-0.8-1.3-1.5-1.8c-0.6-0.4-1.4-0.6-2.2-0.6c-1.2,0-2.2,0.4-2.9,1.3c-0.7,0.9-1,2.1-1,3.6
				s0.4,2.7,1,3.6c0.7,0.9,1.6,1.3,2.9,1.3c0.8,0,1.5-0.2,2.2-0.6c0.6-0.4,1.1-1,1.5-1.8h7.5c-0.3,1.8-1,3.4-2,4.7
				c-1,1.3-2.2,2.4-3.8,3.1c-1.6,0.7-3.3,1.1-5.3,1.1c-2.3,0-4.3-0.5-6-1.5s-3-2.3-3.9-4.1c-0.9-1.8-1.4-3.8-1.4-6
				S261.3,79.4,262.2,77.7C262.2,77.6,262.2,77.7,262.2,77.7z"/>
			<path class="st1" d="M300.4,91.7h-7.6l-1.1,3.4h-7.5l8.4-22.8h8.2l8.3,22.8h-7.5L300.4,91.7z M298.7,86.3l-2.1-6.3l-2.1,6.3
				H298.7L298.7,86.3z"/>
			<path class="st1" d="M312.9,93.5c-1.8-1.3-2.7-3.2-2.9-5.6h7.6c0.1,1.3,0.7,2,1.7,2c0.4,0,0.7-0.1,1-0.3c0.3-0.2,0.4-0.5,0.4-0.8
				c0-0.5-0.3-1-0.9-1.3s-1.5-0.7-2.7-1.1c-1.5-0.5-2.7-1-3.6-1.5c-1-0.5-1.8-1.2-2.5-2.2c-0.7-0.9-1-2.2-1-3.6
				c0-1.5,0.4-2.8,1.1-3.8s1.8-1.8,3.1-2.4s2.8-0.8,4.5-0.8c2.8,0,5,0.6,6.7,1.9c1.6,1.3,2.5,3.1,2.6,5.4h-7.7
				c0-0.7-0.2-1.1-0.5-1.4s-0.7-0.4-1.1-0.4c-0.3,0-0.5,0.1-0.7,0.3c-0.2,0.2-0.3,0.5-0.3,0.8c0,0.5,0.3,0.9,0.9,1.3
				c0.6,0.3,1.5,0.7,2.7,1.2c1.4,0.5,2.6,1.1,3.6,1.6c0.9,0.5,1.8,1.2,2.4,2.1c0.7,0.9,1,2,1,3.3c0,1.4-0.3,2.7-1,3.8s-1.7,2-3,2.6
				s-2.9,0.9-4.7,0.9C316.8,95.4,314.6,94.7,312.9,93.5L312.9,93.5L312.9,93.5z"/>
		</g>
		<g>
			<g>
				<path class="st1" d="M219.3,20H84.2V6.2h135.2L219.3,20L219.3,20z M85.2,19h133.2V7.2H85.2V19z"/>
			</g>
			<g>
				<path class="st1" d="M94.5,9.9v6.8h-1.7v-4.1l-1.5,4.1h-1.3l-1.5-4.1v4.1h-1.7V9.9h2l1.9,4.7l1.9-4.7H94.5z"/>
				<path class="st1" d="M97.3,11.3v1.4h2.2V14h-2.2v1.5h2.5v1.3h-4.2V9.9h4.2v1.3H97.3z"/>
				<path class="st1" d="M107.1,16.8h-1.7l-2.8-4.2v4.2h-1.7V9.9h1.7l2.8,4.2V9.9h1.7V16.8z"/>
				<path class="st1" d="M113.2,9.9v1.3h-1.8v5.5h-1.7v-5.5h-1.8V9.9H113.2z"/>
				<path class="st1" d="M115.5,16.4c-0.5-0.3-1-0.7-1.3-1.3c-0.3-0.5-0.5-1.1-0.5-1.8c0-0.7,0.2-1.3,0.5-1.8
					c0.3-0.5,0.7-0.9,1.3-1.2c0.5-0.3,1.1-0.4,1.8-0.4s1.2,0.1,1.8,0.4c0.5,0.3,1,0.7,1.3,1.2c0.3,0.5,0.5,1.1,0.5,1.8
					c0,0.7-0.2,1.3-0.5,1.8c-0.3,0.5-0.7,1-1.3,1.3c-0.5,0.3-1.1,0.4-1.8,0.4S116,16.7,115.5,16.4z M118.6,14.8
					c0.3-0.4,0.5-0.8,0.5-1.4c0-0.6-0.2-1.1-0.5-1.4c-0.3-0.4-0.8-0.5-1.3-0.5c-0.6,0-1,0.2-1.3,0.5c-0.3,0.4-0.5,0.8-0.5,1.5
					c0,0.6,0.2,1.1,0.5,1.4c0.3,0.4,0.8,0.5,1.3,0.5C117.8,15.3,118.3,15.2,118.6,14.8z"/>
				<path class="st1" d="M125.2,16.8l-1.4-2.6h-0.4v2.6h-1.7V9.9h2.8c0.5,0,1,0.1,1.4,0.3s0.7,0.4,0.9,0.8c0.2,0.3,0.3,0.7,0.3,1.1
					c0,0.5-0.1,0.9-0.4,1.2c-0.3,0.4-0.6,0.6-1.1,0.8l1.6,2.7H125.2z M123.4,13h1c0.3,0,0.5-0.1,0.7-0.2s0.2-0.4,0.2-0.6
					c0-0.3-0.1-0.5-0.2-0.6c-0.2-0.1-0.4-0.2-0.7-0.2h-1V13z"/>
				<path class="st1" d="M129.7,9.9v6.8h-1.7V9.9H129.7z"/>
				<path class="st1" d="M135.2,15.6h-2.6l-0.4,1.2h-1.7l2.5-6.8h1.9l2.5,6.8h-1.8L135.2,15.6z M134.8,14.3l-0.8-2.5l-0.8,2.5H134.8
					z"/>
				<path class="st1" d="M139.3,16.6c-0.4-0.2-0.7-0.4-1-0.7c-0.2-0.3-0.4-0.7-0.4-1.2h1.8c0,0.3,0.1,0.4,0.3,0.6
					c0.1,0.1,0.3,0.2,0.6,0.2c0.2,0,0.4-0.1,0.6-0.2s0.2-0.3,0.2-0.5c0-0.2-0.1-0.3-0.2-0.4s-0.3-0.2-0.4-0.3
					c-0.2-0.1-0.4-0.2-0.7-0.2c-0.4-0.1-0.8-0.3-1.1-0.4c-0.3-0.1-0.5-0.3-0.7-0.6c-0.2-0.3-0.3-0.6-0.3-1c0-0.6,0.2-1.1,0.7-1.5
					c0.5-0.4,1.1-0.5,1.8-0.5c0.8,0,1.4,0.2,1.8,0.5s0.7,0.9,0.7,1.5h-1.8c0-0.2-0.1-0.4-0.2-0.5c-0.1-0.1-0.3-0.2-0.6-0.2
					c-0.2,0-0.4,0.1-0.5,0.2s-0.2,0.3-0.2,0.5c0,0.2,0.1,0.4,0.3,0.5c0.2,0.1,0.5,0.3,1,0.4c0.4,0.1,0.8,0.3,1.1,0.4
					c0.3,0.1,0.5,0.3,0.7,0.6c0.2,0.3,0.3,0.6,0.3,1c0,0.4-0.1,0.7-0.3,1.1c-0.2,0.3-0.5,0.6-0.9,0.8s-0.8,0.3-1.3,0.3
					C140.1,16.9,139.7,16.8,139.3,16.6z"/>
				<path class="st1" d="M151.1,13.2c-0.2,0.3-0.5,0.6-0.8,0.8c-0.4,0.2-0.8,0.3-1.4,0.3h-1v2.5h-1.7V9.9h2.7c0.5,0,1,0.1,1.4,0.3
					s0.7,0.4,0.8,0.8s0.3,0.7,0.3,1.1C151.4,12.5,151.3,12.9,151.1,13.2z M149.5,12.8c0.2-0.1,0.2-0.4,0.2-0.6
					c0-0.3-0.1-0.5-0.2-0.6c-0.2-0.1-0.4-0.2-0.7-0.2h-0.9V13h0.9C149.1,13,149.3,12.9,149.5,12.8z"/>
				<path class="st1" d="M156.5,15.6H154l-0.4,1.2h-1.7l2.5-6.8h1.9l2.5,6.8h-1.8L156.5,15.6z M156.1,14.3l-0.8-2.5l-0.8,2.5H156.1z
					"/>
				<path class="st1" d="M163,16.8l-1.4-2.6h-0.4v2.6h-1.7V9.9h2.8c0.5,0,1,0.1,1.4,0.3s0.7,0.4,0.9,0.8c0.2,0.3,0.3,0.7,0.3,1.1
					c0,0.5-0.1,0.9-0.4,1.2c-0.3,0.4-0.6,0.6-1.1,0.8l1.6,2.7H163z M161.1,13h1c0.3,0,0.5-0.1,0.7-0.2s0.2-0.4,0.2-0.6
					c0-0.3-0.1-0.5-0.2-0.6c-0.2-0.1-0.4-0.2-0.7-0.2h-1V13z"/>
				<path class="st1" d="M170.7,9.9v1.3h-1.8v5.5h-1.7v-5.5h-1.8V9.9H170.7z"/>
				<path class="st1" d="M173.3,9.9v6.8h-1.7V9.9H173.3z"/>
				<path class="st1" d="M174.6,11.6c0.3-0.5,0.7-0.9,1.2-1.2s1.1-0.4,1.8-0.4c0.8,0,1.5,0.2,2.1,0.6c0.6,0.4,1,1,1.2,1.8H179
					c-0.1-0.3-0.3-0.5-0.6-0.7c-0.2-0.1-0.5-0.2-0.9-0.2c-0.5,0-0.9,0.2-1.2,0.5c-0.3,0.4-0.5,0.8-0.5,1.4s0.2,1.1,0.5,1.4
					s0.7,0.5,1.2,0.5c0.3,0,0.6-0.1,0.9-0.2s0.4-0.4,0.6-0.7h1.8c-0.2,0.7-0.6,1.3-1.2,1.8c-0.6,0.4-1.3,0.6-2.1,0.6
					c-0.7,0-1.3-0.1-1.8-0.4s-0.9-0.7-1.2-1.2c-0.3-0.5-0.4-1.1-0.4-1.8S174.3,12.1,174.6,11.6z"/>
				<path class="st1" d="M183.5,9.9V14c0,0.4,0.1,0.7,0.3,0.9c0.2,0.2,0.5,0.3,0.9,0.3s0.7-0.1,0.9-0.3c0.2-0.2,0.3-0.5,0.3-0.9V9.9
					h1.7V14c0,0.6-0.1,1.1-0.4,1.6c-0.3,0.4-0.6,0.7-1,1c-0.4,0.2-0.9,0.3-1.5,0.3s-1-0.1-1.4-0.3s-0.8-0.5-1-1s-0.4-0.9-0.4-1.6
					V9.9H183.5z"/>
				<path class="st1" d="M190.4,15.5h2.2v1.3h-3.9V9.9h1.7V15.5z"/>
				<path class="st1" d="M197.7,15.6h-2.6l-0.4,1.2H193l2.5-6.8h1.9l2.5,6.8h-1.8L197.7,15.6z M197.2,14.3l-0.8-2.5l-0.8,2.5H197.2z
					"/>
				<path class="st1" d="M204.1,16.8l-1.4-2.6h-0.4v2.6h-1.7V9.9h2.8c0.5,0,1,0.1,1.4,0.3s0.7,0.4,0.9,0.8s0.3,0.7,0.3,1.1
					c0,0.5-0.1,0.9-0.4,1.2c-0.3,0.4-0.6,0.6-1.1,0.8l1.6,2.7H204.1z M202.3,13h1c0.3,0,0.5-0.1,0.7-0.2c0.2-0.1,0.2-0.4,0.2-0.6
					c0-0.3-0.1-0.5-0.2-0.6c-0.2-0.1-0.4-0.2-0.7-0.2h-1V13z"/>
				<path class="st1" d="M208.6,11.3v1.4h2.2V14h-2.2v1.5h2.5v1.3H207V9.9h4.2v1.3H208.6z"/>
				<path class="st1" d="M213.4,16.6c-0.4-0.2-0.7-0.4-1-0.7c-0.2-0.3-0.4-0.7-0.4-1.2h1.8c0,0.3,0.1,0.4,0.3,0.6
					c0.1,0.1,0.3,0.2,0.6,0.2c0.2,0,0.4-0.1,0.6-0.2c0.1-0.1,0.2-0.3,0.2-0.5c0-0.2-0.1-0.3-0.2-0.4c-0.1-0.1-0.3-0.2-0.4-0.3
					c-0.2-0.1-0.4-0.2-0.7-0.2c-0.4-0.1-0.8-0.3-1.1-0.4c-0.3-0.1-0.5-0.3-0.7-0.6s-0.3-0.6-0.3-1c0-0.6,0.2-1.1,0.7-1.5
					c0.5-0.4,1.1-0.5,1.8-0.5c0.8,0,1.4,0.2,1.8,0.5s0.7,0.9,0.7,1.5h-1.8c0-0.2-0.1-0.4-0.2-0.5c-0.1-0.1-0.3-0.2-0.6-0.2
					c-0.2,0-0.4,0.1-0.5,0.2c-0.1,0.1-0.2,0.3-0.2,0.5c0,0.2,0.1,0.4,0.3,0.5s0.5,0.3,1,0.4c0.4,0.1,0.8,0.3,1.1,0.4
					c0.3,0.1,0.5,0.3,0.7,0.6c0.2,0.3,0.3,0.6,0.3,1c0,0.4-0.1,0.7-0.3,1.1s-0.5,0.6-0.9,0.8c-0.4,0.2-0.8,0.3-1.3,0.3
					C214.2,16.9,213.8,16.8,213.4,16.6z"/>
			</g>
		</g>
	</g>
	<g>
		<g>
			<g id="frente">
				<path class="st2" d="M70.8,96c-0.2,0.7-1.1,3.6-3.4,5.2c-0.8,0.6-2.9,2.7-10.2,0.7c-6.8-1.8-8.5-4.8-14.3-6.8
					c-5.5-1.9-5.9-0.7-12.4-2.2C26.3,92,16.6,89.6,9.2,81.7c-2.7-2.9-7.8-9-6.3-13.8c1.1-3.5,4.7-5.2,5.2-5.4
					c8-3.6,20.9,3.1,26.2,9.2c0.8,1,3.8,4.7,8.8,7.1C44,79.2,49.4,80.9,56,82C68.7,84.3,72.5,90.7,70.8,96L70.8,96L70.8,96z"/>
			</g>
			<g id="frente-2">
				<path class="st2" d="M68.3,98.8c-0.6,0.5-3.1,2.9-6.3,3.2c-1.1,0.1-4.4,1-10.4-5.2c-5.5-5.7-5.6-9.5-10-14.8
					c-4.2-4.9-5.4-4-10.9-9.2c-3.4-3.3-11.6-11.1-14.3-23c-1-4.3-2.5-13.2,1.7-17.1c3-2.8,7.6-2.4,8.1-2.3
					c9.8,1,18.7,14.9,20.3,23.9c0.3,1.5,1,6.8,4.5,12c0.6,0.9,5,5.6,10.8,10.4C73,86,73,94.4,68.3,98.8L68.3,98.8z"/>
			</g>
			<g id="frente-3">
				<path class="st2" d="M64.7,101.9c-0.9,0.2-4.6,0.9-7.7-0.8c-1.1-0.6-4.7-1.7-6.6-11c-1.8-8.5,0.5-12.2-0.6-19.7
					c-1-7.1-2.7-6.9-4.6-15c-1.2-5.1-4.1-17.2,0.3-29.9c1.6-4.6,5.5-13.7,11.7-14.9c4.5-0.8,8.4,2.3,9,2.7c8.5,6.8,8.5,25,4.7,34.2
					c-0.6,1.5-3.1,6.9-2.9,13.8c0,1.2,1.3,8.1,3.8,16.1C76.6,92.9,71.6,100.7,64.7,101.9L64.7,101.9L64.7,101.9z"/>
			</g>
		</g>
		<g>
			<g id="frente-2-2">
				<path class="st3" d="M71.1,91.8c-0.2,0.7-1.1,3.6-3.4,5.2c-0.8,0.6-2.9,2.7-10.2,0.7c-6.8-1.8-8.5-4.8-14.3-6.8
					c-5.5-1.9-5.9-0.7-12.4-2.2C26.7,87.8,17,85.4,9.6,77.5c-2.7-2.9-7.8-9-6.3-13.8c1.1-3.5,4.7-5.2,5.2-5.4
					c8-3.6,20.9,3.1,26.2,9.2c0.8,1,3.8,4.7,8.8,7.1c0.9,0.4,6.3,2.1,12.9,3.2C69.1,80,72.8,86.4,71.1,91.8L71.1,91.8L71.1,91.8z"/>
			</g>
			<g id="frente-2-2_00000131364844232868788460000016446710329321154231_">
				<path class="st4" d="M68.6,94.5c-0.6,0.5-3.1,2.9-6.3,3.2c-1.1,0.1-4.4,1-10.4-5.2c-5.5-5.7-5.6-9.5-10-14.8
					c-4.2-4.9-5.4-4-10.9-9.2c-3.4-3.3-11.6-11.1-14.3-23c-1-4.3-2.5-13.2,1.7-17.1c3-2.8,7.6-2.4,8.1-2.3
					c9.8,1,18.7,14.9,20.3,23.9c0.3,1.5,1,6.8,4.5,12c0.6,0.9,5,5.6,10.8,10.4C73.3,81.7,73.4,90.1,68.6,94.5
					C68.7,94.5,68.6,94.5,68.6,94.5z"/>
			</g>
			<g id="frente-3-2">
				<path class="st5" d="M65,97.6c-0.9,0.2-4.6,0.9-7.7-0.8c-1.1-0.6-4.7-1.7-6.6-11c-1.8-8.5,0.5-12.2-0.6-19.7
					c-1-7.1-2.7-6.9-4.6-15c-1.2-5.1-4.1-17.2,0.3-29.9c1.6-4.6,5.5-13.7,11.7-14.9c4.5-0.8,8.4,2.3,9,2.7c8.5,6.8,8.5,25,4.7,34.2
					c-0.6,1.5-3.1,6.9-2.9,13.8c0,1.2,1.3,8.1,3.8,16.1C76.9,88.6,72,96.4,65,97.6L65,97.6L65,97.6z"/>
			</g>
		</g>
	</g>
</g>
</svg>
