<?xml version="1.0" encoding="utf-8"?>
<!-- Generator: Adobe Illustrator 27.2.0, SVG Export Plug-In . SVG Version: 6.00 Build 0)  -->
<svg version="1.1" id="Layer_1" xmlns="http://www.w3.org/2000/svg" xmlns:xlink="http://www.w3.org/1999/xlink" x="0px" y="0px"
	 viewBox="0 0 64 64" style="enable-background:new 0 0 64 64;" xml:space="preserve">
<style type="text/css">
	.st0{fill:#FFFFFF;}
</style>
<path class="st0" d="M35.1,0.7c-0.5-0.5-1.3-0.7-2-0.7c-1.5,0.2-2.5,1.5-2.5,2.9v14.4c0,1.5-1.2,2.7-2.7,2.7s-2.7-1.2-2.7-2.7V2.6
	c0-0.7-0.3-1.3-0.7-1.8C24,0.3,23.3,0,22.6,0c-1.5,0-2.7,1.2-2.7,2.7v14.7c0,1.5-1.2,2.7-2.7,2.7s-2.7-1.2-2.7-2.7V2.6
	c0-0.7-0.3-1.5-0.9-2s-1.3-0.7-2-0.7c-1.4,0.2-2.5,1.5-2.4,3v17.1c0,2.6,1.5,5,3.8,6.3c4.2,2.1,6.8,6.3,6.8,11v24
	c0,1.5,1.2,2.7,2.7,2.7s2.7-1.2,2.7-2.7V37.2c0-4.6,2.6-8.9,6.8-11c2.4-1.1,3.8-3.6,3.8-6.3V2.6C35.9,1.9,35.7,1.2,35.1,0.7z
	 M54.6,60.9V2.4c-4.8,4.3-12.7,14.8-13.3,37.5h2.6c3,0,5.3,2.4,5.3,5.3v15.9c0,0.7,0.3,1.5,0.9,2c0.5,0.5,1.3,0.7,2,0.7
	C53.6,63.6,54.6,62.4,54.6,60.9z"/>
</svg>
