<?xml version="1.0" encoding="utf-8"?>
<!-- Generator: Adobe Illustrator 27.2.0, SVG Export Plug-In . SVG Version: 6.00 Build 0)  -->
<svg version="1.1" id="Layer_2_00000181807944369008278810000000103723289567019442_"
	 xmlns="http://www.w3.org/2000/svg" xmlns:xlink="http://www.w3.org/1999/xlink" x="0px" y="0px" viewBox="0 0 1288.7 918"
	 style="enable-background:new 0 0 1288.7 918;" xml:space="preserve">
<style type="text/css">
	.st0{fill:#FFFFFF;}
	.st1{fill:#C5E1F9;}
	.st2{fill:#387BFF;}
	.st3{fill:#FBD260;}
	.st4{fill:#EAF4FE;}
	.st5{fill:none;stroke:#0561FC;stroke-width:2.62;stroke-linecap:round;stroke-linejoin:round;}
	.st6{clip-path:url(#SVGID_00000018938225337923281920000007087410418040863890_);}
	.st7{fill:#367082;}
	.st8{fill:#88BDDA;}
	.st9{fill:#ACD5F4;}
	.st10{fill:#001F46;}
	.st11{fill:#8DCFFF;}
	.st12{fill:#7DC2F5;}
	.st13{fill:#212957;}
	.st14{fill:#F7B68B;}
	.st15{fill:#EC9568;}
	.st16{fill:#DD000B;}
	.st17{fill:#FD2227;}
	.st18{fill:#3B47BC;}
	.st19{fill:none;stroke:#8DCFFF;stroke-width:1.25;stroke-miterlimit:10;}
	.st20{fill:none;stroke:#C5E1F9;stroke-width:2.51;stroke-miterlimit:10;}
	.st21{fill:#0450CE;}
	.st22{fill:#C4E0F8;}
	.st23{fill:#99C6F6;}
	.st24{fill:#0561FB;}
	.st25{fill:#E9F3FD;}
	.st26{fill:#F44134;}
	.st27{fill:#0561FC;}
	.st28{clip-path:url(#SVGID_00000026850717982715041670000015181004861793531806_);}
	.st29{fill:#212A54;}
	.st30{clip-path:url(#SVGID_00000149381219563476541020000003393770561913705384_);}
	.st31{fill:#202954;}
</style>
<g id="Layer_1-2">
	<g>
		<g>
			<g>
				<path class="st0" d="M622.7,0h465.7c11.3,0,20.5,9.2,20.5,20.5v361.1c0,11.3-9.2,20.5-20.5,20.5H622.7
					c-11.3,0-20.5-9.2-20.5-20.5V20.5C602.2,9.2,611.4,0,622.7,0z"/>
				<path class="st1" d="M622.9,0h465.4c11.4,0,20.7,9.3,20.7,20.7v27.2H602.2V20.7C602.2,9.3,611.5,0,622.9,0z"/>
				<path class="st2" d="M1073.8,24c0,5.3,4.3,9.6,9.6,9.6s9.6-4.3,9.6-9.6s-4.3-9.6-9.6-9.6S1073.8,18.7,1073.8,24z"/>
				<path class="st3" d="M1043.4,24c0,5.3,4.3,9.6,9.6,9.6s9.6-4.3,9.6-9.6s-4.3-9.6-9.6-9.6S1043.4,18.7,1043.4,24z"/>
				<path class="st4" d="M1013.1,24c0,5.3,4.3,9.6,9.6,9.6c5.3,0,9.6-4.3,9.6-9.6s-4.3-9.6-9.6-9.6S1013.1,18.7,1013.1,24L1013.1,24
					z"/>
			</g>
			<line class="st5" x1="602.2" y1="47.9" x2="1108.9" y2="47.9"/>
		</g>
		<g>
			<defs>
				<rect id="SVGID_1_" x="730.6" y="4.5" width="348" height="398.6"/>
			</defs>
			<clipPath id="SVGID_00000113347295031580391390000012525137458289032100_">
				<use xlink:href="#SVGID_1_"  style="overflow:visible;"/>
			</clipPath>
			<g style="clip-path:url(#SVGID_00000113347295031580391390000012525137458289032100_);">
				<g>
					<g>
						<g>
							<path class="st7" d="M956.3,489.8c5,0,12.9-1.1,19.9-7.2c10-8.7,14.3-24.1,12.8-45.9c-1-14.7-6.8-29.5-12.9-45.3
								c-10.3-26.5-22-56.5-15.9-96.2l-11.3-1.7c-6.6,42.7,6.2,75.6,16.5,102.1c6,15.5,11.3,29,12.1,41.9
								c1.2,17.6-1.9,30.2-8.8,36.3c-6.6,5.8-14.8,4.3-15.2,4.3l-2.3,11.2C951.5,489.4,953.4,489.8,956.3,489.8L956.3,489.8z"/>
							<g>
								<g>
									<path class="st8" d="M868.4,580.8l-11.2,17l93.8,30c0,0,6.3-6-16.8-18C907.5,595.8,868.4,580.7,868.4,580.8L868.4,580.8z"
										/>
									<path class="st8" d="M851.7,580.8l11.2,17l-93.8,30c0,0-6.3-6,16.8-18C812.6,595.8,851.7,580.7,851.7,580.8L851.7,580.8z"
										/>
								</g>
								<rect x="850.2" y="530.1" class="st8" width="19.6" height="69.8"/>
								<g>
									<path class="st9" d="M869.6,584.3l-9.6,16.2l80.3,28.7c0,0,5.4-5.7-14.3-17.2C903.1,598.7,869.6,584.3,869.6,584.3z"/>
									<path class="st9" d="M850.5,584.3l9.5,16.2l-80.3,28.7c0,0-5.4-5.7,14.3-17.2C817,598.7,850.5,584.3,850.5,584.3
										L850.5,584.3z"/>
								</g>
								<path class="st10" d="M931.3,635.7c0,3.8,3.1,6.8,6.8,6.8s6.8-3,6.8-6.8s-3-6.8-6.8-6.8S931.3,632,931.3,635.7z"/>
								<path class="st10" d="M775.7,635.7c0,3.8,3.1,6.8,6.8,6.8s6.8-3,6.8-6.8s-3-6.8-6.8-6.8S775.7,632,775.7,635.7z"/>
								<path class="st7" d="M947.8,635.7c0,3.8,3,6.8,6.8,6.8s6.8-3,6.8-6.8s-3-6.8-6.8-6.8S947.8,632,947.8,635.7z"/>
								<path class="st7" d="M759.2,635.7c0,3.8,3,6.8,6.8,6.8s6.8-3,6.8-6.8s-3-6.8-6.8-6.8S759.2,632,759.2,635.7z"/>
							</g>
							<rect x="853.1" y="504.5" class="st7" width="14.3" height="25.1"/>
							<path class="st7" d="M842.4,491.2c0,7.7,6.3,14,14,14h7.9c7.7,0,14-6.3,14-14l0,0c0-7.7-6.3-14-14-14h-7.9
								C848.6,477.3,842.4,483.5,842.4,491.2L842.4,491.2z"/>
							<path class="st11" d="M753.7,478.5c-0.3-1.6-0.5-12-0.5-13.7c0-11.3,7.3-20.4,16.3-20.4h181.6c9,0,16.3,9.1,16.3,20.4
								c0,1.8-0.2,12.1-0.5,13.7H753.7z"/>
							<path class="st7" d="M969.1,484c0,3.5-2,6.3-4.5,6.3H756c-2.5,0-4.5-2.8-4.5-6.3l0,0c0-3.5,2-6.3,4.5-6.3h208.5
								C967.1,477.7,969.1,480.5,969.1,484L969.1,484z"/>
							<g>
								<path class="st11" d="M958.9,373.6c-4.5,0.3-33,0.8-37.9,0.9c-31.2,0.4-58-5.5-59.5-13.1c-6.2-31.9-6.4-64.6-0.8-96.5
									c1.3-7.7,28.6-13.5,60.4-13.1c5,0.1,34.1,0.6,38.6,0.9C950,292.4,949.8,333.8,958.9,373.6L958.9,373.6z"/>
								<path class="st7" d="M963.2,252.6c3.5,0,5.9,1.7,5.4,3.7c-8.7,37.4-9,76.2-1,113.6c0.4,2-2,3.7-5.4,3.7l0,0
									c-3.4,0-6.6-1.5-7-3.6c-8.1-37.5-7.9-76.4,0.7-113.9C956.5,254.1,959.7,252.5,963.2,252.6L963.2,252.6L963.2,252.6z"/>
								<path class="st12" d="M964.6,373.5c-0.9,0.3-7.1,0.5-8.2,0.5c-6.8,0.1-13.8-5.9-15.1-13.5c-5.7-31.4-5.5-63.6,0.4-95
									c1.4-7.5,8.6-13.5,15.5-13.4c1.1,0,7.4,0.2,8.3,0.6C955.8,292.4,955.5,333.8,964.6,373.5L964.6,373.5z"/>
							</g>
						</g>
						<g>
							<path class="st13" d="M803,202c0,0,38.9-34.9,8.9-90.3C795.2,81,804-2.9,857.8,23.1c53.8,26,39.2-6.4,69.6,8.1
								c30.4,14.5,43.8,36.3,39.7,60c-4.1,23.8-1.4,69.1,17.2,77.8c18.7,8.7,108.2,57.4,50.5,118.9C977.2,349.5,767.4,304.3,803,202
								L803,202z"/>
							<path class="st14" d="M910.1,116.3c0,0-8.5,42.7-2.8,57.9c5.7,15.2-38.9,3.8-38.9,3.8s1.9-35.1,2.8-42.7
								C872.1,127.7,910.1,116.3,910.1,116.3L910.1,116.3z"/>
							<path class="st15" d="M871.1,135.3c1-7.6,38.9-19,38.9-19s-27.6,40-37,40.8c-1.3,0.1-2.5,0.1-3.5-0.1
								C870,148.1,870.7,138.8,871.1,135.3z"/>
							<path class="st14" d="M847.4,73.6c0,0-2.8,38.9,1.9,50.3s6.7,19.9,18,19c11.4-0.9,29.4-18,39.9-24.7
								c10.5-6.7,18-14.2,14.2-23.7s-8.5-1.9-8.5,0.9s-29.4,7.6-52.2-6.7C855,85.2,846.4,79.3,847.4,73.6L847.4,73.6z"/>
							<path class="st15" d="M868,349.1L776.6,275c0,0-17.5,1.9-9.3,13.1c8.2,11.1,62.3,76.6,62.3,76.6S885,389.7,868,349.1
								L868,349.1z"/>
							<path class="st13" d="M846.1,376.2l-165.9-35.5c0,0-53.2-20.3-31.7,34.2c21.5,54.4,86.1,229.2,86.1,229.2l-57,35.5h81
								l-34.2-227.9c0,0,59.5,32.9,91.2,36.7c31.7,3.8,95,3.8,92.4-12.7S846.1,376.2,846.1,376.2L846.1,376.2z"/>
							<path class="st1" d="M755,605.4c0,0,1.3,12.3,1.3,16.1s-8.2,14.6-8.9,17.7l-0.6,3.2h62c0,0,1.3-6.3-8.9-14.6
								s-13.3-13.9-14.6-24.4C784.1,593,755,605.4,755,605.4L755,605.4z"/>
							<path class="st16" d="M865.4,177.1c0,0-36.1,5.7-40.8,19.9s-2.8,22.8-2.8,29.4S867.3,202.7,865.4,177.1z"/>
							<path class="st17" d="M904.4,172.4l-38.9,4.8c0,0-43.7,45.6-53.2,47.5s3.3,105.9,1,120c-1.3,7.6,34.2,11.1,53.2,13.9
								s45.6,0,45.6,0s-9.5-30.4-2.8-61.7c6.7-31.3,36.1-55.1,29.4-76.9S950.9,198,904.4,172.4L904.4,172.4z"/>
							<path class="st16" d="M931.9,198c0,0-10.5,29.4-8.5,48.4s7.6,65.5,7.6,65.5s11.4,54.1,33.2,47.5
								c21.8-6.6,19.9-68.4,4.8-107.3C953.8,213.2,938.6,188.5,931.9,198L931.9,198z"/>
							<path class="st14" d="M975.1,340.6c0,0-1,10.9-1,13.3s-10.5,5.2-21.4,5.2s-91.6-46.5-99.2-49.9c-7.6-3.3-25.2-8.1-29.4-8.5
								c-4.3-0.5-7.6-12.3-5.2-19.9c1.6-5,3.1-9.4,5.5-10.9c1.2-0.7,2.7-0.7,4.4,0.4c1.5,0.9,4.1,3,7.2,5.5c1.4,1.1,2.8,2.3,4.3,3.5
								c7.1,5.9,14.5,12.3,14.5,12.3s48.9,9,68.4,17.6C942.9,317.8,965.6,328.2,975.1,340.6L975.1,340.6z"/>
							<path class="st15" d="M799.5,273.2l4.5-0.6l20.5-2.7l-5.5,10.9l3.3,16.6l-13.8,2.4c0,0-1.9-2.4,0.5-3.3s5.7-2.4,5.7-2.4
								s-6.7-1-9.5-1.4s-3.3-1.4-3.3-2.9s2.8-2.4,2.8-2.4s-5.2-1.9-5.7-3.3c-0.5-1.4-1.4-3.3-0.5-4.8
								C799.5,277.9,798,274.1,799.5,273.2L799.5,273.2z"/>
							<path class="st18" d="M912,358.5h-45.6l-148.1-31.6c0,0-39.2-12.7-25.3,25.3S756.2,599,756.2,599l29.1-2.5
								c0,0-5.1-138-19-162.1s-15.2-31.6-15.2-31.6s92.4,49.4,130.4,46.9S951.2,418,912,358.5L912,358.5z"/>
							<path class="st19" d="M900.6,361c0,0,31.7,40.5,8.9,53.2c-22.8,12.7-183.6-55.7-183.6-55.7s54.4,140.5,48.1,233"/>
						</g>
					</g>
					<g>
						<path class="st0" d="M934.3,99.8c0,7.9-6.4,14.2-14.2,14.2s-14.2-6.4-14.2-14.2s6.4-14.2,14.2-14.2S934.3,92,934.3,99.8z"/>
						<path class="st20" d="M845,123.6c0,0,67,26.1,75-23.7c15.7-97.5-50.8-75.6-50.8-75.6"/>
						<path class="st0" d="M854.2,132.1l-8.1-2.1c-2.4-0.6-3.9-3.1-3.3-5.5l0,0c0.6-2.4,3.1-3.9,5.5-3.3l8.1,2.1
							c2.4,0.6,3.9,3.1,3.3,5.5l0,0C859.1,131.2,856.6,132.7,854.2,132.1z"/>
						<path class="st1" d="M930.3,99.8c0,5.7-4.6,10.2-10.2,10.2s-10.2-4.6-10.2-10.2s4.6-10.2,10.2-10.2S930.3,94.2,930.3,99.8z"/>
					</g>
				</g>
			</g>
		</g>
		<g>
			<path class="st21" d="M956.1,738.3V305.4c0-11.2-9.2-20.4-20.4-20.4H232.9c-11.2,0-20.4,9.1-20.4,20.4v432.8H956.1z"/>
			<path class="st22" d="M211,739.1v62.6c0,12,9.8,21.8,21.9,21.8h702.9c12,0,21.8-9.8,21.8-21.8v-62.6H211z"/>
			<path class="st22" d="M712.9,915.7c0,0-5.4-2.6-11.6-5c-6.6-2.5-14.6-5.6-19.3-7.9c-8.2-4-8.9-6.5-12-20
				c-3.3-14.7-6.5-45.8-7.8-59.3H506.5c-1.3,13.5-4.5,44.6-7.8,59.3c-3.1,13.5-3.8,16-12,20c-4.7,2.2-12.5,5.3-19.1,7.8l0,0
				c-6.3,2.4-11.5,4.2-11.5,4.2s-5,2.8,3,3.2h250.3C717,918.1,712.9,915.7,712.9,915.7L712.9,915.7z"/>
			<path class="st23" d="M663.8,839.9c-0.7-6.5-1.3-12.2-1.7-16.4H506.4c-0.4,4.1-1,9.9-1.6,16.4H663.8L663.8,839.9z"/>
			<polygon class="st24" points="346,738.3 500.8,738.3 783.7,285.1 629,285.1 			"/>
			<polygon class="st24" points="545,738.3 601.5,738.3 884.4,285.1 827.9,285.1 			"/>
			<rect x="247" y="320" class="st25" width="674.5" height="379.8"/>
		</g>
		<g>
			<g>
				<path class="st0" d="M21.8,136.8h465.7c11.3,0,20.5,9.2,20.5,20.5v361.1c0,11.3-9.2,20.5-20.5,20.5H21.8
					c-11.3,0-20.5-9.2-20.5-20.5V157.4C1.3,146,10.5,136.8,21.8,136.8z"/>
				<path class="st1" d="M22,136.8h465.4c11.4,0,20.7,9.3,20.7,20.7v27.2H1.3v-27.2C1.3,146.1,10.6,136.8,22,136.8z"/>
				<path class="st2" d="M472.9,160.8c0,5.3,4.3,9.6,9.6,9.6s9.6-4.3,9.6-9.6s-4.3-9.6-9.6-9.6S472.9,155.5,472.9,160.8z"/>
				<path class="st3" d="M442.6,160.8c0,5.3,4.3,9.6,9.6,9.6s9.6-4.3,9.6-9.6s-4.3-9.6-9.6-9.6S442.6,155.5,442.6,160.8z"/>
				<path class="st4" d="M412.2,160.8c0,5.3,4.3,9.6,9.6,9.6s9.6-4.3,9.6-9.6s-4.3-9.6-9.6-9.6S412.2,155.5,412.2,160.8z"/>
			</g>
			<line class="st5" x1="1.3" y1="184.8" x2="508" y2="184.8"/>
		</g>
		<g>
			<g>
				<path class="st0" d="M801.2,476h465.7c11.3,0,20.5,9.2,20.5,20.5v361.1c0,11.3-9.2,20.5-20.5,20.5H801.2
					c-11.3,0-20.5-9.2-20.5-20.5V496.5C780.7,485.1,789.9,476,801.2,476z"/>
				<path class="st1" d="M801.4,476h465.4c11.4,0,20.7,9.3,20.7,20.7v27.2H780.7v-27.2C780.7,485.2,789.9,476,801.4,476z"/>
				<path class="st2" d="M1252.3,499.9c0,5.3,4.3,9.6,9.6,9.6s9.6-4.3,9.6-9.6s-4.3-9.6-9.6-9.6S1252.3,494.6,1252.3,499.9z"/>
				<path class="st3" d="M1221.9,499.9c0,5.3,4.3,9.6,9.6,9.6s9.6-4.3,9.6-9.6s-4.3-9.6-9.6-9.6S1221.9,494.6,1221.9,499.9z"/>
				<path class="st4" d="M1191.6,499.9c0,5.3,4.3,9.6,9.6,9.6s9.6-4.3,9.6-9.6s-4.3-9.6-9.6-9.6S1191.6,494.6,1191.6,499.9z"/>
			</g>
			<line class="st5" x1="780.7" y1="523.9" x2="1287.4" y2="523.9"/>
		</g>
		<circle class="st26" cx="693.9" cy="627.3" r="45.8"/>
		<circle class="st1" cx="584.4" cy="627.3" r="45.8"/>
		<circle class="st1" cx="474.9" cy="627.3" r="45.8"/>
		<path class="st0" d="M680.2,636.6l0.3-0.3l4.9-4.9c0.9-0.9,1.9-1.9,1.9-3.2c0-0.8-0.3-1.5-1-2.2c4.7-3.7,11.3-3.7,16,0
			c-0.6,0.7-1,1.4-1,2.2c0,1.4,1,2.3,1.9,3.2l0.3,0.3l4.9,4.9c0.9,0.9,1.9,1.9,3.2,1.9c0.8,0,1.6-0.3,2.3-1l4.6-4.6
			c1.9-1.9,1.9-5,0-6.9l-1.2-1.2l-3.5-3.5c-10.8-10.8-28.5-10.8-39.3,0l-3.5,3.5l-1.2,1.2c-1.9,1.9-1.9,5,0,6.9l4.6,4.6
			c0.7,0.7,1.5,1,2.3,1C678.3,638.5,679.3,637.5,680.2,636.6L680.2,636.6z M672.4,630.5c-0.6-0.6-0.6-1.7,0-2.3l1.2-1.2l3.5-3.5
			c9.6-9.6,25.1-9.6,34.7,0l3.5,3.5l1.2,1.2c0.6,0.6,0.6,1.7,0,2.3l-4.6,4.6c-0.2-0.2-0.6-0.6-0.9-0.8l-0.3-0.3l-4.9-4.9
			c-0.3-0.3-0.6-0.6-0.8-0.9l1.1-1.1l1.2-1.2l-1.2-1.2c-6.4-6.4-16.7-6.4-23.1,0l-1.2,1.2l1.2,1.2l1.1,1.1c-0.2,0.2-0.6,0.6-0.8,0.9
			l-0.3,0.3l-4.9,4.9c-0.3,0.3-0.6,0.6-0.9,0.8L672.4,630.5L672.4,630.5z"/>
		<g>
			<path class="st27" d="M471.2,637.8c-7.5,0-13.5-6.1-13.5-13.5v-2.5c0-0.9,0.7-1.6,1.6-1.6s1.6,0.7,1.6,1.6v2.5
				c0,5.7,4.6,10.3,10.3,10.3s10.3-4.6,10.3-10.3v-2.5c0-0.9,0.7-1.6,1.6-1.6s1.6,0.7,1.6,1.6v2.5
				C484.7,631.7,478.6,637.8,471.2,637.8L471.2,637.8z"/>
			<path class="st27" d="M471.2,631.2c-3.9,0-7-3.1-7-7v-11.5c0-3.8,3.1-7,7-7s7,3.1,7,7v11.5C478.1,628.1,475,631.2,471.2,631.2z"
				/>
			<path class="st27" d="M471.2,645.2c-0.9,0-1.6-0.7-1.6-1.6v-7c0-0.9,0.7-1.6,1.6-1.6s1.6,0.7,1.6,1.6v7
				C472.8,644.5,472.1,645.2,471.2,645.2z"/>
			<path class="st27" d="M479,645.2h-15.6c-0.9,0-1.6-0.7-1.6-1.6s0.7-1.6,1.6-1.6H479c0.9,0,1.6,0.7,1.6,1.6S479.9,645.2,479,645.2
				z"/>
		</g>
		<path class="st27" d="M574.4,639.2h16.3c2.7,0,4.9-2.2,4.9-4.9v-2.6l6.5,6.5V614l-6.5,6.5v-2.6c0-2.7-2.2-4.9-4.9-4.9h-16.3
			c-2.7,0-4.9,2.2-4.9,4.9v16.3C569.5,637,571.7,639.2,574.4,639.2L574.4,639.2z M598.9,621.9v8.5l-3.3-3.3v-1.9L598.9,621.9
			L598.9,621.9z M572.8,617.9c0-0.9,0.7-1.6,1.6-1.6h16.3c0.9,0,1.6,0.7,1.6,1.6v16.3c0,0.9-0.7,1.6-1.6,1.6h-16.3
			c-0.9,0-1.6-0.7-1.6-1.6V617.9z"/>
		<g>
			<defs>
				<rect id="SVGID_00000176009602618443290870000009850034131606034844_" x="817.8" y="477.7" width="394.6" height="403.3"/>
			</defs>
			<clipPath id="SVGID_00000048459229306893443050000001884686957977452162_">
				<use xlink:href="#SVGID_00000176009602618443290870000009850034131606034844_"  style="overflow:visible;"/>
			</clipPath>
			<g style="clip-path:url(#SVGID_00000048459229306893443050000001884686957977452162_);">
				<g>
					<g>
						<path class="st29" d="M1030.2,594.8c0,0,40-9.6,50.6-19.6s-13-12.7-6.6-30c9.4-25.2-19.1-63.1-29.2-35.4
							c-10.1,27.8,4.2,37.7,3.3,24.6c-0.9-13.2,6-48.7-31.3-43.5c-37.3,5.1-48.6,30-16.5,39.4c32,9.4-39.3-30.1-36.1-5.5
							c3.3,24.6,25.1,20.2,32.7,19.3s-31.5-16.4-25.5,9.3C977.6,579.1,1000.7,588.8,1030.2,594.8L1030.2,594.8z"/>
						<path class="st14" d="M1061.2,592c0,0,4,23,8.5,33.5c8.1,18.8,18.2,49.7-43,35.2c-10.3-2.4,18.8-33.2,4.2-48.3
							C1016.4,597.2,1061.2,592,1061.2,592L1061.2,592z"/>
						<path class="st15" d="M1066.3,591.7c0,0-8,8.5,2.5,36.8c0,0-19.9,9.9-32.8-1.5c0.5-4.6-0.4-9.7-5.1-14.7
							C1016.4,597.2,1066.3,591.7,1066.3,591.7z"/>
						<path class="st14" d="M999.3,541.3c0,0-5.2,19.3,1.6,48.7c6.8,29.3,22.3,36.2,46.5,28.7c24.2-7.4,24-37.2,22.5-44.4
							s22.3-4.5,14.9-20.5c-7.4-15.9-16.6-8.2-16.9-1.5s-3.5,15.7-9.4,11c-5.9-4.6,1-31.8-10.3-26.1S1017.1,551,999.3,541.3
							L999.3,541.3z"/>
					</g>
					<path class="st13" d="M1063.8,901.3l1.2,492.7H957.6c0,0,11.9-23.8,47.9-23.8c21.6,0-22.6-479.6-22.6-479.6L1063.8,901.3
						L1063.8,901.3z"/>
					<polygon class="st18" points="1113.5,891.5 1176,1389.6 1129,1396.4 1053.7,955.8 1010,895.4 					"/>
					<path class="st4" d="M1025.4,644.9c-2.6-2.5-37.3,26.6-37.3,26.6s-10.3,148.9-8.5,187.6c1.8,38.7,4.8,38.7,4.8,38.7
						s64.9,13.1,94.6,10.1c29.8-3,35.1-7.7,35.1-7.7s-3-113.1,5.4-130.9c8.3-17.8,31.5-79.1,26.2-86.3s-66.1-41.7-66.1-41.7
						S1048.6,666.9,1025.4,644.9L1025.4,644.9z"/>
					<path class="st1" d="M988.1,671.5c0,0-1.4,124.2-4.9,134.8c-24.4,73.5-69.6,20.1-49.5,0.5C953.7,787.1,965.3,679.6,988.1,671.5
						L988.1,671.5z"/>
					<path class="st1" d="M942,840.6c-9.9-5.1-25.8-38.1-35.9-77.4c-9-34.8-18.2-72.4-18.2-72.4s23.4-3.6,24.8-6.3
						c1.4-2.8,21.8,55.9,34.2,81.2C963.3,799.1,951.9,845.7,942,840.6L942,840.6z"/>
					<path class="st14" d="M904.4,687.3c0,0,3.5-5.2,6.2-10.3c1.9-3.6,3.4-7.2,3.1-9c-0.8-4.4-7.2-21.2-8-22.6s-2.6-3.8-4,3
						c-1.5,6.8,2.5,14.6-1.5,10.8c-6.4-6.1-15.8-26.8-17.9-31.7c-1.5-3.7-6.7-11.4-8.7-9.5s4.1,10.6,6.2,18.2
						c2.1,7.6,7.2,17.2-0.7,5.2s-10.8-16.4-14.3-19c-2.3-1.7-3.1,2.1-2.5,3.9c0.6,1.8-1-2.2-3.3,2c-0.9,1.6,7.1,14.5,9.7,18.8
						c6.7,11.1,2.5,9.8,2.5,9.8s-10.6-15.5-11.4-16.9s-8.7-7.5-4.4,2.8c4.3,10.2,18.6,34.1,20.4,38.5
						C877.6,685.6,897.9,697,904.4,687.3L904.4,687.3z"/>
					<path class="st14" d="M1000.6,755l-25,6.2c0,0,1.8,3.1,5.4,3.6c3.6,0.5-3.6,3.6-7.1,4s-2.7,4,1.3,5.4c4,1.3-0.9,1.3-0.9,3.1
						s-5.4,1.3,2.7,1.8c8,0.5,10.3,2.2,10.3,2.2l-11.6,4.9c0,0-1.3,1.3,6.7,1.8c8,0.5,17,1.3,17,1.3S1003.3,758.1,1000.6,755
						L1000.6,755z"/>
					<path class="st15" d="M1037.6,777.7c0,0,4,12.5,1.3,17.8c-2.7,5.4-4.9,4.9-17,0.9c-12-4-22.8-7.1-22.8-7.1s-9.8-36.2,1.3-34.4
						C1011.7,756.7,1028.3,767.5,1037.6,777.7z"/>
					<path class="st1" d="M1130.2,788.9l-94.6-17.8c0,0-6.6,19.6-3.6,30.9c3,11.3,47.6,32.1,74.4,37.5s44.6,6,55.3,0.6
						c10.7-5.4,28.6-23.8,14.9-64.3c-13.7-40.5-26.8-91-30.9-92.8c-4.2-1.8-28.6,64.9-28.6,64.9l13.1,36.3L1130.2,788.9
						L1130.2,788.9z"/>
				</g>
			</g>
		</g>
		<g>
			<defs>
				<rect id="SVGID_00000020389224114555525440000011064657926695584902_" x="35.5" y="149.3" width="347.5" height="390.7"/>
			</defs>
			<clipPath id="SVGID_00000047043974541997641570000008341654157710409903_">
				<use xlink:href="#SVGID_00000020389224114555525440000011064657926695584902_"  style="overflow:visible;"/>
			</clipPath>
			<g style="clip-path:url(#SVGID_00000047043974541997641570000008341654157710409903_);">
				<g>
					<g>
						<path class="st16" d="M321.1,404c0,0,26.9,35.1,28.5,80.6c1.6,45.5-3.3,82.2-3.3,82.2l-5.8,27.4c0,0-38.4-14.6-38.4-31.1
							s-14.5-38.4-13.2-69C290.1,463.5,309.5,400.3,321.1,404L321.1,404z"/>
						<path class="st17" d="M83.8,416.3l88.8-35.4c0,0-3.2-2.6,46.9-1.5c35.1,0.8,77.6,21.4,81.3,17.2s20.2,7.4,20.2,7.4
							s-9.9,31.8-17.4,52.9c-7.4,21.1-12,73.7-12.8,93c-1.2,29.8,2.6,88.1,10.9,101.3s17.7,70.7,8.8,70.7
							c-32.2,0-171.8,0.3-183.4-1.4s-23.6-9.1-23.6-9.1s21.9-128.5,22.8-147.9C127.3,544.1,83.8,416.3,83.8,416.3L83.8,416.3z"/>
						<path class="st16" d="M67,583c0,0,0.3-111.4,2.9-122.7c1.2-5.4,14.1-44.6,14.1-44.6s31,24.4,34.3,46.3
							c3.3,21.9,0.4,69-1.2,76.4S67,583,67,583L67,583z"/>
					</g>
					<g>
						<path class="st31" d="M133.8,408.7c0,0-60-3.7-58-35.6c2-31.9,32.5-44,18.5-70c-14-26-37.5-46.4,11.5-61.7
							c49-15.4,25.5-72.2,59.5-73.3c34-1.1,36.5,25.9,68,28.1s74.5-26.9,87,23c12.5,49.9,5,96.5-15,99.3c-20,2.8,1.5,24.7,5,41.8
							c3.5,17.1,13,72.7-63.1,32.3C171.3,352.2,170.8,408.4,133.8,408.7L133.8,408.7z"/>
						<path class="st14" d="M182.2,345.7c0,0,8.7,12.3-0.5,25.8c-9.2,13.5-30.4,23.2-0.9,35.7c37.6,16,64.1-14.8,64.1-14.8
							s-25.6-11.1-19.9-29.3c5.7-18.2,33.4-34.8,7.6-29.1C206.7,339.8,177.9,332.6,182.2,345.7L182.2,345.7z"/>
						<path class="st15" d="M208.9,382.2c5.9-0.5,11.7-2.6,17.2-6.1c-1.9-3.8-2.6-8.1-1.1-13c5.7-18.2,33.4-34.8,7.6-29.1
							s-54.8-1.5-50.4,11.6c0,0,8.7,12.3-0.5,25.8c-0.7,1-1.4,1.9-2.2,2.9C189.1,383.5,193.6,383.4,208.9,382.2L208.9,382.2z"/>
						<path class="st14" d="M160.3,224.4c0,0-38.4,58.8-1.8,97.8c36.6,39,32.8,40,57.8,38.1c25-2,48.2-33.9,53.7-66.4
							c5.3-30.9-11-25.7-44.6-39.4S187,238,187,238s3.8,12.9,25.9,22.7S175,276.8,160.3,224.4L160.3,224.4z"/>
					</g>
				</g>
			</g>
		</g>
	</g>
</g>
</svg>
