<?xml version="1.0" encoding="UTF-8"?>
<svg id="Layer_2" data-name="Layer 2" xmlns="http://www.w3.org/2000/svg" viewBox="0 0 52.04 67.38">
  <defs>
    <style>
      .cls-1 {
        fill: #296d7f;
      }

      .cls-1, .cls-2, .cls-3 {
        stroke: #fff;
        stroke-miterlimit: 10;
        stroke-width: .98px;
      }

      .cls-2 {
        fill: #0986bf;
      }

      .cls-3 {
        fill: #8cc8dd;
      }
    </style>
  </defs>
  <g id="artboard2">
    <g>
      <path id="frente" class="cls-3" d="m49.48,62.05c-.15.48-.81,2.6-2.47,3.75-.57.39-2.1,1.95-7.37.48-4.86-1.35-6.1-3.46-10.27-4.95-3.91-1.39-4.25-.49-8.94-1.61-2.92-.7-9.92-2.44-15.23-8.11-1.92-2.05-5.59-6.5-4.52-9.93.78-2.53,3.4-3.73,3.77-3.89,5.75-2.55,15.08,2.27,18.8,6.69.61.73,2.72,3.39,6.31,5.15.63.31,4.51,1.49,9.25,2.32,9.21,1.62,11.9,6.22,10.67,10.11Z"/>
      <path id="frente-2" data-name="frente" class="cls-1" d="m47.7,63.96c-.42.39-2.26,2.08-4.54,2.26-.78.06-3.16.71-7.47-3.72-3.97-4.08-3.99-6.85-7.22-10.67-3.03-3.58-3.87-2.89-7.81-6.65-2.45-2.34-8.29-8.02-10.26-16.56-.71-3.1-1.76-9.52,1.22-12.26,2.2-2.02,5.44-1.71,5.89-1.66,7.07.77,13.43,10.78,14.56,17.21.19,1.06.73,4.86,3.24,8.6.44.66,3.56,4.01,7.72,7.52,8.07,6.81,8.09,12.83,4.68,15.93Z"/>
      <path id="frente-3" data-name="frente" class="cls-2" d="m45.07,66.23c-.62.11-3.34.59-5.56-.6-.76-.41-3.36-1.22-4.73-7.89-1.27-6.15.36-8.73-.38-14.2-.69-5.12-1.88-4.99-3.3-10.82-.89-3.63-2.94-12.37.3-21.48,1.18-3.3,4.01-9.89,8.41-10.67,3.25-.57,6.07,1.64,6.46,1.95,6.11,4.91,6.08,17.98,3.3,24.63-.46,1.09-2.21,4.94-2.1,9.91.02.88.92,5.84,2.7,11.57,3.45,11.12-.1,16.72-5.11,17.57Z"/>
    </g>
  </g>
</svg>