<?xml version="1.0" encoding="UTF-8"?>
<svg id="Layer_2" data-name="Layer 2" xmlns="http://www.w3.org/2000/svg" viewBox="0 0 461.63 79.06">
  <defs>
    <style>
      .cls-1 {
        fill: #06abc8;
      }

      .cls-2 {
        fill: #0d426b;
      }

      .cls-3 {
        fill: #fff;
        font-family: Poppins-Medium, Poppins;
        font-size: 55.27px;
        font-weight: 500;
      }
    </style>
  </defs>
  <g id="Layer_2-2" data-name="Layer 2">
    <g>
      <path class="cls-2" d="m0,58.74V17.76h5.97v4.2h.93c.73-1.3,1.87-2.47,3.4-3.47,1.5-1.03,3.7-1.53,6.54-1.53,2.44,0,4.67.6,6.71,1.77s3.67,2.9,4.91,5.11c1.23,2.24,1.87,4.91,1.87,8.08v.9c0,3.17-.6,5.84-1.84,8.08s-2.87,3.94-4.91,5.11-4.3,1.77-6.74,1.77c-1.9,0-3.47-.23-4.77-.7s-2.34-1.07-3.14-1.8c-.8-.73-1.43-1.5-1.9-2.27h-.93v15.78H0v-.03Zm15.08-16.32c2.67,0,4.87-.83,6.57-2.54s2.54-4.1,2.54-7.27v-.53c0-3.1-.87-5.51-2.57-7.21s-3.9-2.54-6.54-2.54-4.77.83-6.47,2.54-2.57,4.1-2.57,7.21v.53c0,3.17.87,5.57,2.57,7.27,1.7,1.67,3.87,2.54,6.47,2.54"/>
      <path class="cls-2" d="m51.56,47.73c-2.9,0-5.51-.6-7.77-1.8s-4.04-2.94-5.34-5.17-1.94-4.91-1.94-7.98v-.9c0-3.07.67-5.74,1.94-7.94,1.3-2.24,3.07-3.94,5.34-5.17s4.87-1.84,7.77-1.84,5.51.6,7.81,1.84,4.07,2.94,5.37,5.17c1.3,2.24,1.97,4.87,1.97,7.94v.9c0,3.07-.67,5.74-1.97,7.98-1.3,2.24-3.1,3.97-5.37,5.17-2.3,1.2-4.91,1.8-7.81,1.8m0-5.44c2.67,0,4.87-.87,6.54-2.57s2.5-4.07,2.5-7.11v-.53c0-3.04-.83-5.41-2.47-7.11-1.67-1.7-3.84-2.57-6.57-2.57s-4.81.87-6.47,2.57-2.5,4.1-2.5,7.11v.53c0,3.04.83,5.41,2.5,7.11,1.67,1.7,3.84,2.57,6.47,2.57"/>
      <path class="cls-2" d="m86.33,47.73c-2.4,0-4.64-.6-6.67-1.77s-3.7-2.9-4.94-5.11c-1.23-2.24-1.87-4.91-1.87-8.08v-.9c0-3.1.6-5.81,1.84-8.04s2.87-3.97,4.91-5.14,4.3-1.77,6.74-1.77c1.9,0,3.47.23,4.77.7,1.27.47,2.34,1.07,3.17,1.8.83.73,1.47,1.5,1.9,2.27h.93V5.52h6.07v41.38h-5.97v-4.14h-.93c-.73,1.27-1.87,2.4-3.4,3.44-1.53,1.03-3.7,1.53-6.54,1.53m1.7-5.31c2.64,0,4.81-.83,6.54-2.54,1.7-1.7,2.57-4.1,2.57-7.27v-.53c0-3.1-.83-5.51-2.54-7.21s-3.87-2.54-6.57-2.54-4.77.83-6.47,2.54-2.57,4.1-2.57,7.21v.53c0,3.17.87,5.57,2.57,7.27,1.74,1.67,3.87,2.54,6.47,2.54"/>
      <path class="cls-2" d="m125.8,47.73c-2.9,0-5.51-.6-7.77-1.8s-4.04-2.94-5.34-5.17-1.94-4.91-1.94-7.98v-.9c0-3.07.63-5.74,1.94-7.94,1.3-2.24,3.07-3.94,5.34-5.17s4.87-1.84,7.77-1.84,5.51.6,7.81,1.84c2.27,1.23,4.07,2.94,5.37,5.17s1.94,4.87,1.94,7.94v.9c0,3.07-.63,5.74-1.94,7.98-1.3,2.24-3.1,3.97-5.37,5.17-2.27,1.2-4.87,1.8-7.81,1.8m0-5.44c2.67,0,4.87-.87,6.54-2.57s2.5-4.07,2.5-7.11v-.53c0-3.04-.83-5.41-2.47-7.11-1.67-1.7-3.84-2.57-6.57-2.57s-4.81.87-6.47,2.57-2.5,4.1-2.5,7.11v.53c0,3.04.83,5.41,2.5,7.11,1.7,1.7,3.84,2.57,6.47,2.57"/>
      <path class="cls-2" d="m160.47,47.73c-3.7,0-6.77-.83-9.21-2.47-2.44-1.67-3.94-4.17-4.5-7.51l5.67-1.37c.3,1.6.83,2.9,1.6,3.84.73.93,1.67,1.6,2.8,2s2.34.6,3.64.6c1.94,0,3.4-.37,4.47-1.13,1.03-.73,1.57-1.7,1.57-2.9s-.5-2.04-1.47-2.6c-1-.57-2.44-1-4.37-1.37l-2-.37c-1.97-.37-3.77-.87-5.37-1.53-1.6-.67-2.9-1.6-3.84-2.77s-1.43-2.7-1.43-4.54c0-2.77,1.03-4.91,3.07-6.41s4.77-2.27,8.14-2.27,5.97.73,8.08,2.2,3.47,3.47,4.1,6.01l-5.67,1.6c-.37-1.77-1.1-3.04-2.24-3.77-1.13-.73-2.57-1.1-4.27-1.1s-2.97.3-3.9.9c-.93.6-1.43,1.47-1.43,2.57,0,1.17.47,2.04,1.4,2.6.93.57,2.17.97,3.74,1.23l2.07.37c2.1.37,4,.83,5.74,1.47s3.1,1.53,4.1,2.7,1.5,2.77,1.5,4.74c0,2.9-1.07,5.17-3.24,6.81-2.17,1.67-5.11,2.47-8.74,2.47"/>
      <path class="cls-2" d="m179.56,46.89V5.52h6.11v16.38h.93c.4-.73.97-1.47,1.67-2.2.73-.7,1.7-1.3,2.9-1.74,1.2-.47,2.74-.67,4.57-.67,2.2,0,4.17.5,5.87,1.47,1.7,1,3.07,2.37,4.04,4.17s1.47,3.94,1.47,6.47v17.49h-6.07v-17.02c0-2.54-.63-4.37-1.9-5.57s-3-1.8-5.21-1.8c-2.54,0-4.54.83-6.07,2.47-1.5,1.67-2.27,4.07-2.27,7.21v14.72h-6.04Z"/>
      <path class="cls-2" d="m229.58,47.73c-2.9,0-5.51-.6-7.77-1.8s-4.04-2.94-5.34-5.17-1.94-4.91-1.94-7.98v-.9c0-3.07.67-5.74,1.94-7.94,1.3-2.24,3.07-3.94,5.34-5.17s4.87-1.84,7.77-1.84,5.51.6,7.81,1.84,4.07,2.94,5.37,5.17c1.3,2.24,1.97,4.87,1.97,7.94v.9c0,3.07-.67,5.74-1.97,7.98-1.3,2.24-3.1,3.97-5.37,5.17-2.3,1.2-4.91,1.8-7.81,1.8m0-5.44c2.67,0,4.87-.87,6.54-2.57s2.5-4.07,2.5-7.11v-.53c0-3.04-.83-5.41-2.47-7.11-1.67-1.7-3.84-2.57-6.57-2.57s-4.81.87-6.47,2.57-2.5,4.1-2.5,7.11v.53c0,3.04.83,5.41,2.5,7.11,1.67,1.7,3.8,2.57,6.47,2.57"/>
      <path class="cls-2" d="m252.27,58.74V17.76h5.97v4.2h.93c.73-1.3,1.87-2.47,3.4-3.47,1.5-1.03,3.7-1.53,6.54-1.53,2.44,0,4.67.6,6.71,1.77s3.67,2.9,4.91,5.11c1.23,2.24,1.87,4.91,1.87,8.08v.9c0,3.17-.6,5.84-1.84,8.08s-2.87,3.94-4.91,5.11c-2.04,1.17-4.3,1.77-6.74,1.77-1.9,0-3.5-.23-4.81-.7s-2.34-1.07-3.14-1.8c-.8-.73-1.43-1.5-1.9-2.27h-.93v15.78h-6.07v-.03Zm15.08-16.32c2.67,0,4.87-.83,6.57-2.54,1.7-1.7,2.54-4.1,2.54-7.27v-.53c0-3.1-.87-5.51-2.57-7.21-1.7-1.7-3.9-2.54-6.54-2.54s-4.77.83-6.47,2.54c-1.7,1.7-2.57,4.1-2.57,7.21v.53c0,3.17.87,5.57,2.57,7.27,1.7,1.67,3.87,2.54,6.47,2.54"/>
      <g>
        <path class="cls-1" d="m320.96.86h111.71c15.98,0,28.96,12.98,28.96,28.96h0c0,15.98-12.98,28.96-28.96,28.96h-140.67v-28.96c0-15.98,12.98-28.96,28.96-28.96Z"/>
        <text class="cls-3" transform="translate(296.89 46.89)"><tspan x="0" y="0">clube</tspan></text>
      </g>
    </g>
  </g>
</svg>