<?xml version="1.0" encoding="utf-8"?>
<!-- Generator: Adobe Illustrator 27.2.0, SVG Export Plug-In . SVG Version: 6.00 Build 0)  -->
<svg version="1.1" id="Layer_1" xmlns:serif="http://www.serif.com/"
	 xmlns="http://www.w3.org/2000/svg" xmlns:xlink="http://www.w3.org/1999/xlink" x="0px" y="0px" viewBox="0 0 24 24"
	 style="enable-background:new 0 0 24 24;" xml:space="preserve">
<style type="text/css">
	
		.st0{clip-path:url(#SVGID_00000155861752092837650670000008806457552722981555_);fill:url(#SVGID_00000173859359051520317480000005859254132495921813_);}
</style>
<g>
	<defs>
		<path id="SVGID_1_" d="M18.2,5.8c1.3,1.3,1.3,3.4,0,4.7s-3.4,1.3-4.7,0s-1.3-3.4,0-4.7S16.9,4.5,18.2,5.8z M17.2,6.9
			c-0.7-0.7-1.9-0.7-2.6,0c-0.7,0.7-0.7,1.9,0,2.6s1.9,0.7,2.6,0C17.9,8.7,17.9,7.6,17.2,6.9z M22.4,2.1c0,0,1.9,6.6-3.9,12.4
			c-2.6,2.6-6.1,4.5-8.8,5c-0.2,0-0.5,0-0.7-0.2l-4.6-4.7c-0.2-0.2-0.2-0.4-0.2-0.7C4.8,11.2,7,8.1,9.6,5.5C15.4-0.3,22,1.6,22,1.6
			C22.2,1.7,22.4,1.9,22.4,2.1z M21.1,2.9c-1.4-0.3-6.2-0.7-10.5,3.6c-2.2,2.2-4.2,4.9-4.8,7.3l4.1,4.1c2.4-0.5,5.4-2.3,7.6-4.5
			C21.8,9.1,21.4,4.4,21.1,2.9z M3,10.9l2.5,0.4c0.4,0.1,0.7,0.5,0.6,0.9s-0.5,0.7-0.9,0.6l-2.9-0.5c-0.4-0.1-0.8-0.4-1-0.8
			c-0.2-0.4-0.1-0.9,0.2-1.2l2.5-3c0.3-0.4,0.7-0.6,1.2-0.6l3.6-0.3c0.4,0,0.8,0.3,0.8,0.7c0,0.4-0.3,0.8-0.7,0.8L5.4,8.1
			c-0.1,0-0.1,0-0.2,0.1C5.2,8.2,3,10.9,3,10.9z M13.1,21l2.7-2.2c0.1,0,0.1-0.1,0.1-0.2l0.3-3.6c0-0.4,0.4-0.7,0.8-0.7
			s0.7,0.4,0.7,0.8l-0.3,3.6c0,0.5-0.3,0.9-0.6,1.2l-3,2.5c-0.3,0.3-0.8,0.4-1.2,0.2c-0.4-0.2-0.7-0.5-0.8-1l-0.6-3.5
			c-0.1-0.4,0.2-0.8,0.6-0.9c0.4-0.1,0.8,0.2,0.9,0.6C12.6,17.9,13.1,21,13.1,21z M6.2,11.3c-0.3-0.3-0.3-0.8,0-1.1s0.8-0.3,1.1,0
			l6.6,6.6c0.3,0.3,0.3,0.8,0,1.1c-0.3,0.3-0.8,0.3-1.1,0C12.8,17.8,6.2,11.3,6.2,11.3z M7.7,19.7c0.3-0.3,0.8-0.3,1.1,0
			C9,20,9,20.5,8.7,20.7l-1.8,1.8c-0.3,0.3-0.8,0.3-1.1,0c-0.3-0.3-0.3-0.8,0-1.1C5.9,21.5,7.7,19.7,7.7,19.7z M4.8,18.2
			c0.3-0.3,0.8-0.3,1.1,0c0.3,0.3,0.3,0.8,0,1.1l-2.6,2.6c-0.3,0.3-0.8,0.3-1.1,0s-0.3-0.8,0-1.1L4.8,18.2z M3.3,15.3
			c0.3-0.3,0.8-0.3,1.1,0s0.3,0.8,0,1.1l-1.8,1.8c-0.3,0.3-0.8,0.3-1.1,0s-0.3-0.8,0-1.1C1.5,17.1,3.3,15.3,3.3,15.3z"/>
	</defs>
	<clipPath id="SVGID_00000060024773527442312850000016874112966844012969_">
		<use xlink:href="#SVGID_1_"  style="overflow:visible;"/>
	</clipPath>
	
		<linearGradient id="SVGID_00000180362054704338733480000007030513608617648265_" gradientUnits="userSpaceOnUse" x1="24" y1="2" x2="1.788141e-07" y2="26" gradientTransform="matrix(1 0 0 -1 0 26)">
		<stop  offset="0" style="stop-color:#0986BF"/>
		<stop  offset="1" style="stop-color:#45F063"/>
	</linearGradient>
	
		<rect x="0" style="clip-path:url(#SVGID_00000060024773527442312850000016874112966844012969_);fill:url(#SVGID_00000180362054704338733480000007030513608617648265_);" width="24" height="24"/>
</g>
</svg>
