<?xml version="1.0" encoding="UTF-8"?>
<svg id="Layer_2" data-name="Layer 2" xmlns="http://www.w3.org/2000/svg" xmlns:xlink="http://www.w3.org/1999/xlink" viewBox="0 0 32 32">
  <defs>
    <style>
      .cls-1 {
        clip-path: url(#clippath);
      }

      .cls-2 {
        fill: none;
      }

      .cls-3 {
        fill: url(#linear-gradient);
      }
    </style>
    <clipPath id="clippath">
      <path class="cls-2" d="m16,1.5c8,0,14.5,6.5,14.5,14.5,0,8-6.5,14.5-14.5,14.5S1.5,24,1.5,16c0-8,6.5-14.5,14.5-14.5M16,0C7.16,0,0,7.16,0,16c0,8.84,7.16,16,16,16s16-7.16,16-16S24.84,0,16,0h0Zm2,23.82c.19,0,.38-.07.53-.22.29-.29.29-.77,0-1.06l-6.54-6.54,6.54-6.54c.29-.29.29-.77,0-1.06s-.77-.29-1.06,0l-7.6,7.6,7.6,7.6c.15.15.34.22.53.22Z"/>
    </clipPath>
    <linearGradient id="linear-gradient" x1="0" y1="32" x2="32" y2="0" gradientUnits="userSpaceOnUse">
      <stop offset="0" stop-color="#0986bf"/>
      <stop offset=".5" stop-color="#3fbac5"/>
      <stop offset="1" stop-color="#00ffa2"/>
    </linearGradient>
  </defs>
  <g id="Layer_1-2" data-name="Layer 1">
    <g class="cls-1">
      <rect class="cls-3" width="32" height="32"/>
    </g>
  </g>
</svg>