<?xml version="1.0" encoding="utf-8"?>
<!-- Generator: Adobe Illustrator 27.2.0, SVG Export Plug-In . SVG Version: 6.00 Build 0)  -->
<svg version="1.1" id="Layer_2_00000017500546755267072440000013749555535145672065_"
	 xmlns="http://www.w3.org/2000/svg" xmlns:xlink="http://www.w3.org/1999/xlink" x="0px" y="0px" viewBox="0 0 86.4 94.9"
	 style="enable-background:new 0 0 86.4 94.9;" xml:space="preserve">
<style type="text/css">
	
		.st0{clip-path:url(#SVGID_00000085958581332807624990000008735946644382746776_);fill:url(#SVGID_00000150814305290678940900000008094668530872911006_);}
</style>
<g>
	<defs>
		<path id="SVGID_1_" d="M17.8,17.1l8.5,0.5l2.3-12.2c0.2-1.1,1.3-1.9,2.5-1.7l16.7,3.2L47.9,2c0-1.2,1-2.1,2.2-2l22.7,0.7
			c1.2,0,2.1,1,2,2.2l-0.4,17.6l10,0.6c1.2,0.1,2.1,1.1,2,2.2c0,0.2,0,0.4-0.1,0.5L75.6,56.5c-0.3,0.9-1.1,1.5-2,1.5l-46.2,2.2
			c-1,0-1.9-0.6-2.1-1.6l-9.7-38.8c-0.3-1.1,0.4-2.3,1.5-2.6C17.3,17.1,17.6,17.1,17.8,17.1z M66.9,79.2c2.2,0,4.1,0.9,5.6,2.3
			l0.1,0.1c1.3,1.4,2.2,3.3,2.2,5.4s-0.9,4.1-2.3,5.6c-1.4,1.4-3.4,2.3-5.6,2.3s-4.1-0.9-5.5-2.3c-1.4-1.4-2.3-3.4-2.3-5.6
			s0.9-4.1,2.3-5.6C62.8,80.1,64.8,79.2,66.9,79.2L66.9,79.2z M69.5,84.5c-0.7-0.7-1.6-1.1-2.6-1.1s-1.9,0.4-2.6,1.1
			c-0.7,0.7-1.1,1.6-1.1,2.6s0.4,1.9,1.1,2.6s1.6,1.1,2.6,1.1s1.9-0.4,2.6-1.1c0.7-0.7,1.1-1.6,1.1-2.6S70.2,85.2,69.5,84.5
			L69.5,84.5L69.5,84.5z M30.2,79.2c2.2,0,4.1,0.9,5.5,2.3c1.4,1.4,2.3,3.4,2.3,5.6s-0.9,4.1-2.3,5.6l-0.1,0.1
			c-1.4,1.3-3.3,2.2-5.4,2.2s-4.1-0.9-5.6-2.3c-1.4-1.4-2.3-3.4-2.3-5.6s0.9-4.1,2.3-5.6C26.1,80.1,28.1,79.2,30.2,79.2L30.2,79.2z
			 M32.8,84.5c-0.7-0.7-1.6-1.1-2.6-1.1s-1.9,0.4-2.6,1.1c-0.7,0.7-1.1,1.6-1.1,2.6s0.4,1.9,1.1,2.6s1.6,1.1,2.6,1.1s1.9-0.4,2.5-1
			l0.1-0.1c0.7-0.7,1.1-1.6,1.1-2.6S33.5,85.2,32.8,84.5L32.8,84.5z M52,7.7l6.3,1.2c1.1,0.2,1.9,1.3,1.7,2.5l-1.5,8.2l11.7,0.7
			l0.4-15.3L52.1,4.3L52,7.7L52,7.7z M30.5,17.8l23.6,1.4l1.2-6.6L32.4,8.2C32.4,8.2,30.5,17.8,30.5,17.8z M24.7,61.9h26
			c1.2,0,2.1,1,2.1,2.1c0,1.2-1,2.1-2.1,2.1H23.3c-1.6,0.5-2.6,1.5-3,2.6c-0.2,0.6-0.3,1.3-0.2,1.9s0.3,1.3,0.8,1.8
			c0.8,1.1,2.4,1.9,4.6,1.9h49.7c1.2,0,2.1,0.9,2.1,2.1s-0.9,2.1-2.1,2.1H25.5c-3.7,0-6.4-1.5-8-3.6c-0.8-1.1-1.4-2.4-1.5-3.8
			c-0.2-1.3,0-2.7,0.4-4c0.7-1.8,2.1-3.5,4.1-4.5L7.8,12.1H2.1C0.9,12.1,0,11.1,0,10s0.9-2.1,2.1-2.1h7.4c1,0,1.9,0.7,2.1,1.7
			C11.6,9.6,24.7,61.9,24.7,61.9z M81.4,25l-61.1-3.6l8.6,34.4l43.1-2L81.4,25L81.4,25z"/>
	</defs>
	<clipPath id="SVGID_00000080900513987650266920000010654846701981930677_">
		<use xlink:href="#SVGID_1_"  style="overflow:visible;"/>
	</clipPath>
	
		<linearGradient id="SVGID_00000121264921524638318340000010994937182818870668_" gradientUnits="userSpaceOnUse" x1="-5.3478" y1="-303.3409" x2="91.3043" y2="-399.993" gradientTransform="matrix(1 0 0 -1 0 -305.08)">
		<stop  offset="0" style="stop-color:#45F063"/>
		<stop  offset="1" style="stop-color:#007CFF"/>
	</linearGradient>
	
		<rect x="-2.6" y="-4.5" style="clip-path:url(#SVGID_00000080900513987650266920000010654846701981930677_);fill:url(#SVGID_00000121264921524638318340000010994937182818870668_);" width="91.2" height="102.1"/>
</g>
</svg>
