<?xml version="1.0" encoding="utf-8"?>
<!-- Generator: Adobe Illustrator 27.2.0, SVG Export Plug-In . SVG Version: 6.00 Build 0)  -->
<svg version="1.1" id="Layer_1" xmlns="http://www.w3.org/2000/svg" xmlns:xlink="http://www.w3.org/1999/xlink" x="0px" y="0px"
	 viewBox="0 0 1386 1080" style="enable-background:new 0 0 1386 1080;" xml:space="preserve">
<style type="text/css">
	.st0{fill:#282D33;}
	.st1{fill:#77D885;}
	.st2{fill:#68AF70;}
	.st3{fill:#E8841E;}
	.st4{fill:#163F59;}
	.st5{fill:#9AC7F7;}
	.st6{fill:#7EB3FF;}
	.st7{fill:#E9F6FF;}
	.st8{fill:#EAF4FE;}
	.st9{fill:#EE1F45;}
	.st10{fill:none;stroke:#E8841E;stroke-width:1.7845;stroke-miterlimit:10;}
	.st11{clip-path:url(#SVGID_00000129891385904335528650000009526805511647324599_);}
	.st12{fill:#0986BF;}
	.st13{fill:#281617;}
	.st14{fill:#C5E1F9;}
	.st15{fill:#0450CF;}
	.st16{fill:#1B5E8D;}
	.st17{fill:#F0BF97;}
	.st18{fill:#E9AB86;}
	.st19{fill:#F7B68B;}
	.st20{fill:#EC9568;}
	.st21{fill:none;stroke:#7EB3FF;stroke-width:2.3149;stroke-miterlimit:10;stroke-dasharray:13.7987;}
	.st22{fill:#76BDFF;}
	.st23{fill:#FFFFFF;}
	.st24{fill:none;stroke:#FFFFFF;stroke-width:7.6923;stroke-miterlimit:10;}
	.st25{fill:#99B6F2;}
	.st26{fill:#0561FC;}
	.st27{fill:#003E99;}
	.st28{fill:#6F90DC;}
	.st29{fill:#426ECF;}
</style>
<g>
	<path class="st0" d="M1001.4,864.9c-0.2-1.2-0.4-2.5-0.4-3.7c0-23.8,193.2-23.8,193.2,0c0,1.3-0.2,2.7-0.4,4l93.5,0.1
		c0,0,0-31.3-10.2-49.5c-10.2-18.2-55.5-26.7-55.5-26.7s-77.5-31.9-168.1-48.6C948.1,721,838.5,703,838.5,703l-619.8,1.3
		C195.5,721.4,261.3,864,261.3,864c-0.1-0.9-0.2-1.9-0.2-2.8c0-22.2,180.5-22.2,180.5,0c0,1-0.1,2-0.3,3L1001.4,864.9z"/>
	<path class="st1" d="M1001.4,873.2c-0.2-2.8-0.4-5.5-0.4-8.3c0-53.3,43.2-96.6,96.6-96.6c53.3,0,96.6,43.2,96.6,96.6
		c0,3-0.2,6-0.4,8.9l93.5,0.3c0,0,0-70.2-10.2-111.1c-10.2-40.9-55.5-59.9-55.5-59.9s-97.9-26.3-184.2-96.5
		C951,536.4,838.5,510,838.5,510L218.7,513c-23.2,38.3-23.1,240.8-14.9,323.4c1.9,19.7,18.5,34.7,38.3,34.8l19.2,0.1
		c-0.1-2.1-0.2-4.2-0.2-6.3c0-49.9,40.4-90.3,90.3-90.3c49.9,0,90.3,40.4,90.3,90.3c0,2.3-0.1,4.5-0.3,6.8L1001.4,873.2z"/>
	<path class="st2" d="M260.8,689.9h389.2c17.6,0,83.3-39.4,83.3-57l-1.5-69c0-17.6-14.3-31.9-31.9-31.9H260.8
		c-17.6,0-31.9,14.3-31.9,31.9V658C228.9,675.6,243.2,689.9,260.8,689.9z"/>
	<path class="st3" d="M1090.4,700.1h-11.9c-1.6,0-2.8-1.3-2.8-2.8v-2.4c0-1.6,1.3-2.8,2.8-2.8h11.9c1.6,0,2.8,1.3,2.8,2.8v2.4
		C1093.2,698.8,1091.9,700.1,1090.4,700.1z"/>
	
		<ellipse transform="matrix(0.2771 -0.9608 0.9608 0.2771 -577.0693 962.7826)" class="st4" cx="351.3" cy="864.9" rx="78.1" ry="78.1"/>
	
		<ellipse transform="matrix(0.2233 -0.9747 0.9747 0.2233 -570.1948 1014.2287)" class="st5" cx="351.3" cy="864.9" rx="47.1" ry="47.1"/>
	
		<ellipse transform="matrix(0.2751 -0.9614 0.9614 0.2751 -576.8599 964.7489)" class="st6" cx="351.3" cy="864.9" rx="41.4" ry="41.4"/>
	
		<ellipse transform="matrix(0.1602 -0.9871 0.9871 0.1602 68.0384 1809.7882)" class="st4" cx="1097.6" cy="864.9" rx="78.1" ry="78.1"/>
	
		<ellipse transform="matrix(0.8817 -0.4719 0.4719 0.8817 -278.241 620.25)" class="st5" cx="1097.6" cy="864.9" rx="47.1" ry="47.1"/>
	
		<ellipse transform="matrix(0.982 -0.1891 0.1891 0.982 -143.756 223.1689)" class="st6" cx="1097.6" cy="864.9" rx="41.4" ry="41.4"/>
	<path class="st2" d="M455.5,820.7l532.8,11c0,0,5.1,8.8,2.9,16.8c-2.2,8,9.5,18.3-7.3,19c-16.8,0.7-519,1.5-519,1.5
		S454,839,455.5,820.7z"/>
	<path class="st7" d="M781.3,531c0,0,69.1-6.8,79.5-1.9c33.8,15.8,137.2,55.4,146.6,78.8c9.5,23.3,7.6,77.8-23.6,72.9
		c-31.2-4.9-182.6-42.8-182.6-42.8s-17-14.6-18.9-34C780.4,584.5,771.9,531,781.3,531z"/>
	<path class="st8" d="M1277,762.9c-5-19.9-18.2-34.5-30.5-44.4c-13.1-3-23.9-1.3-28.7,5.7c-8.3,12.2,5.2,36,30.2,53
		c11.7,8,23.8,13,34.2,14.9C1280.9,781.8,1279.2,771.7,1277,762.9z"/>
	<path class="st9" d="M204.2,735.2c-1.8,0-3.6,0.4-5.2,1c0.5,33.9,1.9,65.5,3.8,89.6c0.4,0,0.9,0.1,1.4,0.1c8,0,14.6-6.6,14.6-14.6
		v-61.4C218.8,741.7,212.2,735.2,204.2,735.2z"/>
	<path class="st2" d="M271.5,814.8c0,0-64.8-2.8-70-7c0.6,10.5,1.4,20.1,2.2,28.5c1.9,19.7,18.5,34.7,38.3,34.8l19.2,0.1
		c-0.1-2.1-0.2-4.2-0.2-6.3c0-15.9,4.1-30.9,11.4-43.8C271.9,817.2,271.5,814.8,271.5,814.8z"/>
	<path class="st10" d="M756.1,513l1.9,181.7c0,0,3.9,29.2,14.6,40.9c10.7,11.7,12.7,26.3,11.7,40.9c-1,14.6-1.9,95.3-1.9,95.3"/>
	<line class="st10" x1="1041.7" y1="611.3" x2="1043.5" y2="780.1"/>
</g>
<g>
	<defs>
		<rect id="SVGID_1_" x="60.4" y="153.9" width="666.3" height="811.9"/>
	</defs>
	<clipPath id="SVGID_00000011718719337957413530000001745106763565337002_">
		<use xlink:href="#SVGID_1_"  style="overflow:visible;"/>
	</clipPath>
	<g style="clip-path:url(#SVGID_00000011718719337957413530000001745106763565337002_);">
		<path class="st4" d="M393.6,377.2c0,0,57-4.4,73.7-15.8c16.7-11.3-15-20.3-2.4-42.6c18.4-32.6-12.4-90.8-32.3-54.9
			c-19.9,35.9-2.6,52.7-0.9,34.4c1.7-18.3,18.9-65.4-33.4-66.6c-52.4-1.1-73.2,30.5-31.3,50.5c41.9,20-47.4-49.9-48.3-15.5
			c-0.9,34.4,30.1,33.1,40.6,33.7c10.5,0.5-39.6-29.4-37,7.2C324.9,344.2,354.5,362.6,393.6,377.2z"/>
		<path class="st4" d="M458.2,820.6l-1.7,684.5h149.2c0,0-16.5-33.1-66.5-33.1c-29.9,0,31.4-666.3,31.4-666.3L458.2,820.6z"/>
		<polygon class="st12" points="389.2,806.9 302.4,1498.9 367.7,1508.4 472.3,896.2 533,812.3 		"/>
		<path class="st13" d="M367.7,1508.4h-69.4c0,0,17.4-36.5,45.1-33C371.2,1478.9,367.7,1508.4,367.7,1508.4z"/>
		<path class="st14" d="M497.2,529.5c0,0,108.4,92.6,171.4,91.4c63-1.2-145.2-178.2-166.1-180.5C481.6,438,497.2,529.5,497.2,529.5z
			"/>
		<path class="st8" d="M366.4,844.8c0,0,12.5,24.9-3.1-115.3c-15.6-140.2-46-262.2-46-262.2l88.8-46.7H484c0,0,51.8,34.2,58,65.4
			c6.2,31.2-1.9,143.3,7.4,165.1c9.3,21.8,22.6,181.2,22.6,181.2L366.4,844.8z"/>
		<g>
			<path class="st14" d="M576.4,804.5c0,12.3-10,22.3-22.3,22.3H163.9c-12.3,0-22.3-10-22.3-22.3v-227c0-12.3,10-22.3,22.3-22.3H554
				c12.3,0,22.3,10.1,22.3,22.3V804.5z"/>
			<path class="st6" d="M576.4,802.2c0,12.3-10,22.3-22.3,22.3H163.9c-12.3,0-22.3-10-22.3-22.3V575.1c0-12.3,10-22.3,22.3-22.3H554
				c12.3,0,22.3,10.1,22.3,22.3V802.2z"/>
			<path class="st15" d="M141.6,575.1v54.4h434.8v-54.4c0-1.3-0.2-2.6-0.4-3.9H142C141.8,572.5,141.6,573.8,141.6,575.1z"/>
			<g>
				<rect x="147.8" y="637" class="st14" width="421.8" height="33.5"/>
				<g>
					<rect x="147.8" y="641.3" class="st8" width="421.8" height="2.5"/>
					<rect x="147.8" y="648.8" class="st8" width="421.8" height="2.5"/>
					<rect x="147.8" y="656.2" class="st8" width="421.8" height="2.5"/>
					<rect x="147.8" y="663.7" class="st8" width="421.8" height="2.5"/>
				</g>
			</g>
			<g>
				<polygon class="st14" points="220.2,735.5 220.1,731.4 497.4,731.6 497.4,735.7 				"/>
			</g>
			<g>
				<polygon class="st14" points="212.2,749.1 212.2,745 505.3,745.2 505.3,749.3 				"/>
			</g>
			<g>
				<polygon class="st14" points="248.1,762.8 248,758.7 469.5,758.8 469.5,763 				"/>
			</g>
			<rect x="278.3" y="781.3" class="st14" width="161" height="22.6"/>
			<g>
				<path class="st16" d="M282.7,659.2c0.7-0.8,1.4-1.6,2.1-2.6c0.7-0.9,1.4-1.9,2.1-2.9c-0.1,0.1-0.2,0.1-0.1,0
					c0.1-0.1,0.2-0.3,0.3-0.4c0.1-0.2,0.3-0.4,0.5-0.6c0.2-0.2,0.3-0.4,0.4-0.5c1.7-2.4,3.1-4.7,4.2-6.6c1.2-2,2-3.5,2.6-4.7
					c0.6-1.2,1.1-2.1,1.5-2.7c0.4-0.6,0.7-0.9,1-0.9c0.2,0,0.3,0,0.4,0.1h-0.1c0.3,0.1,0.4,0.3,0.4,0.7c0,0.3-0.1,0.8-0.3,1.4
					c-0.2,0.6-0.4,1.1-0.7,1.7c-0.5,1.2-1.1,3-1.9,5.5c-0.8,2.4-1.7,5.4-2.5,9c-0.2,0.8-0.3,1.6-0.5,2.5c-0.1,0.9-0.2,1.8-0.2,2.8
					c0,0.7,0.1,1.1,0.4,1.2c0.3,0.1,0.7,0.2,1.1,0.2c0.1,0,0.2,0,0.2,0c0,0,0.1,0,0.1,0c0.3-0.2,0.5-0.5,0.8-0.9
					c1.1-1.5,2.2-3,3.1-4.6c1-1.6,1.9-3.1,2.9-4.7c0.3-0.4,0.5-0.9,0.8-1.3c0.2-0.4,0.5-0.8,0.7-1.2c1.2-2,2.4-3.7,3.6-5.3
					c1.2-1.6,2.3-2.9,3.4-4c0.7-0.8,1.3-1.3,1.9-1.7c0.6-0.4,1-0.7,1.4-0.9c0.3-0.2,0.7-0.3,1.1-0.3v-0.1c0.2,0,0.3,0.1,0.3,0.2
					c0,0.1,0,0.2,0,0.2c-0.1,0-0.2,0-0.2,0.1c-0.1,0-0.3,0.1-0.7,0.3c-0.4,0.2-1,0.7-1.7,1.3c-0.7,0.7-1.6,1.6-2.5,2.7
					c-0.9,1.2-2,2.7-3.2,4.6c-0.7,1-1.4,2.1-2,3.1c-0.6,1-1.2,2-1.7,3.1c-0.9,1.5-1.8,3.1-2.7,4.8c-0.9,1.6-1.9,3.2-3,4.7
					c0.9,0,1.7-0.1,2.5-0.2c0.8-0.1,1.6-0.4,2.4-0.8c0.2,0,0.3,0.1,0.3,0.3c-0.8,0.4-1.6,0.7-2.4,0.8c-0.8,0.2-1.6,0.2-2.5,0.2
					c-0.3,0-0.7,0.2-1,0.7c-0.2,0.3-0.5,0.5-0.8,0.8c-0.3,0.2-0.8,0.4-1.4,0.4c-0.4,0-0.7-0.1-1-0.3c-0.3-0.2-0.5-0.4-0.6-0.7
					c-0.2-0.3-0.3-0.6-0.3-0.9c-0.1-0.3-0.1-0.5-0.2-0.8c-0.4-0.1-0.9-0.3-1.4-0.4c-0.5-0.1-0.9-0.3-1.3-0.4
					c-0.9-0.3-1.7-0.5-2.4-0.7c-0.7-0.2-1.4-0.4-2-0.6c-2,1.9-3.7,3.2-5.1,4.2c-1.4,1-2.7,1.4-3.7,1.4c-1.5,0-2.3-1.1-2.3-3.1
					c0-0.8,0.2-1.5,0.5-2c0.3-0.5,0.8-0.9,1.3-1.2c0.5-0.3,1.1-0.5,1.7-0.6c0.6-0.1,1.2-0.2,1.7-0.2c0.8,0,1.6,0.1,2.4,0.2
					c0.8,0.1,1.6,0.3,2.3,0.5c0.1,0,0.2,0,0.2,0C282.6,659.1,282.7,659.2,282.7,659.2L282.7,659.2z M281,661
					c0.3-0.2,0.5-0.4,0.7-0.6c0.2-0.2,0.4-0.4,0.6-0.7c-0.7-0.1-1.4-0.2-2-0.3c-0.6-0.1-1.2-0.1-1.9-0.1c-0.5,0-1.1,0-1.7,0.1
					c-0.6,0.1-1.1,0.2-1.6,0.5c-0.5,0.2-0.9,0.6-1.2,1c-0.3,0.4-0.5,1-0.5,1.7c0,0.8,0.1,1.3,0.4,1.6c0.3,0.3,0.6,0.5,0.9,0.5
					c0.9,0,1.8-0.3,2.8-0.8C278.6,663.2,279.7,662.3,281,661z M293,648.5c0.1-0.4,0.2-0.9,0.3-1.2c0.1-0.4,0.2-0.8,0.4-1.2
					c-0.4,0.7-1,1.6-1.7,2.7c-0.7,1.1-1.5,2.2-2.3,3.4c-0.9,1.2-1.8,2.5-2.8,3.8c-1,1.3-2,2.5-3,3.6c1.3,0.4,2.4,0.6,3.2,0.9
					c0.8,0.2,1.5,0.5,2.1,0.7c0.2,0.1,0.5,0.2,0.7,0.2c0.2,0.1,0.5,0.1,0.7,0.2c0,0,0-0.1,0-0.1c0,0,0-0.1,0-0.1
					c0-2.5,0.3-4.8,0.8-6.9C291.9,652.4,292.4,650.4,293,648.5z M292.8,663.1c0.2,0,0.5-0.2,0.9-0.5c-0.4,0-0.9-0.2-1.5-0.3
					C292.4,662.8,292.6,663.1,292.8,663.1z M293.8,645.5c-0.1,0.3-0.1,0.4-0.1,0.5c0.1-0.3,0.2-0.4,0.3-0.5H293.8z M293.8,662.4
					l-0.1,0.1h0.2L293.8,662.4z"/>
				<path class="st16" d="M297.4,662.6L297.4,662.6l0.3-0.2h-0.1h0.1h0.1l0.1-0.1v-0.1l3-1.3l0,0.1h0h0h0h0h0v-0.1l0.2,0.1
					c0.5-0.5,0.9-0.8,1.4-1c0.5-0.2,0.9-0.3,1-0.4c0.4,0,0.7,0,0.8,0.1h-0.2h0.2h0.1h0.1c0.1,0,0.2,0.1,0.3,0.2l-0.3-0.1
					c-0.1,0-0.2-0.1-0.4-0.1l-0.5,0.1h0.4h0.1h0.1c0.2,0,0.4,0,0.5,0.1h0.1c0.3-0.4,0.5-0.6,0.6-0.6c0.2,0,0.5,0.2,0.8,0.6
					c0.1-0.1,0.1-0.2,0.3-0.2l-0.3,0.3l0.3-0.3l-0.1,0.1c0,0,0,0.1,0,0.1l0-0.1v0.1l-0.1,0.1l0.3-0.4l0.1,0.1l-0.2,0.3
					c0,0-0.1,0.1-0.1,0.1l0.1-0.1v-0.1l-0.1,0.2c0,0.1,0,0.1-0.1,0.1c0,0,0,0,0,0.1l-0.1,0.1v0.1h0.1l-0.1-0.1h0.1l-0.4,0.7
					c-0.1,0.2-0.2,0.4-0.3,0.7c-0.2,0.3-0.3,0.5-0.3,0.7c0,0.1,0.1,0.1,0.3,0.1c0.7,0,1.2-0.1,1.8-0.2c0.5-0.1,1-0.3,1.4-0.4
					c0.4-0.1,0.9-0.3,1.4-0.6v0.1l0.1-0.1H310h0.1l0.1,0.1l-0.4,0.2l0.1,0h0.1l0.2-0.2l-0.1,0.1h0.1h-0.1l-0.1,0.1l0.1-0.1v0.1v-0.1
					v0.1l0.2-0.1h-0.1l0.1-0.1v0.1v-0.1v0.1v-0.1v0.1h0l-0.1,0.1l-0.1,0h0.1l-0.1,0.1c0,0-0.1,0-0.1,0c0,0,0,0,0,0h-0.2l0.2-0.1
					L310,662v-0.1v0.1l-0.3,0.2c-0.1,0.1-0.2,0.1-0.3,0.1c-0.2,0-0.2,0.1-0.3,0.1v0.1c0,0,0,0.1,0,0.1c-0.1,0.1-0.1,0.1-0.2,0.1
					c-0.2,0.1-0.6,0.3-1.1,0.7c-0.5,0.3-1.4,0.6-2.7,0.8c-0.3,0-0.5,0-0.8-0.1c-0.3-0.1-0.5-0.3-0.7-0.6c-0.2,0.1-0.5,0.3-0.8,0.4
					c-0.3,0.1-0.7,0.3-1.3,0.4c-0.2,0-0.5-0.1-0.9-0.3c-0.5-0.2-0.7-0.6-0.7-1.2c0-0.3,0.1-0.6,0.2-0.8c-0.3,0.1-0.7,0.2-1,0.3
					c-0.4,0.1-0.8,0.2-1.1,0.3h-0.1c-0.1,0-0.2,0.1-0.3,0.1c-0.1,0-0.1,0-0.1,0.1L297.4,662.6z M300.6,661.2l0.2-0.1L300.6,661.2
					L300.6,661.2L300.6,661.2L300.6,661.2L300.6,661.2L300.6,661.2z M301.4,662.6c0.5,0,0.9-0.1,1.2-0.3c0.3-0.2,0.6-0.4,0.8-0.6
					c0.2-0.2,0.4-0.5,0.5-0.7c0.1-0.2,0.2-0.3,0.2-0.3c0-0.1-0.1-0.1-0.2-0.1c-0.3,0-0.8,0.2-1.4,0.5c-0.5,0.3-0.9,0.8-1.1,1.3
					V662.6z M304,659.9c0.1,0,0.2,0,0.4,0.1h0.2h-0.1l0.1,0.1c0,0,0-0.1,0.1-0.1l-0.3-0.1h-0.1h0.1v0.1l-0.2-0.1H304z M304.5,659.9
					L304.5,659.9L304.5,659.9h0.1v0.1L304.5,659.9L304.5,659.9L304.5,659.9L304.5,659.9h-0.2H304.5h-0.2c0,0-0.1,0-0.1,0
					c0,0-0.1,0-0.1,0l0.3,0.1H304.5z"/>
				<path class="st16" d="M317,663.1c0.1-0.3,0.2-0.6,0.3-0.9c0.2-0.3,0.4-0.7,0.7-1.2c-0.5,0.2-1,0.5-1.5,0.7
					c-0.5,0.2-1,0.4-1.4,0.5c-0.3,0.3-0.8,0.7-1.3,1.2c-0.5,0.5-1,0.7-1.4,0.7c-0.2,0-0.6-0.1-1-0.2c-0.5-0.2-0.7-0.5-0.7-1
					c0.1-0.4,0.2-0.7,0.3-0.8c0.1-0.1,0.3-0.2,0.3-0.3c-1,0.4-1.9,0.7-2.6,0.9c-0.8,0.2-1.2,0.2-1.4,0.2h-0.1
					c-0.1-0.1-0.1-0.2-0.1-0.3c0-0.1,0-0.1,0.1-0.1c0,0,0.2,0,0.2-0.1c0,0,0.3-0.2,0.8-0.5c0.5-0.3,1.2-0.7,1.9-1
					c0.7-0.4,1.4-0.7,2.2-1c0.7-0.3,1.3-0.4,1.7-0.4v0.1c0.1,0.1,0.2,0.1,0.4,0.2c0.2,0.1,0.3,0.3,0.3,0.6c0,0.3-0.1,0.5-0.3,0.8
					c-0.2,0.3-0.4,0.5-0.6,0.7c-0.3,0.2-0.6,0.5-0.9,0.7c0.7-0.4,1.3-0.8,1.9-1.1c0.2-0.1,0.3-0.2,0.6-0.5c0.3-0.2,0.6-0.4,1-0.7
					c0.4-0.2,0.8-0.4,1.2-0.6c0.4-0.2,0.8-0.3,1.2-0.3c0.1,0,0.3,0.1,0.6,0.2c0.3,0.1,0.4,0.4,0.4,0.8c0,0.2,0,0.4-0.1,0.5
					c-0.1,0.1-0.1,0.2-0.2,0.3c0.3-0.2,0.9-0.6,1.7-1c0.8-0.5,1.5-0.7,2.3-0.7c0.3,0,0.6,0.1,0.8,0.3h0.1c0.2,0.3,0.3,0.5,0.3,0.8
					c0,0.4-0.1,0.8-0.3,1.1c-0.2,0.3-0.3,0.6-0.3,0.8c0,0.2,0.1,0.3,0.1,0.3c0.1,0,0.3,0,0.7,0c0.6,0,1.1-0.1,1.6-0.2
					c0.5-0.1,0.9-0.3,1.3-0.5c0.4-0.2,0.7-0.3,0.9-0.4c0.3-0.2,0.4-0.2,0.4-0.2h0.1h0.1c0.1,0,0.1,0.1,0.1,0.2c0,0.1,0,0.1-0.1,0.2
					v-0.1c-0.1,0-0.2,0.1-0.5,0.2c-0.3,0.2-0.6,0.3-1,0.5c-0.4,0.2-0.9,0.4-1.4,0.6c-0.6,0.2-1.1,0.4-1.8,0.5
					c-0.7,0.1-1.1,0-1.4-0.3c-0.3-0.3-0.4-0.6-0.4-1c0-0.3,0.1-0.6,0.2-0.9c0.1-0.2,0.2-0.5,0.3-0.6c-0.1,0-0.3,0.1-0.4,0.2
					c-0.2,0.1-0.3,0.1-0.5,0.2c-1.7,0.9-2.8,1.5-3.3,1.8c-0.5,0.3-0.9,0.5-0.9,0.5c-0.1,0-0.4-0.1-0.7-0.2
					C317.1,663.4,317,663.3,317,663.1z"/>
				<path class="st16" d="M329.2,663.4c-0.2-0.3-0.2-0.6-0.2-0.8c0-0.2,0-0.5,0.1-0.7c-0.3,0.1-0.7,0.2-1,0.3
					c-0.4,0.1-0.7,0.2-1,0.3h-0.1c-0.1,0-0.3,0.1-0.4,0.1c0,0-0.1,0-0.1,0.1l-0.2,0.1l0.2-0.1l0.2-0.1h0.1v-0.1h0.1v-0.1l3-1.3
					l-0.1,0.1h0.1c0.3-0.3,0.7-0.7,1.2-0.9c0.5-0.3,1-0.4,1.4-0.4c0.4,0,0.6,0,0.8,0.1H333h0.2h0.1h0.1c0.1,0,0.3,0.1,0.4,0.2
					c0.3,0.2,0.4,0.3,0.4,0.5c0,0.3-0.2,0.5-0.4,0.6c-0.3,0.2-0.6,0.3-1,0.4c-0.3,0.1-0.8,0.2-1.4,0.2c-0.2,0-0.3,0-0.4-0.1
					c-0.4,0.6-0.6,1-0.6,1.1c0.5,0,1.1,0,1.6-0.1c0.6-0.1,1.1-0.1,1.5-0.3c0.4-0.1,1-0.2,1.6-0.4c0.3-0.1,0.8-0.2,1.3-0.4
					c0.5-0.2,1-0.3,1.5-0.5c0.5-0.2,1.1-0.4,1.6-0.7h0.1l0.1-0.1l0.1,0.1v0.2l-0.1,0.1l-0.1,0.1c-0.2,0.2-0.6,0.4-1.2,0.6
					c-0.5,0.3-1.1,0.6-1.8,0.9c-0.6,0.3-1.3,0.6-1.9,0.8c-0.6,0.2-1.1,0.4-1.4,0.5c-0.3,0.1-0.8,0.2-1.2,0.3c-0.5,0.1-1,0.2-1.6,0.2
					C330.1,664.1,329.6,663.9,329.2,663.4z M332.2,660.8c-0.2,0-0.3,0.1-0.5,0.2c0.1,0,0.3-0.1,0.4-0.1c0.1,0,0.3-0.1,0.4-0.1
					L332.2,660.8L332.2,660.8z"/>
				<path class="st16" d="M362.7,638.6c0.7,0.3,1.4,0.8,2.1,1.2c0.8,0.4,1.4,0.9,2.1,1.4c0.6,0.5,1.1,1.1,1.5,1.7
					c0.4,0.6,0.6,1.3,0.6,2c-0.1,1.1-0.4,1.9-1.1,2.3c-0.6,0.5-1,0.7-1.2,0.8c0,0.1-0.1,0.2-0.3,0.3c-0.2,0.1-0.6,0.2-1.3,0.2
					c-0.3,0-0.5-0.1-0.6-0.3c0-0.3,0.1-0.5,0.3-0.6c0.2-0.2,0.5-0.3,0.8-0.6c0.3-0.2,0.7-0.5,1.1-0.8c0.4-0.3,0.6-0.7,0.6-1.2
					c0-0.4-0.3-1-1-1.7c-0.6-0.7-1.5-1.5-2.8-2.2c-1.2-0.7-2.7-1.4-4.4-2c-1.8-0.6-3.7-1-5.9-1.3c-0.6,0-1.3,0.1-2,0.3
					c-0.7,0.2-1.1,0.6-1.1,1.2c0,0.5,0.2,1.1,0.5,1.7c0.3,0.6,0.7,1.3,1.2,2c0.5,0.7,1,1.4,1.6,2c0.6,0.7,1.1,1.3,1.6,1.9
					c0.2,0.2,0.4,0.4,0.6,0.7c0.2,0.2,0.4,0.5,0.6,0.7c1,1.2,2.1,2.5,3.1,3.8c1,1.4,1.5,2.8,1.5,4.3c0,1.1-0.3,2.3-1,3.5
					c-0.7,1.2-1.5,2.3-2.5,3.3c-1,1-2,1.8-3.2,2.4c-1.1,0.6-2.3,0.9-3.3,0.9c-0.8,0-1.3-0.2-1.8-0.6c-0.4-0.4-0.8-0.8-1-1.3
					c-0.2-0.5-0.4-1-0.5-1.4c-0.1-0.5-0.1-0.8-0.1-1c0-0.5,0.3-0.7,0.9-0.7c0.3,0,0.6,0.1,0.9,0.2h-0.1c0.9,0.4,1.5,0.7,2,0.9
					c0.5,0.3,0.8,0.5,1,0.7c0.2,0.2,0.3,0.3,0.4,0.5c0,0.1,0,0.2,0,0.2c-0.3,0-0.5-0.1-0.7-0.2c-0.2-0.1-0.5-0.3-0.7-0.5
					c-0.3-0.3-0.8-0.5-1.3-0.8c-0.5-0.2-1-0.4-1.5-0.4c0,0.4,0.1,0.7,0.2,1.2c0.1,0.4,0.3,0.8,0.5,1.1c0.2,0.3,0.4,0.6,0.7,0.8
					c0.3,0.2,0.6,0.3,1.1,0.3c0.7,0,1.5-0.2,2.5-0.7c1-0.5,1.9-1.2,2.9-2c0.9-0.8,1.7-1.9,2.4-3c0.7-1.1,1.1-2.3,1.2-3.5
					c-0.3-1.4-0.9-2.7-1.8-3.9c-1-1.2-2-2.4-3.1-3.6c-0.3-0.4-0.6-0.7-0.9-1c-0.3-0.3-0.5-0.6-0.8-1c-0.2-0.2-0.4-0.5-0.6-0.7
					c-0.9-1-1.7-2.1-2.6-3.2c-0.8-1.2-1.3-2.4-1.3-3.6c0-0.8,0.2-1.4,0.6-1.8c0.4-0.4,0.8-0.7,1.3-0.9c0.5-0.2,1-0.3,1.4-0.3
					c0.5,0,0.8,0,1,0c1.9,0,3.6,0.3,5.2,0.8C359.8,637.4,361.3,638,362.7,638.6z"/>
				<path class="st16" d="M370.5,661.1c0.1,0,0.2,0.1,0.2,0.2c0-0.1,0,0-0.1,0.1c0,0.1-0.2,0.2-0.3,0.2c0,0-0.1,0.1-0.3,0.3
					c-0.1,0.2-0.3,0.4-0.6,0.6c-0.3,0.2-0.6,0.4-0.9,0.6c-0.3,0.2-0.7,0.3-1.2,0.3c-0.4,0-0.7-0.1-1-0.2c-0.3-0.1-0.4-0.4-0.4-0.9
					c-0.3,0.4-0.9,0.9-1.7,1.3c-0.8,0.4-1.5,0.7-2.2,0.7c-0.2,0-0.4-0.1-0.7-0.2c-0.3-0.1-0.4-0.3-0.5-0.5l-0.1-0.3
					c0-0.2-0.1-0.4-0.1-0.5l0.1-0.4c0.1-0.2,0.2-0.4,0.2-0.5c0.1-0.1,0.1-0.2,0.2-0.4c-0.2,0.1-0.5,0.2-0.7,0.2
					c-0.3,0-0.5,0.1-0.8,0.2c-0.3,0.1-0.6,0.2-0.8,0.2h-0.3l0.2-0.1l0.2-0.1h0h0h0.1l0.1-0.1v-0.1v0.1v-0.1c1.3-0.6,2.3-1.1,2.9-1.5
					c0.6-0.4,0.9-0.6,1-0.6c0.2,0,0.3,0.1,0.5,0.3c0.2,0.2,0.3,0.3,0.3,0.5c0,0.1-0.1,0.3-0.2,0.4c-0.2,0.1-0.3,0.3-0.5,0.5
					c-0.2,0.2-0.3,0.4-0.5,0.6c-0.2,0.2-0.3,0.5-0.3,0.8c0.3,0,0.9-0.1,1.6-0.4c0.7-0.3,1.7-1.1,2.8-2.4l0.2-0.3l0.1,0.1h0.1
					c0-0.1,0-0.1,0.1-0.1c0,0,0.1,0,0.1,0.1c0,0,0.3,0.2,0.7,0.5l-0.1,0.3l0.1,0.1c0,0,0,0.1-0.1,0.1h-0.1h0.1l-0.1-0.1l-0.1,0.1
					c-0.4,0.7-0.7,1.4-0.7,1.9c0,0.1,0,0.1,0.1,0c0.1-0.1,0.2-0.1,0.4-0.1c0.8,0,1.4-0.2,2-0.7C370.1,661.4,370.4,661.1,370.5,661.1
					L370.5,661.1z"/>
				<path class="st16" d="M382.4,661.8c0,0.1,0,0.1-0.1,0.1v0.1L382.4,661.8c-0.1,0.1-0.3,0.2-0.5,0.4c-0.3,0.2-0.6,0.5-1.1,0.8
					c-0.5,0.3-1.1,0.5-1.8,0.8c-0.7,0.2-1.6,0.3-2.6,0.3c-0.1,0-0.2,0-0.4,0c-0.2,0-0.4,0-0.6-0.1c-0.2-0.1-0.4-0.2-0.6-0.3
					c-0.2-0.1-0.3-0.4-0.3-0.8c0.2-0.7,0.5-1,0.9-1.2c0.4-0.1,0.7-0.2,1-0.3c-0.3-0.1-0.5-0.2-0.7-0.2c-0.2,0-0.4-0.1-0.6-0.2
					c-0.3,0.3-0.8,0.6-1.4,0.8c-0.5,0.2-1.1,0.4-1.7,0.6c-0.6,0.2-1.2,0.3-1.7,0.4c-0.5,0.1-0.9,0.1-1.2,0.1c-0.3,0-0.5,0-0.6,0
					c-0.1,0-0.1-0.1-0.1-0.2c0-0.1,0-0.2,0.1-0.2v-0.1h0.2c0.1,0,0.3-0.1,0.7-0.3c0.4-0.1,0.8-0.3,1.3-0.5c0.5-0.2,1-0.4,1.6-0.7
					c0.6-0.3,1-0.5,1.4-0.8c0-0.1-0.1-0.2-0.1-0.2c0,0,0-0.1-0.1-0.2c0.1-0.5,0.3-0.8,0.7-1c0.4-0.2,0.7-0.3,0.8-0.3
					c0.2,0,0.4,0.1,0.6,0.2c0.2,0.2,0.4,0.4,0.4,0.7c0,0.2,0,0.4-0.1,0.4c0.5,0.1,0.9,0.3,1.3,0.4c0.3,0.1,0.6,0.3,0.8,0.5
					c0.3,0.2,0.4,0.4,0.4,0.6c0,0.3-0.1,0.5-0.3,0.7c-0.2,0.2-0.4,0.3-0.7,0.4c-0.3,0.1-0.5,0.2-0.8,0.2c-0.3,0-0.5,0.1-0.6,0.2
					c0.1,0,0.2,0,0.2,0.1c0.7,0,1.4-0.1,2.1-0.2c0.7-0.1,1.3-0.3,1.8-0.5c0.5-0.2,1-0.3,1.3-0.5c0.3-0.1,0.5-0.2,0.6-0.2h0.1
					C382.4,661.6,382.4,661.6,382.4,661.8z"/>
				<path class="st16" d="M384.2,664.2c-0.5,0-0.7-0.1-0.7-0.4c0-0.3,0.2-0.6,0.4-0.9c0.2-0.3,0.5-0.8,0.9-1.4l0.1-0.1
					c-0.5,0-1,0.1-1.6,0.3c-0.6,0.2-1.2,0.4-1.7,0.6c-0.5,0.3-1,0.5-1.4,0.6c-0.4,0.2-0.6,0.3-0.7,0.3c-0.1,0-0.2-0.1-0.2-0.3h0.1
					l-0.1,0.1c0.7-0.5,1.3-1,1.8-1.3c0.5-0.3,1.1-0.6,1.8-0.9c0.7-0.3,1.4-0.5,2.1-0.6h0.1c0.2,0,0.4,0,0.7,0.1
					c0.2,0,0.4,0.2,0.7,0.6c0,0.3,0,0.6-0.1,0.8c-0.1,0.2-0.1,0.3-0.1,0.4c0.4-0.2,1-0.6,1.7-1c0.7-0.4,1.6-0.8,2.7-1.2
					c0.2,0,0.5,0.1,0.9,0.2c0.3,0.1,0.5,0.4,0.5,0.8c-0.1,0.6-0.2,1-0.4,1.3c-0.2,0.3-0.3,0.5-0.4,0.7c0,0,0,0.1,0.1,0.1h0.2
					c0.1,0,0.2,0,0.3,0c0.2,0,0.3,0,0.4,0c1.1-0.3,2.1-0.5,2.9-0.7c0.8-0.2,1.3-0.3,1.4-0.3c0.2,0,0.2,0.1,0.2,0.3
					c0-0.1-0.1-0.1-0.3,0.1c-0.2,0.2-0.5,0.4-1,0.7c-0.4,0.3-1,0.5-1.6,0.8c-0.6,0.2-1.4,0.4-2.1,0.4c-0.3,0-0.7-0.1-1.1-0.2h-0.1
					c-0.3-0.4-0.4-0.7-0.4-1c0.1-0.4,0.1-0.7,0.2-0.9c0.1-0.2,0.2-0.4,0.3-0.5c-0.2,0.1-0.4,0.2-0.7,0.3c-0.3,0.1-0.6,0.3-0.8,0.4
					c-1.7,1-2.9,1.6-3.5,2c-0.6,0.3-0.9,0.5-1,0.5C384.5,664.5,384.3,664.4,384.2,664.2z"/>
				<path class="st16" d="M393.5,662.6L393.5,662.6l0.3-0.2h-0.1h0.1h0.1l0.1-0.1v-0.1l3-1.3l-0.1,0.1h0.1h-0.1h0.1h-0.1h0.1v-0.1
					l0.1,0.1c0.5-0.5,0.9-0.8,1.4-1c0.5-0.2,0.8-0.3,1.1-0.4c0.4,0,0.7,0,0.8,0.1h-0.2h0.2h0.1h0.1c0.1,0,0.2,0.1,0.3,0.2l-0.3-0.1
					c-0.1,0-0.2-0.1-0.4-0.1l-0.5,0.1h0.4h0.1h0.1c0.2,0,0.4,0,0.5,0.1h0.1c0.3-0.4,0.4-0.6,0.6-0.6c0.2,0,0.5,0.2,0.9,0.6
					c0-0.1,0.1-0.2,0.2-0.2l-0.2,0.3l0.2-0.3l-0.1,0.1c0,0,0,0.1,0,0.1v-0.1v0.1l-0.1,0.1l0.3-0.4l0.1,0.1l-0.2,0.3
					c0,0-0.1,0.1-0.1,0.1l0.1-0.1v-0.1l-0.1,0.2c0,0.1,0,0.1,0,0.1s0,0,0,0.1l-0.1,0.1v0.1h0.1l-0.1-0.1h0.1l-0.4,0.7
					c-0.1,0.2-0.2,0.4-0.4,0.7c-0.2,0.3-0.3,0.5-0.3,0.7c0,0.1,0.1,0.1,0.3,0.1c0.7,0,1.3-0.1,1.8-0.2c0.5-0.1,1-0.3,1.4-0.4
					c0.4-0.1,0.9-0.3,1.4-0.6v0.1l0.1-0.1h-0.1h0.1l0.1,0.1l-0.4,0.2l0.1,0h0.1l0.2-0.2l-0.1,0.1h0.1h-0.1l-0.1,0.1l0.1-0.1v0.1
					v-0.1v0.1l0.1-0.1h-0.1l0.1-0.1v0.1v-0.1v0.1v-0.1v0.1h0.1l-0.1,0.1l-0.1,0h0.1l-0.1,0.1c0,0-0.1,0-0.1,0c0,0,0,0-0.1,0H406
					l0.2-0.1l-0.1,0.1v-0.1v0.1l-0.3,0.2c-0.1,0.1-0.2,0.1-0.3,0.1c-0.1,0-0.2,0.1-0.2,0.1l0,0.1c0,0,0,0.1-0.1,0.1
					c0,0.1-0.1,0.1-0.1,0.1c-0.3,0.1-0.6,0.3-1.1,0.7c-0.5,0.3-1.4,0.6-2.7,0.8c-0.3,0-0.5,0-0.8-0.1c-0.3-0.1-0.5-0.3-0.7-0.6
					c-0.2,0.1-0.5,0.3-0.8,0.4c-0.3,0.1-0.7,0.3-1.3,0.4c-0.2,0-0.5-0.1-0.9-0.3c-0.5-0.2-0.7-0.6-0.7-1.2c0-0.3,0.1-0.6,0.2-0.8
					c-0.3,0.1-0.7,0.2-1,0.3c-0.4,0.1-0.7,0.2-1,0.3h-0.1c-0.1,0-0.2,0.1-0.3,0.1c0,0-0.1,0-0.1,0.1L393.5,662.6z M396.7,661.2
					l0.1-0.1L396.7,661.2L396.7,661.2L396.7,661.2L396.7,661.2L396.7,661.2L396.7,661.2z M397.5,662.6c0.5,0,0.9-0.1,1.2-0.3
					c0.3-0.2,0.6-0.4,0.8-0.6c0.2-0.2,0.4-0.5,0.5-0.7c0.1-0.2,0.2-0.3,0.2-0.3c0-0.1-0.1-0.1-0.2-0.1c-0.4,0-0.8,0.2-1.4,0.5
					c-0.5,0.3-0.9,0.8-1.2,1.3V662.6z M400.1,659.9c0.1,0,0.2,0,0.4,0.1h0.1h-0.1l0.1,0.1c0,0,0-0.1,0.1-0.1l-0.3-0.1h-0.1h0.1v0.1
					l-0.2-0.1H400.1z M400.6,659.9L400.6,659.9L400.6,659.9h0.1v0.1L400.6,659.9L400.6,659.9L400.6,659.9L400.6,659.9h-0.1H400.6
					h-0.2c0,0-0.1,0-0.1,0c0,0-0.1,0-0.1,0l0.3,0.1H400.6z"/>
				<path class="st16" d="M413,663.1c0-0.3,0.2-0.6,0.3-0.9c0.2-0.3,0.4-0.7,0.7-1.2c-0.5,0.2-1,0.5-1.5,0.7c-0.5,0.2-1,0.4-1.4,0.5
					c-0.3,0.3-0.8,0.7-1.3,1.2c-0.5,0.5-1,0.7-1.4,0.7c-0.2,0-0.6-0.1-1-0.2c-0.5-0.2-0.7-0.5-0.7-1c0.1-0.4,0.2-0.7,0.3-0.8
					c0.1-0.1,0.3-0.2,0.3-0.3c-1,0.4-1.9,0.7-2.6,0.9c-0.8,0.2-1.2,0.2-1.3,0.2h-0.1c-0.1-0.1-0.1-0.2-0.1-0.3c0-0.1,0-0.1,0-0.1
					c0.1,0,0.2,0,0.3-0.1c0,0,0.3-0.2,0.9-0.5c0.5-0.3,1.1-0.7,1.9-1c0.7-0.4,1.4-0.7,2.2-1c0.7-0.3,1.3-0.4,1.7-0.4v0.1
					c0.1,0.1,0.2,0.1,0.4,0.2c0.2,0.1,0.3,0.3,0.3,0.6c0,0.3-0.1,0.5-0.3,0.8c-0.2,0.3-0.4,0.5-0.6,0.7c-0.3,0.2-0.6,0.5-0.9,0.7
					c0.7-0.4,1.3-0.8,1.9-1.1c0.1-0.1,0.3-0.2,0.6-0.5c0.3-0.2,0.6-0.4,1-0.7c0.4-0.2,0.8-0.4,1.2-0.6c0.4-0.2,0.8-0.3,1.2-0.3
					c0,0,0.3,0.1,0.6,0.2c0.3,0.1,0.5,0.4,0.5,0.8c0,0.2,0,0.4-0.1,0.5c-0.1,0.1-0.1,0.2-0.2,0.3c0.3-0.2,0.9-0.6,1.7-1
					c0.8-0.5,1.5-0.7,2.3-0.7c0.3,0,0.6,0.1,0.8,0.3h0.1c0.2,0.3,0.3,0.5,0.3,0.8c0,0.4-0.1,0.8-0.3,1.1c-0.2,0.3-0.3,0.6-0.3,0.8
					c0,0.2,0,0.3,0.1,0.3c0.1,0,0.3,0,0.7,0c0.6,0,1.1-0.1,1.6-0.2c0.5-0.1,0.9-0.3,1.3-0.5c0.4-0.2,0.7-0.3,0.9-0.4
					c0.2-0.2,0.4-0.2,0.4-0.2h0.1h0.1c0,0,0.1,0.1,0.1,0.2c0,0.1,0,0.1-0.1,0.2v-0.1c0,0-0.2,0.1-0.4,0.2c-0.3,0.2-0.6,0.3-1,0.5
					c-0.4,0.2-0.9,0.4-1.4,0.6c-0.6,0.2-1.1,0.4-1.7,0.5c-0.7,0.1-1.1,0-1.4-0.3c-0.3-0.3-0.4-0.6-0.4-1c0-0.3,0.1-0.6,0.2-0.9
					c0.1-0.2,0.2-0.5,0.3-0.6c-0.1,0-0.3,0.1-0.5,0.2c-0.2,0.1-0.3,0.1-0.4,0.2c-1.7,0.9-2.8,1.5-3.3,1.8c-0.5,0.3-0.9,0.5-0.9,0.5
					c-0.1,0-0.3-0.1-0.7-0.2C413.2,663.4,413,663.3,413,663.1z"/>
				<path class="st16" d="M425.3,663.4c-0.1-0.3-0.2-0.6-0.2-0.8c0-0.2,0.1-0.5,0.2-0.7c-0.3,0.1-0.7,0.2-1,0.3
					c-0.4,0.1-0.7,0.2-1,0.3h-0.1c-0.1,0-0.3,0.1-0.4,0.1c0,0-0.1,0-0.1,0.1l-0.2,0.1l0.2-0.1l0.2-0.1h0.1v-0.1h0.1v-0.1l2.9-1.3
					l-0.1,0.1h0.1c0.3-0.3,0.7-0.7,1.2-0.9c0.5-0.3,1-0.4,1.4-0.4c0.4,0,0.7,0,0.8,0.1h-0.2h0.2h0.1h0.1c0.1,0,0.3,0.1,0.4,0.2
					c0.3,0.2,0.4,0.3,0.4,0.5c0,0.3-0.1,0.5-0.4,0.6c-0.3,0.2-0.6,0.3-1,0.4c-0.3,0.1-0.8,0.2-1.4,0.2c-0.2,0-0.3,0-0.4-0.1
					c-0.4,0.6-0.6,1-0.6,1.1c0.5,0,1.1,0,1.6-0.1c0.6-0.1,1.1-0.1,1.5-0.3c0.5-0.1,1-0.2,1.6-0.4c0.3-0.1,0.8-0.2,1.3-0.4
					c0.5-0.2,1-0.3,1.5-0.5c0.5-0.2,1.1-0.4,1.6-0.7h0.1l0.1-0.1l0.1,0.1v0.2l-0.1,0.1l-0.1,0.1c-0.2,0.2-0.6,0.4-1.1,0.6
					c-0.5,0.3-1.1,0.6-1.8,0.9c-0.6,0.3-1.3,0.6-1.9,0.8c-0.6,0.2-1.1,0.4-1.4,0.5c-0.3,0.1-0.8,0.2-1.2,0.3c-0.5,0.1-1,0.2-1.6,0.2
					C426.1,664.1,425.7,663.9,425.3,663.4z M428.3,660.8c-0.2,0-0.3,0.1-0.5,0.2c0.1,0,0.3-0.1,0.4-0.1c0.1,0,0.3-0.1,0.4-0.1
					L428.3,660.8L428.3,660.8z"/>
			</g>
		</g>
		<polygon class="st4" points="538.5,378.6 525.9,419.6 454.8,369.2 479.4,334.5 		"/>
		<path class="st4" d="M379.8,353.3c0,0-12.3-27.6-15.5-40.1c-3.2-12.4,4.9-22.8,18.2-35.7c13.4-12.9,11.8-10.3,6.6-11.5
			c-5.2-1.2,6.9-10.8,26.9-11.9c19.9-1.2,54.7,3.5,49.2,40.6C459.7,331.7,396.2,381.7,379.8,353.3z"/>
		<path class="st17" d="M376.8,433.4c0,0,12.3-6.4,15.9-20.2c3.6-13.8,3.9-28.8-2.4-36.1c-6.3-7.2-24.2-33.1-10.7-32.1
			c13.5,1,10.1,1.7,14.9,5.9c4.8,4.2,3.8,0.1,3.1-7.1c-0.6-7.1,1.9-21.4,7.2-25.8c5.3-4.4-4.5-24.9-10.4-27.6
			c-6-2.7,18.8-3.4,34.3-8.1c15.5-4.6,21.2-8.3,33.4,1.7c12.2,10,18,23.9,20.7,39.4c2.7,15.4,0.2,52.9,1.2,60.8
			c1,7.9,3.2,8.7-8.9,14.5c-12.1,5.8-6.5,4-1.3,12.7c5.1,8.7,24.1,40.6-4.7,56.2C440.3,483.4,408.9,484.9,376.8,433.4z"/>
		<path class="st17" d="M486.3,390.8c3.1,7.7,119.7,202.1,181.5,230.9c22,10.2,24.1-33.1,15.1-59.7
			c-9.1-26.7-128.6-144.4-128.6-144.4l-3.6-37.8c0,0,5.9-3.3-15.6-16c-21.5-12.7-25.4-11.1-25.4-11.1l-9.5,10.1l-2,15.1
			c0,0,16.8,16.3,21.5,12.7c4.8-3.7-5.1-5.9,0.5-10c5.6-4.1,11.8-2.1,11.8-2.1l-4.1,32.1c0,0-4.5,9-14,1.2
			C504.4,404,483.8,384.7,486.3,390.8z"/>
		<path class="st18" d="M520,391.1c4.8-3.8-5.2-6,0.4-10.1c5.6-4.1,11.8-2.1,11.8-2.1l-4,32.4c0,0-4.5,9.1-14,1.2
			c-9.6-7.9-26.6-26.3-24.1-20.1c1.3,3.3,29.7,42.1,69.3,88.9c-6.5-16.5-15.7-37-21.6-44.1c-10.7-12.9-2.4-12.6,1.1-19.5
			c3.5-6.9,3.9-41.5,3.9-41.5l-15.8-5.3c0,0-4.7,1.9-11.5,2.9c-6.9,1-15.3-11-15.3-11l-1.9,15.3C498.4,378.2,515.3,394.8,520,391.1z
			"/>
		<path class="st18" d="M403.7,383.7c0,0,17,16,26,19.2c9,3.2,36.1-2.4,45.5-4.1c9.4-1.7-3.4-1.2-20.1,14.3
			c-16.8,15.5-36.3,40.7-40.7,31.6c-4.4-9.1-12-25.9-11.8-33.4C402.6,403.8,403.7,383.7,403.7,383.7z"/>
		<path class="st19" d="M483.8,636.5l56.4-42.9l10.4-7.9c0,0,19.7,27.3,12.6,46.3c-7.1,19-62.7,33.5-72.1,32.2
			c-3-0.4-128,59.6-132,60c-44.7,4.2-5.1-63.5-5.2-67.5C353.8,652.4,483.8,636.5,483.8,636.5z"/>
		<polygon class="st20" points="585.1,592.3 581.9,632.9 557.3,641.6 550.6,585.8 		"/>
		<path class="st14" d="M361.9,497.6c0,0-32.8-44-44.8-31.1c-12,12.9-56.8,151.7-52.1,195.2c4.7,43.5,9,76.9,40.3,78
			c109.2,3.8,119.3-57.9,119.3-57.9l-2.1-39.5c0,0-62.3,14.5-76.8,12.5C332.5,652.9,360.5,544.4,361.9,497.6z"/>
	</g>
</g>
<path class="st21" d="M184.6,528.9C49.1,122.4,494.4,61.7,584.8,94.1c98.9,35.5,11.5,176.9-8.8,119.1
	c-13-36.9,203.4-186.4,333.9-37.5c130.5,148.9,17.6,331.6-3.6,295.7c-32.2-54.6,204.5-36.4,116.6,101.5"/>
<ellipse transform="matrix(0.7071 -0.7071 0.7071 0.7071 75.662 751.9717)" class="st22" cx="945.5" cy="284.7" rx="74" ry="74"/>
<ellipse transform="matrix(0.7071 -0.7071 0.7071 0.7071 -223.763 226.7332)" class="st22" cx="161.8" cy="383.5" rx="74" ry="74"/>
<path class="st23" d="M133.6,354.6l-2.9-8.8l-12-3.4l-1.8,6.3l8.7,2.5l11.2,33.5l-2,7c-5.1,0.9-9,5.4-9,10.8c0,6,4.9,11,11,11
	c4.9,0,9-3.2,10.4-7.7h17.3c1.4,4.4,5.5,7.7,10.4,7.7c6,0,11-4.9,11-11c0-6-4.9-11-11-11c-4.9,0-9,3.2-10.4,7.7h-17.3
	c-0.9-2.9-3-5.3-5.8-6.6l1.3-4.7h40.7c3,0,5.4-2.2,5.7-5.1l8.1-28.2H133.6z M174.8,398c2.4,0,4.4,2,4.4,4.4c0,2.4-2,4.4-4.4,4.4
	c-2.4,0-4.4-2-4.4-4.4C170.4,400,172.4,398,174.8,398z M136.7,406.9c-2.4,0-4.4-2-4.4-4.4c0-2.4,2-4.4,4.4-4.4c2.4,0,4.4,2,4.4,4.4
	C141.1,404.9,139.2,406.9,136.7,406.9z M182.7,381.3h-40.2l-6.3-20.1h52.2L182.7,381.3z"/>
<path class="st22" d="M912.5,283.1c7.9,7.9,15.8,15.8,23.7,23.7"/>
<polyline class="st24" points="915.6,290.5 931.4,306.2 977.6,260 "/>
<rect x="629.9" y="801.9" class="st7" width="118.3" height="170.1"/>
<rect x="659.6" y="701.4" class="st25" width="123.1" height="100.5"/>
<polygon class="st7" points="697.9,701.4 821.1,701.4 852.6,674.4 729.5,674.4 "/>
<rect x="782.7" y="701.4" transform="matrix(-1 -1.224647e-16 1.224647e-16 -1 1603.7628 1503.3206)" class="st26" width="38.4" height="100.5"/>
<rect x="675.4" y="801.9" class="st27" width="27.2" height="39.8"/>
<rect x="748.2" y="801.9" transform="matrix(-1 -1.224647e-16 1.224647e-16 -1 1529.5065 1774.0001)" class="st26" width="33.1" height="170.1"/>
<rect x="781.1" y="753.6" class="st28" width="148.5" height="218.5"/>
<rect x="845.3" y="752.7" class="st27" width="27.2" height="39.8"/>
<rect x="929.6" y="753.6" transform="matrix(-1 -1.224647e-16 1.224647e-16 -1 1900.8363 1725.6882)" class="st29" width="41.6" height="218.5"/>
<polygon class="st29" points="782.7,701.4 659.6,701.4 628,674.4 751.1,674.4 "/>
</svg>
