<?xml version="1.0" encoding="UTF-8"?>
<svg id="Layer_2" data-name="Layer 2" xmlns="http://www.w3.org/2000/svg" viewBox="0 0 99.99 99.99">
  <defs>
    <style>
      .cls-1 {
        fill: #25d366;
      }

      .cls-2 {
        fill: #fefffe;
      }
    </style>
  </defs>
  <g id="Layer_1-2" data-name="Layer 1">
    <g>
      <path class="cls-1" d="m52.68,99.99h-5.37c-.04-.13-.16-.08-.24-.08-.74-.03-1.49-.07-2.23-.17-.6-.08-1.2-.11-1.79-.2-1.13-.17-2.25-.35-3.37-.61-1.18-.28-2.36-.52-3.52-.88-1.35-.41-2.68-.84-4-1.35-2.54-.97-4.98-2.13-7.32-3.49-2.4-1.4-4.67-2.99-6.81-4.77-2.78-2.31-5.28-4.89-7.5-7.74-1.83-2.35-3.44-4.84-4.81-7.49-.91-1.75-1.72-3.54-2.42-5.38-.85-2.25-1.57-4.55-2.09-6.91-.1-.45-.26-.89-.31-1.35-.12-1.1-.43-2.16-.5-3.27-.06-.89-.26-1.76-.28-2.65,0-.32-.04-.64-.06-.96C.03,52.06.02,51.43,0,50.81c0-.5,0-1,0-1.5.02-.67.03-1.33.05-2,.08-.82.07-1.65.2-2.47.14-.84.16-1.7.33-2.54.2-.96.3-1.93.54-2.88.27-1.09.51-2.18.83-3.26.51-1.73,1.09-3.43,1.78-5.1.89-2.15,1.9-4.24,3.08-6.25,1.39-2.38,2.97-4.64,4.74-6.76,1.53-1.84,3.17-3.55,4.94-5.15,1.77-1.6,3.65-3.06,5.62-4.4,1.41-.95,2.87-1.83,4.37-2.63,1.22-.65,2.47-1.23,3.73-1.78,2.13-.93,4.33-1.69,6.56-2.31,1.31-.37,2.65-.66,4-.9.87-.16,1.74-.3,2.62-.42.54-.07,1.07-.16,1.61-.18.78-.03,1.54-.16,2.31-.21C47.95.03,48.6.02,49.24,0c.5,0,1,0,1.5,0,.65.02,1.29.03,1.94.05.46.05.93.07,1.39.14.36.05.73.02,1.08.07.7.1,1.4.2,2.1.29,1.46.18,2.88.51,4.3.82.76.17,1.51.38,2.26.58,1.6.43,3.16,1,4.7,1.61,2.29.91,4.5,1.98,6.63,3.23,2.39,1.4,4.65,2.98,6.79,4.75,2.79,2.31,5.3,4.9,7.52,7.76,1.77,2.27,3.32,4.67,4.67,7.21.97,1.84,1.82,3.72,2.57,5.66.75,1.94,1.36,3.93,1.84,5.95.16.69.34,1.37.46,2.07.14.78.29,1.55.4,2.33.12.85.27,1.69.32,2.54.04.75.16,1.5.21,2.25,0,.38-.01.75.05,1.12v3.12c-.06.37-.05.75-.05,1.12-.07.6-.17,1.21-.19,1.81-.03.77-.15,1.52-.25,2.28-.16,1.21-.34,2.42-.6,3.6-.33,1.51-.7,3-1.16,4.48-.74,2.35-1.64,4.64-2.71,6.86-1.13,2.33-2.42,4.57-3.9,6.7-1.45,2.09-3.04,4.06-4.79,5.91-1.76,1.87-3.65,3.59-5.67,5.16-1.86,1.44-3.81,2.74-5.85,3.91-2.15,1.24-4.39,2.3-6.7,3.21-1.76.69-3.57,1.26-5.4,1.75-1.07.28-2.15.54-3.24.74-1.07.2-2.15.42-3.24.51-.85.07-1.7.21-2.56.28-.33.03-.67-.04-.99.1Zm29.26-52.99c-.03-1.12-.27-2.21-.43-3.31-.17-1.14-.48-2.25-.82-3.36-.68-2.26-1.62-4.41-2.81-6.45-1.52-2.62-3.38-4.97-5.58-7.05-2.25-2.12-4.76-3.87-7.54-5.23-3-1.46-6.14-2.44-9.47-2.81-1.11-.12-2.21-.25-3.33-.28-1.54-.04-3.06.1-4.59.27-1.01.12-2,.31-2.99.52-1.09.23-2.15.56-3.2.93-2.72.94-5.25,2.26-7.6,3.92-3.4,2.41-6.21,5.37-8.41,8.91-1.67,2.67-2.9,5.53-3.69,8.58-.36,1.38-.64,2.77-.78,4.19-.07.74-.19,1.48-.2,2.21,0,1.07-.06,2.14.05,3.21.06.58.05,1.18.13,1.76.18,1.23.38,2.46.68,3.66.21.83.43,1.66.71,2.47.74,2.14,1.67,4.19,2.85,6.13.06.09.08.17.04.29-.22.63-.43,1.26-.64,1.89-1.08,3.19-2.16,6.38-3.24,9.56-.5,1.46-1,2.93-1.49,4.39-.05.13-.08.27-.14.45.09-.03.13-.04.16-.05,1.96-.61,3.92-1.21,5.87-1.83,3.64-1.15,7.27-2.3,10.9-3.46.15-.05.28-.04.41.04.62.35,1.25.66,1.9.94,2.35,1.04,4.77,1.83,7.31,2.25,1.16.19,2.32.37,3.51.42,2.11.09,4.21.06,6.3-.26,1.16-.18,2.31-.38,3.44-.7,2.09-.59,4.12-1.35,6.05-2.35,3.2-1.66,6.03-3.81,8.48-6.45,2.9-3.13,5.06-6.71,6.48-10.73.66-1.87,1.14-3.79,1.41-5.77.18-1.13.32-2.42.35-3.86.02-1.11-.02-2.14-.1-3.06Z"/>
      <path class="cls-2" d="m0,47.31s.03,0,.05,0c-.02.67-.03,1.33-.05,2,0-.67,0-1.33,0-2Z"/>
      <path class="cls-2" d="m47.31.05s0-.03,0-.05C47.95,0,48.6,0,49.24,0c-.65.02-1.29.03-1.94.05Z"/>
      <path class="cls-2" d="m52.68,0s0,.03,0,.05c-.65-.02-1.29-.03-1.94-.05.65,0,1.29,0,1.94,0Z"/>
      <path class="cls-2" d="m.05,52.68h-.03s-.03,0-.03,0C0,52.06,0,51.43,0,50.81c.02.62.03,1.25.05,1.87Z"/>
      <path class="cls-2" d="m99.94,47.31s.04,0,.05,0v1.12c-.06-.37-.05-.75-.05-1.12Z"/>
      <path class="cls-2" d="m99.99,52.68h-.03s-.03,0-.03,0c0-.38-.01-.75.05-1.12v1.12Z"/>
      <path class="cls-1" d="m27.22,74.3c.47-1.43.92-2.79,1.36-4.15.32-.98.63-1.96.94-2.94.25-.8.51-1.6.8-2.38.07-.19.04-.32-.08-.48-1.48-2.07-2.6-4.32-3.43-6.73-.44-1.27-.74-2.57-.99-3.89-.14-.71-.17-1.44-.25-2.16-.15-1.27-.06-2.55-.06-3.83,0-.55.13-1.1.18-1.66.09-1.05.32-2.07.58-3.08.81-3.16,2.16-6.07,4.06-8.72,1.57-2.19,3.44-4.09,5.6-5.7,1.68-1.25,3.48-2.27,5.41-3.08,1.12-.47,2.27-.86,3.44-1.17,1.26-.34,2.54-.54,3.84-.7,1.24-.15,2.49-.19,3.73-.13,1.08.05,2.16.18,3.23.34,2.73.41,5.3,1.28,7.74,2.54,3.24,1.68,6,3.96,8.29,6.81,2.27,2.83,3.87,6.01,4.8,9.52.27,1,.47,2.02.6,3.06.2,1.54.32,3.09.24,4.65-.05.95-.17,1.88-.28,2.83-.12.99-.34,1.95-.59,2.91-.62,2.36-1.57,4.58-2.84,6.66-1.26,2.07-2.79,3.94-4.57,5.59-1.95,1.8-4.12,3.27-6.53,4.39-2.16,1.01-4.41,1.7-6.76,2.11-1.61.28-3.22.35-4.84.35-1.13,0-2.25-.14-3.37-.3-3.15-.46-6.08-1.51-8.85-3.06-.36-.2-.72-.42-1.07-.65-.14-.09-.26-.1-.41-.05-2.46.78-4.91,1.55-7.37,2.32-.82.26-1.64.51-2.53.78Zm8.3-30.67c-.08.87.23,2,.61,3.1.43,1.25,1.07,2.41,1.8,3.52,1.28,1.95,2.69,3.81,4.27,5.53,2.61,2.85,5.54,5.25,9.18,6.68,1.92.76,3.85,1.5,5.86,2,.66.16,1.33.23,2.01.18,1.58-.13,3.03-.64,4.34-1.52,1.13-.75,2.03-1.68,2.32-3.07.16-.76.3-1.52.26-2.3-.01-.32-.11-.56-.42-.73-1.15-.65-2.33-1.24-3.53-1.79-1.06-.48-2.09-1.08-3.25-1.31-.34-.07-.64-.08-.89.22-.2.24-.42.46-.62.7-.69.8-1.32,1.67-2.05,2.44-.34.36-.7.44-1.15.26-2.06-.82-4-1.85-5.76-3.21-2.14-1.66-3.82-3.7-5.05-6.11-.13-.25-.12-.5.03-.74.11-.16.23-.32.36-.47.51-.59,1-1.2,1.46-1.83.51-.69.56-1.39.22-2.17-.36-.83-.66-1.68-1.01-2.52-.48-1.15-.94-2.31-1.5-3.43-.21-.41-.54-.63-1.01-.69-.59-.08-1.19-.07-1.78-.04-.65.03-1.27.16-1.78.63-1.86,1.71-2.94,3.78-2.94,6.68Z"/>
    </g>
  </g>
</svg>