<?xml version="1.0" encoding="UTF-8"?>
<svg id="Layer_2" data-name="Layer 2" xmlns="http://www.w3.org/2000/svg" viewBox="0 0 93.46 93.46">
  <defs>
    <style>
      .cls-1 {
        fill: #25d366;
      }
    </style>
  </defs>
  <g id="Layer_7" data-name="Layer 7">
    <g>
      <path class="cls-1" d="m93.28,41.65c-.5-6.02-2.11-11.73-4.96-17.04-6.38-11.88-16.14-19.58-29.14-23.13C54.59.23,49.88-.19,45.12.08c-9.59.54-18.23,3.7-25.8,9.6-8.35,6.5-13.81,14.93-16.37,25.22-1.02,4.11-1.41,8.29-1.22,12.51.33,7.55,2.39,14.6,6.25,21.12.21.35.26.65.12,1.05-2.71,7.96-5.41,15.92-8.11,23.88h.19c.98-.33,1.96-.68,2.95-.99,7.29-2.32,14.57-4.63,21.86-6.93.21-.07.52-.07.71.04,4.07,2.17,8.36,3.72,12.88,4.61,3.61.71,7.26.99,10.94.83,6.94-.3,13.52-1.99,19.61-5.31,12.08-6.58,19.83-16.57,23.14-29.94.63-2.53.97-5.11,1.09-7.71,0-.19.05-.37.08-.56v-4.01c-.06-.61-.13-1.23-.18-1.84Zm-7.19,6.01c-.53,8.76-3.69,16.46-9.5,23.04-5.71,6.47-12.83,10.56-21.27,12.33-3.64.76-7.32.95-11.04.63-6.35-.55-12.19-2.55-17.57-5.95-.19-.12-.52-.16-.73-.09-4.59,1.44-9.18,2.9-13.77,4.35-.19.06-.39.11-.66.18.41-1.21.79-2.35,1.17-3.48,1.16-3.42,2.32-6.84,3.49-10.25.12-.34.07-.58-.14-.87-3.23-4.51-5.37-9.5-6.41-14.96-.64-3.37-.81-6.77-.52-10.2.68-8.06,3.63-15.19,8.82-21.37,5.46-6.49,12.37-10.72,20.61-12.73,3.95-.96,7.96-1.27,12.01-.95,15.56,1.22,28.63,11.59,33.54,25.92,1.6,4.67,2.26,9.47,1.97,14.39Z"/>
      <path class="cls-1" d="m69.81,55.3c-2.59-1.23-5.17-2.49-7.76-3.72-.58-.28-1.19-.52-1.81-.71-.75-.23-1.28-.01-1.76.59-1.18,1.48-2.37,2.95-3.56,4.41-.69.84-1.26.97-2.27.54-.87-.37-1.74-.76-2.6-1.17-5.47-2.64-9.61-6.71-12.76-11.86-.76-1.24-.68-1.59.3-2.67,1.03-1.14,2.1-2.25,2.75-3.68.29-.64.3-1.23.03-1.88-.94-2.21-1.86-4.44-2.81-6.65-.39-.92-.78-1.84-1.24-2.72-.36-.7-.98-1.06-1.81-.98-.35.03-.7,0-.95,0-.41-.02-.73-.04-1.05-.06-1.23-.08-2.28.32-3.16,1.16-.43.4-.82.84-1.2,1.29-2.46,2.9-3.32,6.25-2.83,9.98.32,2.44,1.23,4.69,2.49,6.78,2.4,3.98,5.18,7.69,8.43,11.02,2.59,2.65,5.43,4.98,8.63,6.84,3.1,1.81,6.49,2.93,9.87,4.05,1.03.34,2.1.6,3.16.86,1.45.36,2.88.2,4.33-.08,2.87-.56,5.29-1.92,7.11-4.17,1.26-1.56,1.44-3.54,1.54-5.49.05-.85-.35-1.35-1.09-1.7Z"/>
    </g>
  </g>
</svg>