<?xml version="1.0" encoding="utf-8"?>
<!-- Generator: Adobe Illustrator 27.2.0, SVG Export Plug-In . SVG Version: 6.00 Build 0)  -->
<svg version="1.1" id="Layer_1" xmlns="http://www.w3.org/2000/svg" xmlns:xlink="http://www.w3.org/1999/xlink" x="0px" y="0px"
	 viewBox="0 0 24 24" style="enable-background:new 0 0 24 24;" xml:space="preserve">
<style type="text/css">
	.st0{fill-rule:evenodd;clip-rule:evenodd;fill:#FFFFFF;}
</style>
<path class="st0" d="M14.8,17.3c3.1,0.3,6.1,1.1,8.9,2.4V7.8c-0.2-0.1-0.4-0.1-0.6-0.1c-0.2,0-0.3-0.1-0.5-0.1v10.8l0,0
	c0,0.2-0.1,0.3-0.3,0.3c0,0-0.1,0-0.1,0C19.8,17.6,17.3,17.2,14.8,17.3L14.8,17.3z M1.4,7.5c-0.2,0-0.3,0.1-0.5,0.1
	c-0.2,0-0.4,0.1-0.6,0.1v11.9c2.8-1.2,5.8-2,8.9-2.4c-2.5-0.1-5,0.3-7.3,1.3c-0.1,0.1-0.3,0-0.4-0.1c0,0,0-0.1,0-0.1L1.4,7.5
	L1.4,7.5z M13.9,16.8c2.2-0.9,4.6-1,6.8-0.4c0.2,0,0.3-0.1,0.4-0.2c0,0,0,0,0-0.1l0,0V5.8c0.1,0,0.3,0.1,0.4,0.1
	C21.7,5.9,21.8,6,22,6v11.9C19.4,16.9,16.6,16.5,13.9,16.8L13.9,16.8z M12.3,5.9c2.5-1.5,5.4-1.9,8.2-1.2v11.1
	c-2.8-0.7-5.7-0.3-8.2,1.2V5.9z M11.7,16.9c-2.5-1.4-5.4-1.8-8.2-1.2V4.7C6.3,4,9.2,4.4,11.7,5.9V16.9z M2.9,5.8v10.3
	c0,0.2,0.1,0.3,0.3,0.3c0,0,0.1,0,0.1,0c2.2-0.6,4.6-0.5,6.8,0.4c-2.7-0.3-5.5,0.1-8.1,1.1V6c0.2,0,0.3-0.1,0.5-0.1
	C2.7,5.8,2.8,5.8,2.9,5.8z"/>
</svg>
