<?xml version="1.0" encoding="UTF-8"?>
<svg id="Layer_2" data-name="Layer 2" xmlns="http://www.w3.org/2000/svg" viewBox="0 0 203 227.5">
  <defs>
    <style>
      .cls-1 {
        fill: #fff;
      }
    </style>
  </defs>
  <g id="Layer_1-2" data-name="Layer 1">
    <path class="cls-1" d="m178.49,227.5H24.51c-13.52,0-24.51-11-24.51-24.51V49.01c0-13.52,11-24.51,24.51-24.51h9.49v7h-9.49c-9.66,0-17.51,7.86-17.51,17.51v153.98c0,9.66,7.86,17.51,17.51,17.51h153.98c9.66,0,17.51-7.86,17.51-17.51V49.01c0-9.66-7.86-17.51-17.51-17.51h-13.49v-7h13.49c13.52,0,24.51,11,24.51,24.51v153.98c0,13.52-11,24.51-24.51,24.51Z"/>
    <rect class="cls-1" x="54" y="24.5" width="91" height="7"/>
    <path class="cls-1" d="m49.58,136.9h-20.73c-4.88,0-8.85-3.97-8.85-8.85v-20.73c0-4.88,3.97-8.85,8.85-8.85h20.73c4.88,0,8.85,3.97,8.85,8.85v20.73c0,4.88-3.97,8.85-8.85,8.85Zm-20.73-31.42c-1.02,0-1.85.83-1.85,1.85v20.73c0,1.02.83,1.85,1.85,1.85h20.73c1.02,0,1.85-.83,1.85-1.85v-20.73c0-1.02-.83-1.85-1.85-1.85h-20.73Z"/>
    <path class="cls-1" d="m113.55,136.9h-20.73c-4.88,0-8.85-3.97-8.85-8.85v-20.73c0-4.88,3.97-8.85,8.85-8.85h20.73c4.88,0,8.85,3.97,8.85,8.85v20.73c0,4.88-3.97,8.85-8.85,8.85Zm-20.73-31.42c-1.02,0-1.85.83-1.85,1.85v20.73c0,1.02.83,1.85,1.85,1.85h20.73c1.02,0,1.85-.83,1.85-1.85v-20.73c0-1.02-.83-1.85-1.85-1.85h-20.73Z"/>
    <path class="cls-1" d="m174.15,136.9h-20.73c-4.88,0-8.85-3.97-8.85-8.85v-20.73c0-4.88,3.97-8.85,8.85-8.85h20.73c4.88,0,8.85,3.97,8.85,8.85v20.73c0,4.88-3.97,8.85-8.85,8.85Zm-20.73-31.42c-1.02,0-1.85.83-1.85,1.85v20.73c0,1.02.83,1.85,1.85,1.85h20.73c1.02,0,1.85-.83,1.85-1.85v-20.73c0-1.02-.83-1.85-1.85-1.85h-20.73Z"/>
    <path class="cls-1" d="m49.58,188.53h-20.73c-4.88,0-8.85-3.97-8.85-8.85v-20.73c0-4.88,3.97-8.85,8.85-8.85h20.73c4.88,0,8.85,3.97,8.85,8.85v20.73c0,4.88-3.97,8.85-8.85,8.85Zm-20.73-31.42c-1.02,0-1.85.83-1.85,1.85v20.73c0,1.02.83,1.85,1.85,1.85h20.73c1.02,0,1.85-.83,1.85-1.85v-20.73c0-1.02-.83-1.85-1.85-1.85h-20.73Z"/>
    <path class="cls-1" d="m113.55,188.53h-20.73c-4.88,0-8.85-3.97-8.85-8.85v-20.73c0-4.88,3.97-8.85,8.85-8.85h20.73c4.88,0,8.85,3.97,8.85,8.85v20.73c0,4.88-3.97,8.85-8.85,8.85Zm-20.73-31.42c-1.02,0-1.85.83-1.85,1.85v20.73c0,1.02.83,1.85,1.85,1.85h20.73c1.02,0,1.85-.83,1.85-1.85v-20.73c0-1.02-.83-1.85-1.85-1.85h-20.73Z"/>
    <path class="cls-1" d="m174.15,188.53h-20.73c-4.88,0-8.85-3.97-8.85-8.85v-20.73c0-4.88,3.97-8.85,8.85-8.85h20.73c4.88,0,8.85,3.97,8.85,8.85v20.73c0,4.88-3.97,8.85-8.85,8.85Zm-20.73-31.42c-1.02,0-1.85.83-1.85,1.85v20.73c0,1.02.83,1.85,1.85,1.85h20.73c1.02,0,1.85-.83,1.85-1.85v-20.73c0-1.02-.83-1.85-1.85-1.85h-20.73Z"/>
    <g>
      <path class="cls-1" d="m44,57c-7.44,0-13.5-6.06-13.5-13.5V13.5c0-7.44,6.06-13.5,13.5-13.5s13.5,6.06,13.5,13.5v30c0,7.44-6.06,13.5-13.5,13.5Zm0-50c-3.58,0-6.5,2.92-6.5,6.5v30c0,3.58,2.92,6.5,6.5,6.5s6.5-2.92,6.5-6.5V13.5c0-3.58-2.92-6.5-6.5-6.5Z"/>
      <path class="cls-1" d="m155,57c-7.44,0-13.5-6.06-13.5-13.5V13.5c0-7.44,6.06-13.5,13.5-13.5s13.5,6.06,13.5,13.5v30c0,7.44-6.06,13.5-13.5,13.5Zm0-50c-3.58,0-6.5,2.92-6.5,6.5v30c0,3.58,2.92,6.5,6.5,6.5s6.5-2.92,6.5-6.5V13.5c0-3.58-2.92-6.5-6.5-6.5Z"/>
    </g>
    <rect class="cls-1" x="3.5" y="66.72" width="196" height="7"/>
  </g>
</svg>