<?xml version="1.0" encoding="utf-8"?>
<!-- Generator: Adobe Illustrator 27.2.0, SVG Export Plug-In . SVG Version: 6.00 Build 0)  -->
<svg version="1.1" id="Layer_1" xmlns="http://www.w3.org/2000/svg" xmlns:xlink="http://www.w3.org/1999/xlink" x="0px" y="0px"
	 viewBox="0 0 32 30" style="enable-background:new 0 0 32 30;" xml:space="preserve">
<style type="text/css">
	.st0{fill:#0986bf;}
</style>
<g>
	<path class="st0" d="M16,0C7.7,0,1,6.7,1,15s6.7,15,15,15s15-6.7,15-15S24.3,0,16,0z M16,27.9C8.9,27.9,3.1,22.1,3.1,15
		S8.9,2.1,16,2.1S28.9,7.9,28.9,15S23.1,27.9,16,27.9z M21,18.5c0.4,0.4,0.4,1.1,0,1.5c0,0,0,0,0,0c-0.4,0.4-1.1,0.4-1.5,0
		c0,0,0,0,0,0l-3.7-3.7c-0.6-0.6-0.9-1.4-0.9-2.3V5.4c0-0.6,0.5-1.1,1.1-1.1s1.1,0.5,1.1,1.1v8.8c0,0.3,0.1,0.6,0.3,0.8L21,18.5z"/>
</g>
</svg>
