<?xml version="1.0" encoding="utf-8"?>
<!-- Generator: Adobe Illustrator 27.2.0, SVG Export Plug-In . SVG Version: 6.00 Build 0)  -->
<svg version="1.1" id="Layer_2_00000124860387292495275430000005476413481271692477_"
	 xmlns="http://www.w3.org/2000/svg" xmlns:xlink="http://www.w3.org/1999/xlink" x="0px" y="0px" viewBox="0 0 839.9 694"
	 style="enable-background:new 0 0 839.9 694;" xml:space="preserve">
<style type="text/css">
	.st0{opacity:0.1;}
	.st1{fill:#DCF2FF;}
	.st2{fill:url(#SVGID_1_);}
	.st3{fill:url(#SVGID_00000103981352396423945350000007733046368614684573_);}
	.st4{fill:#FFB292;}
	.st5{fill:#C30759;}
	.st6{fill:#162546;}
	.st7{fill:url(#SVGID_00000146469361709946647780000011469499247741237420_);}
	.st8{fill:url(#SVGID_00000145764417967686508220000016133941055943853740_);}
	.st9{fill:url(#SVGID_00000040558847904090927920000012714065663446373779_);}
	.st10{fill:url(#SVGID_00000132779098987257018500000001364928424376769965_);}
	.st11{fill:url(#SVGID_00000008151175019511054450000004727167809539976609_);}
	.st12{fill:url(#SVGID_00000053524350942532521210000017550685678502499227_);}
	.st13{fill:url(#SVGID_00000162340199012712297710000016968053311075559613_);}
	.st14{fill:url(#SVGID_00000042015859628055506330000012005714763844623490_);}
	.st15{fill:url(#SVGID_00000128452493277862095210000010319432614268871046_);}
	.st16{fill:url(#SVGID_00000093138563821685350250000001131799578664589186_);}
	.st17{fill:url(#SVGID_00000126293446006430499940000009018195645510314124_);}
	.st18{fill:url(#SVGID_00000039829770894732351100000015114902419061034376_);}
	.st19{fill:#FFE0B4;}
	.st20{fill:#F8F7F0;}
	.st21{fill:url(#SVGID_00000052815587369293186780000018143575328852390812_);}
	.st22{fill:url(#SVGID_00000080892526448210785330000001119653839017203614_);}
	.st23{fill:url(#SVGID_00000145020642936712504110000010470588831974590091_);}
	.st24{fill:#FFCEB0;}
	.st25{fill:url(#SVGID_00000072991805604440618550000015920482392165202366_);}
	.st26{fill:url(#SVGID_00000070077510732666460570000013650776403662485676_);}
	.st27{fill:#F07D68;}
	.st28{fill:#FFDFB4;}
	.st29{fill:#002F33;}
	.st30{fill:url(#SVGID_00000017507249412891496060000000725942633327378097_);}
	.st31{fill:url(#SVGID_00000073721777273571113120000011917463656073445773_);}
	.st32{fill:#013036;}
</style>
<g id="Illustration">
	<g>
		<g id="Background" class="st0">
			<path class="st1" d="M832.2,413.7C814,749.8,389.3,672.6,389.3,672.6c-122.9-8.2-208.4-32.5-267.3-64.8c-3.2-1.8-6.3-3.5-9.3-5.3
				c-21.1-12.5-38.5-26-52.7-40.2c-4.8-4.8-9.3-9.6-13.4-14.5c-0.4-0.5-0.9-1-1.3-1.6c-4.9-6-9.3-12-13.3-18
				C-25.4,440.4,9.8,342,20.3,320.6c35.3-71.6,135.7-46,149.9-87.4C240,29.4,387,4.7,484.7,0.4C847.9-15.3,832.2,413.7,832.2,413.7
				L832.2,413.7z"/>
		</g>
		<g id="City">
			
				<linearGradient id="SVGID_1_" gradientUnits="userSpaceOnUse" x1="360.8671" y1="524.2001" x2="338.1571" y2="129.0602" gradientTransform="matrix(1 0 0 -1 0 694)">
				<stop  offset="8.000000e-02" style="stop-color:#C4E1EF"/>
				<stop  offset="1" style="stop-color:#DCF2FF"/>
			</linearGradient>
			<polygon class="st2" points="205.5,594.3 205.5,253.6 251.9,253.6 251.9,419.4 299.6,419.4 299.6,170.7 359.8,170.7 359.8,120.8 
				387.1,120.8 387.1,505.7 430.2,505.7 430.2,219.6 487,219.6 487,594.3 			"/>
		</g>
		<g id="Vespa">
			
				<linearGradient id="SVGID_00000092419400069748085290000000587305484217487006_" gradientUnits="userSpaceOnUse" x1="112.7" y1="88.805" x2="288.49" y2="88.805" gradientTransform="matrix(1 0 0 -1 0 694)">
				<stop  offset="0" style="stop-color:#4A3FBD"/>
				<stop  offset="1" style="stop-color:#1B2137"/>
			</linearGradient>
			<path style="fill:url(#SVGID_00000092419400069748085290000000587305484217487006_);" d="M288.5,605.2c0,1.3-71.7,2.4-166.4,2.7
				c-3.2-1.8-6.3-3.5-9.3-5.3C212,602.7,288.5,603.8,288.5,605.2L288.5,605.2z"/>
			<path class="st4" d="M235.6,487.3h6.8c1.2,0,2.3,0.8,2.7,2l1.4,4.4c0.6,1.8-0.8,3.7-2.7,3.7h-5L235.6,487.3L235.6,487.3z"/>
			<path class="st5" d="M220.4,484.1h13.9c1.9,0,3.6,1.2,4.2,3l4.8,13c1.1,3-1.1,6.1-4.2,6.1h-4.9L220.4,484.1L220.4,484.1z"/>
			
				<rect x="206.9" y="453.6" transform="matrix(0.8005 -0.5993 0.5993 0.8005 -225.4331 234.3513)" class="st6" width="64.8" height="4.4"/>
			
				<linearGradient id="SVGID_00000098183514148576816480000003580265862509759879_" gradientUnits="userSpaceOnUse" x1="138.45" y1="302.575" x2="289.2" y2="302.575" gradientTransform="matrix(1 0 0 -1 0 694)">
				<stop  offset="0" style="stop-color:#FFD26B"/>
				<stop  offset="1" style="stop-color:#FF7170"/>
			</linearGradient>
			
				<rect x="138.4" y="344.8" style="fill:url(#SVGID_00000098183514148576816480000003580265862509759879_);" width="150.8" height="93.4"/>
			
				<linearGradient id="SVGID_00000150067356819285601940000010060609530424965787_" gradientUnits="userSpaceOnUse" x1="138.45" y1="302.575" x2="198.37" y2="302.575" gradientTransform="matrix(1 0 0 -1 0 694)">
				<stop  offset="0" style="stop-color:#FFD26B"/>
				<stop  offset="1" style="stop-color:#FF7170"/>
			</linearGradient>
			
				<rect x="138.4" y="344.8" style="fill:url(#SVGID_00000150067356819285601940000010060609530424965787_);" width="59.9" height="93.4"/>
			
				<linearGradient id="SVGID_00000062902520908250624290000016638442786079662727_" gradientUnits="userSpaceOnUse" x1="31.99" y1="201.04" x2="251.99" y2="201.04" gradientTransform="matrix(1 0 0 -1 0 694)">
				<stop  offset="0" style="stop-color:#5D4BF5"/>
				<stop  offset="1" style="stop-color:#6EA2FA"/>
			</linearGradient>
			<path style="fill:url(#SVGID_00000062902520908250624290000016638442786079662727_);" d="M252,546l-8.9,0.1l-130.2,1.2h-1.1
				l-65.2,0.6c-0.4-0.5-0.9-1-1.3-1.6c-4.9-6-9.3-12-13.3-18c38.5-2.9,45.9-23.2,45.9-23.2c11.3-27.8-20.8-50.5-20.8-50.5
				c-12.6-10.1-8.2-16.4-8.2-16.4h130.6C248.8,494.2,252,546,252,546L252,546z"/>
			<polygon class="st6" points="121.9,439.4 299.3,439.4 299.3,433 122.1,433 			"/>
			
				<linearGradient id="SVGID_00000125573150130815200750000004727512099840879539_" gradientUnits="userSpaceOnUse" x1="1966.71" y1="271.7425" x2="2060.0601" y2="271.7425" gradientTransform="matrix(-1 0 0 -1 2100.1201 694)">
				<stop  offset="0" style="stop-color:#410EB4"/>
				<stop  offset="1" style="stop-color:#0E0920"/>
			</linearGradient>
			<path style="fill:url(#SVGID_00000125573150130815200750000004727512099840879539_);" d="M133.4,413.8v16.9
				c0,4.8-3.9,8.7-8.7,8.7H47.7c-4.2,0-7.6-3.4-7.6-7.6v-16.4l83.7-10.2C128.9,404.6,133.4,408.6,133.4,413.8z"/>
			
				<linearGradient id="SVGID_00000092434301187327470750000008295508848281645466_" gradientUnits="userSpaceOnUse" x1="1873.05" y1="142.05" x2="1977.75" y2="142.05" gradientTransform="matrix(-1 0 0 -1 2100.1201 694)">
				<stop  offset="0" style="stop-color:#1B067A"/>
				<stop  offset="1" style="stop-color:#0E0920"/>
			</linearGradient>
			<circle style="fill:url(#SVGID_00000092434301187327470750000008295508848281645466_);" cx="174.7" cy="552" r="52.3"/>
			
				<linearGradient id="SVGID_00000159437090054590092670000012847729940147020695_" gradientUnits="userSpaceOnUse" x1="1960.65" y1="141.5711" x2="1892.53" y2="142.8111" gradientTransform="matrix(-1 0 0 -1 2100.1201 694)">
				<stop  offset="0" style="stop-color:#B7B7BD"/>
				<stop  offset="1" style="stop-color:#FFFFFF"/>
			</linearGradient>
			<circle style="fill:url(#SVGID_00000159437090054590092670000012847729940147020695_);" cx="174.6" cy="551.8" r="39.1"/>
			
				<linearGradient id="SVGID_00000119839275258444806490000012506048714083199888_" gradientUnits="userSpaceOnUse" x1="1901.58" y1="142.21" x2="1949.52" y2="142.21" gradientTransform="matrix(-1 0 0 -1 2100.1201 694)">
				<stop  offset="0" style="stop-color:#9999A8"/>
				<stop  offset="1" style="stop-color:#535370"/>
			</linearGradient>
			<circle style="fill:url(#SVGID_00000119839275258444806490000012506048714083199888_);" cx="174.6" cy="551.8" r="24"/>
			
				<linearGradient id="SVGID_00000101088879178831173630000010349137294511041706_" gradientUnits="userSpaceOnUse" x1="45.29" y1="139.7178" x2="111.96" y2="139.7178" gradientTransform="matrix(1 0 0 -1 0 694)">
				<stop  offset="0" style="stop-color:#4A3FBD"/>
				<stop  offset="1" style="stop-color:#1B2137"/>
			</linearGradient>
			<path style="fill:url(#SVGID_00000101088879178831173630000010349137294511041706_);" d="M112,546.6c-0.1,0.2-0.1,0.4-0.2,0.7
				c-3.5,12.1-19.4,15.1-19.4,15.1H60c-4.8-4.8-9.3-9.6-13.4-14.5c-0.4-0.5-0.9-1-1.3-1.6C79.3,546.2,112.1,546.2,112,546.6
				L112,546.6z"/>
			
				<linearGradient id="SVGID_00000107576040569168712320000002701356000218183313_" gradientUnits="userSpaceOnUse" x1="1929.5" y1="140.16" x2="1976.17" y2="140.16" gradientTransform="matrix(-1 0 0 -1 2100.1201 694)">
				<stop  offset="0" style="stop-color:#410EB4"/>
				<stop  offset="1" style="stop-color:#0E0920"/>
			</linearGradient>
			<polygon style="fill:url(#SVGID_00000107576040569168712320000002701356000218183313_);" points="170.6,554.2 138.4,554.2 
				123.9,544.7 123.9,553.5 138.4,563 170.6,563 			"/>
			
				<linearGradient id="SVGID_00000152952646915370495800000017360047384706148004_" gradientUnits="userSpaceOnUse" x1="1857.03" y1="191.9632" x2="2008.5074" y2="191.9632" gradientTransform="matrix(-1 0 0 -1 2100.1201 694)">
				<stop  offset="0" style="stop-color:#5D4BF5"/>
				<stop  offset="1" style="stop-color:#6EA2FA"/>
			</linearGradient>
			<path style="fill:url(#SVGID_00000152952646915370495800000017360047384706148004_);" d="M112.8,547.2l130.2-1.2
				c-2.9-14.7-16.6-62.8-75-84.6c0,0-56.1-18.9-73.2,20.2C94.9,481.6,80.2,516.4,112.8,547.2L112.8,547.2z"/>
			
				<linearGradient id="SVGID_00000098905583533524993020000006539120126701336462_" gradientUnits="userSpaceOnUse" x1="1892.9" y1="137.32" x2="1933.9" y2="137.32" gradientTransform="matrix(-1 0 0 -1 2100.1201 694)">
				<stop  offset="0" style="stop-color:#1B067A"/>
				<stop  offset="1" style="stop-color:#0E0920"/>
			</linearGradient>
			<path style="fill:url(#SVGID_00000098905583533524993020000006539120126701336462_);" d="M207.2,558.7v2.9c0,3.9-3.1,7-7,7h-26.9
				c-3.9,0-7-3.2-7-7v-2.9c0-7.7,6.3-14,14-14h13C201,544.7,207.2,551,207.2,558.7L207.2,558.7z"/>
			
				<linearGradient id="SVGID_00000006667043400012612010000008166297457790477984_" gradientUnits="userSpaceOnUse" x1="1973.01" y1="145.52" x2="1986.26" y2="145.52" gradientTransform="matrix(-1 0 0 -1 2100.1201 694)">
				<stop  offset="0" style="stop-color:#410EB4"/>
				<stop  offset="1" style="stop-color:#0E0920"/>
			</linearGradient>
			<path style="fill:url(#SVGID_00000006667043400012612010000008166297457790477984_);" d="M118.1,539h4.9c2.3,0,4.2,1.9,4.2,4.2
				v10.5c0,2.3-1.9,4.2-4.2,4.2h-4.9c-2.3,0-4.2-1.9-4.2-4.2v-10.5C113.9,540.9,115.7,539,118.1,539z"/>
			<polygon class="st19" points="160.5,344.8 160.5,378.8 168.7,370 176.9,378.8 176.9,344.8 			"/>
			<rect x="217.3" y="359.9" class="st20" width="29.6" height="5"/>
			<rect x="223.9" y="369.4" class="st20" width="23" height="5"/>
			
				<linearGradient id="SVGID_00000037684195161175297030000016575346581178806934_" gradientUnits="userSpaceOnUse" x1="162.9841" y1="175.5804" x2="162.614" y2="169.0804" gradientTransform="matrix(1 0 0 -1 0 694)">
				<stop  offset="8.000000e-02" style="stop-color:#C4E1EF"/>
				<stop  offset="1" style="stop-color:#DCF2FF"/>
			</linearGradient>
			
				<rect x="133.9" y="519.2" style="fill:url(#SVGID_00000037684195161175297030000016575346581178806934_);" width="57.9" height="4.6"/>
			
				<linearGradient id="SVGID_00000105425634914642673010000015892322266599741318_" gradientUnits="userSpaceOnUse" x1="162.9835" y1="184.6604" x2="162.6135" y2="178.1603" gradientTransform="matrix(1 0 0 -1 0 694)">
				<stop  offset="8.000000e-02" style="stop-color:#C4E1EF"/>
				<stop  offset="1" style="stop-color:#DCF2FF"/>
			</linearGradient>
			
				<rect x="133.9" y="510.2" style="fill:url(#SVGID_00000105425634914642673010000015892322266599741318_);" width="57.9" height="4.6"/>
		</g>
		<g id="Location_Icon">
			
				<linearGradient id="SVGID_00000043447237209668272860000014463045893371742901_" gradientUnits="userSpaceOnUse" x1="482.4225" y1="609.6298" x2="477.3625" y2="521.4999" gradientTransform="matrix(1 0 0 -1 0 694)">
				<stop  offset="0" style="stop-color:#5D4BF5"/>
				<stop  offset="1" style="stop-color:#6EA2FA"/>
			</linearGradient>
			<path style="fill:url(#SVGID_00000043447237209668272860000014463045893371742901_);" d="M481.3,73.1
				c-16.9,0-30.7,13.7-30.7,30.7c0,4.8,1.1,9.4,3.1,13.4l27.6,63.8l27.6-63.8c2-4.1,3.1-8.6,3.1-13.4
				C512,86.8,498.2,73.1,481.3,73.1z M481.3,116.2c-6.9,0-12.5-5.6-12.5-12.5s5.6-12.5,12.5-12.5s12.5,5.6,12.5,12.5
				S488.2,116.2,481.3,116.2z"/>
		</g>
		<g id="Courier">
			<path class="st24" d="M689.1,310.4L613,339.9l-7.3-47l-3.9-25l-0.1-0.7c0,0-48.8,29.5-37.5-84s109-40.9,118.1-19.3
				c9.1,21.6-0.9,56.7-15.9,65.9L689.1,310.4L689.1,310.4z"/>
			
				<linearGradient id="SVGID_00000105401528214071319890000003846812075620839080_" gradientUnits="userSpaceOnUse" x1="503.46" y1="214.03" x2="779.38" y2="214.03" gradientTransform="matrix(1 0 0 -1 0 694)">
				<stop  offset="0" style="stop-color:#5D4BF5"/>
				<stop  offset="1" style="stop-color:#6EA2FA"/>
			</linearGradient>
			<path style="fill:url(#SVGID_00000105401528214071319890000003846812075620839080_);" d="M685.4,297c0,0-36.8,38.6-77.6,17.8
				l-95.2,93.9L503.5,663h275.9l-18.2-346.3L685.4,297L685.4,297z"/>
			
				<linearGradient id="SVGID_00000128466605609819512580000013423333013486725776_" gradientUnits="userSpaceOnUse" x1="339.94" y1="138.325" x2="673.2" y2="138.325" gradientTransform="matrix(1 0 0 -1 0 694)">
				<stop  offset="0" style="stop-color:#FFD26B"/>
				<stop  offset="1" style="stop-color:#FF7170"/>
			</linearGradient>
			
				<rect x="339.9" y="435.9" style="fill:url(#SVGID_00000128466605609819512580000013423333013486725776_);" width="333.3" height="239.6"/>
			<rect x="573.3" y="435.9" class="st27" width="116.4" height="239.6"/>
			<polygon class="st19" points="487.5,435.9 487.5,555.1 468.8,536.9 450.1,555.1 450.1,435.9 			"/>
			<rect x="614.2" y="467.1" class="st28" width="43.2" height="28.4"/>
			<path class="st24" d="M826.3,587.8L711.8,663c-17,8.5-26.1,18.7-26.1,18.7c-73.8,30.7-77.2-5.7-77.2-5.7
				c22.7-6.8,32.9-13.1,32.9-13.1c-22.7-0.6-22.7-15.3-22.7-15.3l45.4-4.5l99.9-96.5l-17.5-69.9l-4.1-16.4l79.5-20.4l5.2,35.2
				l12.4,83.2C841.3,569.8,836.1,581.4,826.3,587.8L826.3,587.8z"/>
			<polygon class="st29" points="827.2,475 746.6,476.7 742.5,460.3 822,439.9 			"/>
			
				<linearGradient id="SVGID_00000065056511344889233790000017240231519022532797_" gradientUnits="userSpaceOnUse" x1="385.2399" y1="333.6168" x2="584.8899" y2="326.3968" gradientTransform="matrix(1 0 0 -1 0 694)">
				<stop  offset="0" style="stop-color:#FFD26B"/>
				<stop  offset="1" style="stop-color:#FF7170"/>
			</linearGradient>
			
				<rect x="375.4" y="290.8" style="fill:url(#SVGID_00000065056511344889233790000017240231519022532797_);" width="197.9" height="145.7"/>
			
				<linearGradient id="SVGID_00000041297268306240300590000008718866557695404209_" gradientUnits="userSpaceOnUse" x1="715.0284" y1="299.99" x2="831.6" y2="299.99" gradientTransform="matrix(1 0 0 -1 0 694)">
				<stop  offset="0" style="stop-color:#5D4BF5"/>
				<stop  offset="1" style="stop-color:#6EA2FA"/>
			</linearGradient>
			<path style="fill:url(#SVGID_00000041297268306240300590000008718866557695404209_);" d="M739.6,476.8l92-28.4
				c0,0-33.5-136.8-86.3-137.1C745.3,311.3,681.1,317.2,739.6,476.8L739.6,476.8z"/>
			<rect x="517.3" y="290.8" class="st27" width="70.8" height="145.7"/>
			<polygon class="st19" points="465.1,290.8 465.1,363.2 453.5,350.8 442.4,363.2 442.4,290.8 			"/>
			<path class="st29" d="M659,117.9c0,0-106.7-53.4-99.9,42c0,0,4.5,27.7,74.9,6.7c-13,6.6-35.5,15.8-55.1,12.1
				c0,0,31.2,12.9,68.5-12.6c-0.1,6.7,0.6,20.7,8.2,29.1c0,0,11.9-26.7,26.1-7.9c6.8,9-0.9,27-15.3,42.6c0,0,10.9-6.6,14.8-11.3
				C708.4,185.5,705.6,123.6,659,117.9L659,117.9z"/>
			<path class="st32" d="M626.7,333.1l-8,26.1c0,0-34.1-25-12.5-51.1c0,0,9.1,11.4,20.4,11.4c0,0,25-2.3,59-35.2
				c0,0,11.3,12.5,8,30.7c0,0-14.8,28.4-52.2,44.3L626.7,333.1L626.7,333.1z"/>
			<path class="st29" d="M644.2,234.1c-5.4,30-26.1,49.5-38.6,58.8l-3.9-25C629.5,256.2,644.2,234.1,644.2,234.1L644.2,234.1z"/>
		</g>
	</g>
</g>
</svg>
