<?xml version="1.0" encoding="utf-8"?>
<!-- Generator: Adobe Illustrator 27.2.0, SVG Export Plug-In . SVG Version: 6.00 Build 0)  -->
<svg version="1.1" id="Layer_2_00000052062518645076014450000012065998410003115398_"
	 xmlns="http://www.w3.org/2000/svg" xmlns:xlink="http://www.w3.org/1999/xlink" x="0px" y="0px" viewBox="0 0 74.5 37"
	 style="enable-background:new 0 0 74.5 37;" xml:space="preserve">
<style type="text/css">
	
		.st0{clip-path:url(#SVGID_00000150101443650406150550000016287959319704925604_);fill:url(#SVGID_00000064314309493976722140000010548957903780394894_);}
</style>
<g>
	<defs>
		<path id="SVGID_1_" d="M23.6,14.6v9.3H0v-9.3H23.6z M31.7,2.3C33.4,0.8,35.6,0,38.3,0s4.9,0.8,6.5,2.3s2.5,3.8,2.5,6.8
			s-0.8,5.2-2.5,6.8c-1.7,1.5-3.8,2.3-6.5,2.3s-4.9-0.8-6.6-2.3c-1.7-1.6-2.5-3.8-2.5-6.8S30,3.9,31.7,2.3z M36.5,9.1
			c0,1.7,0.6,2.6,1.7,2.6c0.6,0,1.1-0.2,1.4-0.7s0.5-1.1,0.5-1.9s-0.2-1.5-0.5-2c-0.3-0.4-0.8-0.7-1.4-0.7
			C37.1,6.5,36.5,7.4,36.5,9.1z M66.7,0.5l-18.9,36H37.1l18.9-36C55.9,0.5,66.7,0.5,66.7,0.5z M58.9,21c1.7-1.6,3.9-2.4,6.6-2.4
			c2.7,0,4.9,0.8,6.6,2.4s2.5,3.8,2.5,6.8s-0.8,5.2-2.5,6.8c-1.7,1.6-3.8,2.3-6.6,2.3s-4.9-0.8-6.6-2.3c-1.7-1.6-2.5-3.8-2.5-6.8
			S57.2,22.6,58.9,21z M63.6,27.8c0,1.8,0.6,2.6,1.8,2.6c0.6,0,1-0.2,1.3-0.7s0.5-1.1,0.5-2s-0.2-1.5-0.5-2
			c-0.3-0.5-0.8-0.7-1.3-0.7C64.2,25.2,63.6,26.1,63.6,27.8z"/>
	</defs>
	<clipPath id="SVGID_00000083091167237807499400000001185354497170796943_">
		<use xlink:href="#SVGID_1_"  style="overflow:visible;"/>
	</clipPath>
	
		<linearGradient id="SVGID_00000027579461074634322250000000496932007824951172_" gradientUnits="userSpaceOnUse" x1="2.9925" y1="-351.8927" x2="71.4975" y2="-420.3977" gradientTransform="matrix(1 0 0 -1 0 -363.08)">
		<stop  offset="0" style="stop-color:#45F063"/>
		<stop  offset="1" style="stop-color:#007CFF"/>
	</linearGradient>
	
		<rect y="-8.2" style="clip-path:url(#SVGID_00000083091167237807499400000001185354497170796943_);fill:url(#SVGID_00000027579461074634322250000000496932007824951172_);" width="74.5" height="62.5"/>
</g>
</svg>
