<?xml version="1.0" encoding="UTF-8"?>
<svg id="Layer_2" data-name="Layer 2" xmlns="http://www.w3.org/2000/svg" xmlns:xlink="http://www.w3.org/1999/xlink" viewBox="0 0 506.67 127.96">
  <defs>
    <style>
      .cls-1 {
        fill: #fff;
      }

      .cls-2 {
        fill: #8cc8dd;
      }

      .cls-3 {
        fill: #0986bf;
      }

      .cls-4 {
        fill: #296d7f;
      }

      .cls-5 {
        fill: url(#linear-gradient);
        stroke: #fff;
        stroke-miterlimit: 10;
        stroke-width: 1.5px;
      }
    </style>
    <linearGradient id="linear-gradient" x1="89.67" y1="28.92" x2="89.67" y2="107.92" gradientUnits="userSpaceOnUse">
      <stop offset="0" stop-color="#8cc8dd"/>
      <stop offset="1" stop-color="#0986bf"/>
    </linearGradient>
  </defs>
  <g id="Layer_1-2" data-name="Layer 1">
    <g>
      <g>
        <path class="cls-1" d="m139.88,8.92v4.09h4.46v1.32h-4.46v4.21h4.98v1.32h-6.58V7.6h6.58v1.32h-4.98Z"/>
        <path class="cls-1" d="m156.91,19.85h-1.6l-6.42-9.74v9.74h-1.6V7.6h1.6l6.42,9.72V7.6h1.6v12.25Z"/>
        <path class="cls-1" d="m159.84,10.51c.54-.95,1.27-1.7,2.2-2.24s1.96-.81,3.1-.81c1.33,0,2.5.32,3.49.97.99.64,1.72,1.56,2.18,2.74h-1.91c-.34-.74-.83-1.3-1.47-1.7s-1.4-.6-2.29-.6-1.62.2-2.3.6-1.21.96-1.6,1.69c-.39.73-.58,1.59-.58,2.57s.19,1.82.58,2.55c.39.73.92,1.3,1.6,1.69s1.45.6,2.3.6,1.65-.2,2.29-.59,1.13-.96,1.47-1.69h1.91c-.46,1.17-1.18,2.07-2.18,2.71s-2.16.96-3.49.96c-1.14,0-2.17-.27-3.1-.8s-1.66-1.27-2.2-2.22c-.54-.95-.81-2.02-.81-3.21s.27-2.27.81-3.22Z"/>
        <path class="cls-1" d="m175.62,19.18c-.94-.53-1.68-1.28-2.22-2.23-.54-.95-.82-2.03-.82-3.22s.27-2.27.82-3.22c.54-.95,1.28-1.7,2.22-2.23.94-.53,1.97-.8,3.11-.8s2.19.27,3.12.8c.94.53,1.67,1.27,2.21,2.22.54.95.81,2.02.81,3.23s-.27,2.28-.81,3.23c-.54.95-1.28,1.69-2.21,2.22-.94.53-1.98.8-3.12.8s-2.17-.27-3.11-.8Zm5.41-1.18c.68-.4,1.22-.97,1.62-1.7s.59-1.59.59-2.56-.2-1.84-.59-2.57c-.39-.73-.93-1.3-1.61-1.69s-1.45-.6-2.32-.6-1.64.2-2.32.6-1.21.96-1.61,1.69c-.39.73-.59,1.59-.59,2.57s.2,1.83.59,2.56c.39.74.93,1.31,1.61,1.7.68.4,1.45.6,2.31.6s1.62-.2,2.31-.6Z"/>
        <path class="cls-1" d="m196.59,19.85h-1.6l-6.42-9.74v9.74h-1.6V7.6h1.6l6.42,9.72V7.6h1.6v12.25Z"/>
        <path class="cls-1" d="m206.84,7.62v1.3h-3.34v10.94h-1.6v-10.94h-3.35v-1.3h8.28Z"/>
        <path class="cls-1" d="m215.25,19.85l-2.91-5h-1.93v5h-1.6V7.62h3.95c.92,0,1.71.16,2.34.47.64.32,1.11.74,1.43,1.28.32.54.47,1.15.47,1.84,0,.84-.24,1.59-.73,2.23-.49.64-1.21,1.07-2.19,1.28l3.07,5.13h-1.91Zm-4.84-6.28h2.35c.87,0,1.52-.21,1.95-.64s.65-1,.65-1.71-.21-1.29-.64-1.68-1.08-.6-1.96-.6h-2.35v4.63Z"/>
        <path class="cls-1" d="m221.92,19.18c-.94-.53-1.68-1.28-2.22-2.23-.54-.95-.82-2.03-.82-3.22s.27-2.27.82-3.22c.54-.95,1.28-1.7,2.22-2.23.94-.53,1.97-.8,3.11-.8s2.19.27,3.12.8c.94.53,1.67,1.27,2.21,2.22.54.95.81,2.02.81,3.23s-.27,2.28-.81,3.23c-.54.95-1.28,1.69-2.21,2.22-.94.53-1.98.8-3.12.8s-2.17-.27-3.11-.8Zm5.41-1.18c.68-.4,1.22-.97,1.62-1.7s.59-1.59.59-2.56-.2-1.84-.59-2.57c-.39-.73-.93-1.3-1.61-1.69s-1.45-.6-2.32-.6-1.64.2-2.32.6-1.21.96-1.61,1.69c-.39.73-.59,1.59-.59,2.57s.2,1.83.59,2.56c.39.74.93,1.31,1.61,1.7.68.4,1.45.6,2.31.6s1.62-.2,2.31-.6Z"/>
        <path class="cls-1" d="m245.2,17.13h-5.34l-.98,2.72h-1.68l4.42-12.16h1.84l4.41,12.16h-1.69l-.98-2.72Zm-.46-1.3l-2.21-6.18-2.21,6.18h4.42Z"/>
        <path class="cls-1" d="m259.41,19.85h-1.6l-6.42-9.74v9.74h-1.6V7.6h1.6l6.42,9.72V7.6h1.6v12.25Z"/>
        <path class="cls-1" d="m263.7,7.62v7.74c0,1.09.27,1.9.8,2.42.53.53,1.27.79,2.22.79s1.67-.26,2.2-.79c.53-.53.8-1.33.8-2.42v-7.74h1.6v7.72c0,1.02-.2,1.88-.61,2.57-.41.7-.96,1.21-1.66,1.55-.7.34-1.48.51-2.34.51s-1.65-.17-2.34-.51c-.7-.34-1.25-.86-1.65-1.55-.4-.7-.61-1.55-.61-2.57v-7.72h1.6Z"/>
        <path class="cls-1" d="m281.21,17.13h-5.34l-.98,2.72h-1.68l4.42-12.16h1.84l4.41,12.16h-1.69l-.98-2.72Zm-.46-1.3l-2.21-6.18-2.21,6.18h4.42Z"/>
        <path class="cls-1" d="m287.41,18.56h4.28v1.3h-5.88V7.62h1.6v10.94Z"/>
      </g>
      <g>
        <path class="cls-1" d="m158.83,49.88c-.8,1.44-2.02,2.59-3.67,3.48-1.65.88-3.7,1.32-6.14,1.32h-4.52v10.75h-7.29v-29.94h11.82c2.39,0,4.41.41,6.06,1.24,1.65.82,2.89,1.96,3.71,3.41.82,1.45,1.24,3.11,1.24,4.99,0,1.73-.4,3.32-1.19,4.76Zm-7.25-1.98c.68-.65,1.02-1.58,1.02-2.77s-.34-2.12-1.02-2.77c-.68-.65-1.72-.98-3.11-.98h-3.97v7.51h3.97c1.39,0,2.43-.33,3.11-.98Z"/>
        <path class="cls-1" d="m163.75,47.04c.92-1.85,2.18-3.27,3.77-4.27,1.59-.99,3.37-1.49,5.33-1.49,1.68,0,3.15.34,4.41,1.02,1.26.68,2.24,1.58,2.92,2.69v-3.37h7.29v23.8h-7.29v-3.37c-.71,1.11-1.7,2-2.96,2.69-1.27.68-2.74,1.02-4.41,1.02-1.93,0-3.7-.5-5.29-1.51-1.59-1.01-2.85-2.45-3.77-4.31s-1.39-4.02-1.39-6.46.46-4.59,1.39-6.44Zm14.93,2.17c-1.01-1.05-2.24-1.58-3.69-1.58s-2.68.52-3.69,1.56c-1.01,1.04-1.51,2.47-1.51,4.29s.5,3.26,1.51,4.33c1.01,1.07,2.24,1.6,3.69,1.6s2.68-.53,3.69-1.58c1.01-1.05,1.51-2.49,1.51-4.31s-.51-3.26-1.51-4.31Z"/>
        <path class="cls-1" d="m200.07,33.86v31.56h-7.29v-31.56h7.29Z"/>
        <path class="cls-1" d="m242.79,44.06c1.75,1.79,2.62,4.28,2.62,7.46v13.91h-7.25v-12.92c0-1.54-.41-2.72-1.22-3.56s-1.93-1.26-3.35-1.26-2.54.42-3.35,1.26-1.22,2.03-1.22,3.56v12.92h-7.25v-12.92c0-1.54-.41-2.72-1.22-3.56s-1.93-1.26-3.35-1.26-2.54.42-3.35,1.26-1.22,2.03-1.22,3.56v12.92h-7.29v-23.8h7.29v2.99c.74-.99,1.71-1.78,2.9-2.37,1.19-.58,2.54-.87,4.05-.87,1.79,0,3.39.38,4.8,1.15,1.41.77,2.51,1.86,3.31,3.28.82-1.31,1.95-2.37,3.37-3.2,1.42-.82,2.97-1.24,4.65-1.24,2.96,0,5.31.9,7.06,2.69Z"/>
        <path class="cls-1" d="m251.07,38.02c-.81-.75-1.22-1.68-1.22-2.79s.4-2.08,1.22-2.84c.81-.75,1.86-1.13,3.14-1.13s2.28.38,3.09,1.13,1.22,1.7,1.22,2.84-.41,2.04-1.22,2.79c-.81.75-1.84,1.13-3.09,1.13s-2.32-.38-3.14-1.13Zm6.76,3.6v23.8h-7.29v-23.8h7.29Z"/>
        <path class="cls-1" d="m270.41,33.86v31.56h-7.29v-31.56h7.29Z"/>
        <path class="cls-1" d="m296.9,44.08c1.65,1.81,2.47,4.29,2.47,7.44v13.91h-7.25v-12.92c0-1.59-.41-2.83-1.24-3.71-.82-.88-1.93-1.32-3.33-1.32s-2.5.44-3.33,1.32c-.82.88-1.24,2.12-1.24,3.71v12.92h-7.29v-31.56h7.29v10.96c.74-1.05,1.75-1.89,3.03-2.52s2.72-.94,4.31-.94c2.73,0,4.92.9,6.57,2.71Z"/>
        <path class="cls-1" d="m304.38,47.04c.92-1.85,2.18-3.27,3.78-4.27,1.59-.99,3.37-1.49,5.33-1.49,1.68,0,3.15.34,4.41,1.02,1.27.68,2.24,1.58,2.92,2.69v-3.37h7.29v23.8h-7.29v-3.37c-.71,1.11-1.7,2-2.96,2.69-1.27.68-2.74,1.02-4.41,1.02-1.93,0-3.7-.5-5.29-1.51-1.59-1.01-2.85-2.45-3.78-4.31s-1.39-4.02-1.39-6.46.46-4.59,1.39-6.44Zm14.93,2.17c-1.01-1.05-2.24-1.58-3.69-1.58s-2.68.52-3.69,1.56c-1.01,1.04-1.51,2.47-1.51,4.29s.5,3.26,1.51,4.33c1.01,1.07,2.24,1.6,3.69,1.6s2.68-.53,3.69-1.58c1.01-1.05,1.51-2.49,1.51-4.31s-.51-3.26-1.51-4.31Z"/>
        <path class="cls-1" d="m337.55,64.7c-1.62-.71-2.9-1.68-3.84-2.92-.94-1.24-1.46-2.62-1.58-4.16h7.21c.09.82.47,1.49,1.15,2,.68.51,1.52.77,2.52.77.91,0,1.61-.18,2.11-.53.5-.36.75-.82.75-1.39,0-.68-.36-1.19-1.07-1.51-.71-.33-1.86-.69-3.46-1.09-1.71-.4-3.13-.82-4.27-1.26-1.14-.44-2.12-1.14-2.94-2.09-.82-.95-1.24-2.24-1.24-3.86,0-1.37.38-2.61,1.13-3.73.75-1.12,1.86-2.01,3.33-2.67,1.46-.65,3.21-.98,5.22-.98,2.99,0,5.34.74,7.06,2.22,1.72,1.48,2.71,3.44,2.96,5.89h-6.74c-.11-.82-.48-1.48-1.09-1.96-.61-.48-1.41-.73-2.41-.73-.85,0-1.51.16-1.96.49s-.68.77-.68,1.34c0,.68.36,1.19,1.09,1.54.73.34,1.86.68,3.39,1.02,1.76.46,3.2.9,4.31,1.34,1.11.44,2.08,1.15,2.92,2.13.84.98,1.27,2.3,1.3,3.94,0,1.39-.39,2.64-1.17,3.73-.78,1.09-1.9,1.95-3.37,2.58-1.46.62-3.16.94-5.1.94-2.08,0-3.92-.36-5.54-1.07Z"/>
        <path class="cls-1" d="m389.16,65.43l-2.77-2.69c-2.76,2.11-6.06,3.16-9.9,3.16-2.3,0-4.31-.38-6.01-1.13s-3.02-1.82-3.94-3.2c-.92-1.38-1.39-2.99-1.39-4.84s.5-3.58,1.51-5.1c1.01-1.52,2.52-2.77,4.54-3.73-.74-.91-1.27-1.78-1.58-2.62-.31-.84-.47-1.76-.47-2.75,0-1.42.37-2.72,1.11-3.88.74-1.17,1.81-2.08,3.22-2.75,1.41-.67,3.08-1,5.01-1s3.63.36,4.99,1.07c1.37.71,2.39,1.66,3.07,2.86.68,1.19.99,2.5.94,3.92h-6.87c.03-.77-.16-1.36-.58-1.77-.41-.41-.96-.62-1.64-.62s-1.25.2-1.71.6c-.46.4-.68.91-.68,1.54s.19,1.22.58,1.88c.38.65.99,1.41,1.81,2.26l7.29,7.12c.06-.14.13-.31.23-.51.1-.2.21-.43.32-.68l1.58-2.69h7.29l-2.05,3.71c-.77,1.68-1.65,3.27-2.64,4.78l7.21,7.08h-8.49Zm-7.25-7.04l-6.65-6.44c-2.05,1.05-3.07,2.47-3.07,4.27,0,1.08.42,1.98,1.26,2.71s1.97,1.09,3.39,1.09c1.9,0,3.6-.54,5.08-1.62Z"/>
        <path class="cls-1" d="m137.88,93.68c1.28-2.32,3.06-4.12,5.35-5.42,2.29-1.29,4.88-1.94,7.78-1.94,3.55,0,6.6.94,9.13,2.81,2.53,1.88,4.22,4.44,5.08,7.68h-8.02c-.6-1.25-1.44-2.2-2.54-2.86-1.09-.65-2.34-.98-3.73-.98-2.25,0-4.07.78-5.46,2.35-1.39,1.56-2.09,3.65-2.09,6.27s.7,4.71,2.09,6.27c1.39,1.56,3.21,2.35,5.46,2.35,1.39,0,2.64-.33,3.73-.98,1.09-.65,1.94-1.61,2.54-2.86h8.02c-.85,3.24-2.55,5.79-5.08,7.66-2.53,1.86-5.57,2.79-9.13,2.79-2.9,0-5.5-.65-7.78-1.94-2.29-1.29-4.07-3.09-5.35-5.4-1.28-2.3-1.92-4.93-1.92-7.89s.64-5.59,1.92-7.91Z"/>
        <path class="cls-1" d="m170.24,89.21c-.81-.75-1.22-1.68-1.22-2.79s.4-2.08,1.22-2.84c.81-.75,1.86-1.13,3.14-1.13s2.28.38,3.09,1.13,1.22,1.7,1.22,2.84-.41,2.04-1.22,2.79c-.81.75-1.84,1.13-3.09,1.13s-2.32-.38-3.14-1.13Zm6.76,3.61v23.8h-7.29v-23.8h7.29Z"/>
        <path class="cls-1" d="m204.59,106.46h-16.51c.11,1.48.59,2.61,1.43,3.39.84.78,1.87,1.17,3.09,1.17,1.82,0,3.08-.77,3.8-2.3h7.76c-.4,1.56-1.12,2.97-2.15,4.22-1.04,1.25-2.34,2.23-3.9,2.94-1.56.71-3.31,1.07-5.25,1.07-2.33,0-4.41-.5-6.23-1.49-1.82-.99-3.24-2.42-4.27-4.27-1.02-1.85-1.54-4.01-1.54-6.48s.5-4.63,1.51-6.48c1.01-1.85,2.42-3.27,4.24-4.27,1.82-1,3.91-1.49,6.27-1.49s4.35.48,6.14,1.45c1.79.97,3.19,2.35,4.2,4.14,1.01,1.79,1.51,3.88,1.51,6.27,0,.68-.04,1.39-.13,2.13Zm-11.82-18.94l-6.61,3.5v-5.03l6.61-3.37,6.61,3.37v5.03l-6.61-3.5Zm4.48,14.89c0-1.25-.43-2.25-1.28-2.99-.85-.74-1.92-1.11-3.2-1.11s-2.25.36-3.09,1.07c-.84.71-1.36,1.72-1.56,3.03h9.13Z"/>
        <path class="cls-1" d="m229.74,95.26c1.66,1.81,2.5,4.29,2.5,7.44v13.9h-7.25v-12.92c0-1.59-.41-2.83-1.24-3.71-.83-.88-1.93-1.32-3.33-1.32s-2.5.44-3.33,1.32-1.24,2.12-1.24,3.71v12.92h-7.29v-23.8h7.29v3.16c.74-1.05,1.73-1.88,2.99-2.49,1.25-.61,2.66-.92,4.22-.92,2.79,0,5.01.9,6.68,2.71Z"/>
        <path class="cls-1" d="m237.37,98.23c1.01-1.85,2.42-3.27,4.22-4.27,1.81-1,3.87-1.49,6.21-1.49,2.99,0,5.48.78,7.49,2.35,2,1.56,3.32,3.77,3.95,6.61h-7.76c-.65-1.82-1.92-2.73-3.8-2.73-1.34,0-2.4.52-3.2,1.56-.8,1.04-1.19,2.52-1.19,4.46s.4,3.42,1.19,4.46c.8,1.04,1.86,1.56,3.2,1.56,1.88,0,3.14-.91,3.8-2.73h7.76c-.63,2.79-1.95,4.98-3.97,6.57-2.02,1.59-4.51,2.39-7.46,2.39-2.33,0-4.4-.5-6.21-1.49-1.81-.99-3.21-2.42-4.22-4.27-1.01-1.85-1.51-4.01-1.51-6.48s.5-4.63,1.51-6.48Z"/>
        <path class="cls-1" d="m263.65,89.21c-.81-.75-1.22-1.68-1.22-2.79s.4-2.08,1.22-2.84c.81-.75,1.86-1.13,3.14-1.13s2.28.38,3.09,1.13,1.22,1.7,1.22,2.84-.41,2.04-1.22,2.79c-.81.75-1.84,1.13-3.09,1.13s-2.32-.38-3.14-1.13Zm6.76,3.61v23.8h-7.29v-23.8h7.29Z"/>
        <path class="cls-1" d="m275.63,98.23c.92-1.85,2.18-3.27,3.77-4.27,1.59-1,3.37-1.49,5.33-1.49,1.68,0,3.15.34,4.41,1.02,1.26.68,2.24,1.58,2.92,2.69v-3.37h7.29v23.8h-7.29v-3.37c-.71,1.11-1.7,2-2.96,2.69-1.27.68-2.74,1.02-4.41,1.02-1.93,0-3.7-.5-5.29-1.51-1.59-1.01-2.85-2.45-3.77-4.31s-1.39-4.02-1.39-6.46.46-4.59,1.39-6.44Zm14.93,2.18c-1.01-1.05-2.24-1.58-3.69-1.58s-2.68.52-3.69,1.56c-1.01,1.04-1.51,2.47-1.51,4.29s.5,3.26,1.51,4.33c1.01,1.07,2.24,1.6,3.69,1.6s2.68-.53,3.69-1.58c1.01-1.05,1.51-2.49,1.51-4.31s-.51-3.25-1.51-4.31Z"/>
        <path class="cls-1" d="m332.34,111.32h-11.17l-1.79,5.29h-7.64l10.83-29.94h8.45l10.83,29.94h-7.72l-1.79-5.29Zm-1.88-5.63l-3.71-10.96-3.67,10.96h7.38Z"/>
        <path class="cls-1" d="m355.37,93.49c1.25-.68,2.72-1.02,4.39-1.02,1.96,0,3.74.5,5.33,1.49,1.59.99,2.85,2.42,3.77,4.27.92,1.85,1.39,4,1.39,6.44s-.46,4.6-1.39,6.46-2.18,3.3-3.77,4.31c-1.59,1.01-3.37,1.51-5.33,1.51-1.65,0-3.11-.34-4.37-1.02-1.27-.68-2.25-1.56-2.96-2.64v14.67h-7.29v-35.15h7.29v3.37c.71-1.11,1.69-2,2.94-2.69Zm5.95,6.89c-1.01-1.04-2.25-1.56-3.73-1.56s-2.68.53-3.69,1.58c-1.01,1.05-1.51,2.49-1.51,4.31s.5,3.26,1.51,4.31c1.01,1.05,2.24,1.58,3.69,1.58s2.69-.53,3.71-1.6c1.02-1.07,1.54-2.51,1.54-4.33s-.51-3.25-1.51-4.29Z"/>
        <path class="cls-1" d="m381.39,85.05v31.56h-7.29v-31.56h7.29Z"/>
        <path class="cls-1" d="m387.22,89.21c-.81-.75-1.22-1.68-1.22-2.79s.41-2.08,1.22-2.84c.81-.75,1.86-1.13,3.14-1.13s2.28.38,3.09,1.13,1.22,1.7,1.22,2.84-.4,2.04-1.22,2.79c-.81.75-1.84,1.13-3.09,1.13s-2.32-.38-3.14-1.13Zm6.76,3.61v23.8h-7.29v-23.8h7.29Z"/>
        <path class="cls-1" d="m399.33,98.23c1.01-1.85,2.42-3.27,4.22-4.27,1.81-1,3.87-1.49,6.21-1.49,2.99,0,5.48.78,7.49,2.35,2,1.56,3.32,3.77,3.95,6.61h-7.76c-.65-1.82-1.92-2.73-3.8-2.73-1.34,0-2.4.52-3.2,1.56-.8,1.04-1.19,2.52-1.19,4.46s.4,3.42,1.19,4.46c.8,1.04,1.86,1.56,3.2,1.56,1.88,0,3.14-.91,3.8-2.73h7.76c-.63,2.79-1.95,4.98-3.97,6.57-2.02,1.59-4.51,2.39-7.46,2.39-2.33,0-4.4-.5-6.21-1.49-1.81-.99-3.21-2.42-4.22-4.27-1.01-1.85-1.51-4.01-1.51-6.48s.51-4.63,1.51-6.48Z"/>
        <path class="cls-1" d="m425.01,98.23c.92-1.85,2.18-3.27,3.78-4.27,1.59-1,3.37-1.49,5.33-1.49,1.68,0,3.15.34,4.41,1.02,1.27.68,2.24,1.58,2.92,2.69v-3.37h7.29v23.8h-7.29v-3.37c-.71,1.11-1.7,2-2.96,2.69-1.27.68-2.74,1.02-4.41,1.02-1.93,0-3.7-.5-5.29-1.51-1.59-1.01-2.85-2.45-3.78-4.31-.92-1.86-1.39-4.02-1.39-6.46s.46-4.59,1.39-6.44Zm14.93,2.18c-1.01-1.05-2.24-1.58-3.69-1.58s-2.68.52-3.69,1.56c-1.01,1.04-1.51,2.47-1.51,4.29s.51,3.26,1.51,4.33c1.01,1.07,2.24,1.6,3.69,1.6s2.68-.53,3.69-1.58c1.01-1.05,1.51-2.49,1.51-4.31s-.51-3.25-1.51-4.31Z"/>
        <path class="cls-1" d="m453.97,98.23c.92-1.85,2.18-3.27,3.78-4.27,1.59-1,3.37-1.49,5.33-1.49,1.56,0,2.99.33,4.29.98,1.29.65,2.31,1.54,3.05,2.64v-11.05h7.29v31.56h-7.29v-3.41c-.68,1.14-1.66,2.05-2.92,2.73-1.27.68-2.74,1.02-4.41,1.02-1.96,0-3.74-.5-5.33-1.51-1.59-1.01-2.85-2.45-3.78-4.31-.92-1.86-1.39-4.02-1.39-6.46s.46-4.59,1.39-6.44Zm14.93,2.18c-1.01-1.05-2.24-1.58-3.69-1.58s-2.68.52-3.69,1.56c-1.01,1.04-1.51,2.47-1.51,4.29s.51,3.26,1.51,4.33c1.01,1.07,2.24,1.6,3.69,1.6s2.68-.53,3.69-1.58c1.01-1.05,1.51-2.49,1.51-4.31s-.51-3.25-1.51-4.31Z"/>
        <path class="cls-1" d="m482.93,98.23c.92-1.85,2.18-3.27,3.78-4.27,1.59-1,3.37-1.49,5.33-1.49,1.68,0,3.15.34,4.41,1.02,1.27.68,2.24,1.58,2.92,2.69v-3.37h7.29v23.8h-7.29v-3.37c-.71,1.11-1.7,2-2.96,2.69-1.27.68-2.74,1.02-4.41,1.02-1.93,0-3.7-.5-5.29-1.51-1.59-1.01-2.85-2.45-3.78-4.31-.92-1.86-1.39-4.02-1.39-6.46s.46-4.59,1.39-6.44Zm14.93,2.18c-1.01-1.05-2.24-1.58-3.69-1.58s-2.68.52-3.69,1.56c-1.01,1.04-1.51,2.47-1.51,4.29s.51,3.26,1.51,4.33c1.01,1.07,2.24,1.6,3.69,1.6s2.68-.53,3.69-1.58c1.01-1.05,1.51-2.49,1.51-4.31s-.51-3.25-1.51-4.31Z"/>
      </g>
    </g>
    <g>
      <g>
        <g id="frente">
          <path class="cls-2" d="m92.25,115.73c-.3.91-1.51,4.84-4.62,7.04-1.06.76-3.93,3.63-13.77.91-9.08-2.5-11.43-6.51-19.22-9.23-7.34-2.57-7.95-.91-16.72-3.03-5.45-1.29-18.54-4.54-28.45-15.13-3.63-3.86-10.44-12.18-8.47-18.54,1.44-4.69,6.36-6.96,7.04-7.26,10.74-4.77,28.15,4.24,35.19,12.49,1.14,1.36,5.07,6.36,11.8,9.61,1.21.61,8.47,2.8,17.33,4.31,17.18,3.03,22.17,11.65,19.9,18.84h0Z"/>
          <path class="cls-1" d="m81.12,125.42c-1.89,0-4.39-.3-7.49-1.21-5.07-1.44-8.1-3.33-11.05-5.15-2.42-1.51-4.77-2.95-8.17-4.16-3.93-1.36-5.83-1.51-8.25-1.74-2.04-.15-4.39-.3-8.4-1.29-5.07-1.21-18.54-4.46-28.75-15.36-4.09-4.24-10.67-12.49-8.63-18.99,1.44-4.69,5.98-7.04,7.42-7.64,11.2-4.99,28.75,4.16,35.87,12.71l.23.23c1.44,1.66,5.15,6.2,11.35,9.23.98.45,8.02,2.65,17.18,4.31,12.11,2.12,17.18,6.73,19.3,10.22,1.44,2.35,1.97,4.84,1.59,7.42l.23-.23-.68,2.27c-.98,3.33-2.72,5.83-4.84,7.34-.08.08-.15.08-.23.15-.98.61-2.72,1.89-6.66,1.89h0ZM14.84,69.65c-2.35,0-4.62.38-6.58,1.29-1.21.53-5.45,2.72-6.73,6.89-1.82,5.9,4.39,13.77,8.32,17.93,9.99,10.67,23.15,13.77,28.15,14.98,3.93.91,6.2,1.14,8.25,1.29,2.42.15,4.46.3,8.55,1.74,3.56,1.29,6.05,2.8,8.4,4.24,3.03,1.82,5.83,3.63,10.74,4.99,8.85,2.5,11.73.3,13.02-.61.08-.08.23-.15.3-.23,1.74-1.21,3.18-3.33,4.16-5.98l.23-.68c.91-2.88.53-5.83-1.06-8.47-1.97-3.25-6.81-7.64-18.46-9.69-9.16-1.59-16.27-3.86-17.48-4.39-6.43-3.18-10.44-7.95-11.8-9.53l-.23-.23c-5.37-6.36-17.71-13.54-27.77-13.54h0Z"/>
        </g>
        <g id="frente-2">
          <path class="cls-4" d="m88.92,119.37c-.83.68-4.24,3.86-8.47,4.24-1.44.08-5.9,1.36-14-6.96-7.42-7.64-7.49-12.86-13.47-19.98-5.68-6.66-7.26-5.45-14.6-12.41-4.54-4.39-15.51-14.98-19.22-30.95-1.36-5.83-3.33-17.78,2.27-22.93,4.09-3.78,10.22-3.18,10.97-3.1,13.24,1.44,25.12,20.13,27.24,32.16.38,1.97,1.36,9.08,6.05,16.12.83,1.21,6.66,7.49,14.45,14.07,15.13,12.64,15.13,23.91,8.78,29.74h0Z"/>
          <path class="cls-1" d="m78.7,124.28c-2.35,0-6.51-.91-12.71-7.26-4.16-4.24-6.05-7.79-7.87-11.27-1.51-2.88-2.95-5.6-5.68-8.7-3.03-3.56-4.84-4.77-7.04-6.36-1.89-1.29-4.09-2.8-7.49-6.05-4.24-4.09-15.59-14.91-19.37-31.25-1.51-6.58-3.18-18.31,2.5-23.53,4.31-4.01,10.74-3.33,11.5-3.25,13.47,1.44,25.65,20.66,27.77,32.69l.08.38c.45,2.42,1.51,8.93,5.9,15.51.68,1.06,6.28,7.19,14.3,13.92,10.59,8.93,12.94,16.27,13.02,20.88.08,3.86-1.36,7.26-4.24,9.84l-.98.91v-.08c-2.65,2.12-5.22,3.33-7.79,3.48-.08,0-.23,0-.3.08-.53.08-.98.08-1.59.08h0ZM30.73,27.73c-2.19,0-6.05.38-8.93,3.03-5.22,4.77-3.56,16.04-2.12,22.32,3.71,16.04,14.83,26.64,18.99,30.65,3.33,3.18,5.45,4.62,7.34,5.9,2.27,1.51,4.16,2.88,7.34,6.58,2.72,3.25,4.31,6.13,5.83,8.93,1.82,3.33,3.63,6.81,7.72,10.97,7.26,7.49,11.5,6.96,13.09,6.81.15,0,.3,0,.38-.08,2.65-.23,5.37-1.59,8.1-4.01l.38-.3c2.35-2.27,3.56-5.3,3.48-8.63-.08-4.31-2.35-11.35-12.56-19.98-8.02-6.73-13.7-12.94-14.53-14.23-4.54-6.73-5.68-13.47-6.05-15.97l-.15-.23c-2.04-11.65-13.77-30.27-26.71-31.71-.15,0-.76-.08-1.59-.08h0Zm58.19,91.63l.38.45-.38-.45Z"/>
        </g>
        <g id="frente-3">
          <path class="cls-3" d="m84,123.6c-1.21.23-6.2,1.14-10.37-1.14-1.44-.76-6.28-2.27-8.85-14.76-2.35-11.5.68-16.34-.68-26.56-1.29-9.61-3.56-9.31-6.2-20.2-1.66-6.81-5.52-23.15.53-40.18,2.19-6.2,7.49-18.46,15.74-19.98,6.05-1.06,11.35,3.1,12.11,3.63,11.43,9.16,11.35,33.6,6.2,46.08-.83,2.04-4.16,9.23-3.93,18.54,0,1.66,1.74,10.9,5.07,21.64,6.43,20.81-.23,31.33-9.61,32.92h0Z"/>
          <path class="cls-1" d="m80.14,124.51c-3.18,0-5.45-.76-6.89-1.51-.08-.08-.23-.08-.3-.15-1.89-.91-6.36-3.1-8.85-14.98-1.36-6.43-.98-10.82-.61-15.13.23-3.41.53-6.96-.08-11.5-.68-5.15-1.59-7.34-2.8-10.14-.98-2.35-2.12-4.99-3.33-10.06-1.51-6.28-5.6-23.08.61-40.48,2.5-6.96,7.87-18.84,16.19-20.35,5.98-1.06,11.12,2.65,12.56,3.78,11.65,9.38,11.58,34.35,6.36,46.76l-.15.38c-1.06,2.5-3.93,9.23-3.71,17.93.08,1.66,1.82,11.05,5.07,21.49,4.54,14.53,2.35,22.78-.3,27.09-2.19,3.63-5.6,5.9-9.69,6.58l-.3.08h0c-1.44.15-2.65.23-3.78.23h0Zm3.86-.91l.08.61-.08-.61ZM76.2,1.25c-.61,0-1.29.08-1.97.15-7.64,1.36-12.86,12.86-15.21,19.6-6.05,17.1-2.04,33.6-.53,39.8,1.21,4.92,2.35,7.57,3.33,9.84,1.21,2.8,2.19,5.15,2.88,10.44.61,4.62.3,8.25.08,11.73-.3,4.16-.68,8.55.61,14.76,2.35,11.27,6.58,13.32,8.17,14.15.15.08.3.15.38.23,1.82.98,4.99,1.97,9.99,1.06l.3-.08h0c3.63-.68,6.58-2.72,8.55-5.98,2.5-4.09,4.62-11.96.15-26.03-3.48-11.05-5.07-20.2-5.07-21.79-.15-8.93,2.88-16.04,3.86-18.46l.15-.38c5.07-12.11,5.22-36.32-5.98-45.33-1.21-.91-5.07-3.71-9.69-3.71h0Z"/>
        </g>
      </g>
      <circle class="cls-5" cx="89.67" cy="68.42" r="39.5"/>
      <g>
        <path class="cls-1" d="m110.61,57.27c-2.61,0-3.54,3.02-3.54,5.34,0,2.85,1.34,5.23,3.6,5.23s3.54-2.21,3.54-5.34c0-2.44-1.22-5.23-3.6-5.23Z"/>
        <path class="cls-1" d="m94.93,33.27c-19.41,0-35.14,15.73-35.14,35.14s15.73,35.14,35.14,35.14,35.14-15.73,35.14-35.14-15.73-35.14-35.14-35.14Zm-14.29,54.66c-4.88,0-9-1.28-11.21-2.67l1.8-6.62c1.57.81,5.17,2.32,8.77,2.32,4.59,0,6.91-2.21,6.91-5.05,0-3.72-3.72-5.4-7.61-5.4h-3.6v-6.33h3.43c2.96-.06,6.74-1.16,6.74-4.36,0-2.26-1.86-3.95-5.58-3.95-3.08,0-6.33,1.34-7.9,2.27l-1.8-6.39c2.26-1.45,6.79-2.85,11.67-2.85,8.07,0,12.54,4.24,12.54,9.41,0,4.01-2.26,7.14-6.91,8.77v.12c4.53.81,8.19,4.24,8.19,9.18,0,6.68-5.87,11.56-15.45,11.56Zm29.91-15.8c-5.4,0-9.76-3.66-9.76-9.41s4.12-9.76,9.93-9.76,9.7,4.01,9.7,9.41c0,6.56-4.82,9.76-9.87,9.76Z"/>
      </g>
    </g>
  </g>
</svg>