<?xml version="1.0" encoding="utf-8"?>
<!-- Generator: Adobe Illustrator 27.2.0, SVG Export Plug-In . SVG Version: 6.00 Build 0)  -->
<svg version="1.1" xmlns="http://www.w3.org/2000/svg" xmlns:xlink="http://www.w3.org/1999/xlink" x="0px" y="0px"
	 viewBox="0 0 1071 860" style="enable-background:new 0 0 1071 860;" xml:space="preserve">
<style type="text/css">
	.st0{fill:#DCF2FF;}
	.st1{fill:url(#SVGID_1_);}
	.st2{fill:#1E3050;}
	.st3{fill:#FFB292;}
	.st4{fill:#C30759;}
	.st5{fill:#162546;}
	.st6{fill:url(#SVGID_00000050651532480166105450000011097629300056259200_);}
	.st7{fill:url(#SVGID_00000116209554536895910220000000911154444398284166_);}
	.st8{fill:#0986BF;}
	.st9{fill:url(#SVGID_00000086649944072178613370000010314546868273056385_);}
	.st10{fill:url(#SVGID_00000183244155347300553740000018404745541057307795_);}
	.st11{fill:#28A6D1;}
	.st12{fill:#FFE0B4;}
	.st13{fill:#F8F7F0;}
	.st14{fill:url(#SVGID_00000170995257925742785620000014115896420584626332_);}
	.st15{fill:url(#SVGID_00000183929915172658120090000011198164406840089995_);}
	.st16{fill:#FFCEB0;}
	.st17{fill:url(#SVGID_00000016071308931057693850000003654918814576155070_);}
	.st18{fill:#F07D68;}
	.st19{fill:#FFDFB4;}
	.st20{fill:#D1A084;}
	.st21{fill:url(#SVGID_00000023277640247733648500000000719677497163254450_);}
	.st22{fill:#002F33;}
	.st23{fill:#125D77;}
</style>
<g id="Page">
</g>
<g id="Illustration">
	<g>
		<g id="Background">
			<path class="st0" d="M947.7,496.7c-18.2,336.1-442.8,258.9-442.8,258.9c-122.9-8.2-208.4-32.5-267.3-64.8
				c-3.2-1.7-6.3-3.5-9.3-5.3c-21.1-12.5-38.5-26-52.7-40.2c-4.8-4.8-9.3-9.6-13.4-14.5c-0.4-0.5-0.9-1-1.3-1.6
				c-4.9-5.9-9.3-12-13.3-18.1c-57.4-87.8-22.2-186.2-11.7-207.6c35.3-71.6,135.7-46,149.9-87.4C355.6,112.4,502.5,87.7,600.3,83.4
				C963.5,67.7,947.7,496.7,947.7,496.7z"/>
		</g>
		<g id="City">
			<linearGradient id="SVGID_1_" gradientUnits="userSpaceOnUse" x1="476.4217" y1="252.7988" x2="453.7122" y2="647.944">
				<stop  offset="8.168317e-02" style="stop-color:#C4E1EF"/>
				<stop  offset="1" style="stop-color:#DCF2FF"/>
			</linearGradient>
			<polygon class="st1" points="321.1,677.3 321.1,336.6 367.5,336.6 367.5,502.4 415.2,502.4 415.2,253.7 475.4,253.7 475.4,203.8 
				502.6,203.8 502.6,588.7 545.8,588.7 545.8,302.6 602.5,302.6 602.5,677.3 			"/>
		</g>
		<g id="Vespa">
			<path class="st2" d="M404,688.2c0,1.3-71.7,2.4-166.4,2.7c-3.2-1.7-6.3-3.5-9.3-5.3C327.6,685.7,404,686.8,404,688.2z"/>
			<path class="st3" d="M351.1,570.3h6.7c1.2,0,2.3,0.8,2.7,2l1.4,4.4c0.6,1.8-0.8,3.7-2.7,3.7h-5L351.1,570.3z"/>
			<path class="st4" d="M336,567.1h13.9c1.9,0,3.6,1.2,4.2,2.9l4.8,13c1.1,3-1.1,6.1-4.2,6.1h-4.8L336,567.1z"/>
			
				<rect x="322.5" y="536.6" transform="matrix(0.8005 -0.5993 0.5993 0.8005 -252.1223 320.1832)" class="st5" width="64.8" height="4.4"/>
			
				<linearGradient id="SVGID_00000075147753432448506450000010838047303711412121_" gradientUnits="userSpaceOnUse" x1="254.0096" y1="474.423" x2="404.758" y2="474.423">
				<stop  offset="0" style="stop-color:#FFD26B"/>
				<stop  offset="1" style="stop-color:#FF7170"/>
			</linearGradient>
			
				<rect x="254" y="427.7" style="fill:url(#SVGID_00000075147753432448506450000010838047303711412121_);" width="150.7" height="93.4"/>
			
				<linearGradient id="SVGID_00000001626581781808724840000000144924901717313188_" gradientUnits="userSpaceOnUse" x1="254.0096" y1="474.423" x2="313.9305" y2="474.423">
				<stop  offset="0" style="stop-color:#FFD26B"/>
				<stop  offset="1" style="stop-color:#FF7170"/>
			</linearGradient>
			
				<rect x="254" y="427.7" style="fill:url(#SVGID_00000001626581781808724840000000144924901717313188_);" width="59.9" height="93.4"/>
			<path class="st8" d="M367.5,629l-8.9,0.1l-130.2,1.2l-1.1,0l-65.2,0.6c-0.4-0.5-0.9-1-1.3-1.6c-4.9-5.9-9.3-12-13.3-18.1
				c38.5-2.9,45.9-23.2,45.9-23.2c11.4-27.8-20.8-50.5-20.8-50.5c-12.6-10.1-8.2-16.4-8.2-16.4H295C364.4,577.2,367.5,629,367.5,629
				z"/>
			<polygon class="st5" points="237.5,522.4 414.8,522.4 414.8,516.1 237.6,516.1 			"/>
			<path class="st2" d="M249,496.8v16.9c0,4.8-3.9,8.7-8.7,8.7h-77.1c-4.2,0-7.6-3.4-7.6-7.6v-16.3l83.6-10.2
				C244.4,487.6,249,491.6,249,496.8z"/>
			<circle class="st2" cx="290.3" cy="634.9" r="52.4"/>
			
				<linearGradient id="SVGID_00000079467902899279360180000013124358631829522622_" gradientUnits="userSpaceOnUse" x1="1300.2008" y1="635.4283" x2="1232.0853" y2="634.1899" gradientTransform="matrix(-1 0 0 1 1555.2296 0)">
				<stop  offset="0" style="stop-color:#B7B7BD"/>
				<stop  offset="1" style="stop-color:#FFFFFF"/>
			</linearGradient>
			<circle style="fill:url(#SVGID_00000079467902899279360180000013124358631829522622_);" cx="290.1" cy="634.8" r="39.1"/>
			
				<linearGradient id="SVGID_00000124123353692737069040000014573688936797155981_" gradientUnits="userSpaceOnUse" x1="1241.1415" y1="634.7903" x2="1289.0782" y2="634.7903" gradientTransform="matrix(-1 0 0 1 1555.2296 0)">
				<stop  offset="0" style="stop-color:#9999A8"/>
				<stop  offset="1" style="stop-color:#535370"/>
			</linearGradient>
			<circle style="fill:url(#SVGID_00000124123353692737069040000014573688936797155981_);" cx="290.1" cy="634.8" r="24"/>
			<path class="st2" d="M227.5,629.6c-0.1,0.2-0.1,0.4-0.2,0.6c-3.5,12.1-19.4,15.1-19.4,15.1h-32.4c-4.8-4.8-9.3-9.6-13.4-14.5
				c-0.4-0.5-0.9-1-1.3-1.6C194.9,629.2,227.6,629.2,227.5,629.6z"/>
			<polygon class="st2" points="286.2,637.2 254,637.2 239.5,627.7 239.5,636.5 254,646 286.2,646 			"/>
			<path class="st11" d="M228.4,630.2l130.2-1.2c-2.9-14.7-16.6-62.8-75-84.6c0,0-56.1-18.9-73.2,20.2
				C210.5,564.6,195.7,599.4,228.4,630.2z"/>
			<path class="st2" d="M322.8,641.7v2.9c0,3.9-3.2,7-7,7h-26.9c-3.9,0-7-3.2-7-7v-2.9c0-7.7,6.3-14,14-14h13
				C316.5,627.7,322.8,634,322.8,641.7z"/>
			<path class="st2" d="M242.7,626.2v10.5c0,2.3-1.9,4.2-4.2,4.2h-4.8c-2.3,0-4.2-1.9-4.2-4.2v-10.5c0-2.3,1.9-4.2,4.2-4.2h4.8
				C240.8,622,242.7,623.9,242.7,626.2z"/>
			<polygon class="st12" points="276.1,427.7 276.1,461.8 284.3,453 292.5,461.8 292.5,427.7 			"/>
			<rect x="332.9" y="442.9" class="st13" width="29.6" height="5"/>
			<rect x="339.5" y="452.3" class="st13" width="23" height="5"/>
			
				<linearGradient id="SVGID_00000132057109375070394370000004241757137569064619_" gradientUnits="userSpaceOnUse" x1="278.5437" y1="601.4242" x2="278.1703" y2="607.9214">
				<stop  offset="8.168317e-02" style="stop-color:#C4E1EF"/>
				<stop  offset="1" style="stop-color:#DCF2FF"/>
			</linearGradient>
			
				<rect x="249.4" y="602.2" style="fill:url(#SVGID_00000132057109375070394370000004241757137569064619_);" width="57.9" height="4.6"/>
			
				<linearGradient id="SVGID_00000092454671601197372750000009649471373687694778_" gradientUnits="userSpaceOnUse" x1="278.5437" y1="592.3404" x2="278.1703" y2="598.8376">
				<stop  offset="8.168317e-02" style="stop-color:#C4E1EF"/>
				<stop  offset="1" style="stop-color:#DCF2FF"/>
			</linearGradient>
			
				<rect x="249.4" y="593.2" style="fill:url(#SVGID_00000092454671601197372750000009649471373687694778_);" width="57.9" height="4.6"/>
		</g>
		<g id="Location_Icon">
			<g>
				<g>
					<g>
						<path class="st8" d="M596.9,156.1c-16.9,0-30.7,13.7-30.7,30.7c0,4.8,1.1,9.4,3.1,13.4l27.6,63.8l27.6-63.8
							c2-4.1,3.1-8.6,3.1-13.4C627.5,169.8,613.8,156.1,596.9,156.1z M596.9,199.2c-6.9,0-12.5-5.6-12.5-12.5
							c0-6.9,5.6-12.5,12.5-12.5c6.9,0,12.5,5.6,12.5,12.5C609.4,193.6,603.8,199.2,596.9,199.2z"/>
					</g>
				</g>
			</g>
		</g>
		<g id="Courier">
			<path class="st16" d="M804.7,393.4l-76.1,29.5l-7.3-47l-3.9-25l-0.1-0.7c0,0-48.8,29.5-37.5-84c11.4-113.5,109-40.9,118.1-19.3
				c9.1,21.6-0.9,56.7-15.9,65.9L804.7,393.4z"/>
			<path class="st8" d="M800.9,380c0,0-36.8,38.6-77.6,17.8l-95.2,93.9L619,746h275.9l-18.2-346.3L800.9,380z"/>
			
				<linearGradient id="SVGID_00000095300664595106397000000008563546041586245506_" gradientUnits="userSpaceOnUse" x1="455.4975" y1="638.6691" x2="788.7593" y2="638.6691">
				<stop  offset="0" style="stop-color:#FFD26B"/>
				<stop  offset="1" style="stop-color:#FF7170"/>
			</linearGradient>
			
				<rect x="455.5" y="518.9" style="fill:url(#SVGID_00000095300664595106397000000008563546041586245506_);" width="333.3" height="239.6"/>
			<rect x="688.8" y="518.9" class="st18" width="116.4" height="239.6"/>
			<polygon class="st12" points="603.1,518.9 603.1,638.1 584.4,619.9 565.6,638.1 565.6,518.9 			"/>
			<rect x="729.7" y="550.1" class="st19" width="43.1" height="28.4"/>
			<path class="st16" d="M941.9,670.8L827.4,746c-17,8.5-26.1,18.7-26.1,18.7C727.4,795.4,724,759,724,759
				C746.7,752.2,757,746,757,746c-22.7-0.6-22.7-15.3-22.7-15.3l45.4-4.5l99.9-96.5l-17.5-69.9l-4.1-16.4l79.5-20.4l5.2,35.2
				l12.4,83.2C956.8,652.8,951.7,664.4,941.9,670.8z"/>
			<polygon class="st20" points="942.7,558 862.1,559.7 858,543.3 937.5,522.9 			"/>
			
				<linearGradient id="SVGID_00000131344127065590558890000009913489596164745902_" gradientUnits="userSpaceOnUse" x1="500.7937" y1="443.3795" x2="700.4404" y2="450.5957">
				<stop  offset="0" style="stop-color:#FFD26B"/>
				<stop  offset="1" style="stop-color:#FF7170"/>
			</linearGradient>
			
				<rect x="490.9" y="373.8" style="fill:url(#SVGID_00000131344127065590558890000009913489596164745902_);" width="197.9" height="145.7"/>
			<path class="st11" d="M855.2,559.8l92-28.4c0,0-33.5-136.8-86.3-137.1C860.9,394.3,796.7,400.2,855.2,559.8z"/>
			<rect x="632.8" y="373.8" class="st18" width="70.8" height="145.7"/>
			<polygon class="st12" points="580.7,373.8 580.7,446.3 569,433.8 557.9,446.3 557.9,373.8 			"/>
			<path class="st22" d="M774.6,200.9c0,0-106.7-53.4-99.9,42c0,0,4.6,27.7,74.9,6.7c-13,6.6-35.5,15.8-55.1,12.1
				c0,0,31.2,12.9,68.5-12.6c-0.1,6.7,0.6,20.7,8.1,29.1c0,0,11.9-26.7,26.1-7.9c6.8,9-0.9,27-15.3,42.6c0,0,10.9-6.6,14.8-11.3
				C824,268.5,821.1,206.6,774.6,200.9z"/>
			<path class="st23" d="M742.2,416.1l-7.9,26.1c0,0-34.1-25-12.5-51.1c0,0,9.1,11.4,20.4,11.4c0,0,25-2.3,59-35.2
				c0,0,11.4,12.5,7.9,30.7c0,0-14.8,28.4-52.2,44.3L742.2,416.1z"/>
			<path class="st20" d="M759.8,317.1c-5.4,30-26.1,49.5-38.6,58.8l-3.9-25C745.1,339.2,759.8,317.1,759.8,317.1z"/>
		</g>
	</g>
</g>
</svg>
