<?xml version="1.0" encoding="utf-8"?>
<!-- Generator: Adobe Illustrator 27.2.0, SVG Export Plug-In . SVG Version: 6.00 Build 0)  -->
<svg version="1.1" id="Layer_1" xmlns="http://www.w3.org/2000/svg" xmlns:xlink="http://www.w3.org/1999/xlink" x="0px" y="0px"
	 viewBox="0 0 24 24" style="enable-background:new 0 0 24 24;fill:#FFFFFF" xml:space="preserve">
<path d="M18.6,0.7c-0.2,0-0.4,0.3-0.2,0.5l1.4,1.4l-7.7,7.7c-0.1,0.1-0.1,0.3,0,0.4l1.2,1.2c0.1,0.1,0.3,0.1,0.4,0l7.7-7.7l1.4,1.4
	c0.2,0.2,0.5,0.1,0.5-0.2L24,0.2C24,0.1,23.9,0,23.8,0L18.6,0.7z M1.5,2.3c-0.4,0-0.8,0.1-1.1,0.4S0,3.4,0,3.8v18.8
	c0,0.4,0.1,0.8,0.4,1.1C0.7,23.9,1.1,24,1.5,24h18.8c0.4,0,0.8-0.1,1.1-0.4c0.3-0.3,0.4-0.7,0.4-1.1v-11c0-0.2-0.1-0.3-0.3-0.3h-1.7
	c-0.2,0-0.3,0.1-0.3,0.3v9.9c0,0.2-0.1,0.3-0.3,0.3H2.6c-0.2,0-0.3-0.1-0.3-0.3V4.8c0-0.2,0.1-0.3,0.3-0.3h10.7
	c0.2,0,0.3-0.1,0.3-0.3V2.6c0-0.2-0.1-0.3-0.3-0.3L1.5,2.3L1.5,2.3z"/>
</svg>
