<?xml version="1.0" encoding="UTF-8"?>
<svg id="Layer_2" data-name="Layer 2" xmlns="http://www.w3.org/2000/svg" viewBox="0 0 100 100">
  <defs>
    <style>
      .cls-1 {
        fill: #fff;
      }
    </style>
  </defs>
  <g id="home_button" data-name="home button">
    <path class="cls-1" d="m51.6.61l47.73,43.61c1.43,1.3.42,3.53-1.6,3.53H2.27c-2.02,0-3.03-2.23-1.6-3.53L48.4.61c.89-.81,2.32-.81,3.21,0Z"/>
    <path class="cls-1" d="m82.85,36.28H17.15c-1.11,0-2.02.82-2.02,1.84v60.03c0,1.02.9,1.84,2.02,1.84h19.13v-27.7c0-2.29,2.04-4.15,4.55-4.15h18.34c2.51,0,4.55,1.86,4.55,4.15v27.7h19.13c1.11,0,2.02-.82,2.02-1.84v-60.03c0-1.02-.9-1.84-2.02-1.84Z"/>
  </g>
</svg>