<?xml version="1.0" encoding="utf-8"?>
<!-- Generator: Adobe Illustrator 27.2.0, SVG Export Plug-In . SVG Version: 6.00 Build 0)  -->
<svg version="1.1" id="Layer_1" xmlns="http://www.w3.org/2000/svg" xmlns:xlink="http://www.w3.org/1999/xlink" x="0px" y="0px"
	 viewBox="0 0 1093.4 904.7" style="enable-background:new 0 0 1093.4 904.7;" xml:space="preserve">
<style type="text/css">
	.st0{opacity:0.1;fill:url(#SVGID_1_);}
	.st1{fill:#ED5B66;}
	.st2{opacity:0.5;fill:#7076A0;enable-background:new    ;}
	.st3{fill:#FED4D5;}
	.st4{opacity:0.39;fill:#231F20;enable-background:new    ;}
	.st5{opacity:0.5;fill:#7076A0;}
	.st6{fill:#2F3655;}
	.st7{fill:#51ACEF;}
	.st8{fill:#FFFFFF;}
	.st9{fill:#A6DFEF;}
	.st10{fill:#B0D0FF;}
	.st11{fill:#CAEBF9;}
	.st12{fill:#BCE8F7;}
	.st13{opacity:0.6;fill:#231F20;enable-background:new    ;}
	.st14{opacity:0.42;fill:#A6DFEF;enable-background:new    ;}
</style>
<g>
	<g id="Layer_2_00000156575468514475218230000016008439598937622158_">
		<g id="Layer_1-2">
			<g>
				
					<linearGradient id="SVGID_1_" gradientUnits="userSpaceOnUse" x1="-8.683485e-03" y1="451.6583" x2="1093.358" y2="451.6583" gradientTransform="matrix(1 0 0 -1 0 904)">
					<stop  offset="0" style="stop-color:#FFFFFF"/>
					<stop  offset="1" style="stop-color:#DBEAFF"/>
				</linearGradient>
				<path class="st0" d="M193.7,144.5c0-10.9,450.8-240.3,517.3-98.3c66.5,142-44.3,196.6,0,229.4s177.3-207.5,277.1-32.8
					c99.8,174.8-114.5,375-25.9,451.4s218,94.7,48,182c-170,87.4-471.8-67.1-545.9-30.9c-99.2,48.4-170.9,92.8-255.9,23.7
					c-85-69.2,11.1-225.7,18.5-334.9S23.8,443.1,1.6,359.3C-20.6,275.6,193.7,144.5,193.7,144.5L193.7,144.5z"/>
				<path class="st1" d="M572.8,222.4c0.3-2.5,0.5-5,0.5-7.5c0-49.7-52.2-89.9-116.6-89.9s-116.6,40.2-116.6,89.9
					c0,2.5,0.2,5,0.5,7.5H572.8L572.8,222.4z"/>
				<path class="st2" d="M550.6,161.7c-21.2-22.2-55.3-36.7-93.9-36.7c-64.4,0-116.6,40.2-116.6,89.9c0,2.5,0.2,5,0.5,7.5h39.8
					C422.6,138.1,507.3,149.2,550.6,161.7L550.6,161.7z"/>
				<rect x="428.1" y="324.6" class="st1" width="59.4" height="88.3"/>
				<path class="st2" d="M450.5,381.6c-1.1-14.4,18.6-40.6,32.7-57H428v88.3h51.8C466,404.4,451.4,392.9,450.5,381.6L450.5,381.6z"
					/>
				<path class="st3" d="M793.2,778.9l-59.4-9.6l21.4,121.5c12.6,2.3,25.3,4.3,38,6.1V778.9z"/>
				<path class="st4" d="M786.8,860.7c2.4,3.9,4.5,7.9,6.4,11.9v-93.7l-59.4-9.6l10.7,60.8C755.8,835.6,778.9,848,786.8,860.7
					L786.8,860.7z"/>
				<path class="st3" d="M862.3,777.3l-54.6-1.6l4.1,123.6c15.6,1.8,31.2,3.1,46.6,3.7L862.3,777.3z"/>
				<path class="st4" d="M807.7,775.7l1.9,58.1c11,17.7,27,45.4,35.2,68.3c4.5,0.3,9,0.7,13.5,0.8l3.9-125.7L807.7,775.7
					L807.7,775.7z"/>
				<g>
					<path class="st1" d="M618,488.3l8.6,158.4h35.3c0,0-7.5-113.4-23.5-157.3L618,488.3L618,488.3z"/>
					<g>
						<path class="st1" d="M295.6,490.5l-8.6,158.4h-35.3c0,0,7.5-113.4,23.5-157.3L295.6,490.5L295.6,490.5z"/>
						<path class="st5" d="M285.8,491c-7,34.5-20,107.4-15.7,157.9h17l8.6-158.4L285.8,491L285.8,491z"/>
					</g>
					<path class="st5" d="M620.8,488.5l-2.8-0.1l8.6,158.4h15.6C642.9,584.2,628.2,517.7,620.8,488.5L620.8,488.5z"/>
				</g>
				<path class="st6" d="M891.4,513.7h-136l-28,278.1c0,0,131,27,183,7L891.4,513.7L891.4,513.7z"/>
				<path class="st6" d="M837.7,330.8l33.4-0.8c0,0,19.5-102.8-50.3-87c0,0-9.8-7.5-21,7.5c-11.2,15-11.2,77.6-11.2,77.6l31.5-1.5
					L837.7,330.8L837.7,330.8z"/>
				<path class="st7" d="M878.6,518.7l12.8-153.4c0-14.7-11.9-26.6-26.6-26.6h-75.8c-14.7,0-26.6,11.9-26.6,26.6l6,153.4H878.6z"/>
				<path class="st3" d="M642.3,478.7c0,0-15.5-19.5-13.5-30s2-33,8-30s14,19,14,30s9.5,25,9.5,25l-12.5,10.5L642.3,478.7z"/>
				<path class="st3" d="M812.6,351.4l3-36.8l26.3-4.5l2.2,32.3C844.1,342.4,820.1,373.9,812.6,351.4z"/>
				<path class="st8" d="M766.1,345.4c0,0-18,8.2-24.8,27s-33,132.8-33,132.8L664,464.7l-25.5,18.8c0,0,45,79.5,66,87.8
					s45.8-66.8,57.8-92.3C774.3,453.4,766.1,345.4,766.1,345.4z"/>
				<path class="st3" d="M734.3,465.7c0,0-0.6-0.8-1.6-2c-3.3-4-11-12.8-16.4-13.5c-7-1-40,13-38,16.5s18.5-3,18.5-3s-1.5,12.5,6,16
					s17.5,0.5,17.5,0.5l13,6l10-15.5L734.3,465.7L734.3,465.7z"/>
				<path class="st8" d="M811.1,338.6c0,0-22.8,23-30.8,48c-8,25,3,127-12,230.1c-15,103-28,215.1-28,215.1l-45-17
					c0,0,49-452.1,66-467.1C778.3,332.6,811.1,338.6,811.1,338.6z"/>
				<ellipse class="st1" cx="458.8" cy="667.6" rx="69.6" ry="85.6"/>
				<path class="st6" d="M618.3,791.7c0,0-9.6,33.7-2.4,38.5c7.2,4.8,13.6,3.2,13.6,3.2s-4.8,12.8,1.6,16c6.4,3.2,50.6,4,55.4-0.8
					c4.8-4.8,15.2-51.4,0.8-60.2S618.3,791.7,618.3,791.7L618.3,791.7z"/>
				<path class="st6" d="M606.5,412.9c-7.2,0-14.1,1.5-20.3,4.2v94.3c6.2,2.7,13.1,4.2,20.3,4.2c28.4,0,51.4-23,51.4-51.4
					S634.9,412.9,606.5,412.9z"/>
				<path class="st6" d="M304.3,796.5c0,0,9.6,33.7,2.4,38.5s-13.6,3.2-13.6,3.2s4.8,12.8-1.6,16c-6.4,3.2-50.6,4-55.4-0.8
					c-4.8-4.8-15.2-51.4-0.8-60.2S304.3,796.5,304.3,796.5L304.3,796.5z"/>
				<path class="st6" d="M303.6,407.5c7.2,0,14.1,1.5,20.3,4.2V506c-6.2,2.7-13.1,4.2-20.3,4.2c-28.4,0-51.4-23-51.4-51.4
					S275.3,407.5,303.6,407.5L303.6,407.5z"/>
				<path class="st6" d="M337.4,242.7c-2.7-1.3-5.6-2.2-8.8-2.2c-10.9,0-19.8,8.9-19.8,19.8v51.4c0,10.9,8.9,19.8,19.8,19.8
					c3.2,0,6.2-0.8,8.8-2.2V242.7L337.4,242.7z"/>
				<path class="st6" d="M577.9,242.7c2.7-1.3,5.6-2.2,8.8-2.2c10.9,0,19.8,8.9,19.8,19.8v51.4c0,10.9-8.9,19.8-19.8,19.8
					c-3.2,0-6.2-0.8-8.8-2.2V242.7L577.9,242.7z"/>
				<path class="st9" d="M340.2,218.1c-4,7.6-6.5,16.1-6.5,25.3v67.4c0,30,24.3,54.2,54.2,54.2h140.9c30,0,54.2-24.3,54.2-54.2
					v-67.4c0-9.2-2.5-17.7-6.5-25.3H340.2L340.2,218.1z"/>
				<circle class="st8" cx="394.1" cy="280.7" r="30.5"/>
				<circle class="st8" cx="523" cy="280.7" r="30.5"/>
				<g>
					<g>
						<path class="st6" d="M382.2,321.9h9.4c0.2,0,0.4,0.2,0.4,0.4v34c0,0.2-0.2,0.4-0.4,0.4h-9.4c-0.2,0-0.4-0.2-0.4-0.4v-34
							C381.8,322.1,381.9,321.9,382.2,321.9z"/>
						<path class="st6" d="M417.5,321.9h9.4c0.2,0,0.4,0.2,0.4,0.4v34c0,0.2-0.2,0.4-0.4,0.4h-9.4c-0.2,0-0.4-0.2-0.4-0.4v-34
							C417.1,322.1,417.3,321.9,417.5,321.9z"/>
						<path class="st6" d="M399.3,321.9h9.4c0.2,0,0.4,0.2,0.4,0.4v34c0,0.2-0.2,0.4-0.4,0.4h-9.4c-0.2,0-0.4-0.2-0.4-0.4v-34
							C398.9,322.1,399.1,321.9,399.3,321.9z"/>
					</g>
					<g>
						<path class="st6" d="M436.2,321.9h9.4c0.2,0,0.4,0.2,0.4,0.4v34c0,0.2-0.2,0.4-0.4,0.4h-9.4c-0.2,0-0.4-0.2-0.4-0.4v-34
							C435.8,322.1,436,321.9,436.2,321.9z"/>
						<path class="st6" d="M471.5,321.9h9.4c0.2,0,0.4,0.2,0.4,0.4v34c0,0.2-0.2,0.4-0.4,0.4h-9.4c-0.2,0-0.4-0.2-0.4-0.4v-34
							C471.1,322.1,471.3,321.9,471.5,321.9z"/>
						<path class="st6" d="M453.3,321.9h9.4c0.2,0,0.4,0.2,0.4,0.4v34c0,0.2-0.2,0.4-0.4,0.4h-9.4c-0.2,0-0.4-0.2-0.4-0.4v-34
							C452.9,322.1,453.1,321.9,453.3,321.9z"/>
					</g>
					<g>
						<path class="st6" d="M489.7,321.9h9.4c0.2,0,0.4,0.2,0.4,0.4v34c0,0.2-0.2,0.4-0.4,0.4h-9.4c-0.2,0-0.4-0.2-0.4-0.4v-34
							C489.3,322.1,489.5,321.9,489.7,321.9z"/>
						<path class="st6" d="M525,321.9h9.4c0.2,0,0.4,0.2,0.4,0.4v34c0,0.2-0.2,0.4-0.4,0.4H525c-0.2,0-0.4-0.2-0.4-0.4v-34
							C524.6,322.1,524.8,321.9,525,321.9z"/>
						<path class="st6" d="M506.9,321.9h9.4c0.2,0,0.4,0.2,0.4,0.4v34c0,0.2-0.2,0.4-0.4,0.4h-9.4c-0.2,0-0.4-0.2-0.4-0.4v-34
							C506.5,322.1,506.6,321.9,506.9,321.9z"/>
					</g>
				</g>
				<path class="st5" d="M356.1,250.2c0.4-16.1,4-25.9,8.6-32.1h-24.5c-4,7.6-6.5,16.1-6.5,25.3v67.4c0,21,12.1,39.1,29.6,48.1
					C349.7,334.9,355.2,287.8,356.1,250.2L356.1,250.2z"/>
				<path class="st2" d="M303.6,407.5c-21,0-39.1,12.7-47,30.8c50-1.4,55.8,43.3,54.4,71.2c4.5-0.7,8.9-1.7,12.9-3.5v-94.3
					C317.7,409,310.9,407.5,303.6,407.5L303.6,407.5z"/>
				<path class="st2" d="M652.1,441.1c-8.5-16.7-25.6-28.2-45.6-28.2c-7.2,0-14.1,1.5-20.3,4.2v94.3c3.5,1.5,7.2,2.5,11.1,3.2
					C597.8,448.6,631.1,439.9,652.1,441.1L652.1,441.1z"/>
				<path class="st5" d="M450.5,719.5c-3.2-24.9,39.3-30.5,39.3-30.5s-31.3,0-35.3-16c-3.1-12.4,7.4-67.6,13.9-92.4
					c-2.5-0.3-5-0.5-7.6-0.5c-38.4,0-69.6,38.3-69.6,85.6s31.1,85.6,69.6,85.6c3.5,0,7-0.4,10.4-1
					C461.2,741.2,451.9,730.3,450.5,719.5L450.5,719.5z"/>
				<path class="st5" d="M647.2,825.4c0,0-9.6,0.8-16-8c-3.5-4.8-0.3-17.9,3.4-28.7c-9.4,1.5-16.2,3-16.2,3s-9.6,33.7-2.4,38.5
					c7.2,4.8,13.6,3.2,13.6,3.2s-4.8,12.8,1.6,16c1.6,0.8,5.5,1.5,10.6,1.9C639.2,840.7,647.2,825.4,647.2,825.4L647.2,825.4z"/>
				<path class="st5" d="M304.3,796.5c0,0-8.2-1.8-19.1-3.5c3.7,10.1,7.3,24.4,0.2,30.8c-11.2,10.2-18.7,7-18.7,7s3,13.6,5.2,26
					c9.2-0.3,17.1-1.2,19.6-2.4c6.4-3.2,1.6-16,1.6-16s6.4,1.6,13.6-3.2S304.3,796.5,304.3,796.5L304.3,796.5z"/>
				<path class="st6" d="M342.2,898.5c15.1-4,30.6-9.8,46.5-16.8v-90h-46.5V898.5L342.2,898.5z"/>
				<path class="st6" d="M574.9,791.7l-48.2-3.2l-2.2,53.4c14.5,1.8,30.6,4.8,48,8.5L574.9,791.7L574.9,791.7z"/>
				<path class="st10" d="M302,106.3c32.1,17.7,102.7-48.2,128.4-36.9s30.5,62.6,57.8,30.5c21-24.7,18.1-58.8-15-76.2
					C397.6,45.5,320,78.3,265.8,104.3C280.9,101.9,294,101.9,302,106.3L302,106.3z"/>
				<path class="st4" d="M891.4,513.7h-136l-4.3,42.6c3.8-2.7,7.7-3.7,11.7-2.2c46,17.1,50.3,140.2,25.7,193.7
					c-9.8,21.3-21.2,37.4-31.5,49.2c41.8,6.7,117,15.8,153.5,1.7L891.4,513.7L891.4,513.7z"/>
				<path class="st10" d="M671.2,127.1c-56.2,11.2-65.8-25.7-78.7-20.9c-12.8,4.8-14.5,54.6,32.1,62.6c46.5,8,73.8,0,57.8,14.4
					s-61-9.6-53,17.7c8,27.3,75.5,22.5,48.2,35.3c-27.3,12.8-49.8,0-28.9,27.3c14.8,19.4,37.7,22.5,61.3,11.2
					c-31.6-25,23.4-62.7,22.7-141.2C716.2,126.9,695.1,122.4,671.2,127.1L671.2,127.1z"/>
				<path class="st10" d="M217,428.9c81.9-28.9,53-102.7,56.2-133.2c3.2-30.5,73.8-57.8,28.9-72.2c-45-14.4-112.4,28.9-107.6,67.4
					c4.8,38.5-75.4,69-64.2,16c11.2-53,91.5-102.7,163.7-115.6c72.2-12.8,73.8-86.7,35.3-67.4c-38.5,19.3-69,43.3-102.7,27.3
					c-10.2-4.9-20.7-7.6-30.4-9.2c-1.4,1.1-2.4,2.1-2.4,2.5c0,0-214.3,131.1-192.1,214.8C15.8,412.9,107,424.8,169,454.9
					C176.5,447.1,190.7,438.2,217,428.9L217,428.9z"/>
				<polygon class="st8" points="725.7,395.3 663.5,401.8 663.9,405.8 726.1,401.8 				"/>
				<polygon class="st8" points="733.5,408.9 671.2,415.3 671.7,419.3 733.9,415.3 				"/>
				<path class="st8" d="M723.7,464.4c-1.2,0.4-30.5,1.2-30.5,1.2l0.8,48.2l32.5,1.6L723.7,464.4L723.7,464.4z"/>
				<path class="st8" d="M847.3,335.6c0,0-47.5,273.1-31,391.6s21,139.5,21,139.5l148.5-37.5c0,0-55.5-142.5-58.5-216.1
					s9-246.1-12-264.1C894.3,331.1,847.3,335.6,847.3,335.6L847.3,335.6z"/>
				<path class="st11" d="M859.1,396.8l-12,1.6l8,15.2L835,511.6l-14.1,18.9c-2.6,25.5-4.7,51.4-6.2,76.5c10.3,7,26.5,13.1,50,8.1
					c27.3-5.8,49-16.6,62.2-24.4c-0.6-81.3,7.6-225.2-11.5-241.5c-13-11.1-35.8-13.6-51.4-14L859.1,396.8L859.1,396.8z"/>
				<path class="st8" d="M893.4,345.6c0,0,44-1,41,58s-47,158-92,152c-45-6-121-73-121-73l12-22c0,0,81,35,95,25
					C842.3,475.7,882.3,340.6,893.4,345.6z"/>
				<path class="st12" d="M907.6,348.6c0.7,45.5-1.9,196.7-70.2,183c-56.9-11.4-94.3-41.2-111.3-57.7l-4.8,8.7c0,0,76,67,121,73
					s89-93,92-152C936.2,367.2,920.2,353.7,907.6,348.6L907.6,348.6z"/>
				<polygon class="st12" points="794.3,344.4 761.7,389.9 768.6,396.3 764.4,460 762.8,396.8 755.3,388.2 				"/>
				<path class="st11" d="M924.1,783.4c-0.6-1.4-2.2-2.1-3.7-1.5l-59.2,25.2l-12-64l44.6,13.5l29.9-39.9l-4.4-27.7l-83,24l4.4,27.5
					l2.4,0.7l13.9,73.7l65.6-28C924.1,786.5,924.7,784.9,924.1,783.4L924.1,783.4z M914.8,696.3l3,19l-26.1,34.9l-46-13.9l-3.1-19.2
					L914.8,696.3L914.8,696.3z"/>
				<path class="st13" d="M816.8,357.9c4-4.7,8.8-11.7,11.8-21c2.8-8.8,8.7-13.6,14-16.2l-0.7-10.6l-26.3,4.5l-3,36.8
					C813.7,354.6,815.1,356.6,816.8,357.9L816.8,357.9z"/>
				<path class="st3" d="M805.8,271.6c0,0-5.2,32.5-2.8,39.5s14.5,10.5,25.8,8.2c11.2-2.2,13-9.2,13-9.2s8.8,5,10.5-4
					s-9.5-8.5-9.5-8.5l2.2-10.8c0,0-15.5,2-22.5-4c-7-6-10.8-20.5-10.8-20.5S809.8,270.4,805.8,271.6z"/>
				<path class="st8" d="M107.8,403.2c0,0,4.4,0,11.9-0.5c7.5-0.4,18.3-1.7,30.7-4.5c3.1-0.7,6.3-1.5,9.5-2.6
					c3.3-0.9,6.5-2.1,9.8-3.5c6.6-2.6,12.8-6.6,18.7-11c5.4-5,10.4-10.7,13.3-17.7l2.3-5.2l1.3-5.7c0.9-3.6,1.7-8.2,2.3-12.4
					c1.5-8.5,3.7-17.6,6.2-25.9c2.5-8.4,5.9-16.5,9.5-24.1c3.7-7.6,8-14.6,12.8-20.7c4.7-6.2,9.9-11.5,15.3-15.7
					c5.4-4.2,10.7-7.5,15.9-9.5c5-2.2,9.7-3.4,13.5-4c7.7-1.4,12.1-0.4,12.1-0.7c0,0-1.1,0.2-3.1,0.7c-2,0.4-4.9,1.1-8.4,2.4
					c-3.5,1.2-7.7,3-11.9,5.8c-4.4,2.6-8.7,6.4-13.2,10.7c-4.4,4.4-8.5,9.7-12.4,15.8c-3.9,6-7.2,12.8-10.4,19.9
					c-3.1,7.2-5.6,14.9-7.9,22.9c-2.2,8.1-4.1,15.9-5.4,24.5c-0.8,4.4-1.4,8.3-2.7,13.1l-1.7,6.9l-3,6.5
					c-3.8,8.8-10.7,15.6-17.5,21.2c-7.2,5.1-14.9,8.9-22.4,11.1c-7.4,2.6-14.7,3.7-21.3,4.5c-13.3,1.5-24.3,0.5-31.9-0.2
					C112,404.4,107.8,403.3,107.8,403.2L107.8,403.2z"/>
				<path class="st8" d="M150.6,417.1c0,0,3.1-1.6,7.6-2.3c4.4-0.8,10.1-0.8,15.6,0.2c5.5,1.1,10.8,3.2,14.6,5.6
					c3.8,2.3,6.1,5,6.1,5s-3.2,1.6-7.6,2.3c-4.4,0.8-10.1,0.8-15.6-0.3c-5.5-1.1-10.8-3.2-14.6-5.6
					C152.9,419.8,150.6,417.2,150.6,417.1L150.6,417.1z"/>
				<path class="st8" d="M219.1,382.9c0,0,2.6-2.8,6.8-5.4c4.2-2.7,10.1-5.2,16.3-6.7c6.2-1.4,12.6-1.9,17.6-1.4
					c5,0.4,8.5,1.8,8.5,1.8s-2.6,2.8-6.8,5.4c-4.2,2.7-10.1,5.2-16.3,6.7c-6.2,1.4-12.6,1.9-17.6,1.4
					C222.7,384.2,219.1,382.9,219.1,382.9L219.1,382.9z"/>
				<path class="st8" d="M235.2,320.8c0,0,0.3-2.8,1.7-5.4c1.3-2.8,3.7-5.5,6.6-7.5c3-1.8,6.5-2.8,9.6-2.9c3-0.1,5.7,0.8,5.7,0.8
					s-0.3,2.8-1.7,5.5c-1.3,2.8-3.7,5.5-6.6,7.5c-3,1.8-6.5,2.8-9.6,2.8C237.8,321.7,235.2,320.8,235.2,320.8L235.2,320.8z"/>
				<path class="st8" d="M178.4,370.1c0,0-2.1-2.2-3.5-5.6c-1.5-3.3-2.5-7.8-2.4-12.2c0.2-4.4,1.4-8.8,3.1-12.1
					c1.6-3.3,3.9-5.5,3.9-5.5s2.1,2.2,3.5,5.6c1.5,3.3,2.5,7.8,2.4,12.2c-0.2,4.4-1.4,8.8-3.1,12.1
					C180.7,367.9,178.4,370.1,178.4,370.1L178.4,370.1z"/>
				<path class="st8" d="M127.1,378.6c0,0-2.2-1.7-3.7-4.4c-1.6-2.6-2.7-6.1-2.8-9.6c0-3.5,1.1-7,2.7-9.6c1.5-2.6,3.7-4.4,3.7-4.4
					s2.2,1.7,3.7,4.4c1.6,2.6,2.7,6.1,2.7,9.6c-0.1,3.5-1.1,7-2.8,9.6C129.2,376.9,127.1,378.6,127.1,378.6z"/>
				<path class="st8" d="M60.7,386.1c0,0-1.9-2.2-3-5.4c-1.2-3.1-1.7-7.2-1.2-11c0.6-3.9,2.2-7.6,4.2-10.3c1.9-2.7,4.3-4.4,4.3-4.4
					s1.9,2.2,3,5.4c1.2,3.1,1.7,7.2,1.2,11c-0.6,3.9-2.2,7.6-4.2,10.3C63.1,384.5,60.7,386.1,60.7,386.1L60.7,386.1z"/>
				<path class="st8" d="M30.8,310.1c0,0,2.9-4.8,8.5-12.9c5.7-8,13.8-19.6,24.8-32.5c5.4-6.5,11.5-13.3,18.2-20.4
					c6.6-7.1,13.9-14.4,21.9-21.4c8.1-7,16.6-14.1,26-20.4c9.5-6.1,19.6-12.2,30.8-16.2l8.4-2.9l8.9-1.7c6.1-1.3,11.3-1.3,16.9-2
					c10.9-1,21.7-2.1,32.1-3.1c20.7-2.2,40-4.4,56.1-8.3c8-1.9,15.3-4,21.6-6.2c6.2-2.4,11.5-4.9,15.2-7.9c2-1.3,3.6-2.8,4.9-4.1
					c1.4-1.3,2.5-2.4,3.1-3.6c1.5-2.2,2.2-3.4,2.2-3.4s-0.6,1.3-1.6,3.7c-0.4,1.3-1.4,2.7-2.5,4.2c-1.1,1.7-2.5,3.4-4.4,5
					c-3.5,3.6-8.8,6.9-14.9,10.4c-6.2,3.3-13.5,6.4-21.6,8.9c-16.3,5.1-35.7,9.5-56.6,12.5c-10.5,1.5-21.3,3.1-32.3,4.2
					c-5.3,0.7-11.4,0.9-16.1,2.1l-7.5,1.5l-7.4,2.7c-9.9,3.4-19.4,8.9-28.4,14.5c-8.9,5.9-17.6,12.1-25.6,18.6
					c-16,13.1-30.4,26.2-42.1,38.1c-11.7,11.9-21.6,21.8-28.1,29.1C34.5,306,30.8,310.2,30.8,310.1L30.8,310.1z"/>
				<path class="st8" d="M133.5,227.7c0,0,2.2-2.2,5.6-3.8c3.4-1.7,7.9-2.9,12.4-3.1c4.6-0.1,9.1,0.8,12.6,2.4
					c3.5,1.4,5.8,3.5,5.8,3.5s-2.2,2.2-5.6,3.9c-3.4,1.7-7.9,2.9-12.4,3.1c-4.6,0.1-9.1-0.9-12.6-2.4
					C135.8,229.8,133.5,227.7,133.5,227.7L133.5,227.7z"/>
				<path class="st8" d="M82.1,284.4c0,0,2.1-1.9,5.1-3c2.9-1.2,6.7-1.7,10.3-1.2c3.6,0.6,7.1,2.2,9.5,4.2c2.5,1.9,4,4.3,4,4.3
					s-2.1,1.9-5.1,3c-2.9,1.2-6.7,1.7-10.3,1.2c-3.6-0.6-7.1-2.2-9.5-4.2C83.6,286.8,82.1,284.4,82.1,284.4L82.1,284.4z"/>
				<path class="st8" d="M473.8,90.7c0,0-0.3-2-1.2-5.4c-0.8-3.4-2.2-8.1-4.5-13.2c-2.3-5-5.8-10.2-10.8-13.2
					c-2.3-1.6-5.5-2.5-8.2-3c-4.3-0.8-6.8-0.8-10.5-0.6c-7.2,0.1-14.8,1.3-21.9,2.4c-7.2,1.3-13.9,2.6-19.6,3.7
					c-11.6,2.3-19.7,3.6-19.7,3.6s6.4-5.2,17.3-10.6c10.9-5.3,26.3-11.2,43.6-12c4.2-0.1,9.6,0.5,13,1.3c5,1.1,9,3.2,12.6,6.1
					c3.7,2.7,6,6.5,8,9.9c1.7,3.5,2.8,7,3.2,10.2c1.1,6.4,0.5,11.6,0,15.2C474.5,88.8,473.8,90.8,473.8,90.7L473.8,90.7z"/>
				<path class="st8" d="M598,123.9c0,0-0.6,2.2,1,5c1.5,2.8,5.3,5.4,10.4,7.7c5.1,2.2,11.5,4.2,18.5,6c3.1,0.9,7.4,1.7,10.9,2.5
					c3.6,0.8,7.4,1.5,11.2,2.1c15.2,2.7,30.8,4.8,42.6,6.5c11.8,1.7,19.9,3.3,19.9,3.3s-7.9,2.7-20,4c-12.1,1.5-28.5,1.6-44.8-1.3
					c-4-0.8-8.1-1.7-12.1-2.8c-4.2-1-7.3-2.3-11.3-3.8c-7.2-2.8-13.8-6.3-18.9-10.5c-5-4.1-8.5-9.1-8.9-13.2
					C596.1,125.5,598.1,123.8,598,123.9L598,123.9z"/>
				<path class="st8" d="M652.5,203.1c0,0,3,0.3,7.4,0.8c1.8,0.2,4,0.4,6.3,0.6c2.2,0.1,4.3,0.4,6.5,0.4c2.2,0.3,4.3,0.1,6.5,0.2
					c2.2-0.1,4.4,0,6.4-0.1c2.2,0,4,0,5.3,0c1.4,0.1,2.3,0.2,2.3,0.2s-1.1,3.4-4.6,6.6c-1.7,1.7-4.1,3.2-6.9,4.4
					c-2.9,1.1-6.2,1.6-9.5,1.6c-6.7-0.3-12.8-3.7-15.9-7.4C653,206.7,652.5,203.1,652.5,203.1L652.5,203.1z"/>
				<path class="st8" d="M660,255.6c0,0,2-0.5,4.9-1.2c2.5-0.5,4.9-0.9,7-0.8c2.1,0.2,4.5,1,6.9,1.9c2.3,0.9,4.7,2.2,4.7,2.2
					s-0.5,2.6-2.6,4.9c-2,2.4-6,4.1-10,3.8c-4.1-0.4-7.7-2.7-9.3-5.5C659.8,258.3,660,255.6,660,255.6L660,255.6z"/>
				<path class="st9" d="M330.5,395.2c-4.1,7.9-6.6,16.7-6.6,26.2v184.1c0,31.9,25.9,57.8,57.8,57.8h147.7
					c31.9,0,57.8-25.9,57.8-57.8V421.4c0-9.5-2.5-18.3-6.6-26.2H330.5L330.5,395.2z"/>
				<path class="st5" d="M391.4,635.5c-22.5-25.7-10.7-222.6-10.7-222.6l12.6-17.7h-62.8c-4.1,7.9-6.6,16.7-6.6,26.2v184.1
					c0,31.9,25.9,57.8,57.8,57.8h65.9C425,656.4,401.5,647.1,391.4,635.5L391.4,635.5z"/>
				<path class="st9" d="M570.1,730.7H568v-17.1H345.4v17.8c-10.4,2.4-18.2,11.7-18.2,22.9v38.5c0,13,10.5,23.5,23.5,23.5h39.6
					c12.3,0,22.2-9.4,23.3-21.4h93.5c1.1,12,11.1,21.4,23.3,21.4h39.6c13,0,23.5-10.5,23.5-23.5v-38.5
					C593.7,741.2,583.1,730.7,570.1,730.7L570.1,730.7z"/>
				<path class="st5" d="M346.2,787.7c-4-25.7-1.6-45-1.6-45H469c0,0-13.8-14.8-6.4-29.2H345.4v17.8c-10.4,2.4-18.2,11.7-18.2,22.9
					v38.5c0,13,10.5,23.5,23.5,23.5h9.5C354.1,809,348,799.4,346.2,787.7L346.2,787.7z"/>
				<path class="st9" d="M698.3,798.7c2.5-4.5,4-9.5,4-15V656.3c0-17.1-13.9-31-31-31h-35.3c-17.1,0-31,13.9-31,31v127.3
					c0,5.5,1.5,10.5,4,15H698.3L698.3,798.7z"/>
				<g>
					<path class="st5" d="M700,644.6c-2.1-5-5.5-9.3-9.7-12.7C693.8,635.6,697,639.8,700,644.6z"/>
					<path class="st5" d="M627.1,782.9c-2.7-22.6-14.7-130.2,17.5-157.6h-8.7c-17.1,0-31,13.9-31,31v127.3c0,5.5,1.5,10.5,4,15h22.8
						C629.6,794.1,627.8,789,627.1,782.9L627.1,782.9z"/>
				</g>
				<path class="st9" d="M222.6,800.8c-2.5-4.5-4-9.5-4-15V658.5c0-17.1,13.9-31,31-31h35.3c17.1,0,31,13.9,31,31v127.3
					c0,5.5-1.5,10.5-4,15H222.6L222.6,800.8z"/>
				<path class="st5" d="M284.9,627.4h-18.1c4,3.6,7.6,8,10.4,13.4c13.1,25.1,13.8,115.3,13.3,160h21.5c2.5-4.5,4-9.5,4-15V658.5
					C316,641.3,302.1,627.4,284.9,627.4L284.9,627.4z"/>
				<path class="st14" d="M731.6,548.6l-56.5-8.2c-9-1.3-15.6-9-15.6-18.1V406.2c0-9.1,6.7-16.8,15.6-18.1l56.5-8.2
					c11-1.6,20.9,6.9,20.9,18.1v132.6C752.5,541.7,742.6,550.2,731.6,548.6L731.6,548.6z"/>
			</g>
		</g>
	</g>
</g>
</svg>
