<?xml version="1.0" encoding="utf-8"?>
<!-- Generator: Adobe Illustrator 27.2.0, SVG Export Plug-In . SVG Version: 6.00 Build 0)  -->
<svg version="1.1" id="Layer_2_00000163779877466834483760000011814645459851813258_"
	 xmlns="http://www.w3.org/2000/svg" xmlns:xlink="http://www.w3.org/1999/xlink" x="0px" y="0px" viewBox="0 0 376.9 109.6"
	 style="enable-background:new 0 0 376.9 109.6;" xml:space="preserve">
<style type="text/css">
	.st0{enable-background:new    ;}
	.st1{fill:#1587C0;}
	.st2{fill:#2D6380;}
	.st3{fill:none;stroke:#2D6380;stroke-miterlimit:10;}
	.st4{fill:#8DC8DC;}
	.st5{fill:#2D6E80;}
</style>
<g>
	<g class="st0">
		<path class="st1" d="M118.7,45.3c-1,1.8-2.5,3.2-4.5,4.3c-2.1,1.1-4.6,1.6-7.8,1.6H100v14.6h-7.6v-38h14c2.9,0,5.5,0.5,7.5,1.5
			c2.1,1,3.6,2.4,4.7,4.2c1,1.8,1.6,3.8,1.6,6.1C120.1,41.6,119.6,43.6,118.7,45.3z M110.8,43.7c1-1,1.5-2.3,1.5-4.1
			c0-3.7-2.1-5.6-6.2-5.6H100v11.1h6.1C108.2,45.1,109.7,44.6,110.8,43.7z"/>
		<path class="st1" d="M147.3,58.6h-15.2l-2.5,7.3h-8l13.7-38.1h8.9l13.7,38.1h-8.1L147.3,58.6z M145.2,52.5l-5.5-15.9l-5.5,15.9
			H145.2z"/>
		<path class="st1" d="M169.1,59.8h12.5v6.1h-20.2V27.8h7.6L169.1,59.8L169.1,59.8z"/>
		<path class="st1" d="M226.4,27.8v38.1h-7.6V41.1l-10.2,24.8h-5.8l-10.3-24.8v24.8h-7.6V27.8h8.7l12.1,28.3l12.1-28.3H226.4z"/>
		<path class="st1" d="M240,27.8v38.1h-7.6V27.8H240z"/>
		<path class="st1" d="M253.5,59.8H266v6.1h-20.2V27.8h7.6L253.5,59.8L253.5,59.8z"/>
		<path class="st1" d="M300.9,27.8v38.1h-7.6V49.7H277v16.2h-7.6V27.8h7.6v15.7h16.3V27.8H300.9z"/>
		<path class="st1" d="M330.2,58.6H315l-2.5,7.3h-8l13.7-38.1h8.9l13.7,38.1h-8.1L330.2,58.6z M328.1,52.5l-5.5-15.9l-5.5,15.9
			H328.1z"/>
		<path class="st1" d="M350.3,64.9c-2.1-0.9-3.8-2.2-5-3.9s-1.9-3.7-1.9-6.1h8.2c0.1,1.6,0.7,2.8,1.7,3.7s2.4,1.4,4.1,1.4
			c1.8,0,3.2-0.4,4.2-1.3c1-0.9,1.5-2,1.5-3.4c0-1.1-0.3-2.1-1-2.8s-1.6-1.3-2.6-1.7s-2.5-0.9-4.3-1.4c-2.5-0.7-4.5-1.4-6-2.2
			c-1.5-0.7-2.9-1.8-4-3.2s-1.7-3.4-1.7-5.8c0-2.3,0.6-4.2,1.7-5.9s2.7-3,4.7-3.8s4.4-1.3,7-1.3c3.9,0,7.1,1,9.6,2.9s3.8,4.6,4.1,8
			h-8.4c-0.1-1.3-0.6-2.4-1.7-3.2c-1-0.9-2.4-1.3-4.1-1.3c-1.5,0-2.7,0.4-3.6,1.1c-0.9,0.8-1.3,1.9-1.3,3.3c0,1,0.3,1.9,1,2.5
			c0.7,0.7,1.5,1.2,2.5,1.6c1,0.4,2.4,0.9,4.2,1.4c2.5,0.7,4.5,1.5,6.1,2.2s2.9,1.8,4,3.3s1.7,3.4,1.7,5.7c0,2-0.5,3.9-1.6,5.7
			c-1.1,1.7-2.6,3.1-4.6,4.2c-2,1-4.5,1.6-7.3,1.6C354.8,66.3,352.4,65.8,350.3,64.9z"/>
	</g>
	<g>
		<path class="st2" d="M113,77.2v4.6h-7.5v23.6h-5.7V81.8h-7.5v-4.6C92.3,77.2,113,77.2,113,77.2z"/>
		<path class="st2" d="M121.6,81.8v7.1h9.5v4.5h-9.5v7.5h10.7v4.6H116V77.2h16.4v4.6C132.4,81.8,121.6,81.8,121.6,81.8z"/>
		<path class="st2" d="M150.8,105.4l-6.2-11H142v11h-5.7V77.2h10.6c2.2,0,4,0.4,5.6,1.2c1.5,0.8,2.7,1.8,3.5,3.1
			c0.8,1.3,1.2,2.8,1.2,4.4c0,1.9-0.5,3.5-1.6,5s-2.7,2.5-4.8,3.1l6.7,11.4C157.5,105.4,150.8,105.4,150.8,105.4z M142,90.2h4.7
			c1.5,0,2.7-0.4,3.4-1.1c0.8-0.7,1.1-1.8,1.1-3.1c0-1.3-0.4-2.3-1.1-3c-0.8-0.7-1.9-1.1-3.4-1.1H142V90.2z"/>
		<path class="st2" d="M178.3,100h-11.2l-1.9,5.4h-5.9l10.1-28.2h6.6l10.1,28.2h-6L178.3,100z M176.8,95.5l-4.1-11.8l-4.1,11.8
			H176.8z"/>
		<path class="st2" d="M208.2,90.2c-0.7,1.3-1.8,2.4-3.4,3.2c-1.5,0.8-3.4,1.2-5.8,1.2h-4.7v10.8h-5.7V77.2H199c2.2,0,4,0.4,5.6,1.1
			c1.5,0.8,2.7,1.8,3.5,3.1c0.8,1.3,1.2,2.8,1.2,4.5C209.3,87.4,209,88.9,208.2,90.2z M202.4,88.9c0.8-0.7,1.1-1.7,1.1-3
			c0-2.7-1.5-4.1-4.6-4.1h-4.5V90h4.5C200.5,90,201.6,89.7,202.4,88.9z"/>
		<path class="st2" d="M217.8,81.8v7.1h9.5v4.5h-9.5v7.5h10.7v4.6h-16.4V77.2h16.4v4.6C228.5,81.8,217.8,81.8,217.8,81.8z
			 M220.1,72.2l-6,3.4v-4.1l6-3.3l6,3.3v4.1L220.1,72.2z"/>
		<path class="st2" d="M238,77.2v17.4c0,1.9,0.5,3.4,1.5,4.4s2.4,1.5,4.2,1.5s3.2-0.5,4.2-1.5s1.5-2.5,1.5-4.4V77.2h5.7v17.4
			c0,2.4-0.5,4.4-1.6,6.1c-1,1.7-2.4,2.9-4.2,3.7c-1.7,0.8-3.7,1.3-5.8,1.3s-4-0.4-5.7-1.3c-1.7-0.8-3.1-2.1-4.1-3.7
			c-1-1.7-1.5-3.7-1.5-6.1V77.2H238z"/>
		<path class="st2" d="M278.6,77.2v4.6h-7.5v23.6h-5.7V81.8h-7.5v-4.6C257.9,77.2,278.6,77.2,278.6,77.2z"/>
		<path class="st2" d="M287.2,77.2v28.2h-5.7V77.2H287.2z"/>
		<path class="st2" d="M292.1,83.8c1.3-2.2,3-3.9,5.1-5.1c2.2-1.2,4.6-1.8,7.3-1.8c3.1,0,5.9,0.8,8.3,2.4s4,3.8,5,6.7h-6.5
			c-0.6-1.3-1.6-2.4-2.7-3c-1.2-0.7-2.5-1-4.1-1s-3.1,0.4-4.4,1.2c-1.3,0.8-2.3,1.9-3,3.3s-1.1,3-1.1,4.9s0.4,3.5,1.1,4.9
			s1.7,2.5,3,3.3s2.7,1.2,4.4,1.2c1.5,0,2.9-0.3,4.1-1s2.1-1.7,2.7-3h6.5c-0.9,2.9-2.6,5.1-4.9,6.7c-2.4,1.6-5.1,2.4-8.3,2.4
			c-2.7,0-5.1-0.6-7.3-1.8c-2.2-1.2-3.9-2.9-5.1-5.1c-1.3-2.2-1.9-4.7-1.9-7.4C290.2,88.5,290.9,86,292.1,83.8z"/>
		<path class="st2" d="M338.7,100h-11.2l-1.9,5.4h-5.9l10.1-28.2h6.6l10.1,28.2h-6L338.7,100z M337.2,95.5l-4.1-11.8L329,95.5H337.2
			z"/>
		<path class="st2" d="M353.6,104.7c-1.6-0.7-2.8-1.6-3.7-2.9c-0.9-1.3-1.4-2.8-1.4-4.5h6.1c0.1,1.2,0.5,2.1,1.2,2.7
			c0.7,0.7,1.8,1,3,1c1.3,0,2.4-0.3,3.1-0.9c0.8-0.6,1.1-1.5,1.1-2.5c0-0.8-0.3-1.5-0.8-2.1c-0.5-0.5-1.2-1-1.9-1.3
			c-0.8-0.3-1.8-0.7-3.2-1c-1.8-0.5-3.3-1.1-4.5-1.6c-1.1-0.5-2.1-1.3-2.9-2.4s-1.2-2.5-1.2-4.3c0-1.7,0.4-3.1,1.3-4.4
			c0.8-1.2,2-2.2,3.5-2.8c1.5-0.7,3.2-1,5.2-1c2.9,0,5.3,0.7,7.1,2.1c1.8,1.4,2.8,3.4,3,5.9h-6.2c-0.1-1-0.5-1.8-1.2-2.4
			c-0.8-0.6-1.8-0.9-3-0.9c-1.1,0-2,0.3-2.6,0.8s-1,1.4-1,2.5c0,0.8,0.2,1.4,0.7,1.9s1.1,0.9,1.9,1.2c0.7,0.3,1.8,0.7,3.1,1.1
			c1.8,0.5,3.3,1.1,4.5,1.6s2.2,1.3,3,2.4s1.3,2.5,1.3,4.2c0,1.5-0.4,2.9-1.2,4.2c-0.8,1.3-1.9,2.3-3.4,3.1
			c-1.5,0.8-3.3,1.2-5.4,1.2C357,105.7,355.2,105.3,353.6,104.7z"/>
	</g>
</g>
<g>
	<g class="st0">
		<path class="st2" d="M97.8,8.6v6.2H97V8.6H97.8z"/>
		<path class="st2" d="M105,8.6v6.2h-0.8v-4.6l-2.1,4.6h-0.6l-2.1-4.6v4.6h-0.8V8.6h0.9l2.3,5.1l2.3-5.1H105z"/>
		<path class="st2" d="M106.6,9.2v2.1h2.3V12h-2.3v2.1h2.5v0.7h-3.3V8.6h3.3v0.7h-2.5V9.2z"/>
		<path class="st2" d="M113.1,14.8l-1.5-2.5h-1v2.5h-0.8V8.6h2c0.5,0,0.9,0.1,1.2,0.2c0.3,0.2,0.6,0.4,0.7,0.7
			c0.2,0.3,0.2,0.6,0.2,0.9c0,0.4-0.1,0.8-0.4,1.1c-0.2,0.3-0.6,0.5-1.1,0.7l1.6,2.6C114,14.8,113.1,14.8,113.1,14.8z M110.7,11.6
			h1.2c0.4,0,0.8-0.1,1-0.3s0.3-0.5,0.3-0.9s-0.1-0.7-0.3-0.9c-0.2-0.2-0.5-0.3-1-0.3h-1.2V11.6z"/>
		<path class="st2" d="M115.6,14.6c-0.3-0.1-0.6-0.3-0.8-0.6s-0.3-0.6-0.3-0.9h0.9c0,0.3,0.2,0.5,0.4,0.7c0.2,0.2,0.5,0.3,0.9,0.3
			s0.7-0.1,0.9-0.3c0.2-0.2,0.3-0.4,0.3-0.7c0-0.2-0.1-0.4-0.2-0.6c-0.1-0.1-0.3-0.3-0.5-0.3s-0.5-0.2-0.8-0.3
			c-0.4-0.1-0.7-0.2-1-0.3c-0.2-0.1-0.5-0.3-0.6-0.5c-0.2-0.2-0.3-0.5-0.3-0.9c0-0.3,0.1-0.6,0.3-0.9c0.2-0.3,0.4-0.5,0.7-0.6
			c0.3-0.1,0.7-0.2,1.1-0.2c0.6,0,1.1,0.1,1.4,0.4c0.4,0.3,0.6,0.7,0.6,1.2h-0.9c0-0.2-0.2-0.4-0.4-0.6c-0.2-0.2-0.5-0.3-0.9-0.3
			c-0.3,0-0.6,0.1-0.8,0.3c-0.2,0.2-0.3,0.4-0.3,0.7c0,0.2,0.1,0.4,0.2,0.6c0.1,0.1,0.3,0.3,0.5,0.3c0.2,0.1,0.5,0.2,0.8,0.3
			c0.4,0.1,0.7,0.2,1,0.3c0.2,0.1,0.5,0.3,0.6,0.5c0.2,0.2,0.3,0.5,0.3,0.9c0,0.3-0.1,0.6-0.2,0.9c-0.2,0.3-0.4,0.5-0.7,0.7
			c-0.3,0.2-0.7,0.3-1.1,0.3C116.3,14.9,115.9,14.8,115.6,14.6z"/>
		<path class="st2" d="M123.1,13.4h-2.7l-0.5,1.4H119l2.3-6.2h0.9l2.2,6.2h-0.9L123.1,13.4z M120.7,7.4c0.2-0.2,0.4-0.2,0.6-0.2
			c0.1,0,0.2,0,0.3,0.1c0.1,0,0.2,0.1,0.3,0.2c0.1,0.1,0.2,0.1,0.2,0.1c0.1,0,0.1,0,0.2,0s0.2,0,0.3-0.1c0.1-0.1,0.1-0.2,0.1-0.3
			h0.5c0,0.3-0.1,0.5-0.3,0.7c-0.2,0.2-0.4,0.2-0.6,0.2c-0.1,0-0.2,0-0.3-0.1c-0.1,0-0.2-0.1-0.3-0.2c-0.1-0.1-0.2-0.1-0.2-0.1
			c-0.1,0-0.1,0-0.2,0s-0.2,0-0.3,0.1c-0.1,0.1-0.1,0.2-0.1,0.3h-0.5C120.5,7.8,120.6,7.6,120.7,7.4z M122.9,12.8l-1.1-3.1l-1.1,3.1
			C120.7,12.8,122.9,12.8,122.9,12.8z"/>
		<path class="st2" d="M126.2,14.5c-0.5-0.3-0.9-0.6-1.1-1.1c-0.3-0.5-0.4-1-0.4-1.6s0.1-1.2,0.4-1.6c0.3-0.5,0.7-0.9,1.1-1.1
			c0.5-0.3,1-0.4,1.6-0.4s1.1,0.1,1.6,0.4c0.5,0.3,0.9,0.6,1.1,1.1c0.3,0.5,0.4,1,0.4,1.6s-0.1,1.2-0.4,1.6
			c-0.3,0.5-0.6,0.9-1.1,1.1c-0.5,0.3-1,0.4-1.6,0.4S126.6,14.7,126.2,14.5z M128.9,13.9c0.3-0.2,0.6-0.5,0.8-0.9s0.3-0.8,0.3-1.3
			s-0.1-0.9-0.3-1.3c-0.2-0.4-0.5-0.7-0.8-0.9s-0.7-0.3-1.2-0.3c-0.4,0-0.8,0.1-1.2,0.3c-0.3,0.2-0.6,0.5-0.8,0.9
			c-0.2,0.4-0.3,0.8-0.3,1.3s0.1,0.9,0.3,1.3c0.2,0.4,0.5,0.7,0.8,0.9s0.7,0.3,1.2,0.3S128.6,14.1,128.9,13.9z"/>
		<path class="st2" d="M134.5,14.5c-0.5-0.3-0.9-0.6-1.1-1.1c-0.3-0.5-0.4-1-0.4-1.6s0.1-1.2,0.4-1.6c0.3-0.5,0.7-0.9,1.1-1.1
			c0.5-0.3,1-0.4,1.6-0.4s1.1,0.1,1.6,0.4c0.5,0.3,0.9,0.6,1.1,1.1c0.3,0.5,0.4,1,0.4,1.6s-0.1,1.2-0.4,1.6
			c-0.3,0.5-0.6,0.9-1.1,1.1c-0.5,0.3-1,0.4-1.6,0.4S135,14.7,134.5,14.5z M137.2,13.9c0.3-0.2,0.6-0.5,0.8-0.9s0.3-0.8,0.3-1.3
			s-0.1-0.9-0.3-1.3c-0.2-0.4-0.5-0.7-0.8-0.9s-0.7-0.3-1.2-0.3c-0.4,0-0.8,0.1-1.2,0.3c-0.3,0.2-0.6,0.5-0.8,0.9s-0.3,0.8-0.3,1.3
			s0.1,0.9,0.3,1.3c0.2,0.4,0.5,0.7,0.8,0.9s0.7,0.3,1.2,0.3S136.9,14.1,137.2,13.9z"/>
		<path class="st2" d="M144.6,14.8h-0.8l-3.3-5v5h-0.8V8.6h0.8l3.3,4.9V8.6h0.8V14.8z"/>
		<path class="st2" d="M146.3,14.1h2.2v0.7h-3V8.6h0.8V14.1z"/>
		<path class="st2" d="M149.6,8.6v6.2h-0.8V8.6H149.6z"/>
		<path class="st2" d="M155.3,14.8h-0.8l-3.3-5v5h-0.8V8.6h0.8l3.3,4.9V8.6h0.8V14.8z"/>
		<path class="st2" d="M157,9.2v2.1h2.3V12H157v2.1h2.5v0.7h-3.3V8.6h3.3v0.7H157V9.2z"/>
	</g>
	<rect x="92.8" y="3.7" class="st3" width="70.8" height="14.6"/>
</g>
<g>
	<path class="st4" d="M3.3,67.4c1.2-3.9,5.3-5.8,5.8-6c4.1-1.8,9.4-1.2,14.5,0.7c3.7,5.6,7.7,9.5,9.8,11.5c2.8,2.7,4.7,4,6.3,5.1
		c1.8,1.3,3.3,2.3,5.7,5.1c2.2,2.6,3.3,4.8,4.6,7.1c1.5,2.9,3.1,5.9,6.6,9.4c0.4,0.4,0.7,0.7,1,1l3.5,3.4c-5.7-2.1-7.8-4.9-13.6-6.9
		c-6.1-2.1-6.6-0.8-13.8-2.5c-4.5-1.1-15.3-3.8-23.6-12.5C7.3,79.6,1.7,72.7,3.3,67.4z"/>
</g>
<path class="st5" d="M20.2,28.3c3.4-3.1,8.4-2.6,9.1-2.6c7,0.8,13.5,7.4,17.8,14.7c0.4,6,1.6,10.8,2.2,13.5c1,4.2,2,6.4,2.8,8.4
	c1,2.3,1.7,4.1,2.3,8.2c0.5,3.7,0.3,6.5,0.1,9.4c-0.3,3.6-0.6,7.3,0.5,12.6c0.6,2.9,1.4,5.2,2.2,6.9c-5.9-6.2-6-10.4-10.9-16.2
	c-4.7-5.5-6-4.5-12.1-10.3c-3.8-3.6-12.8-12.4-15.9-25.6C17.3,42.5,15.6,32.5,20.2,28.3z"/>
<path id="frente-3_00000118373817363600634960000016248330086766806961_" class="st1" d="M72,105.4L72,105.4c-1,0.2-5.2,1-8.6-0.9
	c-1.2-0.6-5.2-1.9-7.3-12.2c-2-9.5,0.6-13.5-0.6-22c-1.1-7.9-2.9-7.7-5.1-16.7C49,48,45.8,34.4,50.8,20.4c1.8-5.1,6.2-15.3,13-16.5
	c5-0.9,9.4,2.5,10,3c9.4,7.6,9.4,27.8,5.1,38.1c-0.7,1.7-3.4,7.6-3.3,15.3c0,1.4,1.4,9,4.2,17.9C85.2,95.4,79.7,104,72,105.4
	L72,105.4z"/>
</svg>
