<?xml version="1.0" encoding="utf-8"?>
<!-- Generator: Adobe Illustrator 27.2.0, SVG Export Plug-In . SVG Version: 6.00 Build 0)  -->
<svg version="1.1" id="Layer_1" xmlns="http://www.w3.org/2000/svg" xmlns:xlink="http://www.w3.org/1999/xlink" x="0px" y="0px"
	 viewBox="0 0 100 92.3" style="enable-background:new 0 0 100 92.3;" xml:space="preserve">
<style type="text/css">
	.st0{display:none;}
	.st1{display:inline;}
	.st2{fill:#FFFFFF;}
</style>
<g class="st0">
	<path class="st1" d="M709.6,257.2H-529.8c-1.7,0-3-1.4-3-3v-742.9c0-1.6,1.3-3,3-3H709.6c1.7,0,3,1.4,3,3v742.9
		C712.6,255.8,711.2,257.2,709.6,257.2z"/>
</g>
<g>
	<path class="st2" d="M86,29.5c-3.3,0.1-6.5-1.4-8.6-4.1c-2-2.7-2.6-6.2-1.7-9.4L67.2,4.6c-0.3-0.4-0.8-0.7-1.3-0.8
		c-0.5-0.1-1,0.1-1.5,0.4l-18.5,14l3.7,4.9c0.8,1,0.6,2.5-0.5,3.3l0,0c-0.4,0.3-0.9,0.5-1.4,0.5c-0.7,0-1.4-0.3-1.9-0.9l-3.7-4.9
		L5.8,48.6c-0.9,0.7-1,1.9-0.4,2.8l8.3,10.9c3.6-0.4,7.3,1.1,9.5,4.1c2.3,3,2.7,6.9,1.3,10.3l8.3,10.9c0.3,0.4,0.8,0.7,1.3,0.8
		c0.5,0.1,1-0.1,1.5-0.4l36.4-27.5l-2.5-3.3c-0.8-1-0.6-2.5,0.5-3.3l0,0c1-0.8,2.5-0.6,3.3,0.5l2.5,3.3l18.5-14
		c0.9-0.7,1-1.9,0.4-2.8L86,29.5z M58.5,38.7L58.5,38.7c-0.4,0.3-0.9,0.5-1.4,0.5c-0.7,0-1.4-0.3-1.9-0.9l-4.3-5.7
		c-0.8-1-0.6-2.5,0.5-3.3l0,0c1-0.8,2.5-0.6,3.3,0.5l4.3,5.7C59.7,36.5,59.5,38,58.5,38.7z M67.8,51L67.8,51
		c-0.4,0.3-0.9,0.5-1.4,0.5c-0.7,0-1.4-0.3-1.9-0.9l-4.3-5.7c-0.8-1-0.6-2.5,0.5-3.3c1-0.8,2.5-0.6,3.3,0.5l4.3,5.7
		C69,48.8,68.8,50.2,67.8,51z M67.9,35.8L65.1,32l7.8-5.9l1.4,1.9l1.4,1.9L67.9,35.8z"/>
</g>
</svg>
