<?xml version="1.0" encoding="utf-8"?>
<!-- Generator: Adobe Illustrator 27.2.0, SVG Export Plug-In . SVG Version: 6.00 Build 0)  -->
<svg version="1.1" id="Layer_2_00000018926641328783315300000014955604171305634699_"
	 xmlns="http://www.w3.org/2000/svg" xmlns:xlink="http://www.w3.org/1999/xlink" x="0px" y="0px" viewBox="0 0 241.7 233.6"
	 style="enable-background:new 0 0 241.7 233.6;" xml:space="preserve">
<style type="text/css">
	.st0{fill:#CECECE;}
	.st1{fill:#E2E2E2;}
	.st2{fill:#AFAFAF;}
	.st3{fill:#63BCE7;}
	.st4{fill:#63E2E7;}
	.st5{fill:#6377E7;}
	.st6{fill:#707070;}
	.st7{fill:#F46275;}
	.st8{fill:#F8AF23;}
	.st9{fill:#222033;}
</style>
<path class="st0" d="M41.6,188.5c-6.2,0-11.3-5.1-11.3-11.3V75.1c0-6.2,5.1-11.3,11.3-11.3H200c6.2,0,11.3,5.1,11.3,11.3v102.2
	c0,6.2-5.1,11.3-11.3,11.3H41.6z"/>
<path class="st1" d="M200,63.8h-12.1c6.2,0,11.3,5.1,11.3,11.3v102.2c0,6.2-5.1,11.3-11.3,11.3H200c6.2,0,11.3-5.1,11.3-11.3V75.1
	C211.3,68.8,206.3,63.8,200,63.8L200,63.8z"/>
<path class="st2" d="M41.6,63.8h12.1c-6.2,0-11.3,5.1-11.3,11.3v102.2c0,6.2,5.1,11.3,11.3,11.3H41.6c-6.2,0-11.3-5.1-11.3-11.3
	V75.1C30.3,68.8,35.4,63.8,41.6,63.8L41.6,63.8z"/>
<path class="st3" d="M204.4,75.1v102.1c0,2.4-1.9,4.4-4.4,4.4H41.6c-2.4,0-4.4-1.9-4.4-4.4V75.1c0-2.4,1.9-4.4,4.4-4.4H200
	C202.4,70.7,204.4,72.7,204.4,75.1z"/>
<path class="st4" d="M200,70.7h-12.1c2.4,0,4.4,1.9,4.4,4.4v102.1c0,2.4-1.9,4.4-4.4,4.4H200c2.4,0,4.4-1.9,4.4-4.4V75.1
	C204.4,72.7,202.4,70.7,200,70.7z"/>
<path class="st5" d="M41.6,70.7h12.1c-2.4,0-4.4,1.9-4.4,4.4v102.1c0,2.4,1.9,4.4,4.4,4.4H41.6c-2.4,0-4.4-1.9-4.4-4.4V75.1
	C37.3,72.7,39.2,70.7,41.6,70.7z"/>
<path class="st0" d="M120.8,188.5H22.3l2.5,5.8c2.3,5.2,7.4,8.6,13.1,8.6h165.7c5.7,0,10.9-3.4,13.1-8.6l2.5-5.8H120.8L120.8,188.5z
	"/>
<path class="st1" d="M207.2,188.5l-2.5,5.8c-2.3,5.2-7.4,8.6-13.1,8.6h12.1c5.7,0,10.9-3.4,13.1-8.6l2.5-5.8H207.2z"/>
<path class="st2" d="M34.4,188.5l2.5,5.8c2.3,5.2,7.4,8.6,13.1,8.6H38c-5.7,0-10.9-3.4-13.1-8.6l-2.5-5.8H34.4z"/>
<path class="st6" d="M83.2,188.5l3.5,4.4c1.4,1.7,3.4,2.8,5.7,2.8h56.9c2.2,0,4.3-1,5.7-2.8l3.5-4.4H83.2L83.2,188.5z"/>
<rect x="70.9" y="104.2" class="st7" width="100" height="43.9"/>
<path class="st8" d="M119.5,136.3l8-8c0.7-0.7,0.7-1.7,0-2.4l-8-8c-1.1-1.1-2.9-0.3-2.9,1.2v16C116.6,136.6,118.4,137.4,119.5,136.3
	L119.5,136.3z"/>
<circle class="st0" cx="120.8" cy="66.6" r="44.9"/>
<path class="st2" d="M88,66.6c0-22.8,16.9-41.5,38.9-44.5c-2-0.3-4-0.4-6-0.4c-24.8,0-44.9,20.1-44.9,44.9s20.1,44.9,44.9,44.9
	c2.1,0,4.1-0.1,6-0.4C104.9,108.1,88,89.3,88,66.6L88,66.6z"/>
<g>
	<circle class="st8" cx="143" cy="65.5" r="9"/>
	<polygon class="st8" points="134.6,86.6 113.6,75.5 113.6,55.4 134.6,44.3 	"/>
	<rect x="134.6" y="44.3" class="st7" width="8.4" height="42.2"/>
	<rect x="95.9" y="55.4" class="st3" width="17.7" height="20.2"/>
	<rect x="85.3" y="60.4" class="st7" width="10.6" height="10.1"/>
	<rect x="100.9" y="75.6" class="st3" width="7.8" height="15.8"/>
	<g>
		<path class="st9" d="M217.9,194.8l2.5-5.8c0.2-0.4,0.1-0.8-0.1-1.2c-0.2-0.3-0.6-0.6-1-0.6h-11.8c3.1-2.3,5.1-5.9,5.1-10V75.1
			c0-6.9-5.6-12.5-12.5-12.5h-33.2c-2.1-23.6-21.9-42.1-46-42.1S76.9,39,74.9,62.5H41.6c-6.9,0-12.5,5.6-12.5,12.5v102.2
			c0,4.1,2,7.8,5.1,10H22.3c-0.4,0-0.8,0.2-1,0.6c-0.2,0.3-0.3,0.8-0.1,1.2l2.5,5.8c1.3,2.9,3.3,5.2,5.8,6.9h-6.7
			c-0.7,0-1.2,0.6-1.2,1.2c0,0.7,0.6,1.2,1.2,1.2h195.9c0.7,0,1.2-0.6,1.2-1.2c0-0.7-0.6-1.2-1.2-1.2h-6.7
			C214.6,200,216.7,197.7,217.9,194.8L217.9,194.8z M92.4,102.9H70.9c-0.7,0-1.2,0.6-1.2,1.2v43.9c0,0.7,0.6,1.2,1.2,1.2h100
			c0.7,0,1.2-0.6,1.2-1.2v-43.9c0-0.7-0.6-1.2-1.2-1.2h-21.6c9.5-7.4,16-18.4,17.4-31H200c1.7,0,3.1,1.4,3.1,3.1v102.1
			c0,1.7-1.4,3.1-3.1,3.1H41.6c-1.7,0-3.1-1.4-3.1-3.1V75.1c0-1.7,1.4-3.1,3.1-3.1H75C76.5,84.5,83,95.5,92.4,102.9z M145.7,105.4
			h23.8v41.5H72.1v-41.5h23.8c0,0,0,0,0.1,0c7.2,4.6,15.7,7.3,24.9,7.3S138.6,110,145.7,105.4L145.7,105.4z M120.8,22.9
			c24.1,0,43.7,19.6,43.7,43.7s-19.6,43.7-43.7,43.7S77.1,90.7,77.1,66.6S96.7,22.9,120.8,22.9z M31.6,177.2V75c0-5.5,4.5-10,10-10
			h33.1c0,0.5,0,1,0,1.6c0,1,0,1.9,0.1,2.9H41.6c-3.1,0-5.6,2.5-5.6,5.6v102.1c0,3.1,2.5,5.6,5.6,5.6H200c3.1,0,5.6-2.5,5.6-5.6
			V75.1c0-3.1-2.5-5.6-5.6-5.6h-33.1c0.1-1,0.1-1.9,0.1-2.9c0-0.5,0-1,0-1.6H200c5.5,0,10,4.5,10,10v102.2c0,5.5-4.5,10-10,10H41.6
			C36.1,187.2,31.6,182.7,31.6,177.2L31.6,177.2z M155.9,189.7l-1.9,2.4c-1.1,1.4-2.8,2.3-4.7,2.3H92.4c-1.8,0-3.5-0.8-4.7-2.3
			l-1.9-2.4H155.9z M203.7,201.6H38c-4,0-7.6-1.8-10.1-4.7H52c0.7,0,1.2-0.6,1.2-1.2s-0.6-1.2-1.2-1.2H26.3
			c-0.1-0.2-0.2-0.4-0.3-0.7l-1.8-4.1h58.4l3.1,4c1.6,2.1,4,3.2,6.6,3.2h56.9c2.6,0,5-1.2,6.6-3.2l3.1-4h58.4l-1.8,4.1
			c-0.1,0.2-0.2,0.4-0.3,0.7h-25.7c-0.7,0-1.2,0.6-1.2,1.2s0.6,1.2,1.2,1.2h24.1C211.3,199.9,207.6,201.6,203.7,201.6z"/>
		<path class="st9" d="M69,194.4h-8.6c-0.7,0-1.2,0.6-1.2,1.2s0.6,1.2,1.2,1.2H69c0.7,0,1.2-0.6,1.2-1.2S69.7,194.4,69,194.4z"/>
		<path class="st9" d="M181.2,194.4h-8.6c-0.7,0-1.2,0.6-1.2,1.2s0.6,1.2,1.2,1.2h8.6c0.7,0,1.2-0.6,1.2-1.2
			S181.9,194.4,181.2,194.4z"/>
		<path class="st9" d="M37.7,210.7H22.9c-0.7,0-1.2,0.6-1.2,1.2s0.6,1.2,1.2,1.2h14.9c0.7,0,1.2-0.6,1.2-1.2S38.4,210.7,37.7,210.7
			L37.7,210.7z"/>
		<path class="st9" d="M218.8,210.7h-14.9c-0.7,0-1.2,0.6-1.2,1.2s0.6,1.2,1.2,1.2h14.9c0.7,0,1.2-0.6,1.2-1.2
			S219.5,210.7,218.8,210.7z"/>
		<path class="st9" d="M195.5,210.7H46.2c-0.7,0-1.2,0.6-1.2,1.2s0.6,1.2,1.2,1.2h149.4c0.7,0,1.2-0.6,1.2-1.2
			S196.2,210.7,195.5,210.7L195.5,210.7z"/>
		<path class="st9" d="M117.2,116.4c-1.1,0.5-1.8,1.5-1.8,2.7v16c0,1.2,0.7,2.3,1.8,2.7c0.4,0.1,0.8,0.2,1.1,0.2
			c0.8,0,1.5-0.3,2.1-0.9l8-8c0.6-0.6,0.9-1.3,0.9-2.1c0-0.8-0.3-1.5-0.9-2.1l-8-8C119.5,116.1,118.3,115.9,117.2,116.4L117.2,116.4
			z M126.8,127.1c0,0.1,0,0.2-0.1,0.3l-8,8c-0.2,0.2-0.4,0.1-0.5,0.1c-0.1,0-0.3-0.2-0.3-0.4v-16c0-0.3,0.2-0.4,0.3-0.4
			c0,0,0.1,0,0.2,0c0.1,0,0.2,0,0.3,0.1l8,8C126.8,126.9,126.8,127,126.8,127.1L126.8,127.1z"/>
		<path class="st9" d="M94.7,75.6c0,0.7,0.6,1.2,1.2,1.2h3.7v14.6c0,0.7,0.6,1.2,1.2,1.2h7.8c0.7,0,1.2-0.6,1.2-1.2V76.8h3.4
			L134,87.7l0,0c0.2,0.1,0.4,0.1,0.6,0.1h8.4c0.7,0,1.2-0.6,1.2-1.2v-11c5.1-0.6,9-4.9,9-10.1c0-5.2-3.9-9.5-9-10.1v-11
			c0-0.7-0.6-1.2-1.2-1.2h-8.4c-0.2,0-0.4,0.1-0.6,0.1l0,0l-20.7,10.9H95.9c-0.7,0-1.2,0.6-1.2,1.2v3.8h-9.3c-0.7,0-1.2,0.6-1.2,1.2
			v10.1c0,0.7,0.6,1.2,1.2,1.2h9.3L94.7,75.6L94.7,75.6L94.7,75.6z M150.7,65.5c0,3.8-2.8,7-6.5,7.6V57.8
			C147.9,58.4,150.7,61.6,150.7,65.5L150.7,65.5z M135.8,45.6h5.9v39.8h-5.9C135.8,85.3,135.8,45.6,135.8,45.6z M107.4,90.1h-5.3
			V76.8h5.3V90.1z M133.4,84.5l-18.5-9.7V56.1l18.5-9.7V84.5L133.4,84.5z M97.2,56.6h15.2v17.7H97.2V56.6
			C97.2,56.6,97.2,56.6,97.2,56.6z M86.6,69.3v-7.6h8.1v7.6H86.6z"/>
	</g>
</g>
</svg>
