<?xml version="1.0" encoding="utf-8"?>
<!-- Generator: Adobe Illustrator 27.2.0, SVG Export Plug-In . SVG Version: 6.00 Build 0)  -->
<svg version="1.1" id="Layer_2_00000134234196606522680920000007744160069019946674_"
	 xmlns="http://www.w3.org/2000/svg" xmlns:xlink="http://www.w3.org/1999/xlink" x="0px" y="0px" viewBox="0 0 723.9 165.7"
	 style="enable-background:new 0 0 723.9 165.7;" xml:space="preserve">
<style type="text/css">
	.st0{fill:#8CC8DD;}
	.st1{fill:#FFFFFF;}
	.st2{fill:#296D7F;}
	.st3{fill:#0986BF;}
	.st4{display:none;}
	.st5{display:inline;fill:#FFFFFF;}
</style>
<g id="Layer_1-2">
	<g>
		<g>
			<g id="frente">
				<path class="st0" d="M121.9,152.9c-0.4,1.2-2,6.4-6.1,9.3c-1.4,1-5.2,4.8-18.2,1.2c-12-3.3-15.1-8.6-25.4-12.2
					c-9.7-3.4-10.5-1.2-22.1-4c-7.2-1.7-24.5-6-37.6-20c-4.8-5.1-13.8-16.1-11.2-24.5c1.9-6.2,8.4-9.2,9.3-9.6
					c14.2-6.3,37.2,5.6,46.5,16.5c1.5,1.8,6.7,8.4,15.6,12.7c1.6,0.8,11.2,3.7,22.9,5.7C118.3,132,124.9,143.4,121.9,152.9
					L121.9,152.9L121.9,152.9z"/>
				<path class="st1" d="M107.2,165.7c-2.5,0-5.8-0.4-9.9-1.6c-6.7-1.9-10.7-4.4-14.6-6.8c-3.2-2-6.3-3.9-10.8-5.5
					c-5.2-1.8-7.7-2-10.9-2.3c-2.7-0.2-5.8-0.4-11.1-1.7c-6.7-1.6-24.5-5.9-38-20.3C6.5,121.9-2.2,111,0.5,102.4
					c1.9-6.2,7.9-9.3,9.8-10.1c14.8-6.6,38,5.5,47.4,16.8l0.3,0.3c1.9,2.2,6.8,8.2,15,12.2c1.3,0.6,10.6,3.5,22.7,5.7
					c16,2.8,22.7,8.9,25.5,13.5c1.9,3.1,2.6,6.4,2.1,9.8l0.3-0.3l-0.9,3c-1.3,4.4-3.6,7.7-6.4,9.7c-0.1,0.1-0.2,0.1-0.3,0.2
					C114.7,164,112.4,165.7,107.2,165.7L107.2,165.7z M19.6,92c-3.1,0-6.1,0.5-8.7,1.7c-1.6,0.7-7.2,3.6-8.9,9.1
					c-2.4,7.8,5.8,18.2,11,23.7c13.2,14.1,30.6,18.2,37.2,19.8c5.2,1.2,8.2,1.5,10.9,1.7c3.2,0.2,5.9,0.4,11.3,2.3
					c4.7,1.7,8,3.7,11.1,5.6c4,2.4,7.7,4.8,14.2,6.6c11.7,3.3,15.5,0.4,17.2-0.8c0.1-0.1,0.3-0.2,0.4-0.3c2.3-1.6,4.2-4.4,5.5-7.9
					l0.3-0.9c1.2-3.8,0.7-7.7-1.4-11.2c-2.6-4.3-9-10.1-24.4-12.8c-12.1-2.1-21.5-5.1-23.1-5.8c-8.5-4.2-13.8-10.5-15.6-12.6
					l-0.3-0.3C49.2,101.5,32.9,92,19.6,92L19.6,92z"/>
			</g>
			<g id="frente-2">
				<path class="st2" d="M117.5,157.7c-1.1,0.9-5.6,5.1-11.2,5.6c-1.9,0.1-7.8,1.8-18.5-9.2C78,144,77.9,137.1,70,127.7
					c-7.5-8.8-9.6-7.2-19.3-16.4c-6-5.8-20.5-19.8-25.4-40.9c-1.8-7.7-4.4-23.5,3-30.3c5.4-5,13.5-4.2,14.5-4.1
					c17.5,1.9,33.2,26.6,36,42.5c0.5,2.6,1.8,12,8,21.3c1.1,1.6,8.8,9.9,19.1,18.6C125.9,135.1,125.9,150,117.5,157.7L117.5,157.7
					L117.5,157.7z"/>
				<path class="st1" d="M104,164.2c-3.1,0-8.6-1.2-16.8-9.6c-5.5-5.6-8-10.3-10.4-14.9c-2-3.8-3.9-7.4-7.5-11.5
					c-4-4.7-6.4-6.3-9.3-8.4c-2.5-1.7-5.4-3.7-9.9-8c-5.6-5.4-20.6-19.7-25.6-41.3c-2-8.7-4.2-24.2,3.3-31.1
					C33.5,34.1,42,35,43,35.1c17.8,1.9,33.9,27.3,36.7,43.2l0.1,0.5c0.6,3.2,2,11.8,7.8,20.5c0.9,1.4,8.3,9.5,18.9,18.4
					c14,11.8,17.1,21.5,17.2,27.6c0.1,5.1-1.8,9.6-5.6,13l-1.3,1.2v-0.1c-3.5,2.8-6.9,4.4-10.3,4.6c-0.1,0-0.3,0-0.4,0.1
					C105.4,164.2,104.8,164.2,104,164.2L104,164.2z M40.6,36.6c-2.9,0-8,0.5-11.8,4c-6.9,6.3-4.7,21.2-2.8,29.5
					c4.9,21.2,19.6,35.2,25.1,40.5c4.4,4.2,7.2,6.1,9.7,7.8c3,2,5.5,3.8,9.7,8.7c3.6,4.3,5.7,8.1,7.7,11.8c2.4,4.4,4.8,9,10.2,14.5
					c9.6,9.9,15.2,9.2,17.3,9c0.2,0,0.4,0,0.5-0.1c3.5-0.3,7.1-2.1,10.7-5.3l0.5-0.4c3.1-3,4.7-7,4.6-11.4
					c-0.1-5.7-3.1-15-16.6-26.4c-10.6-8.9-18.1-17.1-19.2-18.8c-6-8.9-7.5-17.8-8-21.1L78,78.6c-2.7-15.4-18.2-40-35.3-41.9
					C42.5,36.7,41.7,36.6,40.6,36.6L40.6,36.6z M117.5,157.7l0.5,0.6L117.5,157.7z"/>
			</g>
			<g id="frente-3">
				<path class="st3" d="M111,163.3c-1.6,0.3-8.2,1.5-13.7-1.5c-1.9-1-8.3-3-11.7-19.5c-3.1-15.2,0.9-21.6-0.9-35.1
					C83,94.5,80,94.9,76.5,80.5c-2.2-9-7.3-30.6,0.7-53.1C80.1,19.2,87.1,3,98,1c8-1.4,15,4.1,16,4.8c15.1,12.1,15,44.4,8.2,60.9
					c-1.1,2.7-5.5,12.2-5.2,24.5c0,2.2,2.3,14.4,6.7,28.6C132.2,147.3,123.4,161.2,111,163.3L111,163.3L111,163.3z"/>
				<path class="st1" d="M105.9,164.5c-4.2,0-7.2-1-9.1-2c-0.1-0.1-0.3-0.1-0.4-0.2c-2.5-1.2-8.4-4.1-11.7-19.8
					c-1.8-8.5-1.3-14.3-0.8-20c0.3-4.5,0.7-9.2-0.1-15.2c-0.9-6.8-2.1-9.7-3.7-13.4c-1.3-3.1-2.8-6.6-4.4-13.3
					c-2-8.3-7.4-30.5,0.8-53.5c3.3-9.2,10.4-24.9,21.4-26.9c7.9-1.4,14.7,3.5,16.6,5c15.4,12.4,15.3,45.4,8.4,61.8l-0.2,0.5
					c-1.4,3.3-5.2,12.2-4.9,23.7c0.1,2.2,2.4,14.6,6.7,28.4c6,19.2,3.1,30.1-0.4,35.8c-2.9,4.8-7.4,7.8-12.8,8.7l-0.4,0.1l0,0
					C109,164.4,107.4,164.5,105.9,164.5L105.9,164.5z M111,163.3l0.1,0.8L111,163.3z M100.7,1.6c-0.8,0-1.7,0.1-2.6,0.2
					C88,3.6,81.1,18.8,78,27.7c-8,22.6-2.7,44.4-0.7,52.6c1.6,6.5,3.1,10,4.4,13c1.6,3.7,2.9,6.8,3.8,13.8
					c0.8,6.1,0.4,10.9,0.1,15.5c-0.4,5.5-0.9,11.3,0.8,19.5c3.1,14.9,8.7,17.6,10.8,18.7c0.2,0.1,0.4,0.2,0.5,0.3
					c2.4,1.3,6.6,2.6,13.2,1.4l0.4-0.1h0c4.8-0.9,8.7-3.6,11.3-7.9c3.3-5.4,6.1-15.8,0.2-34.4c-4.6-14.6-6.7-26.7-6.7-28.8
					c-0.2-11.8,3.8-21.2,5.1-24.4l0.2-0.5c6.7-16,6.9-48-7.9-59.9C111.9,5.3,106.8,1.6,100.7,1.6L100.7,1.6z"/>
			</g>
		</g>
		<g>
			<g>
				<g>
					<path class="st1" d="M176.8,93.1c-4,3.8-10,5.7-18.1,5.7h-13.4v29.1h-9.1V58.3h22.5c7.9,0,13.8,1.9,17.9,5.7
						c4.1,3.8,6.1,8.7,6.1,14.7S180.8,89.3,176.8,93.1L176.8,93.1z M169.9,88.1c2.4-2.2,3.6-5.3,3.6-9.4c0-8.6-4.9-12.9-14.8-12.9
						h-13.4v25.6h13.4C163.7,91.4,167.5,90.3,169.9,88.1L169.9,88.1z"/>
					<path class="st1" d="M188,85.6c2.3-4.2,5.4-7.5,9.3-9.8c4-2.3,8.4-3.5,13.2-3.5s9,1,12.5,3.1s6.2,4.7,7.9,7.8v-10h9.2V128H231
						v-10.2c-1.8,3.2-4.5,5.8-8,7.9c-3.6,2.1-7.7,3.2-12.4,3.2s-9.3-1.2-13.2-3.6c-3.9-2.4-7-5.8-9.3-10.1
						c-2.3-4.3-3.4-9.3-3.4-14.8S185.8,89.9,188,85.6L188,85.6z M228.5,89.7c-1.7-3.1-3.9-5.4-6.7-7c-2.8-1.6-5.9-2.4-9.3-2.4
						s-6.5,0.8-9.3,2.4c-2.8,1.6-5,3.9-6.7,7c-1.7,3.1-2.5,6.7-2.5,10.8s0.8,7.8,2.5,10.9c1.7,3.1,3.9,5.5,6.7,7.1
						c2.8,1.6,5.9,2.4,9.3,2.4s6.5-0.8,9.3-2.4c2.8-1.6,5.1-4,6.7-7.1c1.7-3.1,2.5-6.7,2.5-10.8S230.2,92.8,228.5,89.7L228.5,89.7z"
						/>
					<path class="st1" d="M258.7,54V128h-9.1V54H258.7z"/>
					<path class="st1" d="M345.4,74.9c3.3,1.8,6,4.4,7.9,7.9c1.9,3.5,2.9,7.8,2.9,12.9V128h-9V97c0-5.5-1.4-9.6-4-12.5
						c-2.7-2.9-6.3-4.3-10.9-4.3s-8.5,1.5-11.3,4.6c-2.8,3-4.2,7.4-4.2,13.1V128h-9V97c0-5.5-1.4-9.6-4-12.5
						c-2.7-2.9-6.3-4.3-10.9-4.3s-8.5,1.5-11.3,4.6c-2.8,3-4.2,7.4-4.2,13.1V128h-9.1V73.2h9.1v7.9c1.8-2.9,4.2-5.1,7.2-6.6
						s6.4-2.3,10-2.3c4.6,0,8.7,1,12.2,3.1s6.2,5.1,7.9,9.1c1.5-3.9,4.1-6.9,7.6-9c3.5-2.1,7.5-3.2,11.8-3.2S342,73.1,345.4,74.9
						L345.4,74.9z"/>
					<path class="st1" d="M365.4,62.5c-1.2-1.2-1.8-2.7-1.8-4.4s0.6-3.2,1.8-4.4c1.2-1.2,2.7-1.8,4.4-1.8s3.1,0.6,4.2,1.8
						c1.2,1.2,1.8,2.7,1.8,4.4s-0.6,3.2-1.8,4.4s-2.6,1.8-4.2,1.8S366.6,63.7,365.4,62.5z M374.2,73.2V128h-9.1V73.2
						C365.1,73.2,374.2,73.2,374.2,73.2z"/>
					<path class="st1" d="M392.7,54V128h-9.1V54H392.7z"/>
					<path class="st1" d="M440.6,74.9c3.3,1.8,5.9,4.4,7.8,7.9s2.9,7.8,2.9,12.9V128h-9V97c0-5.5-1.4-9.6-4.1-12.5
						s-6.5-4.3-11.2-4.3s-8.6,1.5-11.4,4.5c-2.8,3-4.2,7.4-4.2,13.1V128h-9.1V54h9.1v27c1.8-2.8,4.3-5,7.4-6.5
						c3.2-1.5,6.7-2.3,10.6-2.3C433.5,72.2,437.3,73.1,440.6,74.9L440.6,74.9z"/>
					<path class="st1" d="M460.2,85.6c2.3-4.2,5.4-7.5,9.3-9.8s8.4-3.5,13.2-3.5s9,1,12.5,3.1s6.2,4.7,7.9,7.8v-10h9.2V128h-9.2
						v-10.2c-1.8,3.2-4.5,5.8-8,7.9c-3.6,2.1-7.7,3.2-12.4,3.2s-9.3-1.2-13.2-3.6s-7-5.8-9.3-10.1c-2.3-4.3-3.4-9.3-3.4-14.8
						S457.9,89.9,460.2,85.6L460.2,85.6z M500.6,89.7c-1.7-3.1-3.9-5.4-6.7-7c-2.8-1.6-6-2.4-9.3-2.4s-6.5,0.8-9.3,2.4
						c-2.8,1.6-5,3.9-6.7,7c-1.7,3.1-2.5,6.7-2.5,10.8s0.8,7.8,2.5,10.9c1.7,3.1,3.9,5.5,6.7,7.1c2.8,1.6,5.9,2.4,9.3,2.4
						s6.5-0.8,9.3-2.4c2.8-1.6,5.1-4,6.7-7.1c1.7-3.1,2.5-6.7,2.5-10.8S502.3,92.8,500.6,89.7L500.6,89.7z"/>
					<path class="st1" d="M564.6,78.3c4.1,4,6.2,9.8,6.2,17.4V128h-9V97c0-5.5-1.4-9.6-4.1-12.5s-6.5-4.3-11.2-4.3
						s-8.6,1.5-11.4,4.5s-4.2,7.4-4.2,13.1V128h-9.1V73.2h9.1V81c1.8-2.8,4.2-5,7.3-6.5c3.1-1.5,6.5-2.3,10.2-2.3
						C555.1,72.2,560.5,74.2,564.6,78.3L564.6,78.3z"/>
					<path class="st1" d="M579.7,85.6c2.3-4.2,5.4-7.5,9.3-9.8s8.4-3.5,13.3-3.5c4.3,0,8.2,1,11.9,3c3.7,2,6.5,4.5,8.4,7.7V54h9.2
						V128h-9.2v-10.3c-1.8,3.3-4.5,5.9-8,8c-3.5,2.1-7.7,3.2-12.4,3.2s-9.3-1.2-13.2-3.6c-4-2.4-7.1-5.8-9.3-10.1
						c-2.3-4.3-3.4-9.3-3.4-14.8S577.4,89.9,579.7,85.6L579.7,85.6z M620.1,89.7c-1.7-3.1-3.9-5.4-6.7-7c-2.8-1.6-6-2.4-9.3-2.4
						s-6.5,0.8-9.3,2.4c-2.8,1.6-5,3.9-6.7,7c-1.7,3.1-2.5,6.7-2.5,10.8s0.8,7.8,2.5,10.9c1.7,3.1,3.9,5.5,6.7,7.1
						c2.8,1.6,5.9,2.4,9.3,2.4s6.5-0.8,9.3-2.4c2.8-1.6,5.1-4,6.7-7.1c1.7-3.1,2.5-6.7,2.5-10.8S621.8,92.8,620.1,89.7L620.1,89.7z"
						/>
					<path class="st1" d="M651.2,125.4c-4.2-2.3-7.4-5.6-9.8-9.9c-2.4-4.3-3.5-9.3-3.5-14.9s1.2-10.5,3.7-14.8
						c2.4-4.3,5.8-7.6,9.9-9.9c4.2-2.3,8.9-3.5,14.1-3.5s9.9,1.2,14.1,3.5c4.2,2.3,7.5,5.6,9.9,9.8s3.7,9.2,3.7,14.9
						s-1.2,10.6-3.8,14.9s-5.9,7.6-10.1,9.9s-9,3.5-14.2,3.5S655.3,127.7,651.2,125.4L651.2,125.4z M674.3,118.6
						c2.9-1.5,5.2-3.8,6.9-6.9c1.8-3.1,2.7-6.8,2.7-11.2s-0.9-8.1-2.6-11.2c-1.7-3.1-4-5.3-6.8-6.8c-2.8-1.5-5.8-2.2-9.1-2.2
						s-6.4,0.8-9.1,2.2s-5,3.8-6.6,6.8c-1.7,3.1-2.5,6.8-2.5,11.2s0.8,8.2,2.5,11.3c1.6,3.1,3.8,5.3,6.5,6.8c2.7,1.5,5.7,2.2,9,2.2
						S671.4,120.1,674.3,118.6z"/>
				</g>
			</g>
			<g>
				<g>
					<path class="st1" d="M712.2,55.3c1.8,1,3.2,2.4,4.2,4.2c1,1.8,1.5,3.8,1.5,6.1c0,2.2-0.5,4.3-1.5,6.1c-1,1.8-2.4,3.2-4.2,4.3
						c-1.8,1-3.8,1.5-6,1.5s-4.3-0.5-6.1-1.5c-1.8-1-3.2-2.4-4.2-4.3c-1-1.8-1.5-3.8-1.5-6.1c0-2.2,0.5-4.3,1.5-6.1
						c1-1.8,2.4-3.2,4.2-4.2c1.8-1,3.8-1.5,6.1-1.5S710.5,54.3,712.2,55.3z M713,72.5c1.7-1.8,2.6-4.1,2.6-6.9
						c0-2.8-0.9-5.1-2.6-6.9c-1.7-1.8-4-2.7-6.8-2.7s-5.1,0.9-6.8,2.7s-2.5,4.1-2.5,6.9c0,2.8,0.8,5.1,2.5,6.9s3.9,2.7,6.8,2.7
						S711.2,74.3,713,72.5z M710.7,65.5c-0.5,0.6-1.2,1.1-2,1.4l3.2,4.8l-3.7,0.1l-2.8-4.6h-1v4.6h-3V59.3h5.6c1.3,0,2.4,0.3,3.2,1
						s1.2,1.6,1.2,2.8C711.4,64.1,711.2,64.9,710.7,65.5L710.7,65.5z M704.5,64.6h2.4c0.4,0,0.8-0.1,1.1-0.3c0.3-0.2,0.4-0.6,0.4-1
						s-0.1-0.7-0.4-1c-0.3-0.2-0.7-0.3-1.1-0.3h-2.4V64.6L704.5,64.6z"/>
				</g>
			</g>
		</g>
		<g class="st4">
			<path class="st5" d="M146.5,133.2h-5.7v-2.1h13.8v2.1H149v16.6h-2.4L146.5,133.2L146.5,133.2z"/>
			<path class="st5" d="M166.6,146.2c0,1.4,0,2.6,0.1,3.6h-2.2l-0.1-2.2h-0.1c-0.6,1.1-2.1,2.5-4.4,2.5c-2.1,0-4.6-1.2-4.6-5.9v-7.8
				h2.4v7.4c0,2.5,0.8,4.3,3,4.3c1.6,0,2.8-1.1,3.2-2.2c0.1-0.4,0.2-0.8,0.2-1.2v-8.2h2.4L166.6,146.2L166.6,146.2z"/>
			<path class="st5" d="M182.2,130.2v16.2c0,1.2,0,2.5,0.1,3.5h-2.2l-0.1-2.3H180c-0.8,1.5-2.4,2.6-4.6,2.6c-3.2,0-5.7-2.7-5.7-6.8
				c0-4.4,2.7-7.2,6-7.2c2.1,0,3.4,1,4,2.1h0.1v-8L182.2,130.2L182.2,130.2z M179.8,141.9c0-0.3,0-0.7-0.1-1
				c-0.4-1.6-1.7-2.8-3.5-2.8c-2.5,0-4,2.2-4,5.2c0,2.7,1.3,4.9,3.9,4.9c1.6,0,3.1-1.1,3.6-2.9c0.1-0.3,0.1-0.7,0.1-1.1L179.8,141.9
				L179.8,141.9z"/>
			<path class="st5" d="M198.3,143c0,4.9-3.4,7.1-6.7,7.1c-3.6,0-6.4-2.6-6.4-6.9c0-4.5,2.9-7.1,6.6-7.1S198.3,138.9,198.3,143
				L198.3,143z M187.7,143.2c0,2.9,1.7,5.1,4.1,5.1s4.1-2.2,4.1-5.2c0-2.3-1.1-5.1-4-5.1S187.7,140.6,187.7,143.2L187.7,143.2z"/>
			<path class="st5" d="M216.4,147.8L216.4,147.8c-0.8,1.3-2.3,2.4-4.4,2.4c-3.1,0-5.7-2.7-5.7-6.8c0-5,3.2-7.2,6.1-7.2
				c2.1,0,3.5,1,4.1,2.3h0.1l0.1-2h2.3c-0.1,1.1-0.1,2.3-0.1,3.7v15.2h-2.4V147.8z M216.4,141.9c0-0.3,0-0.7-0.1-1
				c-0.4-1.5-1.7-2.8-3.5-2.8c-2.5,0-4,2.1-4,5.1c0,2.6,1.3,5,3.9,5c1.6,0,2.9-1,3.5-2.6c0.1-0.3,0.2-0.8,0.2-1.2L216.4,141.9
				L216.4,141.9z"/>
			<path class="st5" d="M234,146.2c0,1.4,0,2.6,0.1,3.6H232l-0.1-2.2h-0.1c-0.6,1.1-2.1,2.5-4.4,2.5c-2.1,0-4.6-1.2-4.6-5.9v-7.8
				h2.4v7.4c0,2.5,0.8,4.3,3,4.3c1.6,0,2.8-1.1,3.2-2.2c0.1-0.4,0.2-0.8,0.2-1.2v-8.2h2.4L234,146.2L234,146.2z"/>
			<path class="st5" d="M239.4,143.6c0.1,3.3,2.2,4.6,4.6,4.6c1.7,0,2.8-0.3,3.7-0.7l0.4,1.7c-0.9,0.4-2.3,0.8-4.4,0.8
				c-4.1,0-6.6-2.7-6.6-6.8s2.4-7.2,6.3-7.2c4.4,0,5.5,3.8,5.5,6.3c0,0.5-0.1,0.9-0.1,1.1L239.4,143.6L239.4,143.6z M246.6,141.8
				c0-1.6-0.6-3.9-3.4-3.9c-2.5,0-3.5,2.3-3.7,3.9H246.6L246.6,141.8z"/>
			<path class="st5" d="M258.7,136.5l2.6,7.5c0.4,1.2,0.8,2.3,1.1,3.4h0.1c0.3-1.1,0.7-2.2,1.1-3.4l2.6-7.5h2.5l-5.2,13.4h-2.3
				l-5.1-13.4H258.7z"/>
			<path class="st5" d="M282.9,143c0,4.9-3.4,7.1-6.7,7.1c-3.6,0-6.4-2.6-6.4-6.9c0-4.5,2.9-7.1,6.6-7.1S283,138.9,282.9,143
				L282.9,143z M272.3,143.2c0,2.9,1.7,5.1,4.1,5.1s4.1-2.2,4.1-5.2c0-2.3-1.1-5.1-4-5.1S272.3,140.6,272.3,143.2L272.3,143.2z"/>
			<path class="st5" d="M295.5,149.3c-0.6,0.3-2,0.8-3.8,0.8c-4,0-6.7-2.7-6.7-6.8s2.8-7.1,7.2-7.1c1.4,0,2.7,0.4,3.4,0.7l-0.5,1.9
				c-0.6-0.3-1.5-0.6-2.8-0.6c-3.1,0-4.7,2.3-4.7,5.1c0,3.1,2,5,4.6,5c1.4,0,2.3-0.4,3-0.7L295.5,149.3L295.5,149.3z"/>
			<path class="st5" d="M299.6,143.6c0.1,3.3,2.2,4.6,4.6,4.6c1.7,0,2.8-0.3,3.7-0.7l0.4,1.7c-0.9,0.4-2.3,0.8-4.5,0.8
				c-4.1,0-6.6-2.7-6.6-6.8s2.4-7.2,6.3-7.2c4.4,0,5.5,3.8,5.5,6.3c0,0.5-0.1,0.9-0.1,1.1L299.6,143.6L299.6,143.6z M306.7,141.8
				c0-1.6-0.6-3.9-3.4-3.9c-2.5,0-3.5,2.3-3.7,3.9H306.7L306.7,141.8z M304.3,130.7l2.6,3.9h-1.9l-1.6-2.6h-0.1l-1.6,2.6H300
				l2.6-3.9H304.3L304.3,130.7z"/>
			<path class="st5" d="M318,140.8c0-1.7-0.1-3.1-0.1-4.4h2.2l0.1,2.3h0c1-1.6,2.6-2.6,4.8-2.6c3.2,0,5.7,2.7,5.7,6.8
				c0,4.8-2.9,7.2-6.1,7.2c-1.8,0-3.3-0.8-4.1-2.1h0v7.3H318L318,140.8L318,140.8z M320.4,144.4c0,0.4,0,0.7,0.1,1
				c0.4,1.7,1.9,2.9,3.6,2.9c2.6,0,4.1-2.1,4.1-5.2c0-2.7-1.4-5-4-5c-1.7,0-3.2,1.2-3.7,3c-0.1,0.3-0.2,0.7-0.2,1L320.4,144.4
				L320.4,144.4z"/>
			<path class="st5" d="M333.7,140.6c0-1.6,0-2.9-0.1-4.2h2.1l0.1,2.6h0.1c0.6-1.8,2.1-2.9,3.7-2.9c0.3,0,0.5,0,0.7,0.1v2.3
				c-0.2-0.1-0.5-0.1-0.8-0.1c-1.7,0-2.9,1.3-3.3,3.1c0,0.3-0.1,0.7-0.1,1.1v7.1h-2.4L333.7,140.6L333.7,140.6z"/>
			<path class="st5" d="M343.8,143.6c0.1,3.3,2.2,4.6,4.6,4.6c1.7,0,2.8-0.3,3.7-0.7l0.4,1.7c-0.9,0.4-2.3,0.8-4.5,0.8
				c-4.1,0-6.6-2.7-6.6-6.8s2.4-7.2,6.3-7.2c4.4,0,5.5,3.8,5.5,6.3c0,0.5,0,0.9-0.1,1.1L343.8,143.6L343.8,143.6z M350.9,141.8
				c0-1.6-0.6-3.9-3.4-3.9c-2.5,0-3.5,2.3-3.7,3.9H350.9L350.9,141.8z"/>
			<path class="st5" d="M365.9,149.3c-0.6,0.3-2,0.8-3.8,0.8c-4,0-6.7-2.7-6.7-6.8s2.8-7.1,7.2-7.1c1.4,0,2.7,0.4,3.4,0.7l-0.5,1.9
				c-0.6-0.3-1.5-0.6-2.8-0.6c-3.1,0-4.7,2.3-4.7,5.1c0,3.1,2,5,4.6,5c1.4,0,2.3-0.4,3-0.7L365.9,149.3L365.9,149.3z"/>
			<path class="st5" d="M371.4,132.7c0,0.8-0.6,1.5-1.5,1.5c-0.9,0-1.5-0.7-1.5-1.5s0.6-1.5,1.5-1.5S371.4,131.8,371.4,132.7z
				 M368.7,149.8v-13.4h2.4v13.4H368.7z"/>
			<path class="st5" d="M374.8,147.4c0.7,0.5,2,1,3.2,1c1.8,0,2.6-0.9,2.6-2c0-1.2-0.7-1.8-2.5-2.5c-2.4-0.9-3.5-2.2-3.5-3.8
				c0-2.2,1.7-3.9,4.6-3.9c1.4,0,2.5,0.4,3.3,0.8l-0.6,1.8c-0.5-0.3-1.5-0.8-2.7-0.8c-1.4,0-2.2,0.8-2.2,1.8c0,1.1,0.8,1.6,2.5,2.3
				c2.3,0.9,3.5,2.1,3.5,4c0,2.4-1.8,4-5,4c-1.5,0-2.8-0.4-3.8-0.9L374.8,147.4L374.8,147.4z"/>
			<path class="st5" d="M393.5,149.8l-0.2-1.7h-0.1c-0.8,1.1-2.2,2-4.1,2c-2.7,0-4.1-1.9-4.1-3.8c0-3.2,2.9-5,8-5V141
				c0-1.1-0.3-3.1-3-3.1c-1.2,0-2.5,0.4-3.5,1l-0.5-1.6c1.1-0.7,2.7-1.2,4.4-1.2c4.1,0,5.1,2.8,5.1,5.5v5c0,1.2,0.1,2.3,0.2,3.2
				L393.5,149.8L393.5,149.8z M393.2,143c-2.6-0.1-5.7,0.4-5.7,3c0,1.6,1,2.3,2.3,2.3c1.7,0,2.9-1.1,3.2-2.2
				c0.1-0.2,0.1-0.5,0.1-0.8L393.2,143L393.2,143z"/>
			<path class="st5" d="M405,147.4c0.7,0.5,2,1,3.2,1c1.8,0,2.6-0.9,2.6-2c0-1.2-0.7-1.8-2.5-2.5c-2.4-0.9-3.5-2.2-3.5-3.8
				c0-2.2,1.7-3.9,4.6-3.9c1.4,0,2.5,0.4,3.3,0.8l-0.6,1.8c-0.5-0.3-1.5-0.8-2.7-0.8c-1.4,0-2.2,0.8-2.2,1.8c0,1.1,0.8,1.6,2.5,2.3
				c2.3,0.9,3.5,2.1,3.5,4c0,2.4-1.8,4-5,4c-1.5,0-2.8-0.4-3.8-0.9L405,147.4L405,147.4z"/>
			<path class="st5" d="M423.7,149.8l-0.2-1.7h-0.1c-0.8,1.1-2.2,2-4.1,2c-2.7,0-4.1-1.9-4.1-3.8c0-3.2,2.9-5,8-5V141
				c0-1.1-0.3-3.1-3-3.1c-1.2,0-2.5,0.4-3.5,1l-0.5-1.6c1.1-0.7,2.7-1.2,4.4-1.2c4.1,0,5.1,2.8,5.1,5.5v5c0,1.2,0,2.3,0.2,3.2
				L423.7,149.8L423.7,149.8z M423.3,143c-2.6-0.1-5.7,0.4-5.7,3c0,1.6,1,2.3,2.3,2.3c1.7,0,2.9-1.1,3.2-2.2
				c0.1-0.2,0.1-0.5,0.1-0.8V143L423.3,143z"/>
			<path class="st5" d="M429.5,149.8c0-0.9,0.1-2.3,0.1-3.5v-16.2h2.4v8.4h0c0.9-1.5,2.4-2.5,4.6-2.5c3.3,0,5.7,2.8,5.6,6.8
				c0,4.8-3,7.2-6,7.2c-1.9,0-3.5-0.8-4.5-2.5h-0.1l-0.1,2.2H429.5z M432,144.5c0,0.3,0,0.6,0.1,0.9c0.5,1.7,1.9,2.9,3.6,2.9
				c2.5,0,4.1-2.1,4.1-5.1c0-2.7-1.4-5-4-5c-1.7,0-3.2,1.1-3.7,3c-0.1,0.3-0.1,0.6-0.1,1L432,144.5L432,144.5z"/>
			<path class="st5" d="M446.7,143.6c0.1,3.3,2.2,4.6,4.6,4.6c1.7,0,2.8-0.3,3.7-0.7l0.4,1.7c-0.9,0.4-2.3,0.8-4.5,0.8
				c-4.1,0-6.6-2.7-6.6-6.8s2.4-7.2,6.3-7.2c4.4,0,5.5,3.8,5.5,6.3c0,0.5,0,0.9-0.1,1.1L446.7,143.6L446.7,143.6z M453.8,141.8
				c0-1.6-0.6-3.9-3.4-3.9c-2.5,0-3.5,2.3-3.7,3.9H453.8L453.8,141.8z"/>
			<path class="st5" d="M459.2,140.6c0-1.6,0-2.9-0.1-4.2h2.1l0.1,2.6h0.1c0.6-1.8,2.1-2.9,3.7-2.9c0.3,0,0.5,0,0.7,0.1v2.3
				c-0.2-0.1-0.5-0.1-0.8-0.1c-1.7,0-2.9,1.3-3.3,3.1c0,0.3-0.1,0.7-0.1,1.1v7.1h-2.4L459.2,140.6L459.2,140.6z"/>
			<path class="st5" d="M465.2,153.2c0.6-1.6,1.4-4.6,1.7-6.6l2.7-0.3c-0.6,2.4-1.9,5.4-2.6,6.7L465.2,153.2z"/>
			<path class="st5" d="M478.4,140.1c0-1.4,0-2.5-0.1-3.6h2.2l0.1,2.2h0c0.7-1.3,2.2-2.5,4.4-2.5c1.9,0,4.7,1.1,4.7,5.7v8h-2.4v-7.7
				c0-2.2-0.8-3.9-3.1-3.9c-1.6,0-2.9,1.1-3.3,2.5c-0.1,0.3-0.2,0.7-0.2,1.1v8.1h-2.4L478.4,140.1L478.4,140.1z"/>
			<path class="st5" d="M501.1,149.8l-0.2-1.7h-0.1c-0.8,1.1-2.2,2-4.1,2c-2.7,0-4.1-1.9-4.1-3.8c0-3.2,2.9-5,8-5V141
				c0-1.1-0.3-3.1-3-3.1c-1.2,0-2.5,0.4-3.5,1l-0.5-1.6c1.1-0.7,2.7-1.2,4.4-1.2c4.1,0,5.1,2.8,5.1,5.5v5c0,1.2,0.1,2.3,0.2,3.2
				L501.1,149.8L501.1,149.8z M500.7,143c-2.6-0.1-5.7,0.4-5.7,3c0,1.6,1,2.3,2.3,2.3c1.7,0,2.9-1.1,3.2-2.2
				c0.1-0.2,0.1-0.5,0.1-0.8L500.7,143L500.7,143z"/>
			<path class="st5" d="M512.9,140.8c0-1.7-0.1-3.1-0.1-4.4h2.2l0.1,2.3h0c1-1.6,2.6-2.6,4.8-2.6c3.2,0,5.7,2.7,5.7,6.8
				c0,4.8-2.9,7.2-6.1,7.2c-1.8,0-3.3-0.8-4.1-2.1h-0.1v7.3h-2.4L512.9,140.8L512.9,140.8z M515.3,144.4c0,0.4,0.1,0.7,0.1,1
				c0.4,1.7,1.9,2.9,3.7,2.9c2.6,0,4.1-2.1,4.1-5.2c0-2.7-1.4-5-4-5c-1.7,0-3.2,1.2-3.7,3c-0.1,0.3-0.2,0.7-0.2,1L515.3,144.4
				L515.3,144.4z"/>
			<path class="st5" d="M528.6,140.6c0-1.6,0-2.9-0.1-4.2h2.1l0.1,2.6h0.1c0.6-1.8,2.1-2.9,3.7-2.9c0.3,0,0.5,0,0.7,0.1v2.3
				c-0.2-0.1-0.5-0.1-0.8-0.1c-1.7,0-2.9,1.3-3.3,3.1c0,0.3-0.1,0.7-0.1,1.1v7.1h-2.4L528.6,140.6L528.6,140.6z"/>
			<path class="st5" d="M544.9,149.8l-0.2-1.7h-0.1c-0.8,1.1-2.2,2-4.1,2c-2.7,0-4.1-1.9-4.1-3.8c0-3.2,2.9-5,8-5V141
				c0-1.1-0.3-3.1-3-3.1c-1.2,0-2.5,0.4-3.5,1l-0.5-1.6c1.1-0.7,2.7-1.2,4.4-1.2c4.1,0,5.1,2.8,5.1,5.5v5c0,1.2,0,2.3,0.2,3.2
				L544.9,149.8L544.9,149.8z M544.6,143c-2.7-0.1-5.7,0.4-5.7,3c0,1.6,1,2.3,2.3,2.3c1.7,0,2.8-1.1,3.2-2.2
				c0.1-0.2,0.1-0.5,0.1-0.8V143L544.6,143z M545.8,130.7l-3.4,3.9h-1.7l2.4-3.9H545.8z"/>
			<path class="st5" d="M553.7,132.6v3.8h3.5v1.9h-3.5v7.2c0,1.7,0.5,2.6,1.8,2.6c0.6,0,1.1-0.1,1.4-0.2l0.1,1.8
				c-0.5,0.2-1.2,0.3-2.2,0.3c-1.1,0-2-0.4-2.6-1c-0.7-0.7-0.9-1.9-0.9-3.5v-7.3h-2.1v-1.9h2.1v-3.2L553.7,132.6L553.7,132.6z"/>
			<path class="st5" d="M562.6,132.7c0,0.8-0.6,1.5-1.5,1.5c-0.9,0-1.5-0.7-1.5-1.5s0.6-1.5,1.5-1.5S562.6,131.8,562.6,132.7
				L562.6,132.7z M559.9,149.8v-13.4h2.4v13.4H559.9z"/>
			<path class="st5" d="M575.9,149.3c-0.6,0.3-2,0.8-3.8,0.8c-4,0-6.7-2.7-6.7-6.8s2.8-7.1,7.2-7.1c1.4,0,2.7,0.4,3.4,0.7l-0.5,1.9
				c-0.6-0.3-1.5-0.6-2.8-0.6c-3.1,0-4.7,2.3-4.7,5.1c0,3.1,2,5,4.6,5c1.4,0,2.3-0.4,3-0.7L575.9,149.3L575.9,149.3z"/>
			<path class="st5" d="M586.2,149.8l-0.2-1.7h-0.1c-0.8,1.1-2.2,2-4.1,2c-2.7,0-4.1-1.9-4.1-3.8c0-3.2,2.9-5,8-5V141
				c0-1.1-0.3-3.1-3-3.1c-1.2,0-2.5,0.4-3.5,1l-0.5-1.6c1.1-0.7,2.7-1.2,4.4-1.2c4.1,0,5.1,2.8,5.1,5.5v5c0,1.2,0,2.3,0.2,3.2
				L586.2,149.8L586.2,149.8z M585.8,143c-2.7-0.1-5.7,0.4-5.7,3c0,1.6,1,2.3,2.3,2.3c1.7,0,2.8-1.1,3.2-2.2
				c0.1-0.2,0.1-0.5,0.1-0.8V143L585.8,143z"/>
			<path class="st5" d="M596.4,153.2c0.6-1.6,1.4-4.6,1.7-6.6l2.7-0.3c-0.7,2.4-1.9,5.4-2.7,6.7L596.4,153.2L596.4,153.2z
				 M597.6,138.7c0-1,0.7-1.7,1.6-1.7c1,0,1.6,0.7,1.6,1.7c0,1-0.6,1.7-1.6,1.7S597.6,139.6,597.6,138.7z"/>
			<path class="st5" d="M602.2,153.2c2-2.7,3.5-6.3,3.5-11.3s-1.5-8.5-3.5-11.2h1.9c1.8,2.3,3.6,5.8,3.6,11.2s-1.8,8.9-3.6,11.3
				L602.2,153.2L602.2,153.2z"/>
		</g>
	</g>
</g>
</svg>
