<?xml version="1.0" encoding="UTF-8"?>
<svg id="Layer_2" data-name="Layer 2" xmlns="http://www.w3.org/2000/svg" viewBox="0 0 365.5 102.79">
  <defs>
    <style>
      .cls-1, .cls-2, .cls-3, .cls-4 {
        stroke: #fff;
        stroke-miterlimit: 10;
      }

      .cls-1, .cls-5 {
        fill: #0986bf;
      }

      .cls-1, .cls-3, .cls-4 {
        stroke-width: .98px;
      }

      .cls-6 {
        fill: #fff;
      }

      .cls-2 {
        fill: none;
      }

      .cls-7 {
        isolation: isolate;
      }

      .cls-3 {
        fill: #296d7f;
      }

      .cls-4 {
        fill: #8cc8dd;
      }
    </style>
  </defs>
  <g id="Layer_2-2" data-name="Layer 2">
    <g>
      <g>
        <path class="cls-5" d="m113.2,42.1c-1,1.8-2.5,3.2-4.5,4.3-2.1,1.1-4.6,1.6-7.8,1.6h-6.4v14.6h-7.6V24.6h14c2.9,0,5.5.5,7.5,1.5,2.1,1,3.6,2.4,4.7,4.2,1,1.8,1.6,3.8,1.6,6.1-.1,2-.6,4-1.5,5.7Zm-7.9-1.6c1-1,1.5-2.3,1.5-4.1,0-3.7-2.1-5.6-6.2-5.6h-6.1v11.1h6.1c2.1,0,3.6-.5,4.7-1.4Z"/>
        <path class="cls-5" d="m141.8,55.4h-15.2l-2.5,7.3h-8l13.7-38.1h8.9l13.7,38.1h-8.1l-2.5-7.3Zm-2.1-6.1l-5.5-15.9-5.5,15.9h11Z"/>
        <path class="cls-5" d="m163.6,56.6h12.5v6.1h-20.2V24.6h7.6l.1,32h0Z"/>
        <path class="cls-5" d="m220.9,24.6v38.1h-7.6v-24.8l-10.2,24.8h-5.8l-10.3-24.8v24.8h-7.6V24.6h8.7l12.1,28.3,12.1-28.3h8.6Z"/>
        <path class="cls-5" d="m234.5,24.6v38.1h-7.6V24.6h7.6Z"/>
        <path class="cls-5" d="m248,56.6h12.5v6.1h-20.2V24.6h7.6l.1,32h0Z"/>
        <path class="cls-5" d="m295.4,24.6v38.1h-7.6v-16.2h-16.3v16.2h-7.6V24.6h7.6v15.7h16.3v-15.7h7.6Z"/>
        <path class="cls-5" d="m324.7,55.4h-15.2l-2.5,7.3h-8l13.7-38.1h8.9l13.7,38.1h-8.1l-2.5-7.3Zm-2.1-6.1l-5.5-15.9-5.5,15.9h11Z"/>
        <path class="cls-5" d="m344.8,61.7c-2.1-.9-3.8-2.2-5-3.9s-1.9-3.7-1.9-6.1h8.2c.1,1.6.7,2.8,1.7,3.7s2.4,1.4,4.1,1.4c1.8,0,3.2-.4,4.2-1.3,1-.9,1.5-2,1.5-3.4,0-1.1-.3-2.1-1-2.8s-1.6-1.3-2.6-1.7-2.5-.9-4.3-1.4c-2.5-.7-4.5-1.4-6-2.2-1.5-.7-2.9-1.8-4-3.2s-1.7-3.4-1.7-5.8.6-4.2,1.7-5.9,2.7-3,4.7-3.8,4.4-1.3,7-1.3c3.9,0,7.1,1,9.6,2.9s3.8,4.6,4.1,8h-8.4c-.1-1.3-.6-2.4-1.7-3.2-1-.9-2.4-1.3-4.1-1.3-1.5,0-2.7.4-3.6,1.1-.9.8-1.3,1.9-1.3,3.3,0,1,.3,1.9,1,2.5.7.7,1.5,1.2,2.5,1.6,1,.4,2.4.9,4.2,1.4,2.5.7,4.5,1.5,6.1,2.2s2.9,1.8,4,3.3,1.7,3.4,1.7,5.7c0,2-.5,3.9-1.6,5.7-1.1,1.7-2.6,3.1-4.6,4.2-2,1-4.5,1.6-7.3,1.6-2.7.1-5.1-.4-7.2-1.3Z"/>
      </g>
      <g>
        <path class="cls-6" d="m107.5,74v4.6h-7.5v23.6h-5.7v-23.6h-7.5v-4.6s20.7,0,20.7,0Z"/>
        <path class="cls-6" d="m116.1,78.6v7.1h9.5v4.5h-9.5v7.5h10.7v4.6h-16.3v-28.3h16.4v4.6s-10.8,0-10.8,0Z"/>
        <path class="cls-6" d="m145.3,102.2l-6.2-11h-2.6v11h-5.7v-28.2h10.6c2.2,0,4,.4,5.6,1.2,1.5.8,2.7,1.8,3.5,3.1.8,1.3,1.2,2.8,1.2,4.4,0,1.9-.5,3.5-1.6,5s-2.7,2.5-4.8,3.1l6.7,11.4s-6.7,0-6.7,0Zm-8.8-15.2h4.7c1.5,0,2.7-.4,3.4-1.1.8-.7,1.1-1.8,1.1-3.1s-.4-2.3-1.1-3c-.8-.7-1.9-1.1-3.4-1.1h-4.7v8.3Z"/>
        <path class="cls-6" d="m172.8,96.8h-11.2l-1.9,5.4h-5.9l10.1-28.2h6.6l10.1,28.2h-6l-1.8-5.4Zm-1.5-4.5l-4.1-11.8-4.1,11.8h8.2Z"/>
        <path class="cls-6" d="m202.7,87c-.7,1.3-1.8,2.4-3.4,3.2-1.5.8-3.4,1.2-5.8,1.2h-4.7v10.8h-5.7v-28.2h10.4c2.2,0,4,.4,5.6,1.1,1.5.8,2.7,1.8,3.5,3.1.8,1.3,1.2,2.8,1.2,4.5,0,1.5-.3,3-1.1,4.3Zm-5.8-1.3c.8-.7,1.1-1.7,1.1-3,0-2.7-1.5-4.1-4.6-4.1h-4.5v8.2h4.5c1.6,0,2.7-.3,3.5-1.1Z"/>
        <path class="cls-6" d="m212.3,78.6v7.1h9.5v4.5h-9.5v7.5h10.7v4.6h-16.4v-28.3h16.4v4.6s-10.7,0-10.7,0Zm2.3-9.6l-6,3.4v-4.1l6-3.3,6,3.3v4.1l-6-3.4Z"/>
        <path class="cls-6" d="m232.5,74v17.4c0,1.9.5,3.4,1.5,4.4s2.4,1.5,4.2,1.5,3.2-.5,4.2-1.5,1.5-2.5,1.5-4.4v-17.4h5.7v17.4c0,2.4-.5,4.4-1.6,6.1-1,1.7-2.4,2.9-4.2,3.7-1.7.8-3.7,1.3-5.8,1.3s-4-.4-5.7-1.3c-1.7-.8-3.1-2.1-4.1-3.7-1-1.7-1.5-3.7-1.5-6.1v-17.4h5.8Z"/>
        <path class="cls-6" d="m273.1,74v4.6h-7.5v23.6h-5.7v-23.6h-7.5v-4.6s20.7,0,20.7,0Z"/>
        <path class="cls-6" d="m281.7,74v28.2h-5.7v-28.2h5.7Z"/>
        <path class="cls-6" d="m286.6,80.6c1.3-2.2,3-3.9,5.1-5.1,2.2-1.2,4.6-1.8,7.3-1.8,3.1,0,5.9.8,8.3,2.4s4,3.8,5,6.7h-6.5c-.6-1.3-1.6-2.4-2.7-3-1.2-.7-2.5-1-4.1-1s-3.1.4-4.4,1.2c-1.3.8-2.3,1.9-3,3.3s-1.1,3-1.1,4.9.4,3.5,1.1,4.9,1.7,2.5,3,3.3,2.7,1.2,4.4,1.2c1.5,0,2.9-.3,4.1-1s2.1-1.7,2.7-3h6.5c-.9,2.9-2.6,5.1-4.9,6.7-2.4,1.6-5.1,2.4-8.3,2.4-2.7,0-5.1-.6-7.3-1.8-2.2-1.2-3.9-2.9-5.1-5.1-1.3-2.2-1.9-4.7-1.9-7.4-.1-3.1.6-5.6,1.8-7.8Z"/>
        <path class="cls-6" d="m333.2,96.8h-11.2l-1.9,5.4h-5.9l10.1-28.2h6.6l10.1,28.2h-6l-1.8-5.4Zm-1.5-4.5l-4.1-11.8-4.1,11.8h8.2Z"/>
        <path class="cls-6" d="m348.1,101.5c-1.6-.7-2.8-1.6-3.7-2.9-.9-1.3-1.4-2.8-1.4-4.5h6.1c.1,1.2.5,2.1,1.2,2.7.7.7,1.8,1,3,1,1.3,0,2.4-.3,3.1-.9.8-.6,1.1-1.5,1.1-2.5,0-.8-.3-1.5-.8-2.1-.5-.5-1.2-1-1.9-1.3-.8-.3-1.8-.7-3.2-1-1.8-.5-3.3-1.1-4.5-1.6-1.1-.5-2.1-1.3-2.9-2.4s-1.2-2.5-1.2-4.3c0-1.7.4-3.1,1.3-4.4.8-1.2,2-2.2,3.5-2.8,1.5-.7,3.2-1,5.2-1,2.9,0,5.3.7,7.1,2.1,1.8,1.4,2.8,3.4,3,5.9h-6.2c-.1-1-.5-1.8-1.2-2.4-.8-.6-1.8-.9-3-.9-1.1,0-2,.3-2.6.8s-1,1.4-1,2.5c0,.8.2,1.4.7,1.9s1.1.9,1.9,1.2c.7.3,1.8.7,3.1,1.1,1.8.5,3.3,1.1,4.5,1.6s2.2,1.3,3,2.4,1.3,2.5,1.3,4.2c0,1.5-.4,2.9-1.2,4.2-.8,1.3-1.9,2.3-3.4,3.1-1.5.8-3.3,1.2-5.4,1.2-2.1.1-3.9-.3-5.5-.9Z"/>
      </g>
    </g>
    <g>
      <g class="cls-7">
        <path class="cls-6" d="m92.3,5.4v6.2h-.8v-6.2h.8Z"/>
        <path class="cls-6" d="m99.5,5.4v6.2h-.8v-4.6l-2.1,4.6h-.6l-2.1-4.6v4.6h-.8v-6.2h.9l2.3,5.1,2.3-5.1h.9Z"/>
        <path class="cls-6" d="m101.1,6v2.1h2.3v.7h-2.3v2.1h2.5v.7h-3.3v-6.2h3.3v.7h-2.5v-.1Z"/>
        <path class="cls-6" d="m107.6,11.6l-1.5-2.5h-1v2.5h-.8v-6.2h2c.5,0,.9.1,1.2.2.3.2.6.4.7.7.2.3.2.6.2.9,0,.4-.1.8-.4,1.1-.2.3-.6.5-1.1.7l1.6,2.6s-.9,0-.9,0Zm-2.4-3.2h1.2c.4,0,.8-.1,1-.3s.3-.5.3-.9-.1-.7-.3-.9c-.2-.2-.5-.3-1-.3h-1.2v2.4Z"/>
        <path class="cls-6" d="m110.1,11.4c-.3-.1-.6-.3-.8-.6s-.3-.6-.3-.9h.9c0,.3.2.5.4.7.2.2.5.3.9.3s.7-.1.9-.3c.2-.2.3-.4.3-.7,0-.2-.1-.4-.2-.6-.1-.1-.3-.3-.5-.3s-.5-.2-.8-.3c-.4-.1-.7-.2-1-.3-.2-.1-.5-.3-.6-.5-.2-.2-.3-.5-.3-.9,0-.3.1-.6.3-.9.2-.3.4-.5.7-.6.3-.1.7-.2,1.1-.2.6,0,1.1.1,1.4.4.4.3.6.7.6,1.2h-.9c0-.2-.2-.4-.4-.6-.2-.2-.5-.3-.9-.3-.3,0-.6.1-.8.3-.2.2-.3.4-.3.7,0,.2.1.4.2.6.1.1.3.3.5.3.2.1.5.2.8.3.4.1.7.2,1,.3.2.1.5.3.6.5.2.2.3.5.3.9,0,.3-.1.6-.2.9-.2.3-.4.5-.7.7-.3.2-.7.3-1.1.3-.4-.1-.8-.2-1.1-.4Z"/>
        <path class="cls-6" d="m117.6,10.2h-2.7l-.5,1.4h-.9l2.3-6.2h.9l2.2,6.2h-.9l-.4-1.4Zm-2.4-6c.2-.2.4-.2.6-.2.1,0,.2,0,.3.1.1,0,.2.1.3.2.1.1.2.1.2.1h.2c.1,0,.2,0,.3-.1.1-.1.1-.2.1-.3h.5c0,.3-.1.5-.3.7-.2.2-.4.2-.6.2-.1,0-.2,0-.3-.1-.1,0-.2-.1-.3-.2-.1-.1-.2-.1-.2-.1h-.2c-.1,0-.2,0-.3.1-.1.1-.1.2-.1.3h-.5c.1-.3.2-.5.3-.7Zm2.2,5.4l-1.1-3.1-1.1,3.1s2.2,0,2.2,0Z"/>
        <path class="cls-6" d="m120.7,11.3c-.5-.3-.9-.6-1.1-1.1-.3-.5-.4-1-.4-1.6s.1-1.2.4-1.6c.3-.5.7-.9,1.1-1.1.5-.3,1-.4,1.6-.4s1.1.1,1.6.4c.5.3.9.6,1.1,1.1.3.5.4,1,.4,1.6s-.1,1.2-.4,1.6c-.3.5-.6.9-1.1,1.1-.5.3-1,.4-1.6.4s-1.2-.2-1.6-.4Zm2.7-.6c.3-.2.6-.5.8-.9s.3-.8.3-1.3-.1-.9-.3-1.3c-.2-.4-.5-.7-.8-.9s-.7-.3-1.2-.3c-.4,0-.8.1-1.2.3-.3.2-.6.5-.8.9-.2.4-.3.8-.3,1.3s.1.9.3,1.3c.2.4.5.7.8.9s.7.3,1.2.3.9-.1,1.2-.3Z"/>
        <path class="cls-6" d="m129,11.3c-.5-.3-.9-.6-1.1-1.1-.3-.5-.4-1-.4-1.6s.1-1.2.4-1.6c.3-.5.7-.9,1.1-1.1.5-.3,1-.4,1.6-.4s1.1.1,1.6.4c.5.3.9.6,1.1,1.1.3.5.4,1,.4,1.6s-.1,1.2-.4,1.6c-.3.5-.6.9-1.1,1.1-.5.3-1,.4-1.6.4s-1.1-.2-1.6-.4Zm2.7-.6c.3-.2.6-.5.8-.9s.3-.8.3-1.3-.1-.9-.3-1.3c-.2-.4-.5-.7-.8-.9s-.7-.3-1.2-.3c-.4,0-.8.1-1.2.3-.3.2-.6.5-.8.9s-.3.8-.3,1.3.1.9.3,1.3c.2.4.5.7.8.9s.7.3,1.2.3.9-.1,1.2-.3Z"/>
        <path class="cls-6" d="m139.1,11.6h-.8l-3.3-5v5h-.8v-6.2h.8l3.3,4.9v-4.9h.8v6.2Z"/>
        <path class="cls-6" d="m140.8,10.9h2.2v.7h-3v-6.2h.8v5.5Z"/>
        <path class="cls-6" d="m144.1,5.4v6.2h-.8v-6.2h.8Z"/>
        <path class="cls-6" d="m149.8,11.6h-.8l-3.3-5v5h-.8v-6.2h.8l3.3,4.9v-4.9h.8v6.2Z"/>
        <path class="cls-6" d="m151.5,6v2.1h2.3v.7h-2.3v2.1h2.5v.7h-3.3v-6.2h3.3v.7h-2.5v-.1Z"/>
      </g>
      <rect class="cls-2" x="87.3" y=".5" width="70.8" height="14.6"/>
    </g>
    <g id="artboard2">
      <g>
        <path id="frente" class="cls-4" d="m75.58,94.87c-.23.74-1.24,3.98-3.79,5.75-.87.6-3.22,2.99-11.3.74-7.45-2.07-9.35-5.3-15.74-7.59-5.99-2.13-6.51-.75-13.7-2.47-4.48-1.07-15.2-3.74-23.34-12.43-2.94-3.14-8.57-9.96-6.93-15.22,1.2-3.88,5.21-5.72,5.78-5.96,8.81-3.91,23.11,3.48,28.81,10.25.93,1.12,4.17,5.2,9.67,7.89.97.48,6.91,2.28,14.18,3.56,14.12,2.48,18.24,9.53,16.35,15.49v-.02Z"/>
        <path id="frente-2" class="cls-3" d="m72.85,97.8c-.64.6-3.46,3.19-6.96,3.46-1.2.09-4.84,1.09-11.45-5.7-6.08-6.25-6.12-10.5-11.07-16.35-4.64-5.49-5.93-4.43-11.97-10.19-3.75-3.59-12.71-12.29-15.72-25.38-1.09-4.75-2.7-14.59,1.87-18.79,3.37-3.1,8.34-2.62,9.03-2.54,10.84,1.18,20.58,16.52,22.31,26.38.29,1.62,1.12,7.45,4.97,13.18.67,1.01,5.46,6.15,11.83,11.53,12.37,10.44,12.4,19.66,7.17,24.41h-.02Z"/>
        <path id="frente-3" class="cls-1" d="m68.82,101.28c-.95.17-5.12.9-8.52-.92-1.16-.63-5.15-1.87-7.25-12.09-1.95-9.43.55-13.38-.58-21.76-1.06-7.85-2.88-7.65-5.06-16.58-1.36-5.56-4.51-18.96.46-32.92,1.81-5.06,6.15-15.16,12.89-16.35,4.98-.87,9.3,2.51,9.9,2.99,9.36,7.53,9.32,27.56,5.06,37.75-.71,1.67-3.39,7.57-3.22,15.19.03,1.35,1.41,8.95,4.14,17.73,5.29,17.04-.15,25.63-7.83,26.93l.02.05Z"/>
      </g>
    </g>
  </g>
</svg>