<?xml version="1.0" encoding="UTF-8"?>
<svg id="Layer_2" data-name="Layer 2" xmlns="http://www.w3.org/2000/svg" viewBox="0 0 328.28 103.32">
  <defs>
    <style>
      .cls-1, .cls-2 {
        fill: #fff;
      }

      .cls-3 {
        fill: #11e9de;
      }

      .cls-3, .cls-4, .cls-5, .cls-2 {
        stroke: #fff;
        stroke-miterlimit: 10;
      }

      .cls-6, .cls-5 {
        fill: #58a5f7;
      }

      .cls-4 {
        fill: #0986bf;
      }
    </style>
  </defs>
  <g id="Layer_2-2" data-name="Layer 2">
    <g>
      <g>
        <path class="cls-1" d="m102.59,45.4c-.67,1.17-1.65,2.1-2.95,2.79-1.3.69-2.88,1.03-4.72,1.03h-2.84v7.25h-7.16v-22.82h9.99c2.79,0,4.94.71,6.43,2.13,1.49,1.42,2.24,3.32,2.24,5.71,0,1.44-.33,2.75-1,3.92h.01Zm-6.25-3.93c0-1.4-.74-2.1-2.22-2.1h-2.03v4.19h2.03c1.48,0,2.22-.7,2.22-2.1h0Z"/>
        <path class="cls-1" d="m120.48,53.02h-7.61l-1.13,3.45h-7.51l8.35-22.82h8.25l8.32,22.82h-7.54s-1.13-3.45-1.13-3.45Zm-1.74-5.38l-2.06-6.35-2.06,6.35h4.13-.01Z"/>
        <path class="cls-1" d="m137.92,51.06h6.9v5.42h-14.06v-22.82h7.16v17.41h0Z"/>
        <path class="cls-1" d="m174.51,33.65v22.82h-7.12v-11.38l-3.51,11.38h-6.12l-3.51-11.38v11.38h-7.16v-22.82h8.77l5.03,13.7,4.9-13.7h8.74-.02Z"/>
        <path class="cls-1" d="m184.89,33.65v22.82h-7.16v-22.82h7.16Z"/>
        <path class="cls-1" d="m195.27,51.06h6.9v5.42h-14.05v-22.82h7.16v17.41h0Z"/>
        <path class="cls-1" d="m225.54,33.65v22.82h-7.16v-8.9h-6.8v8.9h-7.16v-22.82h7.16v8.22h6.8v-8.22h7.16Z"/>
        <path class="cls-1" d="m243.4,53.02h-7.61l-1.13,3.45h-7.51l8.35-22.82h8.25l8.32,22.82h-7.54l-1.13-3.45h0Zm-1.74-5.38l-2.06-6.35-2.06,6.35h4.13-.01Z"/>
        <path class="cls-1" d="m255.86,54.78c-1.77-1.28-2.74-3.15-2.89-5.63h7.61c.11,1.31.69,1.97,1.74,1.97.39,0,.71-.09.98-.27.27-.18.4-.47.4-.85,0-.54-.29-.97-.87-1.31-.58-.33-1.48-.71-2.71-1.14-1.46-.52-2.67-1.02-3.63-1.52-.96-.49-1.78-1.21-2.47-2.16s-1.02-2.16-1-3.64c0-1.48.38-2.75,1.14-3.79s1.81-1.83,3.13-2.37c1.32-.54,2.81-.81,4.46-.81,2.79,0,5.01.64,6.66,1.93,1.64,1.29,2.51,3.11,2.59,5.45h-7.7c-.02-.65-.18-1.11-.48-1.39s-.67-.42-1.1-.42c-.3,0-.55.1-.74.31-.19.2-.29.49-.29.85,0,.52.28.94.85,1.27s1.48.74,2.72,1.21c1.44.54,2.63,1.05,3.56,1.55.93.49,1.75,1.18,2.43,2.06.69.88,1.03,1.99,1.03,3.32,0,1.4-.34,2.65-1.03,3.76-.69,1.11-1.69,1.97-3,2.6-1.31.62-2.87.93-4.67.93-2.73,0-4.98-.64-6.75-1.92h.03Z"/>
        <path class="cls-6" d="m102.85,72.33v5.67h-6.06v17.15h-7.16v-17.15h-6v-5.67h19.22Z"/>
        <path class="cls-6" d="m111.94,78.04v2.8h7.09v5.38h-7.09v3.22h8.06v5.71h-15.22v-22.82h15.22v5.71h-8.06Z"/>
        <path class="cls-6" d="m134.18,95.16l-4.29-8.19h-.03v8.19h-7.16v-22.82h10.64c1.85,0,3.43.33,4.74.98,1.31.66,2.29,1.55,2.95,2.68s.98,2.4.98,3.82c0,1.53-.42,2.88-1.27,4.06s-2.07,2.03-3.66,2.55l4.96,8.74h-7.87,0Zm-4.32-12.97h2.84c.69,0,1.2-.16,1.55-.47.34-.31.52-.8.52-1.47,0-.6-.18-1.07-.53-1.42-.35-.34-.87-.52-1.53-.52h-2.84v3.87h-.01Z"/>
        <path class="cls-6" d="m158.94,91.71h-7.61l-1.13,3.45h-7.51l8.35-22.82h8.25l8.32,22.82h-7.54l-1.13-3.45h0Zm-1.74-5.38l-2.06-6.35-2.06,6.35h4.13-.01Z"/>
        <path class="cls-6" d="m186.89,84.08c-.67,1.17-1.65,2.1-2.95,2.79s-2.88,1.03-4.72,1.03h-2.84v7.25h-7.16v-22.82h9.99c2.79,0,4.94.71,6.43,2.13,1.49,1.42,2.24,3.32,2.24,5.71,0,1.44-.33,2.75-1,3.92h0Zm-6.25-3.93c0-1.4-.74-2.1-2.22-2.1h-2.03v4.19h2.03c1.48,0,2.22-.7,2.22-2.1h0Z"/>
        <path class="cls-6" d="m197.3,78.04v2.8h7.09v5.38h-7.09v3.22h8.06v5.71h-15.21v-22.82h15.21v5.71h-8.06Zm.32-9.54l-5.35,2.51v-4.64l5.35-2.42,5.32,2.42v4.64l-5.32-2.51Z"/>
        <path class="cls-6" d="m215.07,72.33v12.86c0,1.05.23,1.89.69,2.5s1.21.92,2.24.92,1.79-.31,2.29-.92c.49-.61.74-1.44.74-2.5v-12.86h7.12v12.86c0,2.17-.45,4.02-1.35,5.56-.9,1.54-2.14,2.69-3.71,3.47-1.57.77-3.32,1.16-5.25,1.16s-3.65-.39-5.14-1.16c-1.49-.77-2.66-1.92-3.5-3.45s-1.26-3.38-1.26-5.58v-12.86h7.13Z"/>
        <path class="cls-6" d="m249.17,72.33v5.67h-6.06v17.15h-7.16v-17.15h-6v-5.67h19.22Z"/>
        <path class="cls-6" d="m258.26,72.33v22.82h-7.16v-22.82h7.16Z"/>
        <path class="cls-6" d="m262.21,77.68c.91-1.76,2.22-3.13,3.92-4.11s3.7-1.47,6-1.47c1.98,0,3.74.37,5.3,1.11s2.83,1.79,3.8,3.14c.98,1.35,1.63,2.93,1.95,4.74h-7.54c-.34-.75-.83-1.34-1.47-1.76-.63-.42-1.36-.63-2.18-.63-1.2,0-2.16.45-2.85,1.35-.7.9-1.05,2.12-1.05,3.64s.35,2.74,1.05,3.64c.7.9,1.65,1.35,2.85,1.35.82,0,1.54-.21,2.18-.63.63-.42,1.12-1,1.47-1.76h7.54c-.32,1.81-.97,3.38-1.95,4.74-.98,1.35-2.25,2.4-3.8,3.14-1.56.74-3.33,1.11-5.3,1.11-2.3,0-4.3-.49-6-1.47s-3-2.35-3.92-4.11c-.91-1.76-1.37-3.77-1.37-6.03s.46-4.27,1.37-6.03v.04Z"/>
        <path class="cls-6" d="m300.4,91.71h-7.61l-1.13,3.45h-7.51l8.35-22.82h8.25l8.32,22.82h-7.54l-1.13-3.45Zm-1.74-5.38l-2.06-6.35-2.06,6.35h4.13-.01Z"/>
        <path class="cls-6" d="m312.86,93.46c-1.77-1.28-2.74-3.15-2.89-5.63h7.61c.11,1.31.69,1.97,1.74,1.97.39,0,.71-.09.98-.27.27-.18.4-.47.4-.85,0-.54-.29-.97-.87-1.31-.58-.33-1.48-.71-2.71-1.14-1.46-.52-2.67-1.02-3.63-1.52-.96-.49-1.78-1.21-2.47-2.16-.69-.95-1.02-2.16-1-3.64,0-1.48.38-2.75,1.14-3.79s1.81-1.83,3.13-2.37,2.81-.81,4.46-.81c2.79,0,5.01.64,6.66,1.93,1.64,1.29,2.51,3.11,2.59,5.45h-7.7c-.02-.65-.18-1.11-.48-1.39s-.67-.42-1.1-.42c-.3,0-.55.1-.74.31-.19.2-.29.49-.29.85,0,.52.28.94.85,1.27.57.33,1.48.74,2.72,1.21,1.44.54,2.63,1.05,3.56,1.55.93.49,1.75,1.18,2.43,2.06.69.88,1.03,1.99,1.03,3.32,0,1.4-.34,2.65-1.03,3.76s-1.69,1.97-3,2.6c-1.31.62-2.87.93-4.67.93-2.73,0-4.98-.64-6.75-1.92h.03Z"/>
      </g>
      <path class="cls-6" d="m158.23,25.74h-73.24v-12.8h73.24v12.8Zm-72.73-.51h72.22v-11.78h-72.22s0,11.78,0,11.78Z"/>
    </g>
    <g>
      <g>
        <g id="frente">
          <path class="cls-2" d="m72.69,95.64c-.24.72-1.18,3.82-3.62,5.55-.83.6-3.09,2.87-10.84.74-7.15-1.95-9.01-5.1-15.15-7.23-5.78-2.01-6.26-.7-13.17-2.35-4.29-1-14.6-3.54-22.43-11.86-2.87-3.03-8.24-9.57-6.71-14.58,1.12-3.7,4.99-5.49,5.53-5.73,8.45-3.77,22.17,3.28,27.73,9.77.9,1.07,4,5,9.31,7.54.95.47,6.68,2.19,13.65,3.36,13.53,2.35,17.48,9.13,15.7,14.8h0Z"/>
        </g>
        <g id="frente-2">
          <path class="cls-2" d="m70.08,98.51c-.65.54-3.33,3.05-6.66,3.35-1.13.06-4.64,1.08-11.03-5.46-5.85-6-5.92-10.11-10.64-15.7-4.48-5.23-5.73-4.28-11.52-9.74-3.58-3.45-12.24-11.77-15.19-24.33-1.08-4.58-2.65-13.99,1.75-18.06,3.21-2.99,8.04-2.52,8.63-2.46,10.43,1.11,19.82,15.8,21.51,25.27.3,1.55,1.09,7.15,4.8,12.68.66.95,5.26,5.89,11.4,11.05,11.94,9.92,11.96,18.8,6.97,23.4h-.02Z"/>
        </g>
        <g id="frente-3">
          <path class="cls-2" d="m66.21,101.85c-.95.18-4.88.91-8.16-.87-1.13-.59-4.95-1.78-7-11.6-1.87-9.05.51-12.87-.59-20.91-1.03-7.56-2.82-7.32-4.92-15.9-1.32-5.36-4.39-18.22.34-31.64,1.72-4.89,5.86-14.55,12.36-15.76,4.76-.85,8.94,2.42,9.54,2.84,9.01,7.19,9,26.43,4.97,36.27-.65,1.61-3.26,7.28-3.06,14.6,0,1.31,1.39,8.58,4.03,17.03,5.1,16.37-.12,24.66-7.51,25.93h0Z"/>
        </g>
      </g>
      <g>
        <g id="frente-2-2" data-name="frente-2">
          <path class="cls-3" d="m73.04,91.11c-.24.72-1.18,3.82-3.62,5.55-.83.6-3.09,2.87-10.84.74-7.15-1.95-9.01-5.1-15.15-7.23-5.78-2.01-6.26-.7-13.17-2.35-4.29-1-14.6-3.54-22.43-11.86-2.87-3.03-8.24-9.57-6.71-14.58,1.12-3.7,4.99-5.49,5.53-5.73,8.45-3.77,22.17,3.28,27.73,9.77.9,1.07,4,5,9.31,7.54.95.47,6.68,2.19,13.65,3.36,13.53,2.35,17.48,9.13,15.7,14.8h0Z"/>
        </g>
        <g id="frente-2-2">
          <path class="cls-4" d="m70.43,93.98c-.65.54-3.33,3.05-6.66,3.35-1.13.06-4.64,1.08-11.03-5.46-5.85-6-5.92-10.11-10.64-15.7-4.48-5.23-5.73-4.28-11.52-9.74-3.58-3.45-12.24-11.77-15.19-24.33-1.08-4.58-2.65-13.99,1.75-18.06,3.21-2.99,8.04-2.52,8.63-2.46,10.43,1.11,19.82,15.8,21.51,25.27.3,1.55,1.09,7.15,4.8,12.68.66.95,5.26,5.89,11.4,11.05,11.94,9.92,11.96,18.8,6.97,23.4h-.02Z"/>
        </g>
        <g id="frente-3-2">
          <path class="cls-5" d="m66.56,97.32c-.95.18-4.88.91-8.16-.87-1.13-.59-4.95-1.78-7-11.6-1.87-9.05.51-12.87-.59-20.91-1.03-7.56-2.82-7.32-4.92-15.9-1.32-5.36-4.39-18.22.34-31.64,1.72-4.89,5.86-14.55,12.36-15.76,4.76-.85,8.94,2.42,9.54,2.84,9.01,7.19,9,26.43,4.97,36.27-.65,1.61-3.26,7.28-3.06,14.6,0,1.31,1.39,8.58,4.03,17.03,5.1,16.37-.12,24.66-7.51,25.93h0Z"/>
        </g>
      </g>
    </g>
    <g>
      <path class="cls-6" d="m91.95,21.84c-.27.13-.8.27-1.48.27-1.58,0-2.76-1-2.76-2.83s1.19-2.94,2.92-2.94c.7,0,1.14.15,1.33.25l-.17.59c-.27-.13-.66-.23-1.13-.23-1.31,0-2.18.84-2.18,2.31,0,1.37.79,2.25,2.15,2.25.44,0,.89-.09,1.18-.23l.15.57Z"/>
      <path class="cls-6" d="m93.57,16.43v3.31c0,1.25.56,1.79,1.3,1.79.83,0,1.36-.55,1.36-1.79v-3.31h.73v3.26c0,1.72-.91,2.42-2.12,2.42-1.15,0-2.01-.66-2.01-2.39v-3.29h.73Z"/>
      <path class="cls-6" d="m98.22,16.5c.37-.07.89-.12,1.39-.12.77,0,1.27.14,1.62.46.28.25.44.63.44,1.06,0,.74-.46,1.23-1.05,1.43v.02c.43.15.69.55.82,1.13.18.78.32,1.32.43,1.54h-.75c-.09-.16-.22-.64-.37-1.34-.17-.77-.46-1.06-1.12-1.09h-.68v2.42h-.72v-5.52Zm.72,2.55h.74c.77,0,1.26-.42,1.26-1.06,0-.72-.52-1.04-1.29-1.05-.35,0-.6.03-.71.07v2.04Z"/>
      <path class="cls-6" d="m102.59,21.14c.32.2.8.37,1.29.37.74,0,1.17-.39,1.17-.96,0-.52-.3-.82-1.05-1.11-.91-.32-1.48-.8-1.48-1.58,0-.87.72-1.52,1.81-1.52.57,0,.99.13,1.24.27l-.2.59c-.18-.1-.56-.27-1.06-.27-.76,0-1.05.46-1.05.84,0,.52.34.78,1.11,1.08.95.37,1.43.82,1.43,1.64,0,.86-.64,1.61-1.96,1.61-.54,0-1.13-.16-1.43-.36l.18-.61Z"/>
      <path class="cls-6" d="m111.56,19.17c0,1.93-1.17,2.95-2.6,2.95s-2.51-1.15-2.51-2.84c0-1.78,1.1-2.94,2.6-2.94s2.52,1.17,2.52,2.83Zm-4.34.09c0,1.2.65,2.27,1.79,2.27s1.79-1.05,1.79-2.32c0-1.11-.58-2.27-1.79-2.27s-1.79,1.1-1.79,2.33Z"/>
      <path class="cls-6" d="m114.26,16.5c.35-.06.8-.11,1.39-.11.71,0,1.24.17,1.57.46.31.27.49.67.49,1.17s-.15.9-.43,1.2c-.38.41-1,.61-1.71.61-.22,0-.42,0-.58-.05v2.24h-.72v-5.53Zm.72,2.7c.16.04.36.06.6.06.87,0,1.4-.42,1.4-1.2s-.52-1.1-1.32-1.1c-.32,0-.56.02-.68.06v2.17Z"/>
      <path class="cls-6" d="m118.68,16.5c.37-.07.89-.12,1.39-.12.77,0,1.27.14,1.62.46.28.25.44.63.44,1.06,0,.74-.46,1.23-1.05,1.43v.02c.43.15.69.55.82,1.13.18.78.32,1.32.43,1.54h-.75c-.09-.16-.22-.64-.37-1.34-.17-.77-.46-1.06-1.12-1.09h-.68v2.42h-.72v-5.52Zm.72,2.55h.74c.77,0,1.26-.42,1.26-1.06,0-.72-.52-1.04-1.29-1.05-.35,0-.6.03-.71.07v2.04Z"/>
      <path class="cls-6" d="m126.04,19.4h-2.17v2.02h2.42v.61h-3.15v-5.59h3.02v.61h-2.3v1.77h2.17v.6Z"/>
      <path class="cls-6" d="m127.13,21.14c.32.2.8.37,1.29.37.74,0,1.17-.39,1.17-.96,0-.52-.3-.82-1.05-1.11-.91-.32-1.48-.8-1.48-1.58,0-.87.72-1.52,1.81-1.52.57,0,.99.13,1.24.27l-.2.59c-.18-.1-.56-.27-1.06-.27-.76,0-1.05.46-1.05.84,0,.52.34.78,1.11,1.08.95.37,1.43.82,1.43,1.64,0,.86-.64,1.61-1.96,1.61-.54,0-1.13-.16-1.43-.36l.18-.61Z"/>
      <path class="cls-6" d="m134.22,19.4h-2.17v2.02h2.42v.61h-3.15v-5.59h3.02v.61h-2.3v1.77h2.17v.6Z"/>
      <path class="cls-6" d="m135.41,22.02v-5.59h.79l1.79,2.83c.42.66.74,1.25,1,1.82h.02c-.07-.76-.08-1.44-.08-2.31v-2.34h.68v5.59h-.73l-1.78-2.84c-.39-.62-.76-1.26-1.05-1.87h-.03c.04.71.06,1.39.06,2.32v2.39h-.68Z"/>
      <path class="cls-6" d="m144.78,21.84c-.27.13-.8.27-1.48.27-1.58,0-2.76-1-2.76-2.83s1.19-2.94,2.92-2.94c.7,0,1.14.15,1.33.25l-.17.59c-.27-.13-.66-.23-1.13-.23-1.31,0-2.18.84-2.18,2.31,0,1.37.79,2.25,2.15,2.25.44,0,.89-.09,1.18-.23l.15.57Z"/>
      <path class="cls-6" d="m146.41,16.43v5.59h-.72v-5.59h.72Z"/>
      <path class="cls-6" d="m148.58,20.26l-.58,1.76h-.75l1.9-5.59h.87l1.91,5.59h-.77l-.6-1.76h-1.98Zm1.83-.56l-.55-1.61c-.12-.37-.21-.7-.29-1.02h-.02c-.08.33-.17.67-.28,1.01l-.55,1.62h1.68Z"/>
      <path class="cls-6" d="m152.75,16.43h.72v4.99h2.39v.61h-3.11v-5.59Z"/>
    </g>
  </g>
</svg>