<?xml version="1.0" encoding="utf-8"?>
<!-- Generator: Adobe Illustrator 27.2.0, SVG Export Plug-In . SVG Version: 6.00 Build 0)  -->
<svg version="1.1" id="Layer_1" xmlns="http://www.w3.org/2000/svg" xmlns:xlink="http://www.w3.org/1999/xlink" x="0px" y="0px"
	 viewBox="0 0 1386 1080" style="enable-background:new 0 0 1386 1080;" xml:space="preserve">
<style type="text/css">
	.st0{fill:#F3F3F3;}
	.st1{fill:#0986BF;}
	.st2{fill:none;stroke:#9AC7F7;stroke-width:5.2388;stroke-miterlimit:10;}
	.st3{fill:#163F59;}
	.st4{fill:#1E3050;}
	.st5{fill:#7EB3FF;}
	.st6{fill:#D0DEE6;}
	.st7{fill:#B6C2C9;}
	.st8{fill:#9AC7F7;}
	.st9{fill:#0C6B96;}
	.st10{fill:#F7B68B;}
	.st11{fill:#EC9568;}
	.st12{fill:#C5E1F9;}
	.st13{fill:#367082;}
	.st14{fill:#88BDDA;}
	.st15{fill:#ACD5F4;}
	.st16{fill:#001F46;}
	.st17{fill:#8DCFFF;}
	.st18{fill:none;stroke:#7DC2F5;stroke-width:3.7863;stroke-miterlimit:10;}
	.st19{fill:#46C15C;}
	.st20{fill:#89E596;}
	.st21{fill:#194866;}
	.st22{fill:none;stroke:#161711;stroke-width:3.7264;stroke-miterlimit:10;}
	.st23{fill:#58A5F7;}
	.st24{fill:#FFFFFF;}
</style>
<path class="st0" d="M964.3,548.9c0,6.5-5.3,11.8-11.8,11.8H351.7c-6.5,0-11.8-5.3-11.8-11.8V445.3c0-6.5,5.3-11.8,11.8-11.8h600.8
	c6.5,0,11.8,5.3,11.8,11.8V548.9z"/>
<path class="st1" d="M473.6,433.5H351.7c-6.5,0-11.8,5.3-11.8,11.8v103.6c0,6.5,5.3,11.8,11.8,11.8h121.9V433.5z"/>
<g>
	<g>
		<line class="st2" x1="508.1" y1="470.9" x2="729.4" y2="470.9"/>
		<line class="st2" x1="753.2" y1="470.9" x2="893.6" y2="470.9"/>
		<line class="st2" x1="566.6" y1="523.7" x2="595.4" y2="523.7"/>
		<line class="st2" x1="636.9" y1="488.5" x2="725.1" y2="488.5"/>
		<line class="st2" x1="675.5" y1="506.1" x2="725.1" y2="506.1"/>
		<line class="st2" x1="617.3" y1="523.7" x2="725.1" y2="523.7"/>
		<line class="st2" x1="593.1" y1="488.5" x2="613.4" y2="488.5"/>
		<line class="st2" x1="508.8" y1="488.5" x2="573" y2="488.5"/>
		<line class="st2" x1="508.8" y1="506.1" x2="655.9" y2="506.1"/>
		<line class="st2" x1="508.8" y1="523.7" x2="543.6" y2="523.7"/>
		<line class="st2" x1="748" y1="488.5" x2="855.9" y2="488.5"/>
		<line class="st2" x1="782.3" y1="506.1" x2="923" y2="506"/>
		<line class="st2" x1="767.6" y1="523.7" x2="855.9" y2="523.7"/>
		<line class="st2" x1="880" y1="488.5" x2="923" y2="488.5"/>
		<line class="st2" x1="743.4" y1="506.1" x2="763.7" y2="506.1"/>
		<line class="st2" x1="747.9" y1="523.7" x2="777.8" y2="523.7"/>
	</g>
</g>
<g>
	<g>
		<polygon class="st3" points="956.9,983.1 977.7,983.1 943.4,650.3 913.2,650.3 		"/>
		<polygon class="st4" points="915.2,665.7 928.4,766.5 944.1,657.8 943.4,650.3 917,650.3 		"/>
		<polygon class="st3" points="677.9,983.1 698.7,983.1 664.3,650.3 634.1,650.3 		"/>
		<polygon class="st4" points="636.1,665.7 649.4,766.5 665.1,657.8 664.3,650.3 637.9,650.3 		"/>
		<polygon class="st3" points="491,983.1 470.2,983.1 504.6,650.3 534.8,650.3 		"/>
		<polygon class="st4" points="532.8,665.7 492.3,768.4 503.8,657.8 504.6,650.3 531,650.3 		"/>
		<rect x="475.4" y="639.5" class="st1" width="219.2" height="19.4"/>
		<rect x="683.1" y="639.5" class="st5" width="285.1" height="19.4"/>
	</g>
</g>
<g>
	<path class="st6" d="M908.5,633.7c0-0.1,0.1-0.1,0.1-0.2l-0.1-4.9H705.1v4.9c0,0,0,0.1,0,0.2l0.5,0.9c2.6,4.3,7.3,5,12.7,5h177.1
		c5.4,0,10.1-0.8,12.7-5L908.5,633.7z"/>
	<path class="st7" d="M859.5,634.5c0,0,0,0.1,0,0.1l0.5,0.7c0.8,1.1,1.8,1.9,3,2.5h30.9c5.2,0,9.7-0.6,12.2-4.1l0.5-0.7
		c0,0,0.1-0.1,0.1-0.1l-0.1-2.4h-47.1V634.5z"/>
	<g>
		<rect x="730.4" y="629.8" class="st7" width="101.7" height="3.5"/>
	</g>
	<g>
		<path class="st4" d="M858.4,628.5l-26.4-100c-0.7-2.6-3.4-4.8-6-4.8H683.2c-2.6,0-4.2,2.1-3.5,4.8l26.4,100H858.4z"/>
		<polygon class="st8" points="713.3,617.1 691.7,535 823.5,535 845.1,617.1 		"/>
	</g>
</g>
<g>
	<g>
		<path class="st4" d="M1012.4,707.7c0,0,25.8,16,20.9,45.5c-4.9,29.5-17.2,52.9-75,45.5c-57.8-7.4-107-34.4-107-34.4
			s27.1,9.8,25.8,51.7c-1.2,41.8,7.4,124.2,14.8,137.8c7.4,13.5,13.5,32,13.5,32h-61.5l20.9-35.7l-65.2-237.4c0,0-12.3-41.8,32-30.8
			C875.9,692.9,1012.4,707.7,1012.4,707.7z"/>
		<path class="st9" d="M936.2,716.6l-115.6-20.9c0,0-36.9-9.8-44.3,24.6c-8.6,40.1-27.1,219-27.1,219l-1.2,8.6l-56.6,30.8h86.1
			l-6.2-27.1L823,769.5c0,0,88.6,25.8,118.1,25.8s51.7-11.1,51.7-16C992.7,774.4,957.1,714.2,936.2,716.6z"/>
		<g>
			<path class="st10" d="M832.3,659c-7.4-3.2-24.4-7.8-28.6-8.3c-4.2-0.5-7.4-12-5.1-19.4c1.5-4.9,3.1-9.2,5.4-10.6
				c1.2-0.7,2.6-0.7,4.3,0.4c5.1,3.2,25.4,20.8,25.4,20.8S839.7,662.2,832.3,659z"/>
			<path class="st11" d="M779.7,623.9l24.3-3.2l-5.4,10.6l3.2,16.1l-13.4,2.3c0,0-1.8-2.3,0.5-3.2c2.3-0.9,5.5-2.3,5.5-2.3
				s-6.5-0.9-9.2-1.4c-2.8-0.5-3.2-1.4-3.2-2.8c0-1.4,2.8-2.3,2.8-2.3s-5.1-1.8-5.5-3.2c-0.5-1.4-1.4-3.2-0.5-4.6
				C779.7,628.5,778.3,624.8,779.7,623.9z"/>
		</g>
		<path class="st9" d="M994,721.5c0,0,29.5,84.9-35.7,80c-65.2-4.9-124.2-34.4-129.2-39.4c-4.9-4.9,0,34.4-16,68.9
			c-16,34.4-39.4,120.6-39.4,120.6l-23.4-1.2l27.1-217.7c0,0,1.3-34.2,50.4-30.8c52.9,3.7,102.1,4.9,102.1,4.9L994,721.5z"/>
		<path class="st11" d="M981.6,487.9c0,0-10.6,16.7-22.2,17.6c-11.6,0.9-17.4-26.4-17.4-45c0-18.5,20.3-36.1,22.2-41.4
			c1.9-5.3,22.2,12.3,22.2,28.2C986.4,463.2,981.6,483.4,981.6,487.9z"/>
		<path class="st8" d="M1045.8,536.2c0,0,19.3,22.4-8.8,72.5c-28.1,50.1-40.8,77.8-44.6,78c-3.8,0.2-23.5,0.3-28.5-8.1
			c-5-8.4-9.3-15.8-7.5-20.2c1.8-4.4,43.7-115.9,47.9-126.2C1012.9,511.3,1040,532.3,1045.8,536.2z"/>
		<path class="st12" d="M926.3,531.8l26.8-13.8l49.8-0.9c0,0,25.8,3.7,36.9,27.7c3.8,8.3-20.8,103.9-23.7,120.2
			c-3.7,20.9,22.6,51.5,17.2,57.8c-20,23.3-121.8-17.2-121.8-17.2S907.9,546.6,926.3,531.8z"/>
		<path class="st8" d="M930.9,533.6c0,0,23.1,18.5,4.6,72.9c-18.5,54.4-25.8,84-29.5,84.9c-3.7,0.9-23.1,4.6-29.5-2.8
			c-6.5-7.4-12-13.8-11.1-18.5c0.9-4.6,36.9-104.3,41.5-114.4C911.6,545.6,924.5,530.9,930.9,533.6z"/>
		<path class="st10" d="M999.2,484.4l-3,40.7c0,0,1.5,5.7-11.3,6.8c-17.3,1.5-24.9-5.3-24.9-5.3s9.8-18.8,8.3-44.4
			C966.9,456.5,999.2,484.4,999.2,484.4z"/>
		<path class="st4" d="M969.1,408.3c0,0,22-5.3,43.7,11.3c12.8,9.8,20.3,27.1,13.6,41.4c-6.8,14.3-21.8,33.1-29.4,33.1
			c-7.5,0-24.1-11.3-26.4-15.8c-2.3-4.5-2.3-7.5-3.8-17.3c-1.5-9.8-6.8-6.8-6.8-4.5c0,2.3-3,9-4.5,4.5
			C954.1,456.5,923.2,424.2,969.1,408.3z"/>
		<ellipse class="st4" cx="1016.9" cy="410.6" rx="32.8" ry="31.6"/>
		<path class="st8" d="M890.6,638.2c-4.5,2-52.9,1.2-55.4,4.9c-2.5,3.7-4.9,17.2-4.9,17.2s13.5,18.5,41.8,27.1
			c28.3,8.6,27.1,9.8,40.6-17.2C926.3,643.1,901.7,633.3,890.6,638.2z"/>
		<g>
			<g>
				<path class="st13" d="M1039.1,835.9c4.9,0,12.6-1.1,19.3-7c9.7-8.4,13.9-23.4,12.5-44.5c-0.9-14.3-6.6-28.7-12.5-44
					c-10-25.7-21.3-54.9-15.4-93.4l-11-1.7c-6.4,41.5,6.1,73.5,16,99.2c5.9,15.1,10.9,28.1,11.8,40.7c1.1,17.1-1.8,29.3-8.6,35.3
					c-6.4,5.7-14.4,4.2-14.7,4.1l-2.2,10.9C1034.4,835.5,1036.3,835.9,1039.1,835.9z"/>
			</g>
			<g>
				<g>
					<path class="st14" d="M953.7,924.3l-10.9,16.6L1034,970c0,0,6.1-5.8-16.3-17.5C991.7,938.9,953.7,924.3,953.7,924.3z"/>
					<path class="st14" d="M937.5,924.3l10.9,16.6L857.2,970c0,0-6.1-5.8,16.3-17.5C899.5,938.9,937.5,924.3,937.5,924.3z"/>
				</g>
				<rect x="936.1" y="875.1" class="st14" width="19" height="67.8"/>
				<g>
					<path class="st15" d="M954.9,927.8l-9.3,15.8l78,27.9c0,0,5.2-5.6-13.9-16.7C987.4,941.7,954.9,927.8,954.9,927.8z"/>
					<path class="st15" d="M936.3,927.8l9.3,15.8l-78,27.9c0,0-5.2-5.6,13.9-16.7C903.8,941.7,936.3,927.8,936.3,927.8z"/>
				</g>
				<path class="st16" d="M1014.8,977.7c0,3.7,3,6.6,6.6,6.6c3.7,0,6.6-3,6.6-6.6c0-3.7-3-6.6-6.6-6.6
					C1017.8,971.1,1014.8,974,1014.8,977.7z"/>
				<path class="st16" d="M863.6,977.7c0,3.7,3,6.6,6.6,6.6c3.7,0,6.6-3,6.6-6.6c0-3.7-3-6.6-6.6-6.6
					C866.6,971.1,863.6,974,863.6,977.7z"/>
				<path class="st13" d="M1030.8,977.7c0,3.7,3,6.6,6.6,6.6c3.7,0,6.6-3,6.6-6.6c0-3.7-3-6.6-6.6-6.6
					C1033.8,971.1,1030.8,974,1030.8,977.7z"/>
				<path class="st13" d="M847.6,977.7c0,3.7,3,6.6,6.6,6.6c3.6,0,6.6-3,6.6-6.6c0-3.7-3-6.6-6.6-6.6
					C850.6,971.1,847.6,974,847.6,977.7z"/>
			</g>
			<rect x="938.9" y="850.2" class="st13" width="13.9" height="24.4"/>
			<path class="st13" d="M928.4,837.3c0,7.5,6.1,13.6,13.6,13.6h7.7c7.5,0,13.6-6.1,13.6-13.6l0,0c0-7.5-6.1-13.6-13.6-13.6H942
				C934.5,823.7,928.4,829.8,928.4,837.3L928.4,837.3z"/>
			<path class="st17" d="M842.3,824.9c-0.3-1.6-0.5-11.6-0.5-13.4c0-11,7.1-19.9,15.8-19.9h176.5c8.7,0,15.8,8.9,15.8,19.9
				c0,1.7-0.2,11.7-0.5,13.4H842.3z"/>
			<path class="st13" d="M1051.5,830.3c0,3.4-2,6.1-4.4,6.1H844.5c-2.4,0-4.4-2.7-4.4-6.1l0,0c0-3.4,2-6.1,4.4-6.1h202.6
				C1049.6,824.2,1051.5,826.9,1051.5,830.3L1051.5,830.3z"/>
			<g>
				<path class="st13" d="M970.2,835.9c4.9,0,12.6-1.1,19.3-7c9.7-8.4,13.9-23.4,12.5-44.5c-0.9-14.3-6.6-28.7-12.5-44
					c-10-25.7-21.3-54.9-15.4-93.4l-11-1.7c-6.4,41.5,6.1,73.5,16,99.2c5.9,15.1,10.9,28.1,11.8,40.7c1.1,17.1-1.8,29.3-8.6,35.3
					c-6.4,5.7-14.4,4.2-14.7,4.1l-2.2,10.9C965.5,835.5,967.4,835.9,970.2,835.9z"/>
			</g>
			<path class="st17" d="M945.5,708.8c35,6.8,71.1,6.8,106.2,0c3.1-0.6,5.7-3.7,5.7-6.7c0-28.8,0-57.5,0-86.3c0-3.1-2.5-5-5.7-4.4
				c-35,6.8-71.1,6.8-106.2,0c-3.1-0.6-5.7,1.3-5.7,4.4c0,28.8,0,57.5,0,86.3C939.8,705.2,942.4,708.2,945.5,708.8z"/>
		</g>
	</g>
</g>
<g>
	<path class="st17" d="M547.5,934.9c0,0-10.1-36-25.9-48.2c-15.8-12.2-27.3-29.5-48.2-37.4c-20.9-7.9-25.9-22.3-18-27.3
		c7.9-5,33.8-19.4,65.4,13.7c31.6,33.1,39.6,59,38.8,89.9C559,956.4,548.9,952.8,547.5,934.9z"/>
	<path class="st18" d="M466.9,827.5c0,0,31.6,9.4,46,20.1c14.4,10.8,41,41,42.4,70.5"/>
</g>
<g>
	<path class="st19" d="M556.1,946.4c0,0,16.3-46,23-60.4c6.7-14.4,5.8-48.9-4.8-62.3c-10.5-13.4-27.8-33.6-20.1-63.3
		c7.7-29.7,3.8-47.9-10.5-36.4c-14.4,11.5-39.6,36.9-40.3,77.7c-0.5,31.2,8.7,49.4,25.9,71.9C543.2,891.7,557.1,925.3,556.1,946.4z"
		/>
	<g>
		<path class="st20" d="M562.6,935.6c0.4-1.9,8.6-46.7-0.1-65.6c-2-4.3-4.7-9.6-7.5-15.1c-9.3-18.2-22-43.2-23.3-60.6
			c-2.1-28,15.4-54.9,15.6-55.2l-2.4-1.6c-0.7,1.1-18.2,28.1-16.1,57c1.3,18,13.7,42.2,23.6,61.7c2.8,5.5,5.5,10.8,7.4,15
			c8.3,18.1,0,63.4-0.1,63.9L562.6,935.6z"/>
	</g>
</g>
<g>
	<path class="st21" d="M620.1,878.1c18.7-3.6,20.1-25.2,5.8-29.5c-14.4-4.3-38.1-3.6-49.6,11.5c-13.3,17.5-18.7,48.9-14.4,71.2
		c4.3,22.3,0-8.6,9.4-23.7C580.6,892.4,604.7,881,620.1,878.1z"/>
	<path class="st22" d="M628.7,860.6c0,0-25.9-5-43.9,12.2c-15.6,14.9-22.3,33.6-25.2,52.7"/>
</g>
<polygon class="st1" points="525.2,990 577,990 585.6,906.6 516.6,906.6 "/>
<path class="st0" d="M964.3,393c0,6.5-5.3,11.8-11.8,11.8H351.7c-6.5,0-11.8-5.3-11.8-11.8V289.4c0-6.5,5.3-11.8,11.8-11.8h600.8
	c6.5,0,11.8,5.3,11.8,11.8V393z"/>
<path class="st19" d="M473.6,277.6H351.7c-6.5,0-11.8,5.3-11.8,11.8V393c0,6.5,5.3,11.8,11.8,11.8h121.9V277.6z"/>
<g>
	<g>
		<line class="st2" x1="508.1" y1="315" x2="729.4" y2="315"/>
		<line class="st2" x1="753.2" y1="315" x2="893.6" y2="315"/>
		<line class="st2" x1="566.6" y1="367.8" x2="595.4" y2="367.8"/>
		<line class="st2" x1="636.9" y1="332.6" x2="725.1" y2="332.6"/>
		<line class="st2" x1="675.5" y1="350.2" x2="725.1" y2="350.2"/>
		<line class="st2" x1="617.3" y1="367.8" x2="725.1" y2="367.8"/>
		<line class="st2" x1="593.1" y1="332.6" x2="613.4" y2="332.6"/>
		<line class="st2" x1="508.8" y1="332.6" x2="573" y2="332.6"/>
		<line class="st2" x1="508.8" y1="350.2" x2="655.9" y2="350.2"/>
		<line class="st2" x1="508.8" y1="367.8" x2="543.6" y2="367.8"/>
		<line class="st2" x1="748" y1="332.6" x2="855.9" y2="332.6"/>
		<line class="st2" x1="782.3" y1="350.2" x2="923" y2="350.1"/>
		<line class="st2" x1="767.6" y1="367.8" x2="855.9" y2="367.8"/>
		<line class="st2" x1="880" y1="332.6" x2="923" y2="332.6"/>
		<line class="st2" x1="743.4" y1="350.2" x2="763.7" y2="350.2"/>
		<line class="st2" x1="747.9" y1="367.8" x2="777.8" y2="367.8"/>
	</g>
</g>
<path class="st0" d="M964.3,239.8c0,6.5-5.3,11.8-11.8,11.8H351.7c-6.5,0-11.8-5.3-11.8-11.8V136.2c0-6.5,5.3-11.8,11.8-11.8h600.8
	c6.5,0,11.8,5.3,11.8,11.8V239.8z"/>
<path class="st23" d="M473.6,124.4H351.7c-6.5,0-11.8,5.3-11.8,11.8v103.6c0,6.5,5.3,11.8,11.8,11.8h121.9V124.4z"/>
<g>
	<g>
		<line class="st2" x1="508.1" y1="161.8" x2="729.4" y2="161.8"/>
		<line class="st2" x1="753.2" y1="161.8" x2="893.6" y2="161.8"/>
		<line class="st2" x1="566.6" y1="214.6" x2="595.4" y2="214.6"/>
		<line class="st2" x1="636.9" y1="179.4" x2="725.1" y2="179.4"/>
		<line class="st2" x1="675.5" y1="197" x2="725.1" y2="197"/>
		<line class="st2" x1="617.3" y1="214.6" x2="725.1" y2="214.6"/>
		<line class="st2" x1="593.1" y1="179.4" x2="613.4" y2="179.4"/>
		<line class="st2" x1="508.8" y1="179.4" x2="573" y2="179.4"/>
		<line class="st2" x1="508.8" y1="197" x2="655.9" y2="197"/>
		<line class="st2" x1="508.8" y1="214.6" x2="543.6" y2="214.6"/>
		<line class="st2" x1="748" y1="179.4" x2="855.9" y2="179.4"/>
		<line class="st2" x1="782.3" y1="197" x2="923" y2="196.9"/>
		<line class="st2" x1="767.6" y1="214.6" x2="855.9" y2="214.6"/>
		<line class="st2" x1="880" y1="179.4" x2="923" y2="179.4"/>
		<line class="st2" x1="743.4" y1="197" x2="763.7" y2="197"/>
		<line class="st2" x1="747.9" y1="214.6" x2="777.8" y2="214.6"/>
	</g>
</g>
<g>
	<path class="st24" d="M440.3,223.6l-66.2-0.3c-0.5,0-1-0.4-1-1c0-0.1,0-0.2,0.1-0.3c0.7-2.1,2.9-4.8,5.4-6.6
		c3.1-2.3,6.9-2.3,9.7-2.3c1,0,2.3,0,2.6-0.2c2.4-2.6,6.5-4.5,11.3-5.3c5-0.8,10.2-0.3,14.7,1.3c4.4,1.6,7.5,3.9,9.1,6.6l0.2,0.1
		c0.4,0,0.9,0.1,1.3,0.1c5.8,0.8,10.7,3.1,13.5,6.3c0.3,0.4,0.3,1-0.1,1.4C440.7,223.5,440.5,223.6,440.3,223.6L440.3,223.6
		L440.3,223.6z M375.7,221.3l62.2,0.3c-2.6-2-6.4-3.5-10.5-4c-0.5-0.1-0.9-0.1-1.4-0.1c-0.1,0-0.2,0-0.4-0.1
		c-0.2-0.1-0.4-0.2-0.6-0.3c-0.2-0.1-0.3-0.2-0.4-0.4c-1.3-2.3-4.2-4.5-8.2-5.9c-9.3-3.4-19.9-1-24,3.5c-0.7,0.8-2.1,0.8-4,0.8
		c-2.5,0-5.9,0-8.6,2C378.1,218.1,376.6,219.8,375.7,221.3L375.7,221.3L375.7,221.3z M409.6,182.8c-1.7,0-3.1-0.3-4.1-1
		c-3.7-2.5-7.5-11.2-4.8-17.4c0.7-1.8,2-3.4,3.6-5c0.4-0.4,1-0.3,1.4,0.1c0.3,0.4,0.3,1,0,1.3c-1.4,1.4-2.5,2.9-3.1,4.4
		c-1,2.4-1,5.5,0.1,8.7c0.9,2.8,2.5,5.3,4.1,6.3c1.2,0.8,3.5,0.9,5.9,0.3c2.2-0.5,7.5-2.4,10.9-8.5c3.1-5.7,0.4-17.4-0.9-21.9
		c-1.7,2-4,3.6-6.5,4.5c-1.7,0.6-3.4,1.4-4.9,2.2c-0.5,0.2-1.1,0.1-1.3-0.4c-0.2-0.5-0.1-1,0.4-1.3c1.7-0.9,3.4-1.7,5.2-2.3
		c4.5-1.6,6.6-5.3,6.6-5.3c0.3-0.5,0.8-0.6,1.3-0.4c0.2,0.1,0.4,0.3,0.4,0.5c0.2,0.7,5.6,17.4,1.3,25.2c-3.7,6.8-9.7,8.9-12.2,9.5
		C411.9,182.7,410.8,182.8,409.6,182.8L409.6,182.8z"/>
	<path class="st24" d="M406.8,209.1c-0.5,0-0.9-0.4-1-0.8c-0.1-0.9-2.9-23.1,1-31.6c2.7-5.9,11.9-18,12.3-18.5
		c0.3-0.4,0.9-0.5,1.3-0.2c0.4,0.3,0.5,0.9,0.2,1.3l0,0c-0.1,0.1-9.5,12.5-12.1,18.2c-3.7,8-0.9,30.3-0.8,30.6
		c0.1,0.5-0.3,1-0.8,1.1c0,0,0,0,0,0C406.9,209.1,406.8,209.1,406.8,209.1L406.8,209.1L406.8,209.1z M387.2,186.3
		c-2.2,0-5.2-0.6-8.3-2.8c-5.3-4-7.4-16.9-7.5-17.5c-0.1-0.5,0.3-1,0.8-1.1c0.1,0,0.3,0,0.4,0c0,0,4.6,1.1,7.8,1.8
		c1,0.2,2,0.3,2.9,0.4c0.5,0,0.9,0.5,0.9,1c0,0.5-0.5,0.9-1,0.9l0,0c-1-0.1-2.1-0.2-3.3-0.4c-2.1-0.5-4.7-1.1-6.3-1.5
		c0.7,3.4,2.7,12,6.4,14.8c4,3,7.9,2.5,9.4,2.2c1.9-0.4,3-1.3,3.3-1.9c1.2-2.4,0.7-8.5-2.3-11.1c-0.9-0.9-2-1.4-3.4-1.7
		c-0.5-0.1-0.9-0.6-0.8-1.1s0.6-0.9,1.1-0.8c0,0,0.1,0,0.1,0c1.7,0.4,3.1,1,4.3,2.1c1.7,1.5,2.9,4,3.3,6.9c0.4,2.5,0.1,5.1-0.7,6.6
		c-0.7,1.3-2.4,2.4-4.6,2.9C389,186.2,388.1,186.3,387.2,186.3L387.2,186.3z"/>
	<path class="st24" d="M405.7,196.7c-0.3,0-0.7-0.2-0.8-0.5c0-0.1-5-8.6-10.8-13.7c-4.1-3.6-9.4-6.9-9.4-6.9
		c-0.5-0.3-0.6-0.9-0.3-1.3c0.3-0.5,0.9-0.6,1.3-0.3c0.2,0.1,5.5,3.3,9.7,7.1c6,5.4,11,13.9,11.2,14.2c0.3,0.5,0.1,1.1-0.3,1.3
		C406.1,196.6,405.9,196.7,405.7,196.7L405.7,196.7L405.7,196.7z M422.1,197.4c-0.6,0-1.2-0.1-1.8-0.3c-2.4-0.7-4.3-2.8-4.6-4.2
		c-0.5-2.4,1.1-7.1,4.4-8.7c1-0.5,2.2-0.9,3.4-0.9c0.5,0,1,0.4,1,0.9s-0.4,1-0.9,1c-0.9,0-1.8,0.3-2.6,0.7c-1.1,0.5-2,1.7-2.7,3.1
		c-0.7,1.5-0.8,2.8-0.7,3.4c0.1,0.6,1.4,2.2,3.3,2.8c1.4,0.4,2.8,0.1,3.9-0.9c3.2-3,5.9-6.5,7.2-8.2c-1.2-0.3-3-0.6-4.3-0.6
		c-0.5,0-1-0.1-1.4-0.1c-0.5,0-0.9-0.5-0.9-1c0-0.5,0.5-0.9,1-0.9l0,0c0.4,0,0.8,0.1,1.3,0.1c2.3,0.1,6,1,6.1,1
		c0.5,0.1,0.8,0.6,0.7,1.2c0,0.1-0.1,0.2-0.1,0.3c-0.2,0.2-3.8,5.3-8.4,9.7C425,196.8,423.6,197.4,422.1,197.4L422.1,197.4
		L422.1,197.4z"/>
	<path class="st24" d="M406.4,200.1c-0.5,0-1-0.4-1-1c0-0.3,0.1-0.5,0.3-0.7c0.2-0.2,5.5-5.2,10.9-7.8c3.9-1.8,8.4-2.5,8.6-2.5
		c0.5-0.1,1,0.3,1.1,0.8c0.1,0.5-0.3,1-0.8,1.1c-0.1,0-4.5,0.7-8.1,2.4c-5.2,2.4-10.4,7.4-10.4,7.4
		C406.9,200,406.6,200.1,406.4,200.1L406.4,200.1L406.4,200.1z"/>
</g>
<g>
	<path class="st24" d="M431.4,330.8c-1.1-11.8-10.8-21.4-22.7-22.2c-1.2-0.1-2.3-0.1-3.5,0c-11.8,0.8-21.6,10.4-22.6,22.2
		c-0.7,7.6,2.1,15,7.7,20.2c3,2.8,4.7,6.7,4.7,10.7v9.5c0,3.1,2.3,5.6,5.3,6c0.9,2.5,3.5,4.7,6.6,4.7c3.2,0,5.7-2.2,6.6-4.7
		c3-0.4,5.3-2.9,5.3-6v-9.5c0-4,1.7-7.9,4.7-10.7C429.2,345.8,432.1,338.4,431.4,330.8L431.4,330.8z M414.9,363.2v1.5h-15.8v-1.5
		H414.9z M402.4,338.1h-2c-1.1,0-2-0.9-2-2c0-1.1,0.9-2,2-2c1.1,0,2,0.9,2,2V338.1z M405.4,341.1h3.2v19.1h-3.2V341.1z M399.1,369.2
		v-1.5h15.8v1.5C414.9,369.2,399.1,369.2,399.1,369.2z M407,377.9c-1.1,0-2.1-0.8-2.6-1.6h5.3C409.2,377.1,408.2,377.9,407,377.9
		L407,377.9z M412.9,373.2H412c-0.2,0-0.3,0-0.5,0.1h-9.1c-0.2,0-0.3-0.1-0.5-0.1h-0.9c-0.7,0-1.4-0.4-1.7-1h15.3
		C414.3,372.8,413.7,373.2,412.9,373.2L412.9,373.2z M420.9,348c-3.4,3.2-5.5,7.6-5.9,12.2h-3.4v-19.1h2c2.7,0,5-2.2,5-5s-2.2-5-5-5
		c-2.7,0-5,2.2-5,5v2h-3.2v-2c0-2.7-2.2-5-5-5c-2.7,0-5,2.2-5,5s2.2,5,5,5h2v19.1H399c-0.4-4.6-2.5-9-5.9-12.2
		c-4.7-4.4-7.1-10.5-6.5-16.9c0.9-9.9,9-17.9,18.9-18.5c0.5,0,1,0,1.5,0s1,0,1.5,0c9.9,0.7,18.1,8.7,18.9,18.5
		C428,337.5,425.6,343.7,420.9,348z M411.6,338.1v-2c0-1.1,0.9-2,2-2c1.1,0,2,0.9,2,2c0,1.1-0.9,2-2,2H411.6z"/>
	<path class="st24" d="M407,302c0.9,0,1.6-0.7,1.6-1.6v-6.9c0-0.9-0.7-1.6-1.6-1.6s-1.6,0.7-1.6,1.6v7
		C405.4,301.3,406.1,302,407,302L407,302z"/>
	<path class="st24" d="M431.3,299.9c-0.7-0.5-1.7-0.3-2.2,0.4l-4.1,5.6c-0.5,0.7-0.4,1.7,0.3,2.2c0.7,0.5,1.7,0.4,2.2-0.4l4.1-5.6
		C432.2,301.4,432.1,300.4,431.3,299.9z"/>
	<path class="st24" d="M438.7,324.9l6.6-2.2c0.8-0.3,1.3-1.2,1-2c-0.3-0.8-1.2-1.3-2-1l-6.6,2.1c-0.8,0.3-1.3,1.2-1,2
		C436.9,324.7,437.8,325.1,438.7,324.9z"/>
	<path class="st24" d="M445.1,344.3l-6.6-2.2c-0.8-0.3-1.7,0.2-2,1c-0.3,0.8,0.2,1.7,1,2l6.6,2.1c0.8,0.3,1.7-0.2,2-1
		C446.4,345.5,446,344.6,445.1,344.3z"/>
	<path class="st24" d="M427.2,359.2c-0.5-0.7-1.5-0.9-2.2-0.4c-0.7,0.5-0.9,1.5-0.4,2.2l4.1,5.6c0.5,0.7,1.5,0.9,2.2,0.4
		c0.7-0.5,0.9-1.5,0.3-2.2C431.3,364.8,427.2,359.2,427.2,359.2z"/>
	<path class="st24" d="M388.2,358.5c-0.7-0.5-1.7-0.4-2.2,0.4l-4.1,5.6c-0.5,0.7-0.4,1.7,0.4,2.2c0.7,0.5,1.7,0.4,2.2-0.4l4.1-5.6
		C389,360,388.9,359,388.2,358.5z"/>
	<path class="st24" d="M376.9,342.8c-0.3-0.8-1.2-1.3-2-1l-6.6,2.1c-0.8,0.3-1.3,1.2-1,2c0.3,0.8,1.2,1.3,2,1l6.6-2.2
		C376.7,344.5,377.2,343.6,376.9,342.8C376.9,342.8,376.9,342.8,376.9,342.8z"/>
	<path class="st24" d="M376,321.4l-6.6-2.1c-0.8-0.3-1.7,0.2-2,1c-0.3,0.8,0.2,1.7,1,2l6.6,2.2c0.8,0.3,1.7-0.2,2-1
		C377.3,322.6,376.9,321.7,376,321.4z"/>
	<path class="st24" d="M386.3,307.5c0.5,0.7,1.5,0.9,2.2,0.4c0.7-0.5,0.9-1.5,0.4-2.2l-4.1-5.6c-0.5-0.7-1.5-0.9-2.2-0.4
		s-0.9,1.5-0.4,2.2C382.3,301.9,386.3,307.5,386.3,307.5z"/>
</g>
<path class="st24" d="M445.6,476.1c-3.1-5.4-12.5-6.3-24.2-3.2c-0.5-1.9-1.1-3.6-1.8-5.3c1.2-1.1,2-2.7,2-4.5c0-3.3-2.7-6-6-6
	c-0.7,0-1.4,0.1-2.1,0.4c-2.1-2.2-4.5-3.4-6.9-3.4c-5.7,0-10.8,6.5-14.1,16.5c-11.6-3-21-2.1-24,3.3c-3.2,5.6,1.1,14.6,10.2,23.5
	c-1.5,1.6-2.9,3.1-4.2,4.7c-1.6-0.5-3.4-0.4-4.9,0.5c-2.9,1.6-3.8,5.3-2.2,8.2c0.4,0.6,0.8,1.2,1.4,1.6c-0.8,2.9-0.7,5.6,0.5,7.7
	c3,5.1,11.7,6.2,22.6,3.6c3.3,11.1,8.6,18.4,14.6,18.4c6.4,0,12.1-8.2,15.2-20.6c1.6,0.4,3.2,0.7,4.7,0.9c0.3,1.6,1.3,3.1,2.9,4
	c2.9,1.7,6.5,0.7,8.2-2.2c0.4-0.6,0.6-1.3,0.7-2c3-0.8,5.2-2.2,6.4-4.3c2.8-4.9-0.2-12.6-7.3-20.5
	C445.2,489.3,448.6,481.2,445.6,476.1L445.6,476.1z M443,477.6c2.1,3.6-0.7,10.3-7.6,17.7c-3.2-3.3-7.1-6.5-11.5-9.7
	c-0.4-3.5-1-6.8-1.8-9.9C432.9,473,440.9,473.8,443,477.6z M415,511.1c-1.9,1.1-3.8,2.1-5.6,3c-3.3-1.4-6.7-3.2-10.2-5.2
	c-2.6-1.5-5-3.1-7.3-4.6c-0.1-2-0.2-4.1-0.2-6.2c0-2.7,0.1-5.3,0.3-7.9c2.5-1.8,5.2-3.5,8-5.1c3.2-1.8,6.3-3.4,9.3-4.8
	c1.6,0.8,3.2,1.7,4.8,2.6c2.5,1.4,4.8,2.9,6.9,4.4c0.4,3.4,0.6,7,0.6,10.8c0,3.1-0.1,6.2-0.4,9.1C419.3,508.5,417.2,509.9,415,511.1
	L415,511.1z M420.9,511c-0.3,2.4-0.7,4.7-1.2,6.8c-2.1-0.6-4.4-1.4-6.7-2.3c1.1-0.6,2.3-1.2,3.5-1.9C418,512.8,419.5,512,420.9,511z
	 M405.9,515.8c-4.1,1.9-8.1,3.3-11.7,4.3c-0.9-3.6-1.6-7.6-2-12c1.8,1.2,3.6,2.3,5.5,3.4C400.5,513.1,403.2,514.6,405.9,515.8z
	 M388.8,502.1c-2.1-1.5-3.9-3.1-5.7-4.6c1.7-1.6,3.6-3.2,5.7-4.8c-0.1,1.8-0.1,3.7-0.1,5.5C388.7,499.5,388.7,500.8,388.8,502.1z
	 M392.4,486.4c0.5-4.4,1.3-8.5,2.3-12.1c3.5,1.1,7.3,2.5,11.3,4.3c-2.4,1.2-4.9,2.5-7.4,3.9C396.4,483.8,394.3,485.1,392.4,486.4
	L392.4,486.4z M412.9,478.8c2.2-0.9,4.4-1.6,6.4-2.3c0.5,2.1,0.9,4.4,1.3,6.9c-1.6-1-3.2-2.1-5-3
	C414.8,479.8,413.9,479.3,412.9,478.8z M424.4,489.7c3.5,2.6,6.5,5.2,9,7.8c-2.5,2.5-5.5,5-8.9,7.5c0.1-2.2,0.2-4.5,0.2-6.8
	C424.7,495.2,424.6,492.4,424.4,489.7L424.4,489.7z M415.7,460.1c1.6,0,3,1.4,3,3c0,1.7-1.4,3-3,3s-3-1.3-3-3
	C412.7,461.5,414.1,460.1,415.7,460.1z M406.7,457.1c1.5,0,3,0.7,4.4,2.1c-0.9,1.1-1.4,2.4-1.4,3.9c0,3.3,2.7,6,6,6
	c0.5,0,0.9,0,1.3-0.1c0.6,1.5,1.1,3,1.6,4.7c-2.9,0.9-6,2-9.1,3.4c-4.8-2.4-9.5-4.2-14-5.6C398.5,462.5,402.7,457.1,406.7,457.1z
	 M371.2,475.5c2.2-3.8,10-4.6,20.6-1.9c-1.2,4.5-2.2,9.6-2.6,15.1c-3,2.2-5.7,4.5-8.2,6.7C372.5,487.2,368.9,479.4,371.2,475.5z
	 M370.1,509.3c-0.8-1.4-0.3-3.3,1.1-4.1c1.4-0.8,3.3-0.3,4.1,1.1c0.8,1.4,0.3,3.3-1.1,4.1C372.8,511.3,371,510.8,370.1,509.3z
	 M372,518.6c-0.7-1.3-0.8-3-0.4-4.9c1.4,0.2,2.8,0.1,4.1-0.7c2.9-1.7,3.9-5.3,2.2-8.2c-0.2-0.4-0.5-0.8-0.8-1.1
	c1.1-1.4,2.4-2.8,3.9-4.3c2.4,2.2,5.1,4.4,8,6.4c0.4,5.4,1.2,10.4,2.3,15C381.4,523.2,374.1,522.3,372,518.6L372,518.6z
	 M406.7,539.1c-4.2,0-8.8-6.1-11.8-16.1c4.6-1.3,9.5-3.2,14.6-5.6c3.3,1.4,6.5,2.5,9.5,3.4C416.1,532.2,411.2,539.1,406.7,539.1
	L406.7,539.1z M435.1,522.8c-0.8,1.4-2.7,1.9-4.1,1.1c-1.4-0.8-1.9-2.7-1.1-4.1c0.8-1.4,2.7-1.9,4.1-1.1
	C435.4,519.5,435.9,521.3,435.1,522.8z M442.2,516.5c-0.7,1.3-2.1,2.2-4,2.8c-0.5-1.3-1.4-2.5-2.6-3.2c-2.9-1.7-6.5-0.7-8.2,2.2
	c-0.2,0.4-0.4,0.8-0.5,1.2c-1.3-0.2-2.7-0.5-4.2-0.8c0.7-3.1,1.2-6.3,1.5-9.8c4.3-3,8.1-6.1,11.3-9.2
	C441.7,506.7,444.2,513,442.2,516.5L442.2,516.5z"/>
</svg>
