<?xml version="1.0" encoding="utf-8"?>
<!-- Generator: Adobe Illustrator 27.2.0, SVG Export Plug-In . SVG Version: 6.00 Build 0)  -->
<svg version="1.1" id="Layer_1" xmlns="http://www.w3.org/2000/svg" xmlns:xlink="http://www.w3.org/1999/xlink" x="0px" y="0px"
	 viewBox="0 0 94.8 94.8" style="enable-background:new 0 0 94.8 94.8;" xml:space="preserve">
<style type="text/css">
	.st0{fill:#FFFFFF;}
</style>
<path class="st0" d="M47.4,0C21.3,0,0,21.3,0,47.4s21.3,47.4,47.4,47.4s47.4-21.3,47.4-47.4S73.5,0,47.4,0L47.4,0z M65.8,50.4
	L38.7,64c-0.5,0.2-1,0.4-1.5,0.4c-0.6,0-1.2-0.2-1.8-0.5c-1-0.6-1.6-1.7-1.6-2.9V33.8c0-1.2,0.6-2.3,1.6-2.9c1-0.6,2.2-0.7,3.3-0.1
	l27.1,13.5c1.1,0.6,1.9,1.7,1.9,3S67,49.8,65.8,50.4L65.8,50.4z"/>
</svg>
