<?xml version="1.0" encoding="UTF-8"?>
<svg id="Layer_2" data-name="Layer 2" xmlns="http://www.w3.org/2000/svg" xmlns:xlink="http://www.w3.org/1999/xlink" viewBox="0 0 20.57 22.58">
  <defs>
    <style>
      .cls-1 {
        clip-path: url(#clippath);
      }

      .cls-2 {
        fill: none;
      }

      .cls-3 {
        fill: url(#linear-gradient);
      }
    </style>
    <clipPath id="clippath">
      <path id="Layer_1-2" data-name="Layer 1-2" class="cls-2" d="m20.29,22.58l-19.5-.1c-.16,0-.28-.13-.28-.29,0-.03,0-.06.02-.09.22-.63.87-1.41,1.6-1.94.92-.67,2.04-.68,2.86-.69.28,0,.67,0,.76-.06.7-.76,1.92-1.33,3.33-1.56,1.47-.24,3.02-.1,4.35.4,1.29.48,2.21,1.15,2.68,1.93l.07.03c.13.01.26.03.38.04,1.7.22,3.15.9,3.97,1.85.1.12.09.3-.03.4-.05.05-.12.07-.19.07h0Zm-19.05-.67l18.33.09c-.76-.59-1.87-1.02-3.11-1.19-.13-.02-.27-.03-.41-.04-.04,0-.07-.01-.1-.03-.06-.03-.12-.06-.18-.09-.05-.03-.1-.07-.13-.12-.37-.69-1.23-1.31-2.42-1.75-2.73-1.01-5.86-.29-7.07,1.02-.21.23-.61.23-1.17.24-.74,0-1.75.01-2.53.58-.49.35-.95.85-1.22,1.3h0Zm10.01-11.36c-.49,0-.91-.1-1.2-.3-1.1-.75-2.21-3.29-1.42-5.13.22-.52.57-1.02,1.05-1.48.12-.11.3-.1.4.02.1.11.1.28,0,.39-.42.41-.73.84-.92,1.29-.3.71-.3,1.62.02,2.57.27.82.74,1.55,1.2,1.86.34.23,1.02.27,1.73.1.64-.15,2.22-.71,3.22-2.52.93-1.69.1-5.12-.27-6.45-.51.6-1.16,1.06-1.9,1.33-.5.18-.99.4-1.46.65-.14.07-.31.02-.38-.12-.07-.14-.02-.3.11-.38.49-.27,1.01-.5,1.54-.69,1.33-.48,1.95-1.55,1.96-1.56.08-.14.25-.19.39-.11.06.03.11.09.13.16.07.21,1.66,5.12.39,7.44-1.1,2.01-2.87,2.63-3.58,2.8-.32.08-.65.12-.98.12h0Zm-.83,7.76c-.14,0-.26-.11-.28-.25-.04-.28-.86-6.81.3-9.32.8-1.73,3.51-5.31,3.62-5.47.09-.12.27-.15.4-.05s.15.27.05.4h0s-2.79,3.69-3.56,5.36c-1.09,2.36-.26,8.95-.25,9.01.02.16-.09.3-.25.32h0s-.02,0-.04,0h0Zm-5.78-6.74c-.65,0-1.53-.16-2.43-.83C.63,9.57.03,5.75,0,5.59c-.02-.15.08-.3.24-.32.04,0,.07,0,.11,0,.01,0,1.34.32,2.29.54.29.07.59.09.87.11.16,0,.28.15.27.3s-.15.28-.3.27h0c-.3-.02-.63-.05-.96-.12-.62-.14-1.39-.33-1.87-.44.2,1.01.79,3.54,1.9,4.37,1.19.88,2.33.75,2.77.65.57-.13.88-.39.97-.57.37-.7.21-2.49-.67-3.29-.28-.25-.6-.41-1.01-.49-.16-.02-.27-.16-.24-.32s.16-.27.32-.24c.01,0,.03,0,.04,0,.51.1.92.3,1.28.63.5.46.85,1.18.99,2.03.12.75.04,1.49-.19,1.94-.2.39-.71.71-1.35.86-.26.06-.53.09-.8.09h0Zm5.46,3.07c-.1,0-.2-.05-.25-.14-.01-.02-1.47-2.52-3.18-4.05-1.2-1.07-2.77-2.02-2.78-2.03-.13-.08-.18-.26-.1-.39.08-.13.26-.18.39-.1.07.04,1.63.98,2.87,2.09,1.78,1.59,3.23,4.08,3.29,4.19.08.14.03.31-.1.39-.04.03-.09.04-.14.04h0Zm4.84.22c-.18,0-.36-.03-.53-.08-.71-.22-1.25-.81-1.35-1.23-.15-.7.32-2.08,1.29-2.57.31-.16.65-.25,1-.27.16,0,.29.11.3.27s-.11.29-.27.3c-.27.01-.53.08-.77.21-.31.16-.6.49-.79.93s-.23.82-.19,1.01c.04.19.42.64.96.81.43.13.81.04,1.14-.27.93-.88,1.74-1.9,2.13-2.42-.36-.08-.89-.17-1.27-.19-.15,0-.29-.02-.4-.03-.16-.01-.27-.15-.26-.31.01-.16.15-.27.31-.26h0c.11,0,.24.02.37.03.69.03,1.76.29,1.8.3.15.04.25.19.21.34,0,.03-.02.07-.04.09-.04.06-1.11,1.57-2.46,2.86-.34.32-.74.49-1.17.49h0Zm-4.64.8c-.16,0-.28-.13-.28-.28,0-.08.03-.15.09-.2.07-.06,1.61-1.54,3.23-2.3,1.14-.54,2.49-.74,2.55-.74.16-.02.3.09.32.25.02.15-.09.29-.24.31-.02,0-1.33.2-2.39.69-1.53.72-3.06,2.18-3.07,2.19-.05.05-.12.08-.2.08h0Z"/>
    </clipPath>
    <linearGradient id="linear-gradient" x1="22.28" y1="-715.81" x2="-1.72" y2="-691.81" gradientTransform="translate(0 -692.52) scale(1 -1)" gradientUnits="userSpaceOnUse">
      <stop offset="0" stop-color="#0986bf"/>
      <stop offset="1" stop-color="#45f063"/>
    </linearGradient>
  </defs>
  <g id="Layer_2-2" data-name="Layer 2">
    <g class="cls-1">
      <rect class="cls-3" x="-1.72" y="-.71" width="24" height="24"/>
    </g>
  </g>
</svg>