<?xml version="1.0" encoding="utf-8"?>
<!-- Generator: Adobe Illustrator 27.2.0, SVG Export Plug-In . SVG Version: 6.00 Build 0)  -->
<svg version="1.1" xmlns="http://www.w3.org/2000/svg" xmlns:xlink="http://www.w3.org/1999/xlink" x="0px" y="0px"
	 viewBox="0 0 100 55.7" style="enable-background:new 0 0 100 55.7;" xml:space="preserve">
<style type="text/css">
	.st0{fill:#FFFFFF;}
</style>
<g id="Layer_2">
</g>
<g id="Layer_1">
	<path class="st0" d="M97.6,20.7h1.5V0H73.6l-0.4,1c-0.3,0.8-1.1,1.4-2,1.4s-1.7-0.6-2-1.4l-0.4-1h-68v20.8h1.5h0.1
		c3.9,0,7.1,3.2,7.1,7.1S6.3,35,2.4,35H0.7v20.7h68l0.4-1c0.3-0.8,1.1-1.4,2-1.4s1.7,0.6,2,1.4l0.4,1H99V34.9h-1.5
		c-3.9,0-7.1-3.2-7.1-7.1S93.7,20.7,97.6,20.7z M71.3,50.9c-1.2,0-2.1-0.9-2.1-2.1s0.9-2.1,2.1-2.1s2.1,0.9,2.1,2.1
		S72.4,50.9,71.3,50.9z M71.3,44.9c-1.2,0-2.1-0.9-2.1-2.1c0-1.2,0.9-2.1,2.1-2.1s2.1,0.9,2.1,2.1S72.4,44.9,71.3,44.9z M71.3,38.9
		c-1.2,0-2.1-0.9-2.1-2.1c0-1.2,0.9-2.1,2.1-2.1s2.1,0.9,2.1,2.1C73.4,38,72.4,38.9,71.3,38.9z M71.3,32.9c-1.2,0-2.1-0.9-2.1-2.1
		c0-1.2,0.9-2.1,2.1-2.1s2.1,0.9,2.1,2.1C73.4,32,72.4,32.9,71.3,32.9z M71.3,26.9c-1.2,0-2.1-0.9-2.1-2.1c0-1.2,0.9-2.1,2.1-2.1
		s2.1,0.9,2.1,2.1C73.4,26,72.4,26.9,71.3,26.9z M71.3,20.9c-1.2,0-2.1-0.9-2.1-2.1c0-1.2,0.9-2.1,2.1-2.1s2.1,0.9,2.1,2.1
		C73.4,20,72.4,20.9,71.3,20.9z M71.3,14.9c-1.2,0-2.1-0.9-2.1-2.1c0-1.2,0.9-2.1,2.1-2.1s2.1,0.9,2.1,2.1
		C73.4,14,72.4,14.9,71.3,14.9z M71.3,8.9c-1.2,0-2.1-0.9-2.1-2.1s0.9-2.1,2.1-2.1s2.1,0.9,2.1,2.1S72.4,8.9,71.3,8.9z"/>
</g>
</svg>
